<svg width="24" height="24" viewBox="0 0 24 24" fill="none" xmlns="http://www.w3.org/2000/svg">
<path d="M19 3H5C3.89543 3 3 3.89543 3 5V19C3 20.1046 3.89543 21 5 21H19C20.1046 21 21 20.1046 21 19V5C21 3.89543 20.1046 3 19 3Z" stroke="black" stroke-width="2" stroke-linecap="round" stroke-linejoin="round"/>
<path d="M8.13317 16.4993C7.85663 16.0212 7.2449 15.8579 6.76684 16.1344C6.28878 16.411 6.12541 17.0227 6.40196 17.5007L8.13317 16.4993ZM10 14.2676L9.08502 13.8641C8.87918 14.3308 9.05769 14.8777 9.49927 15.1332L10 14.2676ZM7 11C6.44772 11 6 11.4477 6 12C6 12.5523 6.44772 13 7 13V11ZM11 12L11.915 12.4035C12.0514 12.0942 12.0223 11.737 11.8377 11.4539C11.6531 11.1707 11.338 11 11 11V12ZM10 16C10 16.5523 9.55228 17 9 17V19C10.6569 19 12 17.6569 12 16H10ZM9 17C8.63112 17 8.30758 16.8008 8.13317 16.4993L6.40196 17.5007C6.91916 18.3948 7.88832 19 9 19V17ZM9.49927 15.1332C9.80078 15.3076 10 15.6311 10 16H12C12 14.8883 11.3948 13.9192 10.5007 13.402L9.49927 15.1332ZM7 13H11V11H7V13ZM10.085 11.5965L9.08502 13.8641L10.915 14.6711L11.915 12.4035L10.085 11.5965Z" fill="black"/>
<path d="M18 16H19C19 15.4477 18.5523 15 18 15V16ZM17 15C16.4477 15 16 15.4477 16 16C16 16.5523 16.4477 17 17 17V15ZM16.8668 13.5007C17.1434 13.9788 17.7551 14.1421 18.2332 13.8656C18.7112 13.5891 18.8746 12.9773 18.598 12.4993L16.8668 13.5007ZM17 16C17 16.5523 16.5523 17 16 17V19C17.6569 19 19 17.6569 19 16H17ZM16 17C15.4477 17 15 16.5523 15 16H13C13 17.6569 14.3431 19 16 19V17ZM15 14C15 13.4477 15.4477 13 16 13V11C14.3431 11 13 12.3431 13 14H15ZM15 16V14H13V16H15ZM18 15H17V17H18V15ZM16 13C16.3689 13 16.6924 13.1992 16.8668 13.5007L18.598 12.4993C18.0808 11.6052 17.1117 11 16 11V13Z" fill="black"/>
</svg>
