<svg width="24" height="24" viewBox="0 0 24 24" fill="none" xmlns="http://www.w3.org/2000/svg">
<circle cx="12" cy="5" r="2" stroke="black" stroke-width="2"/>
<rect x="10" y="10" width="4" height="6" stroke="black" stroke-width="2" stroke-linejoin="round"/>
<path d="M13.6286 9.07152C13.1158 9.27664 12.8664 9.85861 13.0715 10.3714C13.2766 10.8842 13.8586 11.1336 14.3714 10.9285L13.6286 9.07152ZM19.3714 8.92848C19.8842 8.72336 20.1336 8.14139 19.9285 7.62861C19.7234 7.11583 19.1414 6.86641 18.6286 7.07152L19.3714 8.92848ZM5.37139 7.07152C4.85861 6.86641 4.27664 7.11583 4.07152 7.62861C3.86641 8.14139 4.11583 8.72336 4.62861 8.92848L5.37139 7.07152ZM9.62862 10.9285C10.1414 11.1336 10.7234 10.8842 10.9285 10.3714C11.1336 9.85861 10.8842 9.27664 10.3714 9.07152L9.62862 10.9285ZM15 16C15 15.4477 14.5523 15 14 15C13.4477 15 13 15.4477 13 16H15ZM13 21C13 21.5523 13.4477 22 14 22C14.5523 22 15 21.5523 15 21H13ZM11 16C11 15.4477 10.5523 15 10 15C9.44772 15 9.00001 15.4477 9.00001 16H11ZM9.00001 21C9.00001 21.5523 9.44772 22 10 22C10.5523 22 11 21.5523 11 21H9.00001ZM14.3714 10.9285L19.3714 8.92848L18.6286 7.07152L13.6286 9.07152L14.3714 10.9285ZM4.62861 8.92848L9.62862 10.9285L10.3714 9.07152L5.37139 7.07152L4.62861 8.92848ZM13 16V21H15V16H13ZM9.00001 16V21H11V16H9.00001Z" fill="black"/>
</svg>
