<svg width="24" height="24" viewBox="0 0 24 24" fill="none" xmlns="http://www.w3.org/2000/svg">
<path d="M12 22C17.5228 22 22 17.5228 22 12C22 12 14 9 9.5 9C5 9 2 12 2 12C2 17.5228 6.47715 22 12 22Z" stroke="black" stroke-width="2" stroke-linecap="round" stroke-linejoin="round"/>
<path d="M3.00772 5.87597C2.93922 6.42399 3.32795 6.92378 3.87597 6.99228C4.42399 7.06078 4.92378 6.67205 4.99228 6.12403L3.00772 5.87597ZM11.1592 5.5414C11.4582 6.00574 12.0771 6.13977 12.5414 5.84076C13.0057 5.54176 13.1398 4.92294 12.8408 4.4586L11.1592 5.5414ZM4 6C4.99228 6.12403 4.99225 6.12426 4.99222 6.12447C4.99222 6.12452 4.99219 6.12471 4.99218 6.12481C4.99216 6.12501 4.99214 6.12515 4.99213 6.12523C4.99211 6.12539 4.99212 6.12532 4.99216 6.12501C4.99223 6.1244 4.99243 6.12286 4.99276 6.12043C4.99341 6.11556 4.99455 6.10712 4.99622 6.09534C4.99956 6.07178 5.00498 6.03496 5.01272 5.9868C5.02823 5.8903 5.05286 5.74932 5.08836 5.57895C5.16012 5.23447 5.27265 4.78759 5.43633 4.35112C5.60408 3.90379 5.80273 3.52976 6.0182 3.2835C6.22243 3.05011 6.37537 3 6.5 3V1C5.62463 1 4.96507 1.44989 4.51305 1.9665C4.07227 2.47024 3.77092 3.09621 3.56367 3.64888C3.35235 4.21241 3.21488 4.76553 3.13039 5.17105C3.08776 5.37568 3.05771 5.5472 3.03806 5.66945C3.02822 5.73066 3.02095 5.77978 3.01599 5.81481C3.01351 5.83233 3.0116 5.84635 3.01023 5.85662C3.00955 5.86176 3.009 5.86596 3.00858 5.86919C3.00838 5.87081 3.0082 5.87218 3.00806 5.87331C3.00798 5.87388 3.00792 5.87438 3.00787 5.87483C3.00784 5.87505 3.0078 5.87533 3.00779 5.87544C3.00775 5.87571 3.00772 5.87597 4 6ZM6.5 3C7.29563 3 8.23595 3.26779 9.1151 3.74732C9.99424 4.22685 10.7285 4.87246 11.1592 5.5414L12.8408 4.4586C12.1887 3.44601 11.173 2.59162 10.0728 1.99153C8.97264 1.39145 7.70437 1 6.5 1V3Z" fill="black"/>
<path d="M16.4472 1.10557C15.9532 0.858584 15.3526 1.05881 15.1056 1.55279C14.8586 2.04676 15.0588 2.64744 15.5528 2.89443L16.4472 1.10557ZM19.0715 6.87139C19.2766 7.38417 19.8586 7.63359 20.3714 7.42848C20.8842 7.22336 21.1336 6.64139 20.9285 6.12861L19.0715 6.87139ZM15.5528 2.89443C16.4925 3.3643 17.1239 3.79795 17.6351 4.36017C18.1499 4.92652 18.5957 5.68192 19.0715 6.87139L20.9285 6.12861C20.4043 4.81808 19.8501 3.82348 19.1149 3.01483C18.3761 2.20205 17.5075 1.6357 16.4472 1.10557L15.5528 2.89443Z" fill="black"/>
</svg>
