<svg width="24" height="24" viewBox="0 0 24 24" fill="none" xmlns="http://www.w3.org/2000/svg">
<path d="M3 12L3.70711 12.7071C4.09763 12.3166 4.09763 11.6834 3.70711 11.2929L3 12ZM1.70711 9.29289C1.31658 8.90237 0.683417 8.90237 0.292893 9.29289C-0.0976311 9.68342 -0.0976311 10.3166 0.292893 10.7071L1.70711 9.29289ZM0.292893 13.2929C-0.0976311 13.6834 -0.0976311 14.3166 0.292893 14.7071C0.683417 15.0976 1.31658 15.0976 1.70711 14.7071L0.292893 13.2929ZM3.70711 11.2929L1.70711 9.29289L0.292893 10.7071L2.29289 12.7071L3.70711 11.2929ZM1.70711 14.7071L3.70711 12.7071L2.29289 11.2929L0.292893 13.2929L1.70711 14.7071Z" fill="black"/>
</svg>
