<svg width="24" height="24" viewBox="0 0 24 24" fill="none" xmlns="http://www.w3.org/2000/svg">
<path d="M10.2422 10L9.41122 10.5563C9.41548 10.5626 9.41982 10.5689 9.42422 10.5752L10.2422 10ZM13.75 14.9883L14.5827 14.4347C14.5779 14.4274 14.573 14.4202 14.568 14.4131L13.75 14.9883ZM13.7578 10L14.5758 10.5751C14.5802 10.5689 14.5845 10.5626 14.5888 10.5563L13.7578 10ZM10.238 15.0063L9.41995 14.4311C9.41589 14.4369 9.41188 14.4428 9.40793 14.4486L10.238 15.0063ZM5 11.5C4.44772 11.5 4 11.9477 4 12.5C4 13.0523 4.44772 13.5 5 13.5V11.5ZM8 13.5C8.55228 13.5 9 13.0523 9 12.5C9 11.9477 8.55228 11.5 8 11.5V13.5ZM18.5 11C18.5 10.4477 18.0523 10 17.5 10C16.9477 10 16.5 10.4477 16.5 11H18.5ZM16.5 14C16.5 14.5523 16.9477 15 17.5 15C18.0523 15 18.5 14.5523 18.5 14H16.5ZM19 13.5C19.5523 13.5 20 13.0523 20 12.5C20 11.9477 19.5523 11.5 19 11.5V13.5ZM16 11.5C15.4477 11.5 15 11.9477 15 12.5C15 13.0523 15.4477 13.5 16 13.5V11.5ZM6.5 16C4.567 16 3 14.433 3 12.5H1C1 15.5376 3.46243 18 6.5 18V16ZM3 12.5C3 10.567 4.567 9 6.5 9V7C3.46243 7 1 9.46243 1 12.5H3ZM21 12.5C21 14.433 19.433 16 17.5 16V18C20.5376 18 23 15.5376 23 12.5H21ZM17.5 9C19.433 9 21 10.567 21 12.5H23C23 9.46243 20.5376 7 17.5 7V9ZM6.5 9C7.71254 9 8.78166 9.61575 9.41122 10.5563L11.0732 9.44374C10.0883 7.97228 8.40787 7 6.5 7V9ZM17.5 16C16.2836 16 15.2115 15.3803 14.5827 14.4347L12.9173 15.542C13.9009 17.0215 15.586 18 17.5 18V16ZM9.42422 10.5752L12.932 15.5636L14.568 14.4131L11.0602 9.42479L9.42422 10.5752ZM14.5888 10.5563C15.2183 9.61575 16.2875 9 17.5 9V7C15.5921 7 13.9117 7.97228 12.9268 9.44374L14.5888 10.5563ZM9.40793 14.4486C8.77794 15.3864 7.71044 16 6.5 16V18C8.40455 18 10.0824 17.0311 11.0681 15.5639L9.40793 14.4486ZM12.9397 9.42485L9.41995 14.4311L11.0561 15.5814L14.5758 10.5751L12.9397 9.42485ZM5 13.5H8V11.5H5V13.5ZM16.5 11V14H18.5V11H16.5ZM19 11.5H16V13.5H19V11.5Z" fill="black"/>
</svg>
