<svg width="24" height="24" viewBox="0 0 24 24" fill="none" xmlns="http://www.w3.org/2000/svg">
<path d="M11 3C11 2.44772 10.5523 2 10 2C9.44772 2 9 2.44772 9 3H11ZM9 16C9 16.5523 9.44772 17 10 17C10.5523 17 11 16.5523 11 16H9ZM9 3V16H11V3H9Z" fill="black"/>
<path d="M14 16H13C13 16.3603 13.1938 16.6927 13.5073 16.8702C13.8208 17.0477 14.2056 17.0429 14.5145 16.8575L14 16ZM14 10L14.5145 9.14251C14.2056 8.95715 13.8208 8.95229 13.5073 9.1298C13.1938 9.30731 13 9.63973 13 10H14ZM19 13L19.5145 13.8575C19.8157 13.6768 20 13.3513 20 13C20 12.6487 19.8157 12.3232 19.5145 12.1425L19 13ZM15 16V10H13V16H15ZM13.4855 10.8575L18.4855 13.8575L19.5145 12.1425L14.5145 9.14251L13.4855 10.8575ZM18.4855 12.1425L13.4855 15.1425L14.5145 16.8575L19.5145 13.8575L18.4855 12.1425Z" fill="black"/>
</svg>
