<svg width="24" height="24" viewBox="0 0 24 24" fill="none" xmlns="http://www.w3.org/2000/svg">
<path d="M12 1V3" stroke="black" stroke-width="2" stroke-linecap="round" stroke-linejoin="round"/>
<path d="M12 21V23" stroke="black" stroke-width="2" stroke-linecap="round" stroke-linejoin="round"/>
<path d="M1 12H3" stroke="black" stroke-width="2" stroke-linecap="round" stroke-linejoin="round"/>
<path d="M21 12H23" stroke="black" stroke-width="2" stroke-linecap="round" stroke-linejoin="round"/>
<path d="M4.22 19.78L5.64 18.36" stroke="black" stroke-width="2" stroke-linecap="round" stroke-linejoin="round"/>
<path d="M18.36 5.63997L19.78 4.21997" stroke="black" stroke-width="2" stroke-linecap="round" stroke-linejoin="round"/>
<path d="M1 1L8.46447 8.46447M23 23L15.5355 15.5355M8.46447 8.46447C7.55964 9.36929 7 10.6193 7 12C7 14.7614 9.23858 17 12 17C13.3807 17 14.6307 16.4404 15.5355 15.5355M8.46447 8.46447L15.5355 15.5355M12.9999 7.09998C14.9591 7.49762 16.5023 9.04088 16.9 11" stroke="black" stroke-width="2" stroke-linecap="round" stroke-linejoin="round"/>
</svg>
