<svg width="24" height="24" viewBox="0 0 24 24" fill="none" xmlns="http://www.w3.org/2000/svg">
<path d="M4 3L4 21C4 22.1046 4.89543 23 6 23H18C19.1046 23 20 22.1046 20 21V3C20 1.89543 19.1046 1 18 1H6C4.89543 1 4 1.89543 4 3Z" stroke="black" stroke-width="2" stroke-linecap="round" stroke-linejoin="round"/>
<path d="M8 4C7.44772 4 7 4.44772 7 5C7 5.55228 7.44772 6 8 6V4ZM16 6C16.5523 6 17 5.55228 17 5C17 4.44772 16.5523 4 16 4V6ZM16 10C15.4477 10 15 10.4477 15 11C15 11.5523 15.4477 12 16 12V10ZM16.01 12C16.5623 12 17.01 11.5523 17.01 11C17.01 10.4477 16.5623 10 16.01 10V12ZM8 7C7.44772 7 7 7.44772 7 8C7 8.55228 7.44772 9 8 9V7ZM16 9C16.5523 9 17 8.55228 17 8C17 7.44772 16.5523 7 16 7V9ZM8 6H16V4H8V6ZM16 12H16.01V10H16V12ZM8 9H16V7H8V9Z" fill="black"/>
</svg>
