<svg width="24" height="24" viewBox="0 0 24 24" fill="none" xmlns="http://www.w3.org/2000/svg">
<path d="M6 4.63636L6 19.3636C6 20.2674 6.67157 21 7.5 21H16.5C17.3284 21 18 20.2674 18 19.3636V4.63636C18 3.73263 17.3284 3 16.5 3H7.5C6.67157 3 6 3.73263 6 4.63636Z" stroke="black" stroke-width="2" stroke-linecap="round" stroke-linejoin="round"/>
<path d="M18 9C17.4477 9 17 9.44772 17 10C17 10.5523 17.4477 11 18 11V9ZM21 11C21.5523 11 22 10.5523 22 10C22 9.44772 21.5523 9 21 9V11ZM18 5C17.4477 5 17 5.44772 17 6C17 6.55228 17.4477 7 18 7V5ZM21 7C21.5523 7 22 6.55228 22 6C22 5.44772 21.5523 5 21 5V7ZM18 13C17.4477 13 17 13.4477 17 14C17 14.5523 17.4477 15 18 15V13ZM21 15C21.5523 15 22 14.5523 22 14C22 13.4477 21.5523 13 21 13V15ZM3 9C2.44772 9 2 9.44772 2 10C2 10.5523 2.44772 11 3 11V9ZM6 11C6.55228 11 7 10.5523 7 10C7 9.44772 6.55228 9 6 9V11ZM3 5C2.44772 5 2 5.44772 2 6C2 6.55228 2.44772 7 3 7V5ZM6 7C6.55228 7 7 6.55228 7 6C7 5.44772 6.55228 5 6 5V7ZM3 13C2.44772 13 2 13.4477 2 14C2 14.5523 2.44772 15 3 15V13ZM6 15C6.55228 15 7 14.5523 7 14C7 13.4477 6.55228 13 6 13V15ZM18 17C17.4477 17 17 17.4477 17 18C17 18.5523 17.4477 19 18 19V17ZM21 19C21.5523 19 22 18.5523 22 18C22 17.4477 21.5523 17 21 17V19ZM3 17C2.44772 17 2 17.4477 2 18C2 18.5523 2.44772 19 3 19V17ZM6 19C6.55228 19 7 18.5523 7 18C7 17.4477 6.55228 17 6 17V19ZM18 11H21V9H18V11ZM18 7H21V5H18V7ZM18 15H21V13H18V15ZM3 11H6V9H3V11ZM3 7H6V5H3V7ZM3 15H6V13H3V15ZM18 19H21V17H18V19ZM3 19H6V17H3V19Z" fill="black"/>
</svg>
