<svg width="24" height="24" viewBox="0 0 24 24" fill="none" xmlns="http://www.w3.org/2000/svg">
<path d="M21 8L15 8" stroke="black" stroke-width="2" stroke-linecap="round" stroke-linejoin="round"/>
<path d="M3.95001 6.06006L8.54001 14.0001" stroke="black" stroke-width="2" stroke-linecap="round" stroke-linejoin="round"/>
<path d="M21.8 14C21.9311 13.3538 22 12.6849 22 12C22 6.47715 17.5228 2 12 2C10.9548 2 9.94704 2.16035 9 2.4578M14 21.8C13.3538 21.9311 12.6849 22 12 22C6.47715 22 2 17.5228 2 12C2 9.27455 3.09032 6.80375 4.85857 5M11 21.9506L15 15" stroke="black" stroke-width="2" stroke-linecap="round" stroke-linejoin="round"/>
<circle cx="20" cy="20" r="2" stroke="black" stroke-width="2"/>
<path d="M1 1L9.17157 9.17157M15 15L14.8284 14.8284M9.17157 9.17157C8.44772 9.89543 8 10.8954 8 12C8 14.2091 9.79086 16 12 16C13.1046 16 14.1046 15.5523 14.8284 14.8284M9.17157 9.17157L14.8284 14.8284" stroke="black" stroke-width="2" stroke-linecap="round" stroke-linejoin="round"/>
</svg>
