<svg width="24" height="24" viewBox="0 0 24 24" fill="none" xmlns="http://www.w3.org/2000/svg">
<path d="M3.95 6.06006L8.54 14.0001" stroke="black" stroke-width="2" stroke-linecap="round" stroke-linejoin="round"/>
<path d="M21 8L15 8" stroke="black" stroke-width="2" stroke-linecap="round" stroke-linejoin="round"/>
<path d="M1 1L19.0711 19.0711M23 23L19.0711 19.0711M11 21.9506C11.0346 21.9541 11.0692 21.9573 11.1039 21.9604C11.3991 21.9866 11.698 22 12 22C12.6849 22 13.3538 21.9311 14 21.8C15.9591 21.4023 17.7103 20.4319 19.0711 19.0711M11 21.9506C5.94668 21.4489 2 17.1853 2 12C2 9.27455 3.09032 6.80375 4.85857 5M11 21.9506L15 15M21.8 14C21.9311 13.3538 22 12.6849 22 12C22 6.47715 17.5228 2 12 2C10.9548 2 9.94704 2.16035 9 2.4578" stroke="black" stroke-width="2" stroke-linecap="round" stroke-linejoin="round"/>
<path d="M9.17157 9.17163C8.44772 9.89549 8 10.8955 8 12.0001C8 14.2092 9.79086 16.0001 12 16.0001C13.1046 16.0001 14.1046 15.5523 14.8284 14.8285" stroke="black" stroke-width="2" stroke-linecap="round" stroke-linejoin="round"/>
</svg>
