<svg width="24" height="24" viewBox="0 0 24 24" fill="none" xmlns="http://www.w3.org/2000/svg">
<path d="M14.084 2.21746L14.2913 1.2392L14.084 2.21746ZM15.2755 21.4512L15.6029 22.3961L15.2755 21.4512ZM2.54878 8.72451L1.6039 8.39709L2.54878 8.72451ZM1.70711 0.292893C1.31658 -0.0976311 0.683417 -0.0976311 0.292893 0.292893C-0.0976311 0.683417 -0.0976311 1.31658 0.292893 1.70711L1.70711 0.292893ZM22.2929 23.7071C22.6834 24.0976 23.3166 24.0976 23.7071 23.7071C24.0976 23.3166 24.0976 22.6834 23.7071 22.2929L22.2929 23.7071ZM8.34088 1.62355C7.82003 1.80722 7.54669 2.37834 7.73036 2.89919C7.91403 3.42004 8.48516 3.69338 9.00601 3.50971L8.34088 1.62355ZM10.8168 5.03579C10.5977 5.54275 10.831 6.13135 11.338 6.35046C11.845 6.56957 12.4336 6.33622 12.6527 5.82926L10.8168 5.03579ZM14.4067 6.58636C13.9424 6.2874 13.3235 6.42148 13.0246 6.88585C12.7256 7.35022 12.8597 7.96903 13.3241 8.26799L14.4067 6.58636ZM15.4306 10.2401C15.7595 10.6837 16.3859 10.7766 16.8295 10.4477C17.2731 10.1187 17.366 9.49237 17.037 9.04876L15.4306 10.2401ZM20.6688 14.4287C20.5201 14.9606 20.8307 15.5123 21.3626 15.661C21.8945 15.8097 22.4462 15.499 22.5949 14.9671L20.6688 14.4287ZM12 21C7.02944 21 3 16.9706 3 12H1C1 18.0751 5.92487 23 12 23V21ZM12 3C12.6445 3 13.2722 3.06759 13.8766 3.19572L14.2913 1.2392C13.5514 1.08234 12.7848 1 12 1V3ZM13.8766 3.19572C17.9466 4.0585 21 7.67382 21 12H23C23 6.70977 19.2665 2.29385 14.2913 1.2392L13.8766 3.19572ZM14.9481 20.5063C14.0257 20.8259 13.0343 21 12 21V23C13.2601 23 14.4728 22.7877 15.6029 22.3961L14.9481 20.5063ZM3 12C3 10.9657 3.17405 9.97425 3.49366 9.05192L1.6039 8.39709C1.2123 9.52718 1 10.7399 1 12H3ZM3.26552 9.42185C4.19761 8.46382 5.36637 7.73945 6.67567 7.34261L6.09554 5.4286C4.45534 5.92573 2.99484 6.832 1.83203 8.02717L3.26552 9.42185ZM0.292893 1.70711L4.22183 5.63604L5.63604 4.22183L1.70711 0.292893L0.292893 1.70711ZM4.22183 5.63604L5.6785 7.09271L7.09271 5.6785L5.63604 4.22183L4.22183 5.63604ZM3.49366 9.05192C3.94355 7.75359 4.68309 6.58899 5.63604 5.63604L4.22183 4.22183C3.05908 5.38457 2.15472 6.80748 1.6039 8.39709L3.49366 9.05192ZM5.6785 7.09271L10.5882 12.0024L12.0024 10.5882L7.09271 5.6785L5.6785 7.09271ZM4.22183 5.63604L10.5882 12.0024L12.0024 10.5882L5.63604 4.22183L4.22183 5.63604ZM10.5882 12.0024L16.9073 18.3215L18.3215 16.9073L12.0024 10.5882L10.5882 12.0024ZM16.6574 17.3243C16.2605 18.6336 15.5362 19.8024 14.5782 20.7345L15.9728 22.168C17.168 21.0052 18.0743 19.5447 18.5714 17.9045L16.6574 17.3243ZM18.364 19.7782L22.2929 23.7071L23.7071 22.2929L19.7782 18.364L18.364 19.7782ZM18.364 18.364C17.411 19.3169 16.2464 20.0564 14.9481 20.5063L15.6029 22.3961C17.1925 21.8453 18.6154 20.9409 19.7782 19.7782L18.364 18.364ZM9.00601 3.50971C9.94134 3.17988 10.9486 3 12 3V1C10.7189 1 9.48691 1.21942 8.34088 1.62355L9.00601 3.50971ZM12.6527 5.82926C13.1293 4.72653 13.8476 3.7512 14.7416 2.97079L13.4263 1.46412C12.311 2.4378 11.4133 3.65574 10.8168 5.03579L12.6527 5.82926ZM13.3241 8.26799C14.1396 8.79306 14.8539 9.46249 15.4306 10.2401L17.037 9.04876C16.3172 8.07799 15.4255 7.24229 14.4067 6.58636L13.3241 8.26799ZM21 12C21 12.8429 20.8844 13.6572 20.6688 14.4287L22.5949 14.9671C22.8591 14.0221 23 13.0267 23 12H21ZM16.9073 18.3215L16.9976 18.4118L18.4118 16.9976L18.3215 16.9073L16.9073 18.3215ZM16.9976 18.4118L18.364 19.7782L19.7782 18.364L18.4118 16.9976L16.9976 18.4118ZM17.959 16.7375C15.1818 16.0072 12.9928 13.8182 12.2625 11.041L10.3282 11.5497C11.242 15.0244 13.9756 17.758 17.4503 18.6718L17.959 16.7375Z" fill="black"/>
</svg>
