<svg width="24" height="24" viewBox="0 0 24 24" fill="none" xmlns="http://www.w3.org/2000/svg">
<path d="M20 18C15.0294 18 11 13.9706 11 9C11 6.29421 12.1941 3.8673 14.084 2.21746M14.084 2.21746C13.4118 2.07496 12.7146 2 12 2C7.62435 2 3.9051 4.81035 2.54878 8.72451M14.084 2.21746C18.6065 3.17617 22 7.1918 22 12C22 16.3756 19.1897 20.0949 15.2755 21.4512M15.2755 21.4512C16.9561 19.8161 18 17.53 18 15C18 10.0294 13.9706 6 9 6C6.47002 6 4.18387 7.04392 2.54878 8.72451M15.2755 21.4512C14.2493 21.8068 13.1472 22 12 22C6.47715 22 2 17.5228 2 12C2 10.8528 2.19318 9.75072 2.54878 8.72451" stroke="black" stroke-width="2"/>
</svg>
