<svg width="24" height="24" viewBox="0 0 24 24" fill="none" xmlns="http://www.w3.org/2000/svg">
<path d="M14.084 2.21746L14.2913 1.2392L14.084 2.21746ZM2.54878 8.72451L1.6039 8.39709L2.54878 8.72451ZM20.82 13.8011C20.7101 14.3423 21.0598 14.8701 21.601 14.98C22.1423 15.0899 22.6701 14.7402 22.78 14.1989L20.82 13.8011ZM16.9511 14.1099C17.0118 14.6588 17.506 15.0546 18.0549 14.9939C18.6039 14.9333 18.9997 14.4391 18.939 13.8901L16.9511 14.1099ZM14.1989 22.78C14.7402 22.6701 15.0899 22.1423 14.98 21.601C14.8701 21.0598 14.3423 20.7101 13.8011 20.82L14.1989 22.78ZM13.3331 16.4535C13.7446 16.8218 14.3768 16.7868 14.7451 16.3752C15.1135 15.9637 15.0784 15.3315 14.6669 14.9632L13.3331 16.4535ZM12 21C7.02944 21 3 16.9706 3 12H1C1 18.0751 5.92487 23 12 23V21ZM12 9C12 6.59503 13.06 4.43881 14.7416 2.97079L13.4263 1.46412C11.3281 3.29579 10 5.99339 10 9H12ZM12 3C12.6445 3 13.2722 3.06759 13.8766 3.19572L14.2913 1.2392C13.5514 1.08234 12.7848 1 12 1V3ZM13.8766 3.19572C17.9466 4.0585 21 7.67382 21 12H23C23 6.70977 19.2665 2.29385 14.2913 1.2392L13.8766 3.19572ZM3.26552 9.42185C4.72012 7.92677 6.75095 7 9 7V5C6.1891 5 3.64762 6.16107 1.83203 8.02717L3.26552 9.42185ZM3 12C3 10.9657 3.17405 9.97425 3.49366 9.05192L1.6039 8.39709C1.2123 9.52718 1 10.7399 1 12H3ZM3.49366 9.05192C4.71479 5.52791 8.06347 3 12 3V1C7.18523 1 3.09541 4.09279 1.6039 8.39709L3.49366 9.05192ZM21 12C21 12.6177 20.9379 13.22 20.82 13.8011L22.78 14.1989C22.9244 13.4876 23 12.7521 23 12H21ZM9 7C13.1172 7 16.5091 10.111 16.9511 14.1099L18.939 13.8901C18.3862 8.88912 14.148 5 9 5V7ZM13.8011 20.82C13.22 20.9379 12.6177 21 12 21V23C12.7521 23 13.4876 22.9244 14.1989 22.78L13.8011 20.82ZM14.6669 14.9632C13.0287 13.4969 12 11.3692 12 9H10C10 11.9618 11.2889 14.6238 13.3331 16.4535L14.6669 14.9632Z" fill="black"/>
<path d="M18 22L17.1056 21.5528C16.9506 21.8628 16.9671 22.2309 17.1493 22.5257C17.3316 22.8205 17.6534 23 18 23V22ZM22 22V23C22.3466 23 22.6684 22.8205 22.8507 22.5257C23.0329 22.2309 23.0494 21.8628 22.8944 21.5528L22 22ZM20 18L20.8944 17.5528C20.725 17.214 20.3788 17 20 17C19.6212 17 19.275 17.214 19.1056 17.5528L20 18ZM18 23H22V21H18V23ZM22.8944 21.5528L20.8944 17.5528L19.1056 18.4472L21.1056 22.4472L22.8944 21.5528ZM19.1056 17.5528L17.1056 21.5528L18.8944 22.4472L20.8944 18.4472L19.1056 17.5528Z" fill="black"/>
</svg>
