<svg width="24" height="24" viewBox="0 0 24 24" fill="none" xmlns="http://www.w3.org/2000/svg">
<g clip-path="url(#clip0)">
<path d="M14 20H9C7.50348 20.0011 6.03665 19.5824 4.76618 18.7916C3.49572 18.0007 2.47256 16.8693 1.81298 15.526C1.15339 14.1826 0.883824 12.6812 1.03491 11.1924C1.18599 9.70348 1.75166 8.28683 2.66765 7.10338C3.58364 5.91993 4.81321 5.01714 6.21665 4.49759C7.62009 3.97804 9.14113 3.86256 10.6069 4.16428C12.0727 4.46599 13.4245 5.1728 14.5086 6.2044C15.5928 7.23599 16.3659 8.551 16.74 10H18C19.3261 10 20.5979 10.5268 21.5355 11.4645C22.2339 12.1628 22.7044 13.0466 22.899 14" stroke="black" stroke-width="2" stroke-linecap="round" stroke-linejoin="round"/>
<path d="M21 21.7324C21.3036 21.5568 21.5568 21.3036 21.7324 21M19 18.2676C18.6964 18.4432 18.4432 18.6964 18.2676 19" stroke="black" stroke-width="2" stroke-linecap="round"/>
</g>
<defs>
<clipPath id="clip0">
<rect width="24" height="24" fill="white"/>
</clipPath>
</defs>
</svg>
