<svg width="24" height="24" viewBox="0 0 24 24" fill="none" xmlns="http://www.w3.org/2000/svg">
<g clip-path="url(#clip0)">
<path d="M18 20V20ZM18 20C19.3261 20 20.5978 19.4732 21.5355 18.5355C22.4732 17.5979 23 16.3261 23 15C23 13.6739 22.4732 12.4021 21.5355 11.4645C20.5978 10.5268 19.3261 10 18 10H16.74C16.3659 8.551 15.5928 7.23599 14.5086 6.2044C13.4245 5.1728 12.0727 4.46599 10.6069 4.16428C9.14112 3.86256 7.62009 3.97804 6.21665 4.49759C4.81321 5.01714 3.58364 5.91993 2.66765 7.10338C1.75166 8.28683 1.18599 9.70348 1.0349 11.1924C0.88382 12.6812 1.15339 14.1826 1.81297 15.526C2.47256 16.8693 3.49571 18.0007 4.76618 18.7916C5.75186 19.4052 6.85575 19.7947 8 19.938M18 20H16" stroke="black" stroke-width="2" stroke-linecap="round" stroke-linejoin="round"/>
<path d="M13 20C13 19.4477 12.5523 19 12 19C11.4477 19 11 19.4477 11 20H13ZM11 20.01C11 20.5623 11.4477 21.01 12 21.01C12.5523 21.01 13 20.5623 13 20.01H11ZM11 17C11 17.5523 11.4477 18 12 18C12.5523 18 13 17.5523 13 17H11ZM13 13C13 12.4477 12.5523 12 12 12C11.4477 12 11 12.4477 11 13H13ZM11 20V20.01H13V20H11ZM13 17V13H11V17H13Z" fill="black"/>
</g>
<defs>
<clipPath id="clip0">
<rect width="24" height="24" fill="white"/>
</clipPath>
</defs>
</svg>
