<svg width="24" height="24" viewBox="0 0 24 24" fill="none" xmlns="http://www.w3.org/2000/svg">
<path d="M2 8L1.3753 7.21913C1.13809 7.4089 1 7.69622 1 8C1 8.30378 1.13809 8.5911 1.3753 8.78087L2 8ZM7 4H8C8 3.61559 7.77965 3.26522 7.43319 3.0987C7.08672 2.93218 6.67548 2.979 6.37531 3.21913L7 4ZM7 6H6C6 6.55228 6.44772 7 7 7V6ZM13 6H14C14 5.44772 13.5523 5 13 5V6ZM13 10V11C13.5523 11 14 10.5523 14 10H13ZM7 10V9C6.44772 9 6 9.44772 6 10H7ZM7 12L6.37531 12.7809C6.67548 13.021 7.08672 13.0678 7.43319 12.9013C7.77965 12.7348 8 12.3844 8 12H7ZM2.6247 8.78087L7.62469 4.78087L6.37531 3.21913L1.3753 7.21913L2.6247 8.78087ZM6 4V6H8V4H6ZM7 7H13V5H7V7ZM12 6V10H14V6H12ZM13 9H7V11H13V9ZM6 10V12H8V10H6ZM7.62469 11.2191L2.6247 7.21913L1.3753 8.78087L6.37531 12.7809L7.62469 11.2191Z" fill="black"/>
</svg>
