<svg width="24" height="24" viewBox="0 0 24 24" fill="none" xmlns="http://www.w3.org/2000/svg">
<path d="M22 16L22.6247 16.7809C22.8619 16.5911 23 16.3038 23 16C23 15.6962 22.8619 15.4089 22.6247 15.2191L22 16ZM17 20H16C16 20.3844 16.2203 20.7348 16.5668 20.9013C16.9133 21.0678 17.3245 21.021 17.6247 20.7809L17 20ZM17 18H18C18 17.4477 17.5523 17 17 17V18ZM11 18H10C10 18.5523 10.4477 19 11 19V18ZM11 14V13C10.4477 13 10 13.4477 10 14L11 14ZM17 14V15C17.5523 15 18 14.5523 18 14H17ZM17 12L17.6247 11.2191C17.3245 10.979 16.9133 10.9322 16.5668 11.0987C16.2203 11.2652 16 11.6156 16 12H17ZM21.3753 15.2191L16.3753 19.2191L17.6247 20.7809L22.6247 16.7809L21.3753 15.2191ZM18 20V18H16V20H18ZM17 17H11V19H17V17ZM12 18V14L10 14V18H12ZM11 15H17V13H11V15ZM18 14V12H16V14H18ZM16.3753 12.7809L21.3753 16.7809L22.6247 15.2191L17.6247 11.2191L16.3753 12.7809Z" fill="black"/>
</svg>
