<svg width="24" height="24" viewBox="0 0 24 24" fill="none" xmlns="http://www.w3.org/2000/svg">
<path d="M2 8L1.3753 7.21913C1.13809 7.4089 1 7.69622 1 8C1 8.30378 1.13809 8.5911 1.3753 8.78087L2 8ZM7 4H8C8 3.61559 7.77965 3.26522 7.43319 3.0987C7.08672 2.93218 6.67548 2.979 6.37531 3.21913L7 4ZM7 6H6C6 6.55228 6.44772 7 7 7V6ZM13 6H14C14 5.44772 13.5523 5 13 5V6ZM13 10V11C13.5523 11 14 10.5523 14 10H13ZM7 10V9C6.44772 9 6 9.44772 6 10H7ZM7 12L6.37531 12.7809C6.67548 13.021 7.08672 13.0678 7.43319 12.9013C7.77965 12.7348 8 12.3844 8 12H7ZM2.6247 8.78087L7.62469 4.78087L6.37531 3.21913L1.3753 7.21913L2.6247 8.78087ZM6 4V6H8V4H6ZM7 7H13V5H7V7ZM12 6V10H14V6H12ZM13 9H7V11H13V9ZM6 10V12H8V10H6ZM7.62469 11.2191L2.6247 7.21913L1.3753 8.78087L6.37531 12.7809L7.62469 11.2191Z" fill="black"/>
<path d="M22 16L22.6247 16.7809C22.8619 16.5911 23 16.3038 23 16C23 15.6962 22.8619 15.4089 22.6247 15.2191L22 16ZM17 20H16C16 20.3844 16.2203 20.7348 16.5668 20.9013C16.9133 21.0678 17.3245 21.021 17.6247 20.7809L17 20ZM17 18H18C18 17.4477 17.5523 17 17 17V18ZM11 18H10C10 18.5523 10.4477 19 11 19V18ZM11 14V13C10.4477 13 10 13.4477 10 14L11 14ZM17 14V15C17.5523 15 18 14.5523 18 14H17ZM17 12L17.6247 11.2191C17.3245 10.979 16.9133 10.9322 16.5668 11.0987C16.2203 11.2652 16 11.6156 16 12H17ZM21.3753 15.2191L16.3753 19.2191L17.6247 20.7809L22.6247 16.7809L21.3753 15.2191ZM18 20V18H16V20H18ZM17 17H11V19H17V17ZM12 18V14L10 14V18H12ZM11 15H17V13H11V15ZM18 14V12H16V14H18ZM16.3753 12.7809L21.3753 16.7809L22.6247 15.2191L17.6247 11.2191L16.3753 12.7809Z" fill="black"/>
</svg>
