<svg width="24" height="24" viewBox="0 0 24 24" fill="none" xmlns="http://www.w3.org/2000/svg">
<path d="M19 12L19.4472 12.8944C19.786 12.725 20 12.3788 20 12C20 11.6212 19.786 11.275 19.4472 11.1056L19 12ZM5 5L5.44721 4.10557C5.13723 3.95058 4.76909 3.96714 4.47427 4.14935C4.17945 4.33156 4 4.65342 4 5H5ZM5 12H4C4 12.3466 4.17945 12.6684 4.47427 12.8507C4.76909 13.0329 5.13723 13.0494 5.44721 12.8944L5 12ZM4.55279 18.1056C4.05881 18.3526 3.85858 18.9532 4.10557 19.4472C4.35256 19.9412 4.95324 20.1414 5.44721 19.8944L4.55279 18.1056ZM4 5V12H6V5H4ZM19.4472 11.1056L12.4472 7.60557L11.5528 9.39443L18.5528 12.8944L19.4472 11.1056ZM12.4472 7.60557L5.44721 4.10557L4.55279 5.89443L11.5528 9.39443L12.4472 7.60557ZM5.44721 12.8944L12.4472 9.39443L11.5528 7.60557L4.55279 11.1056L5.44721 12.8944ZM18.5528 11.1056L4.55279 18.1056L5.44721 19.8944L19.4472 12.8944L18.5528 11.1056Z" fill="black"/>
</svg>
