<svg width="24" height="24" viewBox="0 0 24 24" fill="none" xmlns="http://www.w3.org/2000/svg">
<path d="M12 2.69L17.66 8.35C18.7793 9.46861 19.5418 10.8941 19.8509 12.4461C20.16 13.998 20.0019 15.6069 19.3965 17.069C18.7912 18.5311 17.7658 19.7808 16.4501 20.6601C15.1344 21.5394 13.5875 22.0087 12.005 22.0087C10.4225 22.0087 8.87559 21.5394 7.55989 20.6601C6.24418 19.7808 5.2188 18.5311 4.61346 17.069C4.00811 15.6069 3.84999 13.998 4.15909 12.4461C4.4682 10.8941 5.23065 9.46861 6.34999 8.35L12 2.69Z" stroke="black" stroke-width="2" stroke-linecap="round" stroke-linejoin="round"/>
<path d="M3 14C3 14.5523 3.44772 15 4 15C4.55228 15 5 14.5523 5 14H3ZM13 14C13 14.5523 13.4477 15 14 15C14.5523 15 15 14.5523 15 14L13 14ZM4 14C5 14 5 14.0005 5 14.0009C5 14.001 5 14.0015 5 14.0017C5 14.0022 5 14.0027 4.99999 14.003C4.99999 14.0037 4.99999 14.0042 4.99999 14.0043C4.99999 14.0046 4.99999 14.0037 5.00002 14.0018C5.00009 13.9979 5.00025 13.9896 5.00067 13.9772C5.00149 13.9523 5.0033 13.9113 5.00722 13.8564C5.01509 13.7463 5.03131 13.5824 5.06452 13.3831C5.13173 12.9799 5.26428 12.4575 5.51943 11.9472C5.77261 11.4408 6.13669 10.9649 6.66408 10.6133C7.18521 10.2659 7.92499 10 9 10V8C7.57502 8 6.4398 8.35912 5.55468 8.9492C4.67581 9.53511 4.10239 10.3092 3.73057 11.0528C3.36072 11.7925 3.18077 12.5201 3.09173 13.0544C3.04682 13.3238 3.02397 13.5506 3.01231 13.7139C3.00646 13.7957 3.00339 13.8621 3.00178 13.9105C3.00097 13.9348 3.00052 13.9545 3.00028 13.9695C3.00016 13.977 3.00009 13.9833 3.00005 13.9884C3.00003 13.991 3.00002 13.9932 3.00001 13.9952C3.00001 13.9961 3 13.997 3 13.9978C3 13.9982 3 13.9988 3 13.999C3 13.9995 3 14 4 14ZM9 10C10.075 10 10.8148 10.2659 11.3359 10.6133C11.8633 10.9649 12.2274 11.4408 12.4806 11.9472C12.7357 12.4575 12.8683 12.9799 12.9355 13.3831C12.9687 13.5824 12.9849 13.7463 12.9928 13.8564C12.9967 13.9113 12.9985 13.9523 12.9993 13.9772C12.9997 13.9896 12.9999 13.9979 13 14.0018C13 14.0037 13 14.0046 13 14.0043C13 14.0042 13 14.0037 13 14.003C13 14.0027 13 14.0022 13 14.0017C13 14.0015 13 14.001 13 14.0009C13 14.0005 13 14 14 14C15 14 15 13.9995 15 13.999C15 13.9988 15 13.9982 15 13.9978C15 13.997 15 13.9961 15 13.9952C15 13.9932 15 13.991 14.9999 13.9884C14.9999 13.9833 14.9998 13.977 14.9997 13.9695C14.9995 13.9545 14.999 13.9348 14.9982 13.9105C14.9966 13.8621 14.9935 13.7957 14.9877 13.7139C14.976 13.5506 14.9532 13.3238 14.9083 13.0544C14.8192 12.5201 14.6393 11.7925 14.2694 11.0528C13.8976 10.3092 13.3242 9.53511 12.4453 8.9492C11.5602 8.35912 10.425 8 9 8V10Z" fill="black"/>
</svg>
