<svg width="24" height="24" viewBox="0 0 24 24" fill="none" xmlns="http://www.w3.org/2000/svg">
<path d="M12 11L11.5528 10.1056C11.214 10.2749 11 10.6212 11 11H12ZM21 12C21 11.4477 20.5523 11 20 11C19.4477 11 19 11.4477 19 12H21ZM8.00002 11L8.70712 11.7071C8.91897 11.4953 9.02468 11.1996 8.99515 10.9014C8.96563 10.6033 8.804 10.3341 8.55472 10.1679L8.00002 11ZM12 4.49999L11.5352 5.38539L12 4.49999ZM8.5 4.49999L8.96483 5.38539L8.5 4.49999ZM10 4.034L10.0798 5.03081L10 4.034ZM4.35963 5.0669C3.84429 4.86829 3.26552 5.12504 3.0669 5.64038C2.86829 6.15571 3.12504 6.73448 3.64037 6.9331L4.35963 5.0669ZM3.64495 9.06515C3.12865 9.26124 2.86906 9.83875 3.06515 10.3551C3.26124 10.8714 3.83875 11.1309 4.35505 10.9348L3.64495 9.06515ZM12 11C11 11 11 11.0006 11 11.0013C11 11.0016 11 11.0022 11 11.0027C11 11.0037 11 11.0047 11 11.0058C11 11.0079 11 11.0102 11.0001 11.0127C11.0001 11.0178 11.0002 11.0236 11.0004 11.0301C11.0006 11.0432 11.0011 11.0592 11.002 11.0781C11.0036 11.1158 11.0067 11.1648 11.0123 11.2237C11.0235 11.3411 11.0449 11.4995 11.0863 11.6857C11.1685 12.0554 11.3333 12.5528 11.6679 13.0547C12.3761 14.1169 13.7087 15 16 15V13C14.2913 13 13.6239 12.3831 13.3321 11.9453C13.1667 11.6972 13.0815 11.4446 13.0387 11.2518C13.0176 11.1567 13.0078 11.0808 13.0033 11.0341C13.0011 11.0109 13.0003 10.9955 13 10.9893C12.9999 10.9862 12.9999 10.9854 12.9999 10.9871C12.9999 10.9879 12.9999 10.9894 13 10.9916C13 10.9926 13 10.9939 13 10.9953C13 10.996 13 10.9967 13 10.9975C13 10.9979 13 10.9985 13 10.9987C13 10.9993 13 11 12 11ZM16 15C18.1541 15 19.4534 14.4608 20.2071 13.7071C20.5793 13.3349 20.7804 12.9459 20.8862 12.6287C20.9385 12.4719 20.9668 12.3346 20.9821 12.2274C20.9898 12.1737 20.9943 12.1271 20.9968 12.089C20.9981 12.0699 20.9989 12.0528 20.9994 12.038C20.9996 12.0305 20.9998 12.0237 20.9999 12.0173C20.9999 12.0142 20.9999 12.0111 21 12.0082C21 12.0068 21 12.0054 21 12.004C21 12.0033 21 12.0023 21 12.002C21 12.001 21 12 20 12C19 12 19 11.999 19 11.9981C19 11.9978 19 11.9968 19 11.9962C19 11.9949 19 11.9937 19 11.9925C19 11.9901 19.0001 11.9878 19.0001 11.9856C19.0002 11.9812 19.0003 11.9771 19.0004 11.9735C19.0006 11.9662 19.0009 11.9604 19.0012 11.9559C19.0018 11.9471 19.0024 11.9435 19.0022 11.9445C19.0019 11.9467 18.999 11.9656 18.9888 11.9963C18.9696 12.0541 18.9207 12.1651 18.7929 12.2929C18.5466 12.5392 17.8459 13 16 13V15ZM20 12C19 12 19 12 19 12C19 12 19 12 19 12C19 12.0001 19 12.0001 19 12.0001C19 12.0001 19 12.0002 19 12.0002C19 12.0002 19 12.0002 19 12.0003C19 12.0003 19 12.0004 19 12.0004C19 12.0005 19 12.0005 19 12.0006C19 12.0006 19 12.0007 19 12.0007C19 12.0008 19 12.0009 19 12.0009C19 12.001 19 12.0011 19 12.0012C19 12.0012 19 12.0013 19 12.0014C19 12.0015 19 12.0016 19 12.0017C19 12.0018 19 12.0019 19 12.002C19 12.0021 19 12.0022 19 12.0023C19 12.0024 19 12.0025 19 12.0026C19 12.0027 19 12.0028 19 12.003C19 12.0031 19 12.0032 19 12.0033C19 12.0035 19 12.0036 19 12.0038C19 12.0039 19 12.004 19 12.0042C19 12.0043 19 12.0045 19 12.0046C19 12.0048 19 12.005 19 12.0051C19 12.0053 19 12.0054 19 12.0056C19 12.0058 19 12.006 19 12.0061C19 12.0063 19 12.0065 19 12.0067C19 12.0069 19 12.0071 19 12.0073C19 12.0075 19 12.0077 19 12.0079C19 12.0081 19 12.0083 19 12.0085C19 12.0087 19 12.0089 19 12.0091C19 12.0094 19 12.0096 19 12.0098C19 12.01 19 12.0103 19 12.0105C19 12.0107 19 12.011 19 12.0112C19 12.0115 19 12.0117 19 12.012C19 12.0122 19 12.0125 19 12.0127C19 12.013 19 12.0133 19 12.0135C19 12.0138 19 12.0141 19 12.0143C19 12.0146 19 12.0149 19 12.0152C19 12.0155 19 12.0158 19 12.016C19 12.0163 19 12.0166 19 12.0169C19 12.0172 19 12.0175 19 12.0178C19 12.0182 19 12.0185 19 12.0188C19 12.0191 19 12.0194 19 12.0198C19 12.0201 19 12.0204 19 12.0207C19 12.0211 19 12.0214 19 12.0218C19 12.0221 19 12.0224 19 12.0228C19 12.0231 19 12.0235 19 12.0239C19 12.0242 19 12.0246 19 12.0249C19 12.0253 19 12.0257 19 12.0261C19 12.0264 19 12.0268 19 12.0272C19 12.0276 19 12.028 19 12.0284C19 12.0287 19 12.0291 19 12.0295C19 12.0299 19 12.0303 19 12.0308C19 12.0312 19 12.0316 19 12.032C19 12.0324 19 12.0328 19 12.0333C19 12.0337 19 12.0341 19 12.0345C19 12.035 19 12.0354 19 12.0359C19 12.0363 19 12.0367 19 12.0372C19 12.0376 19 12.0381 19 12.0386C19 12.039 19 12.0395 19 12.04C19 12.0404 19 12.0409 19 12.0414C19 12.0418 19 12.0423 19 12.0428C19 12.0433 19 12.0438 19 12.0443C19 12.0448 19 12.0453 19 12.0458C19 12.0463 19 12.0468 19 12.0473C19 12.0478 19 12.0483 19 12.0488C19 12.0493 19 12.0499 19 12.0504C19 12.0509 19 12.0515 19 12.052C19 12.0525 19 12.0531 19 12.0536C19 12.0542 19 12.0547 19 12.0553C19 12.0558 19 12.0564 19 12.0569C19 12.0575 19 12.0581 19 12.0586C19 12.0592 19 12.0598 19 12.0604C19 12.0609 19 12.0615 19 12.0621C19 12.0627 19 12.0633 19 12.0639C19 12.0645 19 12.0651 19 12.0657C19 12.0663 19 12.0669 19 12.0675C19 12.0681 19 12.0687 19 12.0694C19 12.07 19 12.0706 19 12.0713C19 12.0719 19 12.0725 19 12.0732C19 12.0738 19 12.0744 19 12.0751C19 12.0757 19 12.0764 19 12.0771C19 12.0777 19 12.0784 19 12.079C19 12.0797 19 12.0804 19 12.0811C19 12.0817 19 12.0824 19 12.0831C19 12.0838 19 12.0845 19 12.0852C19 12.0859 19 12.0866 19 12.0873C19 12.088 19 12.0887 19 12.0894C19 12.0901 19 12.0908 19 12.0915C19 12.0922 19 12.093 19 12.0937C19 12.0944 19 12.0952 19 12.0959C19 12.0966 19 12.0974 19 12.0981C19 12.0989 19 12.0996 19 12.1004C19 12.1011 19 12.1019 19 12.1027C19 12.1034 19 12.1042 19 12.105C19 12.1057 19 12.1065 19 12.1073C19 12.1081 19 12.1089 19 12.1097C19 12.1105 19 12.1113 19 12.1121C19 12.1129 19 12.1137 19 12.1145C19 12.1153 19 12.1161 19 12.1169C19 12.1177 19 12.1186 19 12.1194C19 12.1202 19 12.1211 19 12.1219C19 12.1227 19 12.1236 19 12.1244C19 12.1253 19 12.1261 19 12.127C19 12.1278 19 12.1287 19 12.1295C19 12.1304 19 12.1313 19 12.1322C19 12.133 19 12.1339 19 12.1348C19 12.1357 19 12.1366 19 12.1375C19 12.1383 19 12.1392 19 12.1401C19 12.141 19 12.142 19 12.1429C19 12.1438 19 12.1447 19 12.1456C19 12.1465 19 12.1475 19 12.1484C19 12.1493 19 12.1502 19 12.1512C19 12.1521 19 12.1531 19 12.154C19 12.155 19 12.1559 19 12.1569C19 12.1578 19 12.1588 19 12.1598C19 12.1607 19 12.1617 19 12.1627C19 12.1637 19 12.1646 19 12.1656C19 12.1666 19 12.1676 19 12.1686C19 12.1696 19 12.1706 19 12.1716C19 12.1726 19 12.1736 19 12.1746C19 12.1756 19 12.1766 19 12.1777C19 12.1787 19 12.1797 19 12.1807C19 12.1818 19 12.1828 19 12.1839C19 12.1849 19 12.1859 19 12.187C19 12.188 19 12.1891 19 12.1902C19 12.1912 19 12.1923 19 12.1934C19 12.1944 19 12.1955 19 12.1966C19 12.1977 19 12.1987 19 12.1998C19 12.2009 19 12.202 19 12.2031C19 12.2042 19 12.2053 19 12.2064C19 12.2075 19 12.2087 19 12.2098C19 12.2109 19 12.212 19 12.2131C19 12.2143 19 12.2154 19 12.2165C19 12.2177 19 12.2188 19 12.22C19 12.2211 19 12.2223 19 12.2234C19 12.2246 19 12.2257 19 12.2269C19 12.2281 19 12.2292 19 12.2304C19 12.2316 19 12.2328 19 12.2339C19 12.2351 19 12.2363 19 12.2375C19 12.2387 19 12.2399 19 12.2411C19 12.2423 19 12.2435 19 12.2447C19 12.246 19 12.2472 19 12.2484C19 12.2496 19 12.2509 19 12.2521C19 12.2533 19 12.2546 19 12.2558C19 12.257 19 12.2583 19 12.2595C19 12.2608 19 12.2621 19 12.2633C19 12.2646 19 12.2659 19 12.2671C19 12.2684 19 12.2697 19 12.271C19 12.2722 19 12.2735 19 12.2748C19 12.2761 19 12.2774 19 12.2787C19 12.28 19 12.2813 19 12.2826C19 12.2839 19 12.2853 19 12.2866C19 12.2879 19 12.2892 19 12.2906C19 12.2919 19 12.2932 19 12.2946C19 12.2959 19 12.2973 19 12.2986C19 12.3 19 12.3013 19 12.3027C19 12.304 19 12.3054 19 12.3068C19 12.3082 19 12.3095 19 12.3109C19 12.3123 19 12.3137 19 12.3151C19 12.3165 19 12.3179 19 12.3193C19 12.3207 19 12.3221 19 12.3235C19 12.3249 19 12.3263 19 12.3277C19 12.3291 19 12.3306 19 12.332C19 12.3334 19 12.3349 19 12.3363C19 12.3378 19 12.3392 19 12.3407C19 12.3421 19 12.3436 19 12.345C19 12.3465 19 12.348 19 12.3494C19 12.3509 19 12.3524 19 12.3539C19 12.3553 19 12.3568 19 12.3583C19 12.3598 19 12.3613 19 12.3628C19 12.3643 19 12.3658 19 12.3673C19 12.3688 19 12.3704 19 12.3719C19 12.3734 19 12.3749 19 12.3765C19 12.378 19 12.3795 19 12.3811C19 12.3826 19 12.3842 19 12.3857C19 12.3873 19 12.3888 19 12.3904C19 12.392 19 12.3935 19 12.3951C19 12.3967 19 12.3983 19 12.3998C19 12.4014 19 12.403 19 12.4046C19 12.4062 19 12.4078 19 12.4094C19 12.411 19 12.4126 19 12.4142C19 12.4158 19 12.4175 19 12.4191C19 12.4207 19 12.4223 19 12.424C19 12.4256 19 12.4273 19 12.4289C19 12.4305 19 12.4322 19 12.4339C19 12.4355 19 12.4372 19 12.4388C19 12.4405 19 12.4422 19 12.4439C19 12.4455 19 12.4472 19 12.4489C19 12.4506 19 12.4523 19 12.454C19 12.4557 19 12.4574 19 12.4591C19 12.4608 19 12.4625 19 12.4642C19 12.4659 19 12.4677 19 12.4694C19 12.4711 19 12.4729 19 12.4746C19 12.4763 19 12.4781 19 12.4798C19 12.4816 19 12.4833 19 12.4851C19 12.4869 19 12.4886 19 12.4904C19 12.4922 19 12.4939 19 12.4957C19 12.4975 19 12.4993 19 12.5011C19 12.5029 19 12.5047 19 12.5065C19 12.5083 19 12.5101 19 12.5119C19 12.5137 19 12.5155 19 12.5174C19 12.5192 19 12.521 19 12.5228C19 12.5247 19 12.5265 19 12.5284C19 12.5302 19 12.5321 19 12.5339C19 12.5358 19 12.5376 19 12.5395C19 12.5414 19 12.5432 19 12.5451C19 12.547 19 12.5489 19 12.5508C19 12.5526 19 12.5545 19 12.5564C19 12.5583 19 12.5602 19 12.5622C19 12.5641 19 12.566 19 12.5679C19 12.5698 19 12.5717 19 12.5737C19 12.5756 19 12.5775 19 12.5795C19 12.5814 19 12.5834 19 12.5853C19 12.5873 19 12.5892 19 12.5912C19 12.5932 19 12.5951 19 12.5971C19 12.5991 19 12.6011 19 12.603C19 12.605 19 12.607 19 12.609C19 12.611 19 12.613 19 12.615C19 12.617 19 12.619 19 12.621C19 12.6231 19 12.6251 19 12.6271C19 12.6291 19 12.6312 19 12.6332C19 12.6353 19 12.6373 19 12.6393C19 12.6414 19 12.6435 19 12.6455C19 12.6476 19 12.6496 19 12.6517C19 12.6538 19 12.6559 19 12.6579C19 12.66 19 12.6621 19 12.6642C19 12.6663 19 12.6684 19 12.6705C19 12.6726 19 12.6747 19 12.6768C19 12.679 19 12.6811 19 12.6832C19 12.6853 19 12.6875 19 12.6896C19 12.6917 19 12.6939 19 12.696C19 12.6982 19 12.7003 19 12.7025C19 12.7047 19 12.7068 19 12.709C19 12.7112 19 12.7133 19 12.7155C19 12.7177 19 12.7199 19 12.7221C19 12.7243 19 12.7265 19 12.7287C19 12.7309 19 12.7331 19 12.7353C19 12.7375 19 12.7397 19 12.742C19 12.7442 19 12.7464 19 12.7487C19 12.7509 19 12.7531 19 12.7554C19 12.7576 19 12.7599 19 12.7622C19 12.7644 19 12.7667 19 12.769C19 12.7712 19 12.7735 19 12.7758C19 12.7781 19 12.7804 19 12.7827C19 12.7849 19 12.7872 19 12.7896C19 12.7919 19 12.7942 19 12.7965C19 12.7988 19 12.8011 19 12.8035C19 12.8058 19 12.8081 19 12.8105C19 12.8128 19 12.8151 19 12.8175C19 12.8198 19 12.8222 19 12.8246C19 12.8269 19 12.8293 19 12.8317C19 12.834 19 12.8364 19 12.8388C19 12.8412 19 12.8436 19 12.846C19 12.8484 19 12.8508 19 12.8532C19 12.8556 19 12.858 19 12.8604C19 12.8628 19 12.8652 19 12.8677C19 12.8701 19 12.8725 19 12.875C19 12.8774 19 12.8799 19 12.8823C19 12.8848 19 12.8872 19 12.8897C19 12.8922 19 12.8946 19 12.8971C19 12.8996 19 12.9021 19 12.9046C19 12.907 19 12.9095 19 12.912C19 12.9145 19 12.917 19 12.9195C19 12.9221 19 12.9246 19 12.9271C19 12.9296 19 12.9321 19 12.9347C19 12.9372 19 12.9398 19 12.9423C19 12.9448 19 12.9474 19 12.9499C19 12.9525 19 12.9551 19 12.9576C19 12.9602 19 12.9628 19 12.9654C19 12.9679 19 12.9705 19 12.9731C19 12.9757 19 12.9783 19 12.9809C19 12.9835 19 12.9861 19 12.9887C19 12.9913 19 12.994 19 12.9966C19 12.9992 19 13.0019 19 13.0045C19 13.0071 19 13.0098 19 13.0124C19 13.0151 19 13.0177 19 13.0204C19 13.0231 19 13.0257 19 13.0284C19 13.0311 19 13.0337 19 13.0364C19 13.0391 19 13.0418 19 13.0445C19 13.0472 19 13.0499 19 13.0526C19 13.0553 19 13.058 19 13.0608C19 13.0635 19 13.0662 19 13.0689C19 13.0717 19 13.0744 19 13.0771C19 13.0799 19 13.0826 19 13.0854C19 13.0882 19 13.0909 19 13.0937C19 13.0964 19 13.0992 19 13.102C19 13.1048 19 13.1076 19 13.1104C19 13.1131 19 13.1159 19 13.1188C19 13.1216 19 13.1244 19 13.1272C19 13.13 19 13.1328 19 13.1356C19 13.1385 19 13.1413 19 13.1441C19 13.147 19 13.1498 19 13.1527C19 13.1555 19 13.1584 19 13.1612C19 13.1641 19 13.167 19 13.1699C19 13.1727 19 13.1756 19 13.1785C19 13.1814 19 13.1843 19 13.1872C19 13.1901 19 13.193 19 13.1959C19 13.1988 19 13.2017 19 13.2046C19 13.2076 19 13.2105 19 13.2134C19 13.2164 19 13.2193 19 13.2223C19 13.2252 19 13.2282 19 13.2311C19 13.2341 19 13.237 19 13.24C19 13.243 19 13.246 19 13.2489C19 13.2519 19 13.2549 19 13.2579C19 13.2609 19 13.2639 19 13.2669C19 13.2699 19 13.2729 19 13.276C19 13.279 19 13.282 19 13.285C19 13.2881 19 13.2911 19 13.2942C19 13.2972 19 13.3002 19 13.3033C19 13.3064 19 13.3094 19 13.3125C19 13.3156 19 13.3186 19 13.3217C19 13.3248 19 13.3279 19 13.331C19 13.3341 19 13.3372 19 13.3403C19 13.3434 19 13.3465 19 13.3496C19 13.3527 19 13.3559 19 13.359C19 13.3621 19 13.3653 19 13.3684C19 13.3715 19 13.3747 19 13.3778C19 13.381 19 13.3842 19 13.3873C19 13.3905 19 13.3937 19 13.3968C19 13.4 19 13.4032 19 13.4064C19 13.4096 19 13.4128 19 13.416C19 13.4192 19 13.4224 19 13.4256C19 13.4288 19 13.4321 19 13.4353C19 13.4385 19 13.4418 19 13.445C19 13.4482 19 13.4515 19 13.4547C19 13.458 19 13.4613 19 13.4645C19 13.4678 19 13.4711 19 13.4743C19 13.4776 19 13.4809 19 13.4842C19 13.4875 19 13.4908 19 13.4941C19 13.4974 19 13.5007 19 13.504C19 13.5073 19 13.5107 19 13.514C19 13.5173 19 13.5207 19 13.524C19 13.5273 19 13.5307 19 13.534C19 13.5374 19 13.5408 19 13.5441C19 13.5475 19 13.5509 19 13.5542C19 13.5576 19 13.561 19 13.5644C19 13.5678 19 13.5712 19 13.5746C19 13.578 19 13.5814 19 13.5848C19 13.5882 19 13.5917 19 13.5951C19 13.5985 19 13.602 19 13.6054C19 13.6088 19 13.6123 19 13.6158C19 13.6192 19 13.6227 19 13.6261C19 13.6296 19 13.6331 19 13.6366C19 13.64 19 13.6435 19 13.647C19 13.6505 19 13.654 19 13.6575C19 13.661 19 13.6645 19 13.6681C19 13.6716 19 13.6751 19 13.6786C19 13.6822 19 13.6857 19 13.6892C19 13.6928 19 13.6963 19 13.6999C19 13.7035 19 13.707 19 13.7106C19 13.7142 19 13.7177 19 13.7213C19 13.7249 19 13.7285 19 13.7321C19 13.7357 19 13.7393 19 13.7429C19 13.7465 19 13.7501 19 13.7537C19 13.7574 19 13.761 19 13.7646C19 13.7683 19 13.7719 19 13.7755C19 13.7792 19 13.7829 19 13.7865C19 13.7902 19 13.7938 19 13.7975C19 13.8012 19 13.8049 19 13.8085C19 13.8122 19 13.8159 19 13.8196C19 13.8233 19 13.827 19 13.8307C19 13.8345 19 13.8382 19 13.8419C19 13.8456 19 13.8494 19 13.8531C19 13.8568 19 13.8606 19 13.8643C19 13.8681 19 13.8718 19 13.8756C19 13.8794 19 13.8831 19 13.8869C19 13.8907 19 13.8945 19 13.8983C19 13.9021 19 13.9059 19 13.9097C19 13.9135 19 13.9173 19 13.9211C19 13.9249 19 13.9287 19 13.9326C19 13.9364 19 13.9402 19 13.9441C19 13.9479 19 13.9518 19 13.9556C19 13.9595 19 13.9633 19 13.9672C19 13.9711 19 13.9749 19 13.9788C19 13.9827 19 13.9866 19 13.9905C19 13.9944 19 13.9983 19 14.0022C19 14.0061 19 14.01 19 14.0139C19 14.0179 19 14.0218 19 14.0257C19 14.0297 19 14.0336 19 14.0376C19 14.0415 19 14.0455 19 14.0494C19 14.0534 19 14.0574 19 14.0613C19 14.0653 19 14.0693 19 14.0733C19 14.0773 19 14.0813 19 14.0853C19 14.0893 19 14.0933 19 14.0973C19 14.1013 19 14.1053 19 14.1094C19 14.1134 19 14.1174 19 14.1215C19 14.1255 19 14.1295 19 14.1336C19 14.1377 19 14.1417 19 14.1458C19 14.1499 19 14.1539 19 14.158C19 14.1621 19 14.1662 19 14.1703C19 14.1744 19 14.1785 19 14.1826C19 14.1867 19 14.1908 19 14.1949C19 14.1991 19 14.2032 19 14.2073C19 14.2115 19 14.2156 19 14.2197C19 14.2239 19 14.228 19 14.2322C19 14.2364 19 14.2405 19 14.2447C19 14.2489 19 14.2531 19 14.2573C19 14.2615 19 14.2657 19 14.2699C19 14.2741 19 14.2783 19 14.2825C19 14.2867 19 14.2909 19 14.2952C19 14.2994 19 14.3036 19 14.3079C19 14.3121 19 14.3164 19 14.3206C19 14.3249 19 14.3291 19 14.3334C19 14.3377 19 14.342 19 14.3462C19 14.3505 19 14.3548 19 14.3591C19 14.3634 19 14.3677 19 14.372C19 14.3763 19 14.3807 19 14.385C19 14.3893 19 14.3937 19 14.398C19 14.4023 19 14.4067 19 14.411C19 14.4154 19 14.4197 19 14.4241C19 14.4285 19 14.4328 19 14.4372C19 14.4416 19 14.446 19 14.4504C19 14.4548 19 14.4592 19 14.4636C19 14.468 19 14.4724 19 14.4768C19 14.4813 19 14.4857 19 14.4901C19 14.4946 19 14.499 19 14.5035C19 14.5079 19 14.5124 19 14.5168C19 14.5213 19 14.5258 19 14.5302C19 14.5347 19 14.5392 19 14.5437C19 14.5482 19 14.5527 19 14.5572C19 14.5617 19 14.5662 19 14.5707C19 14.5752 19 14.5798 19 14.5843C19 14.5888 19 14.5934 19 14.5979C19 14.6025 19 14.607 19 14.6116C19 14.6161 19 14.6207 19 14.6253C19 14.6298 19 14.6344 19 14.639C19 14.6436 19 14.6482 19 14.6528C19 14.6574 19 14.662 19 14.6666C19 14.6712 19 14.6759 19 14.6805C19 14.6851 19 14.6898 19 14.6944C19 14.6991 19 14.7037 19 14.7084C19 14.713 19 14.7177 19 14.7224C19 14.727 19 14.7317 19 14.7364C19 14.7411 19 14.7458 19 14.7505C19 14.7552 19 14.7599 19 14.7646C19 14.7693 19 14.774 19 14.7788C19 14.7835 19 14.7882 19 14.793C19 14.7977 19 14.8025 19 14.8072C19 14.812 19 14.8167 19 14.8215C19 14.8263 19 14.8311 19 14.8358C19 14.8406 19 14.8454 19 14.8502C19 14.855 19 14.8598 19 14.8646C19 14.8695 19 14.8743 19 14.8791C19 14.8839 19 14.8888 19 14.8936C19 14.8985 19 14.9033 19 14.9082C19 14.913 19 14.9179 19 14.9227C19 14.9276 19 14.9325 19 14.9374C19 14.9423 19 14.9472 19 14.9521C19 14.957 19 14.9619 19 14.9668C19 14.9717 19 14.9766 19 14.9815C19 14.9865 19 14.9914 19 14.9963C19 15.0013 19 15.0062 19 15.0112C19 15.0161 19 15.0211 19 15.0261C19 15.031 19 15.036 19 15.041C19 15.046 19 15.051 19 15.056C19 15.061 19 15.066 19 15.071C19 15.076 19 15.081 19 15.0861C19 15.0911 19 15.0961 19 15.1012C19 15.1062 19 15.1113 19 15.1163C19 15.1214 19 15.1264 19 15.1315C19 15.1366 19 15.1417 19 15.1468C19 15.1518 19 15.1569 19 15.162C19 15.1671 19 15.1722 19 15.1774C19 15.1825 19 15.1876 19 15.1927C19 15.1979 19 15.203 19 15.2081C19 15.2133 19 15.2184 19 15.2236C19 15.2288 19 15.2339 19 15.2391C19 15.2443 19 15.2494 19 15.2546C19 15.2598 19 15.265 19 15.2702C19 15.2754 19 15.2806 19 15.2858C19 15.2911 19 15.2963 19 15.3015C19 15.3068 19 15.312 19 15.3172C19 15.3225 19 15.3277 19 15.333C19 15.3383 19 15.3435 19 15.3488C19 15.3541 19 15.3594 19 15.3647C19 15.3699 19 15.3752 19 15.3805C19 15.3858 19 15.3912 19 15.3965C19 15.4018 19 15.4071 19 15.4125C19 15.4178 19 15.4231 19 15.4285C19 15.4338 19 15.4392 19 15.4446C19 15.4499 19 15.4553 19 15.4607C19 15.4661 19 15.4714 19 15.4768C19 15.4822 19 15.4876 19 15.493C19 15.4984 19 15.5039 19 15.5093C19 15.5147 19 15.5201 19 15.5256C19 15.531 19 15.5365 19 15.5419C19 15.5474 19 15.5528 19 15.5583C19 15.5638 19 15.5692 19 15.5747C19 15.5802 19 15.5857 19 15.5912C19 15.5967 19 15.6022 19 15.6077C19 15.6132 19 15.6187 19 15.6243C19 15.6298 19 15.6353 19 15.6409C19 15.6464 19 15.652 19 15.6575C19 15.6631 19 15.6686 19 15.6742C19 15.6798 19 15.6854 19 15.6909C19 15.6965 19 15.7021 19 15.7077C19 15.7133 19 15.7189 19 15.7246C19 15.7302 19 15.7358 19 15.7414C19 15.7471 19 15.7527 19 15.7584C19 15.764 19 15.7697 19 15.7753C19 15.781 19 15.7866 19 15.7923C19 15.798 19 15.8037 19 15.8094C19 15.8151 19 15.8208 19 15.8265C19 15.8322 19 15.8379 19 15.8436C19 15.8493 19 15.8551 19 15.8608C19 15.8666 19 15.8723 19 15.8781C19 15.8838 19 15.8896 19 15.8953C19 15.9011 19 15.9069 19 15.9127C19 15.9184 19 15.9242 19 15.93C19 15.9358 19 15.9416 19 15.9475C19 15.9533 19 15.9591 19 15.9649C19 15.9707 19 15.9766 19 15.9824C19 15.9883 19 15.9941 19 16H21C21 15.9941 21 15.9883 21 15.9824C21 15.9766 21 15.9707 21 15.9649C21 15.9591 21 15.9533 21 15.9475C21 15.9416 21 15.9358 21 15.93C21 15.9242 21 15.9184 21 15.9127C21 15.9069 21 15.9011 21 15.8953C21 15.8896 21 15.8838 21 15.8781C21 15.8723 21 15.8666 21 15.8608C21 15.8551 21 15.8493 21 15.8436C21 15.8379 21 15.8322 21 15.8265C21 15.8208 21 15.8151 21 15.8094C21 15.8037 21 15.798 21 15.7923C21 15.7866 21 15.781 21 15.7753C21 15.7697 21 15.764 21 15.7584C21 15.7527 21 15.7471 21 15.7414C21 15.7358 21 15.7302 21 15.7246C21 15.7189 21 15.7133 21 15.7077C21 15.7021 21 15.6965 21 15.6909C21 15.6854 21 15.6798 21 15.6742C21 15.6686 21 15.6631 21 15.6575C21 15.652 21 15.6464 21 15.6409C21 15.6353 21 15.6298 21 15.6243C21 15.6187 21 15.6132 21 15.6077C21 15.6022 21 15.5967 21 15.5912C21 15.5857 21 15.5802 21 15.5747C21 15.5692 21 15.5638 21 15.5583C21 15.5528 21 15.5474 21 15.5419C21 15.5365 21 15.531 21 15.5256C21 15.5201 21 15.5147 21 15.5093C21 15.5039 21 15.4984 21 15.493C21 15.4876 21 15.4822 21 15.4768C21 15.4714 21 15.4661 21 15.4607C21 15.4553 21 15.4499 21 15.4446C21 15.4392 21 15.4338 21 15.4285C21 15.4231 21 15.4178 21 15.4125C21 15.4071 21 15.4018 21 15.3965C21 15.3912 21 15.3858 21 15.3805C21 15.3752 21 15.3699 21 15.3647C21 15.3594 21 15.3541 21 15.3488C21 15.3435 21 15.3383 21 15.333C21 15.3277 21 15.3225 21 15.3172C21 15.312 21 15.3068 21 15.3015C21 15.2963 21 15.2911 21 15.2858C21 15.2806 21 15.2754 21 15.2702C21 15.265 21 15.2598 21 15.2546C21 15.2494 21 15.2443 21 15.2391C21 15.2339 21 15.2288 21 15.2236C21 15.2184 21 15.2133 21 15.2081C21 15.203 21 15.1979 21 15.1927C21 15.1876 21 15.1825 21 15.1774C21 15.1722 21 15.1671 21 15.162C21 15.1569 21 15.1518 21 15.1468C21 15.1417 21 15.1366 21 15.1315C21 15.1264 21 15.1214 21 15.1163C21 15.1113 21 15.1062 21 15.1012C21 15.0961 21 15.0911 21 15.0861C21 15.081 21 15.076 21 15.071C21 15.066 21 15.061 21 15.056C21 15.051 21 15.046 21 15.041C21 15.036 21 15.031 21 15.0261C21 15.0211 21 15.0161 21 15.0112C21 15.0062 21 15.0013 21 14.9963C21 14.9914 21 14.9865 21 14.9815C21 14.9766 21 14.9717 21 14.9668C21 14.9619 21 14.957 21 14.9521C21 14.9472 21 14.9423 21 14.9374C21 14.9325 21 14.9276 21 14.9227C21 14.9179 21 14.913 21 14.9082C21 14.9033 21 14.8985 21 14.8936C21 14.8888 21 14.8839 21 14.8791C21 14.8743 21 14.8695 21 14.8646C21 14.8598 21 14.855 21 14.8502C21 14.8454 21 14.8406 21 14.8358C21 14.8311 21 14.8263 21 14.8215C21 14.8167 21 14.812 21 14.8072C21 14.8025 21 14.7977 21 14.793C21 14.7882 21 14.7835 21 14.7788C21 14.774 21 14.7693 21 14.7646C21 14.7599 21 14.7552 21 14.7505C21 14.7458 21 14.7411 21 14.7364C21 14.7317 21 14.727 21 14.7224C21 14.7177 21 14.713 21 14.7084C21 14.7037 21 14.6991 21 14.6944C21 14.6898 21 14.6851 21 14.6805C21 14.6759 21 14.6712 21 14.6666C21 14.662 21 14.6574 21 14.6528C21 14.6482 21 14.6436 21 14.639C21 14.6344 21 14.6298 21 14.6253C21 14.6207 21 14.6161 21 14.6116C21 14.607 21 14.6025 21 14.5979C21 14.5934 21 14.5888 21 14.5843C21 14.5798 21 14.5752 21 14.5707C21 14.5662 21 14.5617 21 14.5572C21 14.5527 21 14.5482 21 14.5437C21 14.5392 21 14.5347 21 14.5302C21 14.5258 21 14.5213 21 14.5168C21 14.5124 21 14.5079 21 14.5035C21 14.499 21 14.4946 21 14.4901C21 14.4857 21 14.4813 21 14.4768C21 14.4724 21 14.468 21 14.4636C21 14.4592 21 14.4548 21 14.4504C21 14.446 21 14.4416 21 14.4372C21 14.4328 21 14.4285 21 14.4241C21 14.4197 21 14.4154 21 14.411C21 14.4067 21 14.4023 21 14.398C21 14.3937 21 14.3893 21 14.385C21 14.3807 21 14.3763 21 14.372C21 14.3677 21 14.3634 21 14.3591C21 14.3548 21 14.3505 21 14.3462C21 14.342 21 14.3377 21 14.3334C21 14.3291 21 14.3249 21 14.3206C21 14.3164 21 14.3121 21 14.3079C21 14.3036 21 14.2994 21 14.2952C21 14.2909 21 14.2867 21 14.2825C21 14.2783 21 14.2741 21 14.2699C21 14.2657 21 14.2615 21 14.2573C21 14.2531 21 14.2489 21 14.2447C21 14.2405 21 14.2364 21 14.2322C21 14.228 21 14.2239 21 14.2197C21 14.2156 21 14.2115 21 14.2073C21 14.2032 21 14.1991 21 14.1949C21 14.1908 21 14.1867 21 14.1826C21 14.1785 21 14.1744 21 14.1703C21 14.1662 21 14.1621 21 14.158C21 14.1539 21 14.1499 21 14.1458C21 14.1417 21 14.1377 21 14.1336C21 14.1295 21 14.1255 21 14.1215C21 14.1174 21 14.1134 21 14.1094C21 14.1053 21 14.1013 21 14.0973C21 14.0933 21 14.0893 21 14.0853C21 14.0813 21 14.0773 21 14.0733C21 14.0693 21 14.0653 21 14.0613C21 14.0574 21 14.0534 21 14.0494C21 14.0455 21 14.0415 21 14.0376C21 14.0336 21 14.0297 21 14.0257C21 14.0218 21 14.0179 21 14.0139C21 14.01 21 14.0061 21 14.0022C21 13.9983 21 13.9944 21 13.9905C21 13.9866 21 13.9827 21 13.9788C21 13.9749 21 13.9711 21 13.9672C21 13.9633 21 13.9595 21 13.9556C21 13.9518 21 13.9479 21 13.9441C21 13.9402 21 13.9364 21 13.9326C21 13.9287 21 13.9249 21 13.9211C21 13.9173 21 13.9135 21 13.9097C21 13.9059 21 13.9021 21 13.8983C21 13.8945 21 13.8907 21 13.8869C21 13.8831 21 13.8794 21 13.8756C21 13.8718 21 13.8681 21 13.8643C21 13.8606 21 13.8568 21 13.8531C21 13.8494 21 13.8456 21 13.8419C21 13.8382 21 13.8345 21 13.8307C21 13.827 21 13.8233 21 13.8196C21 13.8159 21 13.8122 21 13.8085C21 13.8049 21 13.8012 21 13.7975C21 13.7938 21 13.7902 21 13.7865C21 13.7829 21 13.7792 21 13.7755C21 13.7719 21 13.7683 21 13.7646C21 13.761 21 13.7574 21 13.7537C21 13.7501 21 13.7465 21 13.7429C21 13.7393 21 13.7357 21 13.7321C21 13.7285 21 13.7249 21 13.7213C21 13.7177 21 13.7142 21 13.7106C21 13.707 21 13.7035 21 13.6999C21 13.6963 21 13.6928 21 13.6892C21 13.6857 21 13.6822 21 13.6786C21 13.6751 21 13.6716 21 13.6681C21 13.6645 21 13.661 21 13.6575C21 13.654 21 13.6505 21 13.647C21 13.6435 21 13.64 21 13.6366C21 13.6331 21 13.6296 21 13.6261C21 13.6227 21 13.6192 21 13.6158C21 13.6123 21 13.6088 21 13.6054C21 13.602 21 13.5985 21 13.5951C21 13.5917 21 13.5882 21 13.5848C21 13.5814 21 13.578 21 13.5746C21 13.5712 21 13.5678 21 13.5644C21 13.561 21 13.5576 21 13.5542C21 13.5509 21 13.5475 21 13.5441C21 13.5408 21 13.5374 21 13.534C21 13.5307 21 13.5273 21 13.524C21 13.5207 21 13.5173 21 13.514C21 13.5107 21 13.5073 21 13.504C21 13.5007 21 13.4974 21 13.4941C21 13.4908 21 13.4875 21 13.4842C21 13.4809 21 13.4776 21 13.4743C21 13.4711 21 13.4678 21 13.4645C21 13.4613 21 13.458 21 13.4547C21 13.4515 21 13.4482 21 13.445C21 13.4418 21 13.4385 21 13.4353C21 13.4321 21 13.4288 21 13.4256C21 13.4224 21 13.4192 21 13.416C21 13.4128 21 13.4096 21 13.4064C21 13.4032 21 13.4 21 13.3968C21 13.3937 21 13.3905 21 13.3873C21 13.3842 21 13.381 21 13.3778C21 13.3747 21 13.3715 21 13.3684C21 13.3653 21 13.3621 21 13.359C21 13.3559 21 13.3527 21 13.3496C21 13.3465 21 13.3434 21 13.3403C21 13.3372 21 13.3341 21 13.331C21 13.3279 21 13.3248 21 13.3217C21 13.3186 21 13.3156 21 13.3125C21 13.3094 21 13.3064 21 13.3033C21 13.3002 21 13.2972 21 13.2942C21 13.2911 21 13.2881 21 13.285C21 13.282 21 13.279 21 13.276C21 13.2729 21 13.2699 21 13.2669C21 13.2639 21 13.2609 21 13.2579C21 13.2549 21 13.2519 21 13.2489C21 13.246 21 13.243 21 13.24C21 13.237 21 13.2341 21 13.2311C21 13.2282 21 13.2252 21 13.2223C21 13.2193 21 13.2164 21 13.2134C21 13.2105 21 13.2076 21 13.2046C21 13.2017 21 13.1988 21 13.1959C21 13.193 21 13.1901 21 13.1872C21 13.1843 21 13.1814 21 13.1785C21 13.1756 21 13.1727 21 13.1699C21 13.167 21 13.1641 21 13.1612C21 13.1584 21 13.1555 21 13.1527C21 13.1498 21 13.147 21 13.1441C21 13.1413 21 13.1385 21 13.1356C21 13.1328 21 13.13 21 13.1272C21 13.1244 21 13.1216 21 13.1188C21 13.1159 21 13.1131 21 13.1104C21 13.1076 21 13.1048 21 13.102C21 13.0992 21 13.0964 21 13.0937C21 13.0909 21 13.0882 21 13.0854C21 13.0826 21 13.0799 21 13.0771C21 13.0744 21 13.0717 21 13.0689C21 13.0662 21 13.0635 21 13.0608C21 13.058 21 13.0553 21 13.0526C21 13.0499 21 13.0472 21 13.0445C21 13.0418 21 13.0391 21 13.0364C21 13.0337 21 13.0311 21 13.0284C21 13.0257 21 13.0231 21 13.0204C21 13.0177 21 13.0151 21 13.0124C21 13.0098 21 13.0071 21 13.0045C21 13.0019 21 12.9992 21 12.9966C21 12.994 21 12.9913 21 12.9887C21 12.9861 21 12.9835 21 12.9809C21 12.9783 21 12.9757 21 12.9731C21 12.9705 21 12.9679 21 12.9654C21 12.9628 21 12.9602 21 12.9576C21 12.9551 21 12.9525 21 12.9499C21 12.9474 21 12.9448 21 12.9423C21 12.9398 21 12.9372 21 12.9347C21 12.9321 21 12.9296 21 12.9271C21 12.9246 21 12.9221 21 12.9195C21 12.917 21 12.9145 21 12.912C21 12.9095 21 12.907 21 12.9046C21 12.9021 21 12.8996 21 12.8971C21 12.8946 21 12.8922 21 12.8897C21 12.8872 21 12.8848 21 12.8823C21 12.8799 21 12.8774 21 12.875C21 12.8725 21 12.8701 21 12.8677C21 12.8652 21 12.8628 21 12.8604C21 12.858 21 12.8556 21 12.8532C21 12.8508 21 12.8484 21 12.846C21 12.8436 21 12.8412 21 12.8388C21 12.8364 21 12.834 21 12.8317C21 12.8293 21 12.8269 21 12.8246C21 12.8222 21 12.8198 21 12.8175C21 12.8151 21 12.8128 21 12.8105C21 12.8081 21 12.8058 21 12.8035C21 12.8011 21 12.7988 21 12.7965C21 12.7942 21 12.7919 21 12.7896C21 12.7872 21 12.7849 21 12.7827C21 12.7804 21 12.7781 21 12.7758C21 12.7735 21 12.7712 21 12.769C21 12.7667 21 12.7644 21 12.7622C21 12.7599 21 12.7576 21 12.7554C21 12.7531 21 12.7509 21 12.7487C21 12.7464 21 12.7442 21 12.742C21 12.7397 21 12.7375 21 12.7353C21 12.7331 21 12.7309 21 12.7287C21 12.7265 21 12.7243 21 12.7221C21 12.7199 21 12.7177 21 12.7155C21 12.7133 21 12.7112 21 12.709C21 12.7068 21 12.7047 21 12.7025C21 12.7003 21 12.6982 21 12.696C21 12.6939 21 12.6917 21 12.6896C21 12.6875 21 12.6853 21 12.6832C21 12.6811 21 12.679 21 12.6768C21 12.6747 21 12.6726 21 12.6705C21 12.6684 21 12.6663 21 12.6642C21 12.6621 21 12.66 21 12.6579C21 12.6559 21 12.6538 21 12.6517C21 12.6496 21 12.6476 21 12.6455C21 12.6435 21 12.6414 21 12.6393C21 12.6373 21 12.6353 21 12.6332C21 12.6312 21 12.6291 21 12.6271C21 12.6251 21 12.6231 21 12.621C21 12.619 21 12.617 21 12.615C21 12.613 21 12.611 21 12.609C21 12.607 21 12.605 21 12.603C21 12.6011 21 12.5991 21 12.5971C21 12.5951 21 12.5932 21 12.5912C21 12.5892 21 12.5873 21 12.5853C21 12.5834 21 12.5814 21 12.5795C21 12.5775 21 12.5756 21 12.5737C21 12.5717 21 12.5698 21 12.5679C21 12.566 21 12.5641 21 12.5622C21 12.5602 21 12.5583 21 12.5564C21 12.5545 21 12.5526 21 12.5508C21 12.5489 21 12.547 21 12.5451C21 12.5432 21 12.5414 21 12.5395C21 12.5376 21 12.5358 21 12.5339C21 12.5321 21 12.5302 21 12.5284C21 12.5265 21 12.5247 21 12.5228C21 12.521 21 12.5192 21 12.5174C21 12.5155 21 12.5137 21 12.5119C21 12.5101 21 12.5083 21 12.5065C21 12.5047 21 12.5029 21 12.5011C21 12.4993 21 12.4975 21 12.4957C21 12.4939 21 12.4922 21 12.4904C21 12.4886 21 12.4869 21 12.4851C21 12.4833 21 12.4816 21 12.4798C21 12.4781 21 12.4763 21 12.4746C21 12.4729 21 12.4711 21 12.4694C21 12.4677 21 12.4659 21 12.4642C21 12.4625 21 12.4608 21 12.4591C21 12.4574 21 12.4557 21 12.454C21 12.4523 21 12.4506 21 12.4489C21 12.4472 21 12.4455 21 12.4439C21 12.4422 21 12.4405 21 12.4388C21 12.4372 21 12.4355 21 12.4339C21 12.4322 21 12.4305 21 12.4289C21 12.4273 21 12.4256 21 12.424C21 12.4223 21 12.4207 21 12.4191C21 12.4175 21 12.4158 21 12.4142C21 12.4126 21 12.411 21 12.4094C21 12.4078 21 12.4062 21 12.4046C21 12.403 21 12.4014 21 12.3998C21 12.3983 21 12.3967 21 12.3951C21 12.3935 21 12.392 21 12.3904C21 12.3888 21 12.3873 21 12.3857C21 12.3842 21 12.3826 21 12.3811C21 12.3795 21 12.378 21 12.3765C21 12.3749 21 12.3734 21 12.3719C21 12.3704 21 12.3688 21 12.3673C21 12.3658 21 12.3643 21 12.3628C21 12.3613 21 12.3598 21 12.3583C21 12.3568 21 12.3553 21 12.3539C21 12.3524 21 12.3509 21 12.3494C21 12.348 21 12.3465 21 12.345C21 12.3436 21 12.3421 21 12.3407C21 12.3392 21 12.3378 21 12.3363C21 12.3349 21 12.3334 21 12.332C21 12.3306 21 12.3291 21 12.3277C21 12.3263 21 12.3249 21 12.3235C21 12.3221 21 12.3207 21 12.3193C21 12.3179 21 12.3165 21 12.3151C21 12.3137 21 12.3123 21 12.3109C21 12.3095 21 12.3082 21 12.3068C21 12.3054 21 12.304 21 12.3027C21 12.3013 21 12.3 21 12.2986C21 12.2973 21 12.2959 21 12.2946C21 12.2932 21 12.2919 21 12.2906C21 12.2892 21 12.2879 21 12.2866C21 12.2853 21 12.2839 21 12.2826C21 12.2813 21 12.28 21 12.2787C21 12.2774 21 12.2761 21 12.2748C21 12.2735 21 12.2722 21 12.271C21 12.2697 21 12.2684 21 12.2671C21 12.2659 21 12.2646 21 12.2633C21 12.2621 21 12.2608 21 12.2595C21 12.2583 21 12.257 21 12.2558C21 12.2546 21 12.2533 21 12.2521C21 12.2509 21 12.2496 21 12.2484C21 12.2472 21 12.246 21 12.2447C21 12.2435 21 12.2423 21 12.2411C21 12.2399 21 12.2387 21 12.2375C21 12.2363 21 12.2351 21 12.2339C21 12.2328 21 12.2316 21 12.2304C21 12.2292 21 12.2281 21 12.2269C21 12.2257 21 12.2246 21 12.2234C21 12.2223 21 12.2211 21 12.22C21 12.2188 21 12.2177 21 12.2165C21 12.2154 21 12.2143 21 12.2131C21 12.212 21 12.2109 21 12.2098C21 12.2087 21 12.2075 21 12.2064C21 12.2053 21 12.2042 21 12.2031C21 12.202 21 12.2009 21 12.1998C21 12.1987 21 12.1977 21 12.1966C21 12.1955 21 12.1944 21 12.1934C21 12.1923 21 12.1912 21 12.1902C21 12.1891 21 12.188 21 12.187C21 12.1859 21 12.1849 21 12.1839C21 12.1828 21 12.1818 21 12.1807C21 12.1797 21 12.1787 21 12.1777C21 12.1766 21 12.1756 21 12.1746C21 12.1736 21 12.1726 21 12.1716C21 12.1706 21 12.1696 21 12.1686C21 12.1676 21 12.1666 21 12.1656C21 12.1646 21 12.1637 21 12.1627C21 12.1617 21 12.1607 21 12.1598C21 12.1588 21 12.1578 21 12.1569C21 12.1559 21 12.155 21 12.154C21 12.1531 21 12.1521 21 12.1512C21 12.1502 21 12.1493 21 12.1484C21 12.1475 21 12.1465 21 12.1456C21 12.1447 21 12.1438 21 12.1429C21 12.142 21 12.141 21 12.1401C21 12.1392 21 12.1383 21 12.1375C21 12.1366 21 12.1357 21 12.1348C21 12.1339 21 12.133 21 12.1322C21 12.1313 21 12.1304 21 12.1295C21 12.1287 21 12.1278 21 12.127C21 12.1261 21 12.1253 21 12.1244C21 12.1236 21 12.1227 21 12.1219C21 12.1211 21 12.1202 21 12.1194C21 12.1186 21 12.1177 21 12.1169C21 12.1161 21 12.1153 21 12.1145C21 12.1137 21 12.1129 21 12.1121C21 12.1113 21 12.1105 21 12.1097C21 12.1089 21 12.1081 21 12.1073C21 12.1065 21 12.1057 21 12.105C21 12.1042 21 12.1034 21 12.1027C21 12.1019 21 12.1011 21 12.1004C21 12.0996 21 12.0989 21 12.0981C21 12.0974 21 12.0966 21 12.0959C21 12.0952 21 12.0944 21 12.0937C21 12.093 21 12.0922 21 12.0915C21 12.0908 21 12.0901 21 12.0894C21 12.0887 21 12.088 21 12.0873C21 12.0866 21 12.0859 21 12.0852C21 12.0845 21 12.0838 21 12.0831C21 12.0824 21 12.0817 21 12.0811C21 12.0804 21 12.0797 21 12.079C21 12.0784 21 12.0777 21 12.0771C21 12.0764 21 12.0757 21 12.0751C21 12.0744 21 12.0738 21 12.0732C21 12.0725 21 12.0719 21 12.0713C21 12.0706 21 12.07 21 12.0694C21 12.0687 21 12.0681 21 12.0675C21 12.0669 21 12.0663 21 12.0657C21 12.0651 21 12.0645 21 12.0639C21 12.0633 21 12.0627 21 12.0621C21 12.0615 21 12.0609 21 12.0604C21 12.0598 21 12.0592 21 12.0586C21 12.0581 21 12.0575 21 12.0569C21 12.0564 21 12.0558 21 12.0553C21 12.0547 21 12.0542 21 12.0536C21 12.0531 21 12.0525 21 12.052C21 12.0515 21 12.0509 21 12.0504C21 12.0499 21 12.0493 21 12.0488C21 12.0483 21 12.0478 21 12.0473C21 12.0468 21 12.0463 21 12.0458C21 12.0453 21 12.0448 21 12.0443C21 12.0438 21 12.0433 21 12.0428C21 12.0423 21 12.0418 21 12.0414C21 12.0409 21 12.0404 21 12.04C21 12.0395 21 12.039 21 12.0386C21 12.0381 21 12.0376 21 12.0372C21 12.0367 21 12.0363 21 12.0359C21 12.0354 21 12.035 21 12.0345C21 12.0341 21 12.0337 21 12.0333C21 12.0328 21 12.0324 21 12.032C21 12.0316 21 12.0312 21 12.0308C21 12.0303 21 12.0299 21 12.0295C21 12.0291 21 12.0287 21 12.0284C21 12.028 21 12.0276 21 12.0272C21 12.0268 21 12.0264 21 12.0261C21 12.0257 21 12.0253 21 12.0249C21 12.0246 21 12.0242 21 12.0239C21 12.0235 21 12.0231 21 12.0228C21 12.0224 21 12.0221 21 12.0218C21 12.0214 21 12.0211 21 12.0207C21 12.0204 21 12.0201 21 12.0198C21 12.0194 21 12.0191 21 12.0188C21 12.0185 21 12.0182 21 12.0178C21 12.0175 21 12.0172 21 12.0169C21 12.0166 21 12.0163 21 12.016C21 12.0158 21 12.0155 21 12.0152C21 12.0149 21 12.0146 21 12.0143C21 12.0141 21 12.0138 21 12.0135C21 12.0133 21 12.013 21 12.0127C21 12.0125 21 12.0122 21 12.012C21 12.0117 21 12.0115 21 12.0112C21 12.011 21 12.0107 21 12.0105C21 12.0103 21 12.01 21 12.0098C21 12.0096 21 12.0094 21 12.0091C21 12.0089 21 12.0087 21 12.0085C21 12.0083 21 12.0081 21 12.0079C21 12.0077 21 12.0075 21 12.0073C21 12.0071 21 12.0069 21 12.0067C21 12.0065 21 12.0063 21 12.0061C21 12.006 21 12.0058 21 12.0056C21 12.0054 21 12.0053 21 12.0051C21 12.005 21 12.0048 21 12.0046C21 12.0045 21 12.0043 21 12.0042C21 12.004 21 12.0039 21 12.0038C21 12.0036 21 12.0035 21 12.0033C21 12.0032 21 12.0031 21 12.003C21 12.0028 21 12.0027 21 12.0026C21 12.0025 21 12.0024 21 12.0023C21 12.0022 21 12.0021 21 12.002C21 12.0019 21 12.0018 21 12.0017C21 12.0016 21 12.0015 21 12.0014C21 12.0013 21 12.0012 21 12.0012C21 12.0011 21 12.001 21 12.0009C21 12.0009 21 12.0008 21 12.0007C21 12.0007 21 12.0006 21 12.0006C21 12.0005 21 12.0005 21 12.0004C21 12.0004 21 12.0003 21 12.0003C21 12.0002 21 12.0002 21 12.0002C21 12.0002 21 12.0001 21 12.0001C21 12.0001 21 12.0001 21 12C21 12 21 12 21 12C21 12 21 12 20 12ZM19 16C19 16.9136 18.2057 17.9073 16.6509 18.7445C15.1588 19.548 13.3206 20 12 20L12 22C13.6794 22 15.8412 21.452 17.5991 20.5055C19.2943 19.5926 21 18.0864 21 16H19ZM12 20C10.7099 20 9.42878 19.5666 8.48894 18.8356C7.55994 18.1131 7 17.1357 7 16H5C5 17.8642 5.94006 19.3869 7.26106 20.4143C8.57122 21.4334 10.2901 22 12 22L12 20ZM7 16C7 14.7238 7.426 13.6451 7.86825 12.8711C8.08819 12.4862 8.30736 12.1853 8.46838 11.9841C8.54865 11.8837 8.61372 11.8091 8.65618 11.7621C8.67739 11.7386 8.69287 11.7221 8.70169 11.7128C8.7061 11.7082 8.70884 11.7054 8.70979 11.7044C8.71026 11.7039 8.71028 11.7039 8.70985 11.7044C8.70963 11.7046 8.70929 11.7049 8.70884 11.7054C8.70861 11.7056 8.70836 11.7059 8.70807 11.7061C8.70793 11.7063 8.70769 11.7065 8.70762 11.7066C8.70738 11.7068 8.70712 11.7071 8.00002 11C7.29292 10.2929 7.29265 10.2931 7.29238 10.2934C7.29228 10.2935 7.29199 10.2938 7.29179 10.294C7.29138 10.2944 7.29094 10.2949 7.29048 10.2953C7.28954 10.2963 7.28848 10.2973 7.2873 10.2985C7.28494 10.3009 7.28209 10.3038 7.27878 10.3072C7.27216 10.314 7.26367 10.3228 7.25343 10.3335C7.23295 10.355 7.20547 10.3844 7.17198 10.4215C7.10507 10.4956 7.01389 10.6006 6.90665 10.7347C6.69267 11.0021 6.41184 11.3887 6.13177 11.8788C5.57401 12.8549 5 14.2762 5 16H7ZM12 11C12.4472 11.8944 12.4476 11.8942 12.4479 11.894C12.4481 11.894 12.4484 11.8938 12.4487 11.8937C12.4492 11.8934 12.4498 11.8931 12.4504 11.8928C12.4516 11.8922 12.4529 11.8916 12.4543 11.8908C12.4572 11.8894 12.4605 11.8877 12.4644 11.8857C12.4721 11.8817 12.4816 11.8767 12.493 11.8706C12.5158 11.8585 12.5458 11.8421 12.5821 11.8214C12.6544 11.78 12.7523 11.7211 12.8672 11.6445C13.0954 11.4924 13.3999 11.2643 13.7071 10.9571C14.3161 10.3481 15 9.35875 15 7.99998H13C13 8.64123 12.6839 9.15188 12.2929 9.54288C12.1001 9.73567 11.9046 9.88253 11.7578 9.98043C11.6852 10.0288 11.6268 10.0637 11.5898 10.0849C11.5713 10.0954 11.5584 10.1024 11.5519 10.1059C11.5486 10.1076 11.547 10.1085 11.5471 10.1084C11.5472 10.1084 11.5476 10.1081 11.5486 10.1077C11.5491 10.1074 11.5496 10.1071 11.5503 10.1068C11.5507 10.1066 11.5511 10.1064 11.5515 10.1062C11.5517 10.1061 11.552 10.1059 11.5521 10.1059C11.5525 10.1057 11.5528 10.1056 12 11ZM15 7.99998C15 6.84407 14.7374 5.91354 14.2484 5.16795C13.763 4.42785 13.1084 3.95243 12.4648 3.61459L11.5352 5.38539C11.9908 5.62462 12.3362 5.89919 12.576 6.26481C12.8122 6.62495 13 7.15588 13 7.99998H15ZM12.4648 3.61459C11.6268 3.17463 10.7873 2.96779 9.92022 3.03718L10.0798 5.03081C10.5019 4.99703 10.9657 5.0864 11.5352 5.38539L12.4648 3.61459ZM9.92022 3.03718C9.26008 3.09002 8.6363 3.299 8.03517 3.61459L8.96483 5.38539C9.38294 5.16589 9.74535 5.05757 10.0798 5.03081L9.92022 3.03718ZM8.03517 3.61459C7.0308 4.14188 5.96187 5.0871 5.61454 6.80143L7.57472 7.19857C7.7713 6.22828 8.33578 5.71564 8.96483 5.38539L8.03517 3.61459ZM5.61454 6.80143C5.53923 7.17318 5.5 7.57216 5.5 7.99998H7.5C7.5 7.69464 7.52796 7.42933 7.57472 7.19857L5.61454 6.80143ZM6.95426 6.06691L4.35963 5.0669L3.64037 6.9331L6.235 7.9331L6.95426 6.06691ZM5.5 7.99998C5.5 8.45996 5.56346 8.8825 5.66886 9.2654L7.59714 8.7346C7.53756 8.51817 7.5 8.27403 7.5 7.99998H5.5ZM5.66886 9.2654C5.90301 10.116 6.33714 10.748 6.70627 11.1638C6.89168 11.3727 7.06467 11.5317 7.1959 11.6416C7.26172 11.6967 7.31766 11.74 7.36023 11.7716C7.38153 11.7875 7.39955 11.8004 7.41386 11.8104C7.42101 11.8155 7.42725 11.8198 7.43251 11.8234C7.43514 11.8252 7.43752 11.8268 7.43966 11.8282C7.44073 11.829 7.44174 11.8296 7.44268 11.8303C7.44315 11.8306 7.44361 11.8309 7.44405 11.8312C7.44427 11.8313 7.44459 11.8315 7.4447 11.8316C7.44501 11.8318 7.44532 11.832 8.00002 11C8.55472 10.1679 8.55502 10.1681 8.55532 10.1683C8.55542 10.1684 8.55571 10.1686 8.5559 10.1687C8.55628 10.169 8.55665 10.1692 8.557 10.1695C8.5577 10.1699 8.55834 10.1704 8.55893 10.1708C8.5601 10.1715 8.56105 10.1722 8.56178 10.1727C8.56323 10.1737 8.5638 10.1741 8.56354 10.1739C8.56302 10.1735 8.5592 10.1708 8.55244 10.1658C8.53889 10.1558 8.51383 10.1366 8.48017 10.1084C8.41243 10.0516 8.31248 9.9606 8.20202 9.83614C7.97939 9.58533 7.73001 9.2173 7.59714 8.7346L5.66886 9.2654ZM6.27795 8.06515L3.64495 9.06515L4.35505 10.9348L6.98805 9.93485L6.27795 8.06515Z" fill="black"/>
</svg>
