<svg width="24" height="24" viewBox="0 0 24 24" fill="none" xmlns="http://www.w3.org/2000/svg">
<path d="M12 11L11.5528 10.1056C11.214 10.2749 11 10.6212 11 11H12ZM21 12C21 11.4477 20.5523 11 20 11C19.4477 11 19 11.4477 19 12H21ZM8.00002 11L8.70712 11.7071C8.91897 11.4953 9.02468 11.1996 8.99515 10.9014C8.96563 10.6033 8.804 10.3341 8.55472 10.1679L8.00002 11ZM12 4.49999L11.5352 5.38539L12 4.49999ZM8.5 4.49999L8.96483 5.38539L8.5 4.49999ZM10 4.034L10.0798 5.03081L10 4.034ZM4.35963 5.0669C3.84429 4.86829 3.26552 5.12504 3.0669 5.64038C2.86829 6.15571 3.12504 6.73448 3.64037 6.9331L4.35963 5.0669ZM3.64495 9.06515C3.12865 9.26124 2.86906 9.83875 3.06515 10.3551C3.26124 10.8714 3.83875 11.1309 4.35505 10.9348L3.64495 9.06515ZM14.2124 21.7417C14.7521 21.6244 15.0945 21.0918 14.9772 20.5521C14.8599 20.0125 14.3273 19.67 13.7876 19.7873L14.2124 21.7417ZM19 14C19 14.5523 19.4477 15 20 15C20.5523 15 21 14.5523 21 14H19ZM12 11C11 11 11 11.0006 11 11.0013C11 11.0016 11 11.0022 11 11.0027C11 11.0037 11 11.0047 11 11.0058C11 11.0079 11 11.0102 11.0001 11.0127C11.0001 11.0178 11.0002 11.0236 11.0004 11.0301C11.0006 11.0432 11.0011 11.0592 11.002 11.0781C11.0036 11.1158 11.0067 11.1648 11.0123 11.2237C11.0235 11.3411 11.0449 11.4995 11.0863 11.6857C11.1685 12.0554 11.3333 12.5528 11.6679 13.0547C12.3761 14.1169 13.7087 15 16 15V13C14.2913 13 13.6239 12.3831 13.3321 11.9453C13.1667 11.6972 13.0815 11.4446 13.0387 11.2518C13.0176 11.1567 13.0078 11.0808 13.0033 11.0341C13.0011 11.0109 13.0003 10.9955 13 10.9893C12.9999 10.9862 12.9999 10.9854 12.9999 10.9871C12.9999 10.9879 12.9999 10.9894 13 10.9916C13 10.9926 13 10.9939 13 10.9953C13 10.996 13 10.9967 13 10.9975C13 10.9979 13 10.9985 13 10.9987C13 10.9993 13 11 12 11ZM16 15C18.1541 15 19.4534 14.4608 20.2071 13.7071C20.5793 13.3349 20.7804 12.9459 20.8862 12.6287C20.9385 12.4719 20.9668 12.3346 20.9821 12.2274C20.9898 12.1737 20.9943 12.1271 20.9968 12.089C20.9981 12.0699 20.9989 12.0528 20.9994 12.038C20.9996 12.0305 20.9998 12.0237 20.9999 12.0173C20.9999 12.0142 20.9999 12.0111 21 12.0082C21 12.0068 21 12.0054 21 12.004C21 12.0033 21 12.0023 21 12.002C21 12.001 21 12 20 12C19 12 19 11.999 19 11.9981C19 11.9978 19 11.9968 19 11.9962C19 11.9949 19 11.9937 19 11.9925C19 11.9901 19.0001 11.9878 19.0001 11.9856C19.0002 11.9812 19.0003 11.9771 19.0004 11.9735C19.0006 11.9662 19.0009 11.9604 19.0012 11.9559C19.0018 11.9471 19.0024 11.9435 19.0022 11.9445C19.0019 11.9467 18.999 11.9656 18.9888 11.9963C18.9696 12.0541 18.9207 12.1651 18.7929 12.2929C18.5466 12.5392 17.8459 13 16 13V15ZM12 20C10.7099 20 9.42878 19.5666 8.48894 18.8356C7.55994 18.1131 7 17.1357 7 16H5C5 17.8642 5.94006 19.3869 7.26106 20.4143C8.57122 21.4334 10.2901 22 12 22L12 20ZM7 16C7 14.7238 7.426 13.6451 7.86825 12.8711C8.08819 12.4862 8.30736 12.1853 8.46838 11.9841C8.54865 11.8837 8.61372 11.8091 8.65618 11.7621C8.67739 11.7386 8.69287 11.7221 8.70169 11.7128C8.7061 11.7082 8.70884 11.7054 8.70979 11.7044C8.71026 11.7039 8.71028 11.7039 8.70985 11.7044C8.70963 11.7046 8.70929 11.7049 8.70884 11.7054C8.70861 11.7056 8.70836 11.7059 8.70807 11.7061C8.70793 11.7063 8.70769 11.7065 8.70762 11.7066C8.70738 11.7068 8.70712 11.7071 8.00002 11C7.29292 10.2929 7.29265 10.2931 7.29238 10.2934C7.29228 10.2935 7.29199 10.2938 7.29179 10.294C7.29138 10.2944 7.29094 10.2949 7.29048 10.2953C7.28954 10.2963 7.28848 10.2973 7.2873 10.2985C7.28494 10.3009 7.28209 10.3038 7.27878 10.3072C7.27216 10.314 7.26367 10.3228 7.25343 10.3335C7.23295 10.355 7.20547 10.3844 7.17198 10.4215C7.10507 10.4956 7.01389 10.6006 6.90665 10.7347C6.69267 11.0021 6.41184 11.3887 6.13177 11.8788C5.57401 12.8549 5 14.2762 5 16H7ZM12 11C12.4472 11.8944 12.4476 11.8942 12.4479 11.894C12.4481 11.894 12.4484 11.8938 12.4487 11.8937C12.4492 11.8934 12.4498 11.8931 12.4504 11.8928C12.4516 11.8922 12.4529 11.8916 12.4543 11.8908C12.4572 11.8894 12.4605 11.8877 12.4644 11.8857C12.4721 11.8817 12.4816 11.8767 12.493 11.8706C12.5158 11.8585 12.5458 11.8421 12.5821 11.8214C12.6544 11.78 12.7523 11.7211 12.8672 11.6445C13.0954 11.4924 13.3999 11.2643 13.7071 10.9571C14.3161 10.3481 15 9.35875 15 7.99998H13C13 8.64123 12.6839 9.15188 12.2929 9.54288C12.1001 9.73567 11.9046 9.88253 11.7578 9.98043C11.6852 10.0288 11.6268 10.0637 11.5898 10.0849C11.5713 10.0954 11.5584 10.1024 11.5519 10.1059C11.5486 10.1076 11.547 10.1085 11.5471 10.1084C11.5472 10.1084 11.5476 10.1081 11.5486 10.1077C11.5491 10.1074 11.5496 10.1071 11.5503 10.1068C11.5507 10.1066 11.5511 10.1064 11.5515 10.1062C11.5517 10.1061 11.552 10.1059 11.5521 10.1059C11.5525 10.1057 11.5528 10.1056 12 11ZM15 7.99998C15 6.84407 14.7374 5.91354 14.2484 5.16795C13.763 4.42785 13.1084 3.95243 12.4648 3.61459L11.5352 5.38539C11.9908 5.62462 12.3362 5.89919 12.576 6.26481C12.8122 6.62495 13 7.15588 13 7.99998H15ZM12.4648 3.61459C11.6268 3.17463 10.7873 2.96779 9.92022 3.03718L10.0798 5.03081C10.5019 4.99703 10.9657 5.0864 11.5352 5.38539L12.4648 3.61459ZM9.92022 3.03718C9.26008 3.09002 8.6363 3.299 8.03517 3.61459L8.96483 5.38539C9.38294 5.16589 9.74535 5.05757 10.0798 5.03081L9.92022 3.03718ZM8.03517 3.61459C7.0308 4.14188 5.96187 5.0871 5.61454 6.80143L7.57472 7.19857C7.7713 6.22828 8.33578 5.71564 8.96483 5.38539L8.03517 3.61459ZM5.61454 6.80143C5.53923 7.17318 5.5 7.57216 5.5 7.99998H7.5C7.5 7.69464 7.52796 7.42933 7.57472 7.19857L5.61454 6.80143ZM6.95426 6.06691L4.35963 5.0669L3.64037 6.9331L6.235 7.9331L6.95426 6.06691ZM5.5 7.99998C5.5 8.45996 5.56346 8.8825 5.66886 9.2654L7.59714 8.7346C7.53756 8.51817 7.5 8.27403 7.5 7.99998H5.5ZM5.66886 9.2654C5.90301 10.116 6.33714 10.748 6.70627 11.1638C6.89168 11.3727 7.06467 11.5317 7.1959 11.6416C7.26172 11.6967 7.31766 11.74 7.36023 11.7716C7.38153 11.7875 7.39955 11.8004 7.41386 11.8104C7.42101 11.8155 7.42725 11.8198 7.43251 11.8234C7.43514 11.8252 7.43752 11.8268 7.43966 11.8282C7.44073 11.829 7.44174 11.8296 7.44268 11.8303C7.44315 11.8306 7.44361 11.8309 7.44405 11.8312C7.44427 11.8313 7.44459 11.8315 7.4447 11.8316C7.44501 11.8318 7.44532 11.832 8.00002 11C8.55472 10.1679 8.55502 10.1681 8.55532 10.1683C8.55542 10.1684 8.55571 10.1686 8.5559 10.1687C8.55628 10.169 8.55665 10.1692 8.557 10.1695C8.5577 10.1699 8.55834 10.1704 8.55893 10.1708C8.5601 10.1715 8.56105 10.1722 8.56178 10.1727C8.56323 10.1737 8.5638 10.1741 8.56354 10.1739C8.56302 10.1735 8.5592 10.1708 8.55244 10.1658C8.53889 10.1558 8.51383 10.1366 8.48017 10.1084C8.41243 10.0516 8.31248 9.9606 8.20202 9.83614C7.97939 9.58533 7.73001 9.2173 7.59714 8.7346L5.66886 9.2654ZM6.27795 8.06515L3.64495 9.06515L4.35505 10.9348L6.98805 9.93485L6.27795 8.06515ZM13.7876 19.7873C13.1335 19.9295 12.5199 20 12 20L12 22C12.6892 22 13.4471 21.908 14.2124 21.7417L13.7876 19.7873ZM20 12C19 12 19 12 19 12C19 12 19 12 19 12C19 12 19 12 19 12.0001C19 12.0001 19 12.0001 19 12.0001C19 12.0001 19 12.0001 19 12.0002C19 12.0002 19 12.0002 19 12.0002C19 12.0002 19 12.0003 19 12.0003C19 12.0003 19 12.0004 19 12.0004C19 12.0004 19 12.0005 19 12.0005C19 12.0005 19 12.0006 19 12.0006C19 12.0007 19 12.0007 19 12.0007C19 12.0008 19 12.0008 19 12.0009C19 12.0009 19 12.001 19 12.001C19 12.0011 19 12.0012 19 12.0012C19 12.0013 19 12.0013 19 12.0014C19 12.0015 19 12.0015 19 12.0016C19 12.0016 19 12.0017 19 12.0018C19 12.0019 19 12.0019 19 12.002C19 12.0021 19 12.0022 19 12.0022C19 12.0023 19 12.0024 19 12.0025C19 12.0026 19 12.0026 19 12.0027C19 12.0028 19 12.0029 19 12.003C19 12.0031 19 12.0032 19 12.0033C19 12.0034 19 12.0035 19 12.0036C19 12.0037 19 12.0038 19 12.0039C19 12.004 19 12.0041 19 12.0042C19 12.0043 19 12.0044 19 12.0045C19 12.0046 19 12.0048 19 12.0049C19 12.005 19 12.0051 19 12.0052C19 12.0054 19 12.0055 19 12.0056C19 12.0057 19 12.0059 19 12.006C19 12.0061 19 12.0062 19 12.0064C19 12.0065 19 12.0066 19 12.0068C19 12.0069 19 12.0071 19 12.0072C19 12.0073 19 12.0075 19 12.0076C19 12.0078 19 12.0079 19 12.0081C19 12.0082 19 12.0084 19 12.0085C19 12.0087 19 12.0089 19 12.009C19 12.0092 19 12.0093 19 12.0095C19 12.0097 19 12.0098 19 12.01C19 12.0102 19 12.0103 19 12.0105C19 12.0107 19 12.0109 19 12.011C19 12.0112 19 12.0114 19 12.0116C19 12.0118 19 12.0119 19 12.0121C19 12.0123 19 12.0125 19 12.0127C19 12.0129 19 12.0131 19 12.0133C19 12.0135 19 12.0137 19 12.0139C19 12.014 19 12.0143 19 12.0145C19 12.0147 19 12.0149 19 12.0151C19 12.0153 19 12.0155 19 12.0157C19 12.0159 19 12.0161 19 12.0163C19 12.0166 19 12.0168 19 12.017C19 12.0172 19 12.0174 19 12.0177C19 12.0179 19 12.0181 19 12.0183C19 12.0186 19 12.0188 19 12.019C19 12.0193 19 12.0195 19 12.0197C19 12.02 19 12.0202 19 12.0205C19 12.0207 19 12.021 19 12.0212C19 12.0214 19 12.0217 19 12.0219C19 12.0222 19 12.0225 19 12.0227C19 12.023 19 12.0232 19 12.0235C19 12.0237 19 12.024 19 12.0243C19 12.0245 19 12.0248 19 12.0251C19 12.0253 19 12.0256 19 12.0259C19 12.0262 19 12.0264 19 12.0267C19 12.027 19 12.0273 19 12.0276C19 12.0278 19 12.0281 19 12.0284C19 12.0287 19 12.029 19 12.0293C19 12.0296 19 12.0299 19 12.0302C19 12.0305 19 12.0308 19 12.0311C19 12.0314 19 12.0317 19 12.032C19 12.0323 19 12.0326 19 12.0329C19 12.0332 19 12.0335 19 12.0338C19 12.0341 19 12.0344 19 12.0348C19 12.0351 19 12.0354 19 12.0357C19 12.0361 19 12.0364 19 12.0367C19 12.037 19 12.0374 19 12.0377C19 12.038 19 12.0384 19 12.0387C19 12.039 19 12.0394 19 12.0397C19 12.0401 19 12.0404 19 12.0407C19 12.0411 19 12.0414 19 12.0418C19 12.0421 19 12.0425 19 12.0428C19 12.0432 19 12.0436 19 12.0439C19 12.0443 19 12.0446 19 12.045C19 12.0454 19 12.0457 19 12.0461C19 12.0465 19 12.0468 19 12.0472C19 12.0476 19 12.048 19 12.0483C19 12.0487 19 12.0491 19 12.0495C19 12.0499 19 12.0503 19 12.0506C19 12.051 19 12.0514 19 12.0518C19 12.0522 19 12.0526 19 12.053C19 12.0534 19 12.0538 19 12.0542C19 12.0546 19 12.055 19 12.0554C19 12.0558 19 12.0562 19 12.0566C19 12.057 19 12.0574 19 12.0579C19 12.0583 19 12.0587 19 12.0591C19 12.0595 19 12.0599 19 12.0604C19 12.0608 19 12.0612 19 12.0616C19 12.0621 19 12.0625 19 12.0629C19 12.0634 19 12.0638 19 12.0642C19 12.0647 19 12.0651 19 12.0656C19 12.066 19 12.0665 19 12.0669C19 12.0674 19 12.0678 19 12.0683C19 12.0687 19 12.0692 19 12.0696C19 12.0701 19 12.0705 19 12.071C19 12.0715 19 12.0719 19 12.0724C19 12.0729 19 12.0733 19 12.0738C19 12.0743 19 12.0747 19 12.0752C19 12.0757 19 12.0762 19 12.0766C19 12.0771 19 12.0776 19 12.0781C19 12.0786 19 12.0791 19 12.0796C19 12.08 19 12.0805 19 12.081C19 12.0815 19 12.082 19 12.0825C19 12.083 19 12.0835 19 12.084C19 12.0845 19 12.085 19 12.0856C19 12.0861 19 12.0866 19 12.0871C19 12.0876 19 12.0881 19 12.0886C19 12.0892 19 12.0897 19 12.0902C19 12.0907 19 12.0912 19 12.0918C19 12.0923 19 12.0928 19 12.0934C19 12.0939 19 12.0944 19 12.095C19 12.0955 19 12.096 19 12.0966C19 12.0971 19 12.0977 19 12.0982C19 12.0988 19 12.0993 19 12.0999C19 12.1004 19 12.101 19 12.1015C19 12.1021 19 12.1026 19 12.1032C19 12.1038 19 12.1043 19 12.1049C19 12.1055 19 12.106 19 12.1066C19 12.1072 19 12.1078 19 12.1083C19 12.1089 19 12.1095 19 12.1101C19 12.1106 19 12.1112 19 12.1118C19 12.1124 19 12.113 19 12.1136C19 12.1142 19 12.1148 19 12.1154C19 12.116 19 12.1166 19 12.1172C19 12.1178 19 12.1184 19 12.119C19 12.1196 19 12.1202 19 12.1208C19 12.1214 19 12.122 19 12.1226C19 12.1232 19 12.1239 19 12.1245C19 12.1251 19 12.1257 19 12.1263C19 12.127 19 12.1276 19 12.1282C19 12.1289 19 12.1295 19 12.1301C19 12.1308 19 12.1314 19 12.132C19 12.1327 19 12.1333 19 12.134C19 12.1346 19 12.1352 19 12.1359C19 12.1365 19 12.1372 19 12.1379C19 12.1385 19 12.1392 19 12.1398C19 12.1405 19 12.1411 19 12.1418C19 12.1425 19 12.1431 19 12.1438C19 12.1445 19 12.1451 19 12.1458C19 12.1465 19 12.1472 19 12.1479C19 12.1485 19 12.1492 19 12.1499C19 12.1506 19 12.1513 19 12.152C19 12.1526 19 12.1533 19 12.154C19 12.1547 19 12.1554 19 12.1561C19 12.1568 19 12.1575 19 12.1582C19 12.1589 19 12.1596 19 12.1603C19 12.1611 19 12.1618 19 12.1625C19 12.1632 19 12.1639 19 12.1646C19 12.1653 19 12.1661 19 12.1668C19 12.1675 19 12.1682 19 12.169C19 12.1697 19 12.1704 19 12.1712C19 12.1719 19 12.1726 19 12.1734C19 12.1741 19 12.1749 19 12.1756C19 12.1763 19 12.1771 19 12.1778C19 12.1786 19 12.1793 19 12.1801C19 12.1808 19 12.1816 19 12.1824C19 12.1831 19 12.1839 19 12.1846C19 12.1854 19 12.1862 19 12.187C19 12.1877 19 12.1885 19 12.1893C19 12.19 19 12.1908 19 12.1916C19 12.1924 19 12.1932 19 12.1939C19 12.1947 19 12.1955 19 12.1963C19 12.1971 19 12.1979 19 12.1987C19 12.1995 19 12.2003 19 12.2011C19 12.2019 19 12.2027 19 12.2035C19 12.2043 19 12.2051 19 12.2059C19 12.2067 19 12.2075 19 12.2083C19 12.2092 19 12.21 19 12.2108C19 12.2116 19 12.2124 19 12.2133C19 12.2141 19 12.2149 19 12.2157C19 12.2166 19 12.2174 19 12.2182C19 12.2191 19 12.2199 19 12.2208C19 12.2216 19 12.2224 19 12.2233C19 12.2241 19 12.225 19 12.2258C19 12.2267 19 12.2275 19 12.2284C19 12.2293 19 12.2301 19 12.231C19 12.2318 19 12.2327 19 12.2336C19 12.2344 19 12.2353 19 12.2362C19 12.2371 19 12.2379 19 12.2388C19 12.2397 19 12.2406 19 12.2414C19 12.2423 19 12.2432 19 12.2441C19 12.245 19 12.2459 19 12.2468C19 12.2477 19 12.2486 19 12.2495C19 12.2503 19 12.2513 19 12.2522C19 12.2531 19 12.254 19 12.2549C19 12.2558 19 12.2567 19 12.2576C19 12.2585 19 12.2594 19 12.2604C19 12.2613 19 12.2622 19 12.2631C19 12.264 19 12.265 19 12.2659C19 12.2668 19 12.2678 19 12.2687C19 12.2696 19 12.2706 19 12.2715C19 12.2724 19 12.2734 19 12.2743C19 12.2753 19 12.2762 19 12.2772C19 12.2781 19 12.2791 19 12.28C19 12.281 19 12.2819 19 12.2829C19 12.2839 19 12.2848 19 12.2858C19 12.2868 19 12.2877 19 12.2887C19 12.2897 19 12.2907 19 12.2916C19 12.2926 19 12.2936 19 12.2946C19 12.2956 19 12.2965 19 12.2975C19 12.2985 19 12.2995 19 12.3005C19 12.3015 19 12.3025 19 12.3035C19 12.3045 19 12.3055 19 12.3065C19 12.3075 19 12.3085 19 12.3095C19 12.3105 19 12.3115 19 12.3125C19 12.3135 19 12.3146 19 12.3156C19 12.3166 19 12.3176 19 12.3187C19 12.3197 19 12.3207 19 12.3217C19 12.3228 19 12.3238 19 12.3248C19 12.3259 19 12.3269 19 12.3279C19 12.329 19 12.33 19 12.3311C19 12.3321 19 12.3332 19 12.3342C19 12.3353 19 12.3363 19 12.3374C19 12.3384 19 12.3395 19 12.3406C19 12.3416 19 12.3427 19 12.3438C19 12.3448 19 12.3459 19 12.347C19 12.3481 19 12.3491 19 12.3502C19 12.3513 19 12.3524 19 12.3534C19 12.3545 19 12.3556 19 12.3567C19 12.3578 19 12.3589 19 12.36C19 12.3611 19 12.3622 19 12.3633C19 12.3644 19 12.3655 19 12.3666C19 12.3677 19 12.3688 19 12.3699C19 12.371 19 12.3721 19 12.3733C19 12.3744 19 12.3755 19 12.3766C19 12.3777 19 12.3789 19 12.38C19 12.3811 19 12.3822 19 12.3834C19 12.3845 19 12.3857 19 12.3868C19 12.3879 19 12.3891 19 12.3902C19 12.3914 19 12.3925 19 12.3937C19 12.3948 19 12.396 19 12.3971C19 12.3983 19 12.3994 19 12.4006C19 12.4017 19 12.4029 19 12.4041C19 12.4052 19 12.4064 19 12.4076C19 12.4088 19 12.4099 19 12.4111C19 12.4123 19 12.4135 19 12.4146C19 12.4158 19 12.417 19 12.4182C19 12.4194 19 12.4206 19 12.4218C19 12.423 19 12.4242 19 12.4254C19 12.4266 19 12.4278 19 12.429C19 12.4302 19 12.4314 19 12.4326C19 12.4338 19 12.435 19 12.4362C19 12.4374 19 12.4387 19 12.4399C19 12.4411 19 12.4423 19 12.4436C19 12.4448 19 12.446 19 12.4473C19 12.4485 19 12.4497 19 12.451C19 12.4522 19 12.4534 19 12.4547C19 12.4559 19 12.4572 19 12.4584C19 12.4597 19 12.4609 19 12.4622C19 12.4634 19 12.4647 19 12.4659C19 12.4672 19 12.4685 19 12.4697C19 12.471 19 12.4723 19 12.4735C19 12.4748 19 12.4761 19 12.4774C19 12.4786 19 12.4799 19 12.4812C19 12.4825 19 12.4838 19 12.4851C19 12.4864 19 12.4876 19 12.4889C19 12.4902 19 12.4915 19 12.4928C19 12.4941 19 12.4954 19 12.4967C19 12.498 19 12.4994 19 12.5007C19 12.502 19 12.5033 19 12.5046C19 12.5059 19 12.5072 19 12.5086C19 12.5099 19 12.5112 19 12.5125C19 12.5139 19 12.5152 19 12.5165C19 12.5179 19 12.5192 19 12.5206C19 12.5219 19 12.5232 19 12.5246C19 12.5259 19 12.5273 19 12.5286C19 12.53 19 12.5313 19 12.5327C19 12.534 19 12.5354 19 12.5368C19 12.5381 19 12.5395 19 12.5409C19 12.5422 19 12.5436 19 12.545C19 12.5463 19 12.5477 19 12.5491C19 12.5505 19 12.5519 19 12.5533C19 12.5546 19 12.556 19 12.5574C19 12.5588 19 12.5602 19 12.5616C19 12.563 19 12.5644 19 12.5658C19 12.5672 19 12.5686 19 12.57C19 12.5714 19 12.5728 19 12.5742C19 12.5757 19 12.5771 19 12.5785C19 12.5799 19 12.5813 19 12.5828C19 12.5842 19 12.5856 19 12.5871C19 12.5885 19 12.5899 19 12.5914C19 12.5928 19 12.5942 19 12.5957C19 12.5971 19 12.5986 19 12.6C19 12.6015 19 12.6029 19 12.6044C19 12.6058 19 12.6073 19 12.6087C19 12.6102 19 12.6117 19 12.6131C19 12.6146 19 12.6161 19 12.6175C19 12.619 19 12.6205 19 12.622C19 12.6234 19 12.6249 19 12.6264C19 12.6279 19 12.6294 19 12.6309C19 12.6324 19 12.6339 19 12.6353C19 12.6368 19 12.6383 19 12.6398C19 12.6413 19 12.6428 19 12.6444C19 12.6459 19 12.6474 19 12.6489C19 12.6504 19 12.6519 19 12.6534C19 12.655 19 12.6565 19 12.658C19 12.6595 19 12.6611 19 12.6626C19 12.6641 19 12.6656 19 12.6672C19 12.6687 19 12.6703 19 12.6718C19 12.6733 19 12.6749 19 12.6764C19 12.678 19 12.6795 19 12.6811C19 12.6826 19 12.6842 19 12.6858C19 12.6873 19 12.6889 19 12.6905C19 12.692 19 12.6936 19 12.6952C19 12.6967 19 12.6983 19 12.6999C19 12.7015 19 12.703 19 12.7046C19 12.7062 19 12.7078 19 12.7094C19 12.711 19 12.7126 19 12.7142C19 12.7158 19 12.7174 19 12.719C19 12.7206 19 12.7222 19 12.7238C19 12.7254 19 12.727 19 12.7286C19 12.7302 19 12.7318 19 12.7335C19 12.7351 19 12.7367 19 12.7383C19 12.74 19 12.7416 19 12.7432C19 12.7448 19 12.7465 19 12.7481C19 12.7498 19 12.7514 19 12.753C19 12.7547 19 12.7563 19 12.758C19 12.7596 19 12.7613 19 12.7629C19 12.7646 19 12.7662 19 12.7679C19 12.7696 19 12.7712 19 12.7729C19 12.7746 19 12.7762 19 12.7779C19 12.7796 19 12.7813 19 12.7829C19 12.7846 19 12.7863 19 12.788C19 12.7897 19 12.7914 19 12.7931C19 12.7948 19 12.7964 19 12.7981C19 12.7998 19 12.8015 19 12.8032C19 12.8049 19 12.8067 19 12.8084C19 12.8101 19 12.8118 19 12.8135C19 12.8152 19 12.8169 19 12.8187C19 12.8204 19 12.8221 19 12.8238C19 12.8256 19 12.8273 19 12.829C19 12.8308 19 12.8325 19 12.8342C19 12.836 19 12.8377 19 12.8395C19 12.8412 19 12.843 19 12.8447C19 12.8465 19 12.8482 19 12.85C19 12.8517 19 12.8535 19 12.8553C19 12.857 19 12.8588 19 12.8606C19 12.8623 19 12.8641 19 12.8659C19 12.8677 19 12.8694 19 12.8712C19 12.873 19 12.8748 19 12.8766C19 12.8784 19 12.8802 19 12.882C19 12.8838 19 12.8856 19 12.8874C19 12.8892 19 12.891 19 12.8928C19 12.8946 19 12.8964 19 12.8982C19 12.9 19 12.9018 19 12.9037C19 12.9055 19 12.9073 19 12.9091C19 12.911 19 12.9128 19 12.9146C19 12.9164 19 12.9183 19 12.9201C19 12.922 19 12.9238 19 12.9256C19 12.9275 19 12.9293 19 12.9312C19 12.933 19 12.9349 19 12.9367C19 12.9386 19 12.9405 19 12.9423C19 12.9442 19 12.9461 19 12.9479C19 12.9498 19 12.9517 19 12.9535C19 12.9554 19 12.9573 19 12.9592C19 12.9611 19 12.9629 19 12.9648C19 12.9667 19 12.9686 19 12.9705C19 12.9724 19 12.9743 19 12.9762C19 12.9781 19 12.98 19 12.9819C19 12.9838 19 12.9857 19 12.9876C19 12.9896 19 12.9915 19 12.9934C19 12.9953 19 12.9972 19 12.9992C19 13.0011 19 13.003 19 13.0049C19 13.0069 19 13.0088 19 13.0107C19 13.0127 19 13.0146 19 13.0166C19 13.0185 19 13.0205 19 13.0224C19 13.0244 19 13.0263 19 13.0283C19 13.0302 19 13.0322 19 13.0341C19 13.0361 19 13.0381 19 13.04C19 13.042 19 13.044 19 13.046C19 13.0479 19 13.0499 19 13.0519C19 13.0539 19 13.0559 19 13.0579C19 13.0598 19 13.0618 19 13.0638C19 13.0658 19 13.0678 19 13.0698C19 13.0718 19 13.0738 19 13.0758C19 13.0778 19 13.0799 19 13.0819C19 13.0839 19 13.0859 19 13.0879C19 13.0899 19 13.092 19 13.094C19 13.096 19 13.098 19 13.1001C19 13.1021 19 13.1041 19 13.1062C19 13.1082 19 13.1103 19 13.1123C19 13.1144 19 13.1164 19 13.1185C19 13.1205 19 13.1226 19 13.1246C19 13.1267 19 13.1287 19 13.1308C19 13.1329 19 13.1349 19 13.137C19 13.1391 19 13.1412 19 13.1432C19 13.1453 19 13.1474 19 13.1495C19 13.1516 19 13.1536 19 13.1557C19 13.1578 19 13.1599 19 13.162C19 13.1641 19 13.1662 19 13.1683C19 13.1704 19 13.1725 19 13.1746C19 13.1767 19 13.1789 19 13.181C19 13.1831 19 13.1852 19 13.1873C19 13.1895 19 13.1916 19 13.1937C19 13.1958 19 13.198 19 13.2001C19 13.2022 19 13.2044 19 13.2065C19 13.2087 19 13.2108 19 13.213C19 13.2151 19 13.2173 19 13.2194C19 13.2216 19 13.2237 19 13.2259C19 13.228 19 13.2302 19 13.2324C19 13.2345 19 13.2367 19 13.2389C19 13.2411 19 13.2432 19 13.2454C19 13.2476 19 13.2498 19 13.252C19 13.2542 19 13.2564 19 13.2585C19 13.2607 19 13.2629 19 13.2651C19 13.2673 19 13.2695 19 13.2717C19 13.274 19 13.2762 19 13.2784C19 13.2806 19 13.2828 19 13.285C19 13.2872 19 13.2895 19 13.2917C19 13.2939 19 13.2962 19 13.2984C19 13.3006 19 13.3029 19 13.3051C19 13.3073 19 13.3096 19 13.3118C19 13.3141 19 13.3163 19 13.3186C19 13.3208 19 13.3231 19 13.3253C19 13.3276 19 13.3299 19 13.3321C19 13.3344 19 13.3367 19 13.3389C19 13.3412 19 13.3435 19 13.3458C19 13.348 19 13.3503 19 13.3526C19 13.3549 19 13.3572 19 13.3595C19 13.3618 19 13.3641 19 13.3664C19 13.3687 19 13.371 19 13.3733C19 13.3756 19 13.3779 19 13.3802C19 13.3825 19 13.3848 19 13.3871C19 13.3894 19 13.3918 19 13.3941C19 13.3964 19 13.3987 19 13.4011C19 13.4034 19 13.4057 19 13.4081C19 13.4104 19 13.4128 19 13.4151C19 13.4175 19 13.4198 19 13.4222C19 13.4245 19 13.4269 19 13.4292C19 13.4316 19 13.4339 19 13.4363C19 13.4387 19 13.441 19 13.4434C19 13.4458 19 13.4482 19 13.4505C19 13.4529 19 13.4553 19 13.4577C19 13.4601 19 13.4625 19 13.4648C19 13.4672 19 13.4696 19 13.472C19 13.4744 19 13.4768 19 13.4792C19 13.4816 19 13.484 19 13.4865C19 13.4889 19 13.4913 19 13.4937C19 13.4961 19 13.4985 19 13.501C19 13.5034 19 13.5058 19 13.5083C19 13.5107 19 13.5131 19 13.5156C19 13.518 19 13.5204 19 13.5229C19 13.5253 19 13.5278 19 13.5302C19 13.5327 19 13.5351 19 13.5376C19 13.5401 19 13.5425 19 13.545C19 13.5474 19 13.5499 19 13.5524C19 13.5549 19 13.5573 19 13.5598C19 13.5623 19 13.5648 19 13.5673C19 13.5697 19 13.5722 19 13.5747C19 13.5772 19 13.5797 19 13.5822C19 13.5847 19 13.5872 19 13.5897C19 13.5922 19 13.5947 19 13.5973C19 13.5998 19 13.6023 19 13.6048C19 13.6073 19 13.6098 19 13.6124C19 13.6149 19 13.6174 19 13.62C19 13.6225 19 13.625 19 13.6276C19 13.6301 19 13.6327 19 13.6352C19 13.6377 19 13.6403 19 13.6428C19 13.6454 19 13.648 19 13.6505C19 13.6531 19 13.6556 19 13.6582C19 13.6608 19 13.6634 19 13.6659C19 13.6685 19 13.6711 19 13.6737C19 13.6762 19 13.6788 19 13.6814C19 13.684 19 13.6866 19 13.6892C19 13.6918 19 13.6944 19 13.697C19 13.6996 19 13.7022 19 13.7048C19 13.7074 19 13.71 19 13.7126C19 13.7152 19 13.7179 19 13.7205C19 13.7231 19 13.7257 19 13.7284C19 13.731 19 13.7336 19 13.7363C19 13.7389 19 13.7415 19 13.7442C19 13.7468 19 13.7495 19 13.7521C19 13.7548 19 13.7574 19 13.7601C19 13.7627 19 13.7654 19 13.7681C19 13.7707 19 13.7734 19 13.7761C19 13.7787 19 13.7814 19 13.7841C19 13.7868 19 13.7894 19 13.7921C19 13.7948 19 13.7975 19 13.8002C19 13.8029 19 13.8056 19 13.8083C19 13.811 19 13.8137 19 13.8164C19 13.8191 19 13.8218 19 13.8245C19 13.8272 19 13.8299 19 13.8326C19 13.8354 19 13.8381 19 13.8408C19 13.8435 19 13.8463 19 13.849C19 13.8517 19 13.8545 19 13.8572C19 13.86 19 13.8627 19 13.8654C19 13.8682 19 13.8709 19 13.8737C19 13.8765 19 13.8792 19 13.882C19 13.8847 19 13.8875 19 13.8903C19 13.893 19 13.8958 19 13.8986C19 13.9014 19 13.9041 19 13.9069C19 13.9097 19 13.9125 19 13.9153C19 13.9181 19 13.9209 19 13.9236C19 13.9264 19 13.9292 19 13.932C19 13.9349 19 13.9377 19 13.9405C19 13.9433 19 13.9461 19 13.9489C19 13.9517 19 13.9545 19 13.9574C19 13.9602 19 13.963 19 13.9659C19 13.9687 19 13.9715 19 13.9744C19 13.9772 19 13.98 19 13.9829C19 13.9857 19 13.9886 19 13.9914C19 13.9943 19 13.9971 19 14H21C21 13.9971 21 13.9943 21 13.9914C21 13.9886 21 13.9857 21 13.9829C21 13.98 21 13.9772 21 13.9744C21 13.9715 21 13.9687 21 13.9659C21 13.963 21 13.9602 21 13.9574C21 13.9545 21 13.9517 21 13.9489C21 13.9461 21 13.9433 21 13.9405C21 13.9377 21 13.9349 21 13.932C21 13.9292 21 13.9264 21 13.9236C21 13.9209 21 13.9181 21 13.9153C21 13.9125 21 13.9097 21 13.9069C21 13.9041 21 13.9014 21 13.8986C21 13.8958 21 13.893 21 13.8903C21 13.8875 21 13.8847 21 13.882C21 13.8792 21 13.8765 21 13.8737C21 13.8709 21 13.8682 21 13.8654C21 13.8627 21 13.86 21 13.8572C21 13.8545 21 13.8517 21 13.849C21 13.8463 21 13.8435 21 13.8408C21 13.8381 21 13.8354 21 13.8326C21 13.8299 21 13.8272 21 13.8245C21 13.8218 21 13.8191 21 13.8164C21 13.8137 21 13.811 21 13.8083C21 13.8056 21 13.8029 21 13.8002C21 13.7975 21 13.7948 21 13.7921C21 13.7894 21 13.7868 21 13.7841C21 13.7814 21 13.7787 21 13.7761C21 13.7734 21 13.7707 21 13.7681C21 13.7654 21 13.7627 21 13.7601C21 13.7574 21 13.7548 21 13.7521C21 13.7495 21 13.7468 21 13.7442C21 13.7415 21 13.7389 21 13.7363C21 13.7336 21 13.731 21 13.7284C21 13.7257 21 13.7231 21 13.7205C21 13.7179 21 13.7152 21 13.7126C21 13.71 21 13.7074 21 13.7048C21 13.7022 21 13.6996 21 13.697C21 13.6944 21 13.6918 21 13.6892C21 13.6866 21 13.684 21 13.6814C21 13.6788 21 13.6762 21 13.6737C21 13.6711 21 13.6685 21 13.6659C21 13.6634 21 13.6608 21 13.6582C21 13.6556 21 13.6531 21 13.6505C21 13.648 21 13.6454 21 13.6428C21 13.6403 21 13.6377 21 13.6352C21 13.6327 21 13.6301 21 13.6276C21 13.625 21 13.6225 21 13.62C21 13.6174 21 13.6149 21 13.6124C21 13.6098 21 13.6073 21 13.6048C21 13.6023 21 13.5998 21 13.5973C21 13.5947 21 13.5922 21 13.5897C21 13.5872 21 13.5847 21 13.5822C21 13.5797 21 13.5772 21 13.5747C21 13.5722 21 13.5697 21 13.5673C21 13.5648 21 13.5623 21 13.5598C21 13.5573 21 13.5549 21 13.5524C21 13.5499 21 13.5474 21 13.545C21 13.5425 21 13.5401 21 13.5376C21 13.5351 21 13.5327 21 13.5302C21 13.5278 21 13.5253 21 13.5229C21 13.5204 21 13.518 21 13.5156C21 13.5131 21 13.5107 21 13.5083C21 13.5058 21 13.5034 21 13.501C21 13.4985 21 13.4961 21 13.4937C21 13.4913 21 13.4889 21 13.4865C21 13.484 21 13.4816 21 13.4792C21 13.4768 21 13.4744 21 13.472C21 13.4696 21 13.4672 21 13.4648C21 13.4625 21 13.4601 21 13.4577C21 13.4553 21 13.4529 21 13.4505C21 13.4482 21 13.4458 21 13.4434C21 13.441 21 13.4387 21 13.4363C21 13.4339 21 13.4316 21 13.4292C21 13.4269 21 13.4245 21 13.4222C21 13.4198 21 13.4175 21 13.4151C21 13.4128 21 13.4104 21 13.4081C21 13.4057 21 13.4034 21 13.4011C21 13.3987 21 13.3964 21 13.3941C21 13.3918 21 13.3894 21 13.3871C21 13.3848 21 13.3825 21 13.3802C21 13.3779 21 13.3756 21 13.3733C21 13.371 21 13.3687 21 13.3664C21 13.3641 21 13.3618 21 13.3595C21 13.3572 21 13.3549 21 13.3526C21 13.3503 21 13.348 21 13.3458C21 13.3435 21 13.3412 21 13.3389C21 13.3367 21 13.3344 21 13.3321C21 13.3299 21 13.3276 21 13.3253C21 13.3231 21 13.3208 21 13.3186C21 13.3163 21 13.3141 21 13.3118C21 13.3096 21 13.3073 21 13.3051C21 13.3029 21 13.3006 21 13.2984C21 13.2962 21 13.2939 21 13.2917C21 13.2895 21 13.2872 21 13.285C21 13.2828 21 13.2806 21 13.2784C21 13.2762 21 13.274 21 13.2717C21 13.2695 21 13.2673 21 13.2651C21 13.2629 21 13.2607 21 13.2585C21 13.2564 21 13.2542 21 13.252C21 13.2498 21 13.2476 21 13.2454C21 13.2432 21 13.2411 21 13.2389C21 13.2367 21 13.2345 21 13.2324C21 13.2302 21 13.228 21 13.2259C21 13.2237 21 13.2216 21 13.2194C21 13.2173 21 13.2151 21 13.213C21 13.2108 21 13.2087 21 13.2065C21 13.2044 21 13.2022 21 13.2001C21 13.198 21 13.1958 21 13.1937C21 13.1916 21 13.1895 21 13.1873C21 13.1852 21 13.1831 21 13.181C21 13.1789 21 13.1767 21 13.1746C21 13.1725 21 13.1704 21 13.1683C21 13.1662 21 13.1641 21 13.162C21 13.1599 21 13.1578 21 13.1557C21 13.1536 21 13.1516 21 13.1495C21 13.1474 21 13.1453 21 13.1432C21 13.1412 21 13.1391 21 13.137C21 13.1349 21 13.1329 21 13.1308C21 13.1287 21 13.1267 21 13.1246C21 13.1226 21 13.1205 21 13.1185C21 13.1164 21 13.1144 21 13.1123C21 13.1103 21 13.1082 21 13.1062C21 13.1041 21 13.1021 21 13.1001C21 13.098 21 13.096 21 13.094C21 13.092 21 13.0899 21 13.0879C21 13.0859 21 13.0839 21 13.0819C21 13.0799 21 13.0778 21 13.0758C21 13.0738 21 13.0718 21 13.0698C21 13.0678 21 13.0658 21 13.0638C21 13.0618 21 13.0598 21 13.0579C21 13.0559 21 13.0539 21 13.0519C21 13.0499 21 13.0479 21 13.046C21 13.044 21 13.042 21 13.04C21 13.0381 21 13.0361 21 13.0341C21 13.0322 21 13.0302 21 13.0283C21 13.0263 21 13.0244 21 13.0224C21 13.0205 21 13.0185 21 13.0166C21 13.0146 21 13.0127 21 13.0107C21 13.0088 21 13.0069 21 13.0049C21 13.003 21 13.0011 21 12.9992C21 12.9972 21 12.9953 21 12.9934C21 12.9915 21 12.9896 21 12.9876C21 12.9857 21 12.9838 21 12.9819C21 12.98 21 12.9781 21 12.9762C21 12.9743 21 12.9724 21 12.9705C21 12.9686 21 12.9667 21 12.9648C21 12.9629 21 12.9611 21 12.9592C21 12.9573 21 12.9554 21 12.9535C21 12.9517 21 12.9498 21 12.9479C21 12.9461 21 12.9442 21 12.9423C21 12.9405 21 12.9386 21 12.9367C21 12.9349 21 12.933 21 12.9312C21 12.9293 21 12.9275 21 12.9256C21 12.9238 21 12.922 21 12.9201C21 12.9183 21 12.9164 21 12.9146C21 12.9128 21 12.911 21 12.9091C21 12.9073 21 12.9055 21 12.9037C21 12.9018 21 12.9 21 12.8982C21 12.8964 21 12.8946 21 12.8928C21 12.891 21 12.8892 21 12.8874C21 12.8856 21 12.8838 21 12.882C21 12.8802 21 12.8784 21 12.8766C21 12.8748 21 12.873 21 12.8712C21 12.8694 21 12.8677 21 12.8659C21 12.8641 21 12.8623 21 12.8606C21 12.8588 21 12.857 21 12.8553C21 12.8535 21 12.8517 21 12.85C21 12.8482 21 12.8465 21 12.8447C21 12.843 21 12.8412 21 12.8395C21 12.8377 21 12.836 21 12.8342C21 12.8325 21 12.8308 21 12.829C21 12.8273 21 12.8256 21 12.8238C21 12.8221 21 12.8204 21 12.8187C21 12.8169 21 12.8152 21 12.8135C21 12.8118 21 12.8101 21 12.8084C21 12.8067 21 12.8049 21 12.8032C21 12.8015 21 12.7998 21 12.7981C21 12.7964 21 12.7948 21 12.7931C21 12.7914 21 12.7897 21 12.788C21 12.7863 21 12.7846 21 12.7829C21 12.7813 21 12.7796 21 12.7779C21 12.7762 21 12.7746 21 12.7729C21 12.7712 21 12.7696 21 12.7679C21 12.7662 21 12.7646 21 12.7629C21 12.7613 21 12.7596 21 12.758C21 12.7563 21 12.7547 21 12.753C21 12.7514 21 12.7498 21 12.7481C21 12.7465 21 12.7448 21 12.7432C21 12.7416 21 12.74 21 12.7383C21 12.7367 21 12.7351 21 12.7335C21 12.7318 21 12.7302 21 12.7286C21 12.727 21 12.7254 21 12.7238C21 12.7222 21 12.7206 21 12.719C21 12.7174 21 12.7158 21 12.7142C21 12.7126 21 12.711 21 12.7094C21 12.7078 21 12.7062 21 12.7046C21 12.703 21 12.7015 21 12.6999C21 12.6983 21 12.6967 21 12.6952C21 12.6936 21 12.692 21 12.6905C21 12.6889 21 12.6873 21 12.6858C21 12.6842 21 12.6826 21 12.6811C21 12.6795 21 12.678 21 12.6764C21 12.6749 21 12.6733 21 12.6718C21 12.6703 21 12.6687 21 12.6672C21 12.6656 21 12.6641 21 12.6626C21 12.6611 21 12.6595 21 12.658C21 12.6565 21 12.655 21 12.6534C21 12.6519 21 12.6504 21 12.6489C21 12.6474 21 12.6459 21 12.6444C21 12.6428 21 12.6413 21 12.6398C21 12.6383 21 12.6368 21 12.6353C21 12.6339 21 12.6324 21 12.6309C21 12.6294 21 12.6279 21 12.6264C21 12.6249 21 12.6234 21 12.622C21 12.6205 21 12.619 21 12.6175C21 12.6161 21 12.6146 21 12.6131C21 12.6117 21 12.6102 21 12.6087C21 12.6073 21 12.6058 21 12.6044C21 12.6029 21 12.6015 21 12.6C21 12.5986 21 12.5971 21 12.5957C21 12.5942 21 12.5928 21 12.5914C21 12.5899 21 12.5885 21 12.5871C21 12.5856 21 12.5842 21 12.5828C21 12.5813 21 12.5799 21 12.5785C21 12.5771 21 12.5757 21 12.5742C21 12.5728 21 12.5714 21 12.57C21 12.5686 21 12.5672 21 12.5658C21 12.5644 21 12.563 21 12.5616C21 12.5602 21 12.5588 21 12.5574C21 12.556 21 12.5546 21 12.5533C21 12.5519 21 12.5505 21 12.5491C21 12.5477 21 12.5463 21 12.545C21 12.5436 21 12.5422 21 12.5409C21 12.5395 21 12.5381 21 12.5368C21 12.5354 21 12.534 21 12.5327C21 12.5313 21 12.53 21 12.5286C21 12.5273 21 12.5259 21 12.5246C21 12.5232 21 12.5219 21 12.5206C21 12.5192 21 12.5179 21 12.5165C21 12.5152 21 12.5139 21 12.5125C21 12.5112 21 12.5099 21 12.5086C21 12.5072 21 12.5059 21 12.5046C21 12.5033 21 12.502 21 12.5007C21 12.4994 21 12.498 21 12.4967C21 12.4954 21 12.4941 21 12.4928C21 12.4915 21 12.4902 21 12.4889C21 12.4876 21 12.4864 21 12.4851C21 12.4838 21 12.4825 21 12.4812C21 12.4799 21 12.4786 21 12.4774C21 12.4761 21 12.4748 21 12.4735C21 12.4723 21 12.471 21 12.4697C21 12.4685 21 12.4672 21 12.4659C21 12.4647 21 12.4634 21 12.4622C21 12.4609 21 12.4597 21 12.4584C21 12.4572 21 12.4559 21 12.4547C21 12.4534 21 12.4522 21 12.451C21 12.4497 21 12.4485 21 12.4473C21 12.446 21 12.4448 21 12.4436C21 12.4423 21 12.4411 21 12.4399C21 12.4387 21 12.4374 21 12.4362C21 12.435 21 12.4338 21 12.4326C21 12.4314 21 12.4302 21 12.429C21 12.4278 21 12.4266 21 12.4254C21 12.4242 21 12.423 21 12.4218C21 12.4206 21 12.4194 21 12.4182C21 12.417 21 12.4158 21 12.4146C21 12.4135 21 12.4123 21 12.4111C21 12.4099 21 12.4088 21 12.4076C21 12.4064 21 12.4052 21 12.4041C21 12.4029 21 12.4017 21 12.4006C21 12.3994 21 12.3983 21 12.3971C21 12.396 21 12.3948 21 12.3937C21 12.3925 21 12.3914 21 12.3902C21 12.3891 21 12.3879 21 12.3868C21 12.3857 21 12.3845 21 12.3834C21 12.3822 21 12.3811 21 12.38C21 12.3789 21 12.3777 21 12.3766C21 12.3755 21 12.3744 21 12.3733C21 12.3721 21 12.371 21 12.3699C21 12.3688 21 12.3677 21 12.3666C21 12.3655 21 12.3644 21 12.3633C21 12.3622 21 12.3611 21 12.36C21 12.3589 21 12.3578 21 12.3567C21 12.3556 21 12.3545 21 12.3534C21 12.3524 21 12.3513 21 12.3502C21 12.3491 21 12.3481 21 12.347C21 12.3459 21 12.3448 21 12.3438C21 12.3427 21 12.3416 21 12.3406C21 12.3395 21 12.3384 21 12.3374C21 12.3363 21 12.3353 21 12.3342C21 12.3332 21 12.3321 21 12.3311C21 12.33 21 12.329 21 12.3279C21 12.3269 21 12.3259 21 12.3248C21 12.3238 21 12.3228 21 12.3217C21 12.3207 21 12.3197 21 12.3187C21 12.3176 21 12.3166 21 12.3156C21 12.3146 21 12.3135 21 12.3125C21 12.3115 21 12.3105 21 12.3095C21 12.3085 21 12.3075 21 12.3065C21 12.3055 21 12.3045 21 12.3035C21 12.3025 21 12.3015 21 12.3005C21 12.2995 21 12.2985 21 12.2975C21 12.2965 21 12.2956 21 12.2946C21 12.2936 21 12.2926 21 12.2916C21 12.2907 21 12.2897 21 12.2887C21 12.2877 21 12.2868 21 12.2858C21 12.2848 21 12.2839 21 12.2829C21 12.2819 21 12.281 21 12.28C21 12.2791 21 12.2781 21 12.2772C21 12.2762 21 12.2753 21 12.2743C21 12.2734 21 12.2724 21 12.2715C21 12.2706 21 12.2696 21 12.2687C21 12.2678 21 12.2668 21 12.2659C21 12.265 21 12.264 21 12.2631C21 12.2622 21 12.2613 21 12.2604C21 12.2594 21 12.2585 21 12.2576C21 12.2567 21 12.2558 21 12.2549C21 12.254 21 12.2531 21 12.2522C21 12.2513 21 12.2503 21 12.2495C21 12.2486 21 12.2477 21 12.2468C21 12.2459 21 12.245 21 12.2441C21 12.2432 21 12.2423 21 12.2414C21 12.2406 21 12.2397 21 12.2388C21 12.2379 21 12.2371 21 12.2362C21 12.2353 21 12.2344 21 12.2336C21 12.2327 21 12.2318 21 12.231C21 12.2301 21 12.2293 21 12.2284C21 12.2275 21 12.2267 21 12.2258C21 12.225 21 12.2241 21 12.2233C21 12.2224 21 12.2216 21 12.2208C21 12.2199 21 12.2191 21 12.2182C21 12.2174 21 12.2166 21 12.2157C21 12.2149 21 12.2141 21 12.2133C21 12.2124 21 12.2116 21 12.2108C21 12.21 21 12.2092 21 12.2083C21 12.2075 21 12.2067 21 12.2059C21 12.2051 21 12.2043 21 12.2035C21 12.2027 21 12.2019 21 12.2011C21 12.2003 21 12.1995 21 12.1987C21 12.1979 21 12.1971 21 12.1963C21 12.1955 21 12.1947 21 12.1939C21 12.1932 21 12.1924 21 12.1916C21 12.1908 21 12.19 21 12.1893C21 12.1885 21 12.1877 21 12.187C21 12.1862 21 12.1854 21 12.1846C21 12.1839 21 12.1831 21 12.1824C21 12.1816 21 12.1808 21 12.1801C21 12.1793 21 12.1786 21 12.1778C21 12.1771 21 12.1763 21 12.1756C21 12.1749 21 12.1741 21 12.1734C21 12.1726 21 12.1719 21 12.1712C21 12.1704 21 12.1697 21 12.169C21 12.1682 21 12.1675 21 12.1668C21 12.1661 21 12.1653 21 12.1646C21 12.1639 21 12.1632 21 12.1625C21 12.1618 21 12.1611 21 12.1603C21 12.1596 21 12.1589 21 12.1582C21 12.1575 21 12.1568 21 12.1561C21 12.1554 21 12.1547 21 12.154C21 12.1533 21 12.1526 21 12.152C21 12.1513 21 12.1506 21 12.1499C21 12.1492 21 12.1485 21 12.1479C21 12.1472 21 12.1465 21 12.1458C21 12.1451 21 12.1445 21 12.1438C21 12.1431 21 12.1425 21 12.1418C21 12.1411 21 12.1405 21 12.1398C21 12.1392 21 12.1385 21 12.1379C21 12.1372 21 12.1365 21 12.1359C21 12.1352 21 12.1346 21 12.134C21 12.1333 21 12.1327 21 12.132C21 12.1314 21 12.1308 21 12.1301C21 12.1295 21 12.1289 21 12.1282C21 12.1276 21 12.127 21 12.1263C21 12.1257 21 12.1251 21 12.1245C21 12.1239 21 12.1232 21 12.1226C21 12.122 21 12.1214 21 12.1208C21 12.1202 21 12.1196 21 12.119C21 12.1184 21 12.1178 21 12.1172C21 12.1166 21 12.116 21 12.1154C21 12.1148 21 12.1142 21 12.1136C21 12.113 21 12.1124 21 12.1118C21 12.1112 21 12.1106 21 12.1101C21 12.1095 21 12.1089 21 12.1083C21 12.1078 21 12.1072 21 12.1066C21 12.106 21 12.1055 21 12.1049C21 12.1043 21 12.1038 21 12.1032C21 12.1026 21 12.1021 21 12.1015C21 12.101 21 12.1004 21 12.0999C21 12.0993 21 12.0988 21 12.0982C21 12.0977 21 12.0971 21 12.0966C21 12.096 21 12.0955 21 12.095C21 12.0944 21 12.0939 21 12.0934C21 12.0928 21 12.0923 21 12.0918C21 12.0912 21 12.0907 21 12.0902C21 12.0897 21 12.0892 21 12.0886C21 12.0881 21 12.0876 21 12.0871C21 12.0866 21 12.0861 21 12.0856C21 12.085 21 12.0845 21 12.084C21 12.0835 21 12.083 21 12.0825C21 12.082 21 12.0815 21 12.081C21 12.0805 21 12.08 21 12.0796C21 12.0791 21 12.0786 21 12.0781C21 12.0776 21 12.0771 21 12.0766C21 12.0762 21 12.0757 21 12.0752C21 12.0747 21 12.0743 21 12.0738C21 12.0733 21 12.0729 21 12.0724C21 12.0719 21 12.0715 21 12.071C21 12.0705 21 12.0701 21 12.0696C21 12.0692 21 12.0687 21 12.0683C21 12.0678 21 12.0674 21 12.0669C21 12.0665 21 12.066 21 12.0656C21 12.0651 21 12.0647 21 12.0642C21 12.0638 21 12.0634 21 12.0629C21 12.0625 21 12.0621 21 12.0616C21 12.0612 21 12.0608 21 12.0604C21 12.0599 21 12.0595 21 12.0591C21 12.0587 21 12.0583 21 12.0579C21 12.0574 21 12.057 21 12.0566C21 12.0562 21 12.0558 21 12.0554C21 12.055 21 12.0546 21 12.0542C21 12.0538 21 12.0534 21 12.053C21 12.0526 21 12.0522 21 12.0518C21 12.0514 21 12.051 21 12.0506C21 12.0503 21 12.0499 21 12.0495C21 12.0491 21 12.0487 21 12.0483C21 12.048 21 12.0476 21 12.0472C21 12.0468 21 12.0465 21 12.0461C21 12.0457 21 12.0454 21 12.045C21 12.0446 21 12.0443 21 12.0439C21 12.0436 21 12.0432 21 12.0428C21 12.0425 21 12.0421 21 12.0418C21 12.0414 21 12.0411 21 12.0407C21 12.0404 21 12.0401 21 12.0397C21 12.0394 21 12.039 21 12.0387C21 12.0384 21 12.038 21 12.0377C21 12.0374 21 12.037 21 12.0367C21 12.0364 21 12.0361 21 12.0357C21 12.0354 21 12.0351 21 12.0348C21 12.0344 21 12.0341 21 12.0338C21 12.0335 21 12.0332 21 12.0329C21 12.0326 21 12.0323 21 12.032C21 12.0317 21 12.0314 21 12.0311C21 12.0308 21 12.0305 21 12.0302C21 12.0299 21 12.0296 21 12.0293C21 12.029 21 12.0287 21 12.0284C21 12.0281 21 12.0278 21 12.0276C21 12.0273 21 12.027 21 12.0267C21 12.0264 21 12.0262 21 12.0259C21 12.0256 21 12.0253 21 12.0251C21 12.0248 21 12.0245 21 12.0243C21 12.024 21 12.0237 21 12.0235C21 12.0232 21 12.023 21 12.0227C21 12.0225 21 12.0222 21 12.0219C21 12.0217 21 12.0214 21 12.0212C21 12.021 21 12.0207 21 12.0205C21 12.0202 21 12.02 21 12.0197C21 12.0195 21 12.0193 21 12.019C21 12.0188 21 12.0186 21 12.0183C21 12.0181 21 12.0179 21 12.0177C21 12.0174 21 12.0172 21 12.017C21 12.0168 21 12.0166 21 12.0163C21 12.0161 21 12.0159 21 12.0157C21 12.0155 21 12.0153 21 12.0151C21 12.0149 21 12.0147 21 12.0145C21 12.0143 21 12.014 21 12.0139C21 12.0137 21 12.0135 21 12.0133C21 12.0131 21 12.0129 21 12.0127C21 12.0125 21 12.0123 21 12.0121C21 12.0119 21 12.0118 21 12.0116C21 12.0114 21 12.0112 21 12.011C21 12.0109 21 12.0107 21 12.0105C21 12.0103 21 12.0102 21 12.01C21 12.0098 21 12.0097 21 12.0095C21 12.0093 21 12.0092 21 12.009C21 12.0089 21 12.0087 21 12.0085C21 12.0084 21 12.0082 21 12.0081C21 12.0079 21 12.0078 21 12.0076C21 12.0075 21 12.0073 21 12.0072C21 12.0071 21 12.0069 21 12.0068C21 12.0066 21 12.0065 21 12.0064C21 12.0062 21 12.0061 21 12.006C21 12.0059 21 12.0057 21 12.0056C21 12.0055 21 12.0054 21 12.0052C21 12.0051 21 12.005 21 12.0049C21 12.0048 21 12.0046 21 12.0045C21 12.0044 21 12.0043 21 12.0042C21 12.0041 21 12.004 21 12.0039C21 12.0038 21 12.0037 21 12.0036C21 12.0035 21 12.0034 21 12.0033C21 12.0032 21 12.0031 21 12.003C21 12.0029 21 12.0028 21 12.0027C21 12.0026 21 12.0026 21 12.0025C21 12.0024 21 12.0023 21 12.0022C21 12.0022 21 12.0021 21 12.002C21 12.0019 21 12.0019 21 12.0018C21 12.0017 21 12.0016 21 12.0016C21 12.0015 21 12.0015 21 12.0014C21 12.0013 21 12.0013 21 12.0012C21 12.0012 21 12.0011 21 12.001C21 12.001 21 12.0009 21 12.0009C21 12.0008 21 12.0008 21 12.0007C21 12.0007 21 12.0007 21 12.0006C21 12.0006 21 12.0005 21 12.0005C21 12.0005 21 12.0004 21 12.0004C21 12.0004 21 12.0003 21 12.0003C21 12.0003 21 12.0002 21 12.0002C21 12.0002 21 12.0002 21 12.0002C21 12.0001 21 12.0001 21 12.0001C21 12.0001 21 12.0001 21 12.0001C21 12 21 12 21 12C21 12 21 12 21 12C21 12 21 12 20 12Z" fill="black"/>
<circle cx="20" cy="20" r="2" stroke="black" stroke-width="2"/>
</svg>
