<svg width="24" height="24" viewBox="0 0 24 24" fill="none" xmlns="http://www.w3.org/2000/svg">
<path d="M19 3H5C3.89543 3 3 3.89543 3 5V19C3 20.1046 3.89543 21 5 21H19C20.1046 21 21 20.1046 21 19V5C21 3.89543 20.1046 3 19 3Z" stroke="black" stroke-width="2" stroke-linecap="round" stroke-linejoin="round"/>
<path d="M18 19C18.5523 19 19 18.5523 19 18C19 17.4477 18.5523 17 18 17V19ZM14 18H13C13 18.5523 13.4477 19 14 19V18ZM14 12V11C13.4477 11 13 11.4477 13 12H14ZM18 13C18.5523 13 19 12.5523 19 12C19 11.4477 18.5523 11 18 11V13ZM16 16C16.5523 16 17 15.5523 17 15C17 14.4477 16.5523 14 16 14V16ZM18 17H14V19H18V17ZM14 13H18V11H14V13ZM15 18V15H13V18H15ZM15 15V12H13V15H15ZM14 16H16V14H14V16Z" fill="black"/>
</svg>
