<svg width="24" height="24" viewBox="0 0 24 24" fill="none" xmlns="http://www.w3.org/2000/svg">
<path d="M6 17L6.70711 16.2929C6.51957 16.1054 6.26522 16 6 16V17ZM18 17V16C17.7348 16 17.4804 16.1054 17.2929 16.2929L18 17ZM9 20L8.29289 20.7071C8.48043 20.8946 8.73478 21 9 21V20ZM15 20V21C15.2652 21 15.5196 20.8946 15.7071 20.7071L15 20ZM3.81818 5H20.1818V3H3.81818V5ZM20.1818 5C20.7423 5 21 5.38249 21 5.625H23C23 4.07259 21.6297 3 20.1818 3V5ZM21 5.625V15.375H23V5.625H21ZM21 15.375C21 15.6175 20.7423 16 20.1818 16V18C21.6297 18 23 16.9274 23 15.375H21ZM3.81818 16C3.25772 16 3 15.6175 3 15.375H1C1 16.9274 2.37033 18 3.81818 18V16ZM3 15.375V5.625H1V15.375H3ZM3 5.625C3 5.38249 3.25772 5 3.81818 5V3C2.37033 3 1 4.07259 1 5.625H3ZM6 16H3.81818V18H6V16ZM20.1818 16H18V18H20.1818V16ZM9 21H15V19H9V21ZM9.70711 19.2929L6.70711 16.2929L5.29289 17.7071L8.29289 20.7071L9.70711 19.2929ZM15.7071 20.7071L18.7071 17.7071L17.2929 16.2929L14.2929 19.2929L15.7071 20.7071Z" fill="black"/>
<path d="M12 16H12.01" stroke="black" stroke-width="2" stroke-linecap="round" stroke-linejoin="round"/>
<path d="M12 8V12" stroke="black" stroke-width="2" stroke-linecap="round" stroke-linejoin="round"/>
</svg>
