<svg width="24" height="24" viewBox="0 0 24 24" fill="none" xmlns="http://www.w3.org/2000/svg">
<path d="M23 15.375C23 14.8227 22.5523 14.375 22 14.375C21.4477 14.375 21 14.8227 21 15.375H23ZM3 15.375C3 14.8227 2.55228 14.375 2 14.375C1.44772 14.375 1 14.8227 1 15.375H3ZM6 17L6.70711 16.2929C6.51957 16.1054 6.26522 16 6 16V17ZM18 17V16C17.7348 16 17.4804 16.1054 17.2929 16.2929L18 17ZM9 20L8.29289 20.7071C8.48043 20.8946 8.73478 21 9 21V20ZM15 20V21C15.2652 21 15.5196 20.8946 15.7071 20.7071L15 20ZM21 8.0625C21 8.61478 21.4477 9.0625 22 9.0625C22.5523 9.0625 23 8.61478 23 8.0625H21ZM1 8.0625C1 8.61478 1.44772 9.0625 2 9.0625C2.55228 9.0625 3 8.61478 3 8.0625H1ZM3.81818 5H20.1818V3H3.81818V5ZM20.1818 5C20.7423 5 21 5.38249 21 5.625H23C23 4.07259 21.6297 3 20.1818 3V5ZM21 15.375C21 15.6175 20.7423 16 20.1818 16V18C21.6297 18 23 16.9274 23 15.375H21ZM3.81818 16C3.25772 16 3 15.6175 3 15.375H1C1 16.9274 2.37033 18 3.81818 18V16ZM3 5.625C3 5.38249 3.25772 5 3.81818 5V3C2.37033 3 1 4.07259 1 5.625H3ZM6 16H3.81818V18H6V16ZM20.1818 16H18V18H20.1818V16ZM9 21H15V19H9V21ZM9.70711 19.2929L6.70711 16.2929L5.29289 17.7071L8.29289 20.7071L9.70711 19.2929ZM15.7071 20.7071L18.7071 17.7071L17.2929 16.2929L14.2929 19.2929L15.7071 20.7071ZM21 5.625V8.0625H23V5.625H21ZM3 8.0625V5.625H1V8.0625H3Z" fill="black"/>
<path d="M12 13C12.5523 13 13 12.5523 13 12C13 11.4477 12.5523 11 12 11C11.4477 11 11 11.4477 11 12C11 12.5523 11.4477 13 12 13Z" stroke="black" stroke-width="2" stroke-linecap="round" stroke-linejoin="round"/>
<path d="M19 13C19.5523 13 20 12.5523 20 12C20 11.4477 19.5523 11 19 11C18.4477 11 18 11.4477 18 12C18 12.5523 18.4477 13 19 13Z" stroke="black" stroke-width="2" stroke-linecap="round" stroke-linejoin="round"/>
<path d="M5 13C5.55228 13 6 12.5523 6 12C6 11.4477 5.55228 11 5 11C4.44772 11 4 11.4477 4 12C4 12.5523 4.44772 13 5 13Z" stroke="black" stroke-width="2" stroke-linecap="round" stroke-linejoin="round"/>
</svg>
