<svg width="24" height="24" viewBox="0 0 24 24" fill="none" xmlns="http://www.w3.org/2000/svg">
<path d="M21 14C21 14.5523 21.4477 15 22 15C22.5523 15 23 14.5523 23 14H21ZM6 17L6.70711 16.2929C6.51957 16.1054 6.26522 16 6 16V17ZM9 20L8.29289 20.7071C8.48043 20.8946 8.73478 21 9 21V20ZM14 21C14.5523 21 15 20.5523 15 20C15 19.4477 14.5523 19 14 19V21ZM3.81818 5H20.1818V3H3.81818V5ZM20.1818 5C20.7423 5 21 5.38249 21 5.625H23C23 4.07259 21.6297 3 20.1818 3V5ZM21 5.625V14H23V5.625H21ZM3.81818 16C3.25772 16 3 15.6175 3 15.375H1C1 16.9274 2.37033 18 3.81818 18V16ZM3 15.375V5.625H1V15.375H3ZM3 5.625C3 5.38249 3.25772 5 3.81818 5V3C2.37033 3 1 4.07259 1 5.625H3ZM6 16H3.81818V18H6V16ZM9 21H14V19H9V21ZM9.70711 19.2929L6.70711 16.2929L5.29289 17.7071L8.29289 20.7071L9.70711 19.2929Z" fill="black"/>
<circle cx="20" cy="20" r="2" stroke="black" stroke-width="2"/>
</svg>
