<svg width="24" height="24" viewBox="0 0 24 24" fill="none" xmlns="http://www.w3.org/2000/svg">
<path d="M3.81818 5C4.37047 5 4.81818 4.55228 4.81818 4C4.81818 3.44772 4.37047 3 3.81818 3V5ZM21 15.375C21 15.9273 21.4477 16.375 22 16.375C22.5523 16.375 23 15.9273 23 15.375H21ZM6 17L6.70711 16.2929C6.51957 16.1054 6.26522 16 6 16V17ZM9 20L8.29289 20.7071C8.48043 20.8946 8.73478 21 9 21V20ZM15 20V21C15.2652 21 15.5196 20.8946 15.7071 20.7071L15 20ZM10 3C9.44772 3 9 3.44772 9 4C9 4.55228 9.44772 5 10 5V3ZM18.2071 18.2071C18.5976 17.8166 18.5976 17.1834 18.2071 16.7929C17.8166 16.4024 17.1834 16.4024 16.7929 16.7929L18.2071 18.2071ZM20.1818 5C20.7423 5 21 5.38249 21 5.625H23C23 4.07259 21.6297 3 20.1818 3V5ZM21 5.625V15.375H23V5.625H21ZM3.81818 16C3.25772 16 3 15.6175 3 15.375H1C1 16.9274 2.37033 18 3.81818 18V16ZM3 15.375V5.625H1V15.375H3ZM3 5.625C3 5.38249 3.25772 5 3.81818 5V3C2.37033 3 1 4.07259 1 5.625H3ZM6 16H3.81818V18H6V16ZM9 21H15V19H9V21ZM9.70711 19.2929L6.70711 16.2929L5.29289 17.7071L8.29289 20.7071L9.70711 19.2929ZM10 5H20.1818V3H10V5ZM15.7071 20.7071L18.2071 18.2071L16.7929 16.7929L14.2929 19.2929L15.7071 20.7071Z" fill="black"/>
<path d="M1 1L23 23" stroke="black" stroke-width="2" stroke-linecap="round" stroke-linejoin="round"/>
</svg>
