<svg width="24" height="24" viewBox="0 0 24 24" fill="none" xmlns="http://www.w3.org/2000/svg">
<path d="M19 3H5C3.89543 3 3 3.89543 3 5V19C3 20.1046 3.89543 21 5 21H19C20.1046 21 21 20.1046 21 19V5C21 3.89543 20.1046 3 19 3Z" stroke="black" stroke-width="2" stroke-linecap="round" stroke-linejoin="round"/>
<path d="M18.9487 12.3162C19.1233 11.7923 18.8402 11.226 18.3162 11.0513C17.7923 10.8767 17.226 11.1598 17.0513 11.6838L18.9487 12.3162ZM16 18L15.0513 18.3162C15.1874 18.7246 15.5696 19 16 19C16.4304 19 16.8126 18.7246 16.9487 18.3162L16 18ZM14.9487 11.6838C14.774 11.1598 14.2077 10.8767 13.6838 11.0513C13.1598 11.226 12.8767 11.7923 13.0513 12.3162L14.9487 11.6838ZM17.0513 11.6838L15.0513 17.6838L16.9487 18.3162L18.9487 12.3162L17.0513 11.6838ZM16.9487 17.6838L14.9487 11.6838L13.0513 12.3162L15.0513 18.3162L16.9487 17.6838Z" fill="black"/>
<path d="M11 19C11.5523 19 12 18.5523 12 18C12 17.4477 11.5523 17 11 17V19ZM7 18H6C6 18.5523 6.44772 19 7 19V18ZM7 12V11C6.44772 11 6 11.4477 6 12H7ZM11 13C11.5523 13 12 12.5523 12 12C12 11.4477 11.5523 11 11 11V13ZM9 16C9.55228 16 10 15.5523 10 15C10 14.4477 9.55228 14 9 14V16ZM11 17H7V19H11V17ZM7 13H11V11H7V13ZM8 18V15H6V18H8ZM8 15V12H6V15H8ZM7 16H9V14H7V16Z" fill="black"/>
</svg>
