<svg width="24" height="24" viewBox="0 0 24 24" fill="none" xmlns="http://www.w3.org/2000/svg">
<path d="M9 3V2C8.44772 2 8 2.44772 8 3H9ZM13 3L14 3C14 2.44771 13.5523 2 13 2V3ZM14 5L14.7071 4.29289L14 5ZM18 6H19C19 5.44772 18.5523 5 18 5V6ZM14 18C14 17.4477 13.5523 17 13 17C12.4477 17 12 17.4477 12 18H14ZM15.01 11C15.5623 11 16.01 10.5523 16.01 10C16.01 9.44772 15.5623 9 15.01 9V11ZM15 9C14.4477 9 14 9.44772 14 10C14 10.5523 14.4477 11 15 11V9ZM6 6L6 5C5.73479 5 5.48043 5.10536 5.29289 5.29289C5.10536 5.48043 5 5.73478 5 6L6 6ZM6.99999 12.5L7.7048 11.7906L6.99999 12.5ZM11 14L11.0397 14.9992C11.5761 14.9779 12 14.5368 12 14H11ZM12 11C12 10.4477 11.5523 10 11 10C10.4477 10 10 10.4477 10 11H12ZM11 12C10.4477 12 10 12.4477 10 13C10 13.5523 10.4477 14 11 14V12ZM18 17H19H18ZM9.2071 6.20711C9.52745 5.88676 9.67549 5.44878 9.75382 5.16156C9.84332 4.83342 9.89732 4.47953 9.93138 4.17293C9.966 3.86135 9.98296 3.57098 9.99139 3.36028C9.99563 3.25421 9.99778 3.16659 9.99887 3.10446C9.99942 3.07335 9.9997 3.04852 9.99984 3.03085C9.99992 3.02201 9.99996 3.01494 9.99998 3.00977C9.99999 3.00718 9.99999 3.00506 10 3.00343C10 3.00262 10 3.00192 10 3.00135C10 3.00106 10 3.00081 10 3.00058C10 3.00047 10 3.00032 10 3.00027C10 3.00013 10 3 9 3C8 3 8 2.99989 8 2.99978C8 2.99975 8 2.99965 8 2.9996C8 2.9995 8 2.99943 8 2.99938C8 2.99929 8 2.99932 8 2.99947C8 2.99977 8 3.00052 7.99999 3.00174C7.99998 3.00416 7.99996 3.00839 7.99991 3.01432C7.99981 3.02618 7.99961 3.04481 7.99918 3.06937C7.99831 3.11856 7.99656 3.1911 7.99299 3.28034C7.98579 3.46027 7.9715 3.70114 7.94362 3.95206C7.91518 4.20797 7.87543 4.44783 7.8243 4.63531C7.762 4.86371 7.72254 4.86324 7.79289 4.79289L9.2071 6.20711ZM9 4H13V2H9V4ZM13 3C12 3 12 3.00049 12 3.00099C12 3.00116 12 3.00166 12 3.002C12 3.00269 12 3.00339 12 3.0041C12 3.00554 12 3.00704 12 3.0086C12.0001 3.01173 12.0001 3.01512 12.0002 3.01877C12.0003 3.02607 12.0005 3.03439 12.0008 3.04372C12.0014 3.06236 12.0024 3.08503 12.0042 3.11144C12.0077 3.16424 12.0141 3.23225 12.0257 3.3133C12.0488 3.47522 12.0928 3.69061 12.1763 3.94123C12.3446 4.44593 12.6707 5.08494 13.2929 5.70711L14.7071 4.29289C14.3293 3.91506 14.1554 3.55407 14.0737 3.30877C14.0322 3.18439 14.0137 3.08728 14.0056 3.03045C14.0015 3.00212 14.0001 2.9842 13.9997 2.9784C13.9995 2.97552 13.9996 2.97572 13.9997 2.97923C13.9998 2.98099 13.9998 2.98358 13.9999 2.98703C13.9999 2.98875 14 2.99069 14 2.99285C14 2.99393 14 2.99507 14 2.99626C14 2.99686 14 2.99747 14 2.99809C14 2.9984 14 2.99888 14 2.99903C14 2.99951 14 3 13 3ZM13.2929 5.70711C13.7031 6.11732 14.2487 6.36617 14.7306 6.52681C15.2298 6.69318 15.7625 6.79766 16.2336 6.86495C16.7086 6.93281 17.1459 6.9663 17.4631 6.98299C17.6224 6.99138 17.7534 6.99562 17.8459 6.99778C17.8922 6.99885 17.929 6.99941 17.9551 6.9997C17.9681 6.99984 17.9785 6.99991 17.986 6.99996C17.9898 6.99998 17.9928 6.99999 17.9952 6.99999C17.9964 7 17.9973 7 17.9981 7C17.9985 7 17.9989 7 17.9992 7C17.9994 7 17.9996 7 17.9996 7C17.9998 7 18 7 18 6C18 5 18.0002 5 18.0003 5C18.0003 5 18.0005 5 18.0005 5C18.0006 5 18.0007 5 18.0008 5C18.0008 5 18.0007 5 18.0005 5C17.9999 5 17.9986 4.99999 17.9967 4.99998C17.9928 4.99996 17.9862 4.99992 17.9771 4.99982C17.9587 4.99961 17.9301 4.99919 17.8924 4.99832C17.8169 4.99656 17.7057 4.99299 17.5682 4.98576C17.2916 4.9712 16.9164 4.94219 16.5164 4.88505C16.1125 4.82734 15.7077 4.74432 15.3631 4.62944C15.0013 4.50883 14.7969 4.38268 14.7071 4.29289L13.2929 5.70711ZM15.01 9H15V11H15.01V9ZM7.79289 4.79289C7.86323 4.72255 7.86371 4.76201 7.63531 4.8243C7.44782 4.87543 7.20797 4.91519 6.95206 4.94362C6.70114 4.9715 6.46027 4.98579 6.28034 4.99299C6.1911 4.99656 6.11857 4.99831 6.06938 4.99918C6.04482 4.99961 6.02619 4.99981 6.01432 4.99991C6.00839 4.99996 6.00416 4.99998 6.00174 4.99999C6.00053 5 5.99977 5 5.99947 5C5.99933 5 5.9993 5 5.99938 5C5.99943 5 5.9995 5 5.9996 5C5.99966 5 5.99976 5 5.99978 5C5.99989 5 6 5 6 6C6 7 6.00013 7 6.00026 7C6.00032 7 6.00047 7 6.00058 7C6.0008 7 6.00106 7 6.00134 7C6.00192 7 6.00261 7 6.00343 7C6.00506 6.99999 6.00718 6.99999 6.00977 6.99998C6.01494 6.99996 6.022 6.99992 6.03084 6.99984C6.04852 6.9997 6.07335 6.99942 6.10445 6.99887C6.16659 6.99778 6.25421 6.99563 6.36028 6.99139C6.57098 6.98296 6.86135 6.96601 7.17292 6.93139C7.47952 6.89732 7.83341 6.84332 8.16155 6.75383C8.44877 6.67549 8.88675 6.52746 9.2071 6.20711L7.79289 4.79289ZM6 6C5 6 5 6.00011 5 6.00024C5 6.00031 5 6.00047 5 6.00061C5 6.0009 5 6.00127 5 6.00172C5 6.00263 5 6.00387 5 6.00544C5.00001 6.00857 5.00002 6.01302 5.00003 6.01875C5.00007 6.0302 5.00013 6.04675 5.00026 6.0681C5.00052 6.1108 5.00103 6.1727 5.00204 6.25135C5.00405 6.4086 5.00806 6.63316 5.01606 6.90529C5.03201 7.44829 5.064 8.1866 5.12845 8.96044C5.19245 9.72889 5.29052 10.5585 5.44409 11.2749C5.52079 11.6326 5.61616 11.9854 5.73813 12.2985C5.85352 12.5947 6.02467 12.9406 6.29519 13.2094L7.7048 11.7906C7.72532 11.811 7.67772 11.7676 7.6017 11.5724C7.53227 11.3942 7.46358 11.1538 7.39966 10.8556C7.27198 10.2601 7.18255 9.5268 7.12155 8.79444C7.061 8.06747 7.03049 7.36705 7.01519 6.84654C7.00757 6.58691 7.00376 6.37351 7.00187 6.22574C7.00093 6.15189 7.00046 6.09452 7.00023 6.05606C7.00011 6.03684 7.00005 6.02235 7.00003 6.0129C7.00001 6.00818 7.00001 6.00472 7 6.00255C7 6.00147 7 6.00072 7 6.00029C7 6.00007 7 5.99994 7 5.99989C7 5.99987 7 5.9999 7 5.99988C7 5.99993 7 6 6 6ZM6.29519 13.2094C7.28014 14.188 8.48115 14.6258 9.38754 14.8249C9.84624 14.9257 10.2473 14.9693 10.5368 14.9879C10.6821 14.9972 10.8009 15.0003 10.8865 15.0009C10.9294 15.0013 10.9641 15.001 10.9899 15.0005C11.0028 15.0003 11.0134 15.0001 11.0218 14.9998C11.026 14.9997 11.0295 14.9996 11.0325 14.9995C11.034 14.9994 11.0354 14.9994 11.0366 14.9993C11.0372 14.9993 11.0378 14.9993 11.0383 14.9993C11.0385 14.9993 11.0389 14.9992 11.039 14.9992C11.0394 14.9992 11.0397 14.9992 11 14C10.9603 13.0008 10.9606 13.0008 10.9609 13.0008C10.961 13.0008 10.9613 13.0007 10.9615 13.0007C10.9619 13.0007 10.9622 13.0007 10.9625 13.0007C10.9632 13.0007 10.9636 13.0007 10.964 13.0007C10.9647 13.0006 10.9648 13.0006 10.9644 13.0006C10.9636 13.0007 10.9606 13.0007 10.9555 13.0008C10.9455 13.001 10.9272 13.0012 10.9014 13.001C10.8499 13.0006 10.769 12.9987 10.6648 12.992C10.4552 12.9786 10.1573 12.9463 9.81668 12.8715C9.12448 12.7194 8.32548 12.4073 7.7048 11.7906L6.29519 13.2094ZM12 14L12 11H10L10 14H12ZM18 6C17 6 17 6.00003 17 6.00008C17 6.00013 17 6.0002 17 6.00031C17 6.00038 17 6.00095 17 6.00122C17 6.00889 17 5.99488 17 6.00275C17 6.00362 17 6.00381 17 6.00488C17 6.00528 17 6.00571 17 6.00617C17 6.00662 17 6.0071 17 6.0076C17 6.00811 17 6.00864 17 6.00919C17 6.00975 17 6.01033 17 6.01093C17 6.01153 17 6.01216 17 6.01282C17 6.01347 17 6.01415 17 6.01485C17 6.01555 17 6.01628 17 6.01703C17 6.01779 17 6.01856 17 6.01936C17 6.05005 17 6.0334 17 6.07634C17 6.07791 17 6.0795 17 6.08111C17 6.08273 17 6.08436 17 6.08602C17 6.08768 17 6.08937 17 6.09108C17 6.09278 17 6.09451 17 6.09627C17 6.13251 17 6.08143 17 6.11841C17 6.17889 17 6.10589 17 6.16926C17 6.18822 17 6.17825 17 6.19791C17 6.21322 17 6.19755 17 6.21304C17 6.22102 17 6.22052 17 6.22868C17 6.23126 17 6.25827 17 6.26154C17 6.27284 17 6.28448 17 6.29646C17 6.39232 17 6.50991 17 6.64702C17 6.71557 17 6.789 17 6.86704C17 6.91124 17 6.88165 17 6.92642C17 6.93144 17 6.93648 17 6.94153C17 6.94659 17 6.95166 17 6.95675C17 6.96184 17 6.96695 17 6.97207C17 6.9772 17 6.98234 17 6.9875C17 6.99266 17 6.99784 17 7.00303C17 7.00823 17 7.01344 17 7.01867C17 7.0239 17 7.02915 17 7.03441C17 7.03968 17 7.04496 17 7.05026C17 7.06461 17 7.06776 17 7.08225C17 7.08762 17 7.093 17 7.0984C17 7.10381 17 7.10922 17 7.11466C17 7.12343 17 7.17137 17 7.18068C17 7.18625 17 7.19183 17 7.19744C17 7.20304 17 7.20866 17 7.21429C17 7.21993 17 7.22558 17 7.23125C17 7.23691 17 7.2426 17 7.2483C17 7.2939 17 7.34055 17 7.38821C17 7.4678 17 7.45262 17 7.53419C17 7.65358 17 7.56473 17 7.68603C17 7.73284 17 7.95239 17 8.00645C17 8.04962 17 8.12973 17 8.17461C17 8.26809 17 8.1667 17 8.26059C17 8.26781 17 8.27503 17 8.28228C17 8.28952 17 8.29677 17 8.30404C17 8.35072 17 8.30101 17 8.3478C17 8.81613 17 9.33583 17 9.88909C17 9.92367 17 9.95838 17 9.99321C17 9.99504 17 10.0437 17 10.0456C17 10.0919 17 10.0517 17 10.0981C17 10.1867 17 10.0622 17 10.1508C17 10.1788 17 10.1757 17 10.2037C17 10.2125 17 10.2214 17 10.2302C17 10.2391 17 10.2479 17 10.2568C17 10.2745 17 10.2923 17 10.31C17 10.4523 17 10.5963 17 10.7419C17 10.7512 17 10.9514 17 10.9614C17 10.9706 17 10.9798 17 10.989C17 10.9982 17 11.0074 17 11.0166C17 11.0259 17 11.0351 17 11.0443C17 11.0535 17 11.0628 17 11.072C17 11.1418 17 11.0576 17 11.1275C17 11.1367 17 11.146 17 11.1552C17 11.1645 17 11.1738 17 11.183C17 11.2016 17 11.2202 17 11.2387C17 11.248 17 11.2573 17 11.2666C17 11.2759 17 11.2853 17 11.2946C17 11.3651 17 11.2799 17 11.3505C17 11.3598 17 11.3692 17 11.3785C17 11.3879 17 11.3972 17 11.4065C17 11.4159 17 11.4253 17 11.4346C17 11.444 17 11.4533 17 11.4627C17 11.5414 17 11.4402 17 11.5189C17 11.555 17 11.5392 17 11.5753C17 11.5847 17 11.5941 17 11.6035C17 11.6129 17 11.6223 17 11.6317C17 11.7071 17 11.7826 17 11.8584C17 11.9826 17 11.9618 17 12.0864C17 12.1004 17 12.1866 17 12.2007C17 12.313 17 12.203 17 12.3154C17 12.3209 17 12.4246 17 12.4302C17 12.474 17 12.4438 17 12.4877C17 12.5068 17 12.526 17 12.5452C17 12.5548 17 12.5644 17 12.574C17 12.5836 17 12.5932 17 12.6028C17 12.6124 17 12.622 17 12.6316C17 12.6412 17 12.6508 17 12.6604C17 12.7666 17 12.6695 17 12.7757C17 12.8703 17 12.7388 17 12.8334C17 12.843 17 12.8526 17 12.8623C17 12.8719 17 12.8815 17 12.8911C17 12.9528 17 12.9449 17 13.0066C17 13.0633 17 13.0655 17 13.1222C17 13.1756 17 13.1844 17 13.2378C17 13.3149 17 13.3919 17 13.469C17 13.5275 17 13.6416 17 13.7C17 13.7096 17 13.7192 17 13.7288C17 13.7384 17 13.748 17 13.7577C17 13.7673 17 13.7769 17 13.7865C17 13.7961 17 13.8057 17 13.8153C17 13.9147 17 13.8312 17 13.9305C17 14.0355 17 14.0559 17 14.1605C17 14.2394 17 14.1964 17 14.2752C17 14.2823 17 14.3826 17 14.3897C17 14.4053 17 14.4883 17 14.5039C17 14.5134 17 14.5229 17 14.5324C17 14.5419 17 14.5514 17 14.5609C17 14.5799 17 14.5989 17 14.6178C17 14.6991 17 14.6502 17 14.7314C17 14.7755 17 14.7441 17 14.7881C17 14.8132 17 14.8197 17 14.8447C17 14.8878 17 14.8582 17 14.9012C17 14.9106 17 14.92 17 14.9294C17 14.9389 17 14.9482 17 14.9576C17 15.0519 17 14.9761 17 15.0702C17 15.181 17 15.0716 17 15.1823C17 15.1916 17 15.201 17 15.2103C17 15.2196 17 15.2289 17 15.2382C17 15.2643 17 15.2679 17 15.294C17 15.4426 17 15.59 17 15.7358C17 15.8803 17 15.8097 17 15.9534C17 15.9895 17 16.0255 17 16.0613C17 16.0651 17 16.165 17 16.1685C17 16.3111 17 16.4518 17 16.5905C17 16.6703 17 16.9246 17 17H19C19 16.9054 19 16.8927 19 16.7969C19 16.7884 19 16.7798 19 16.7713C19 16.7627 19 16.7542 19 16.7456C19 16.737 19 16.7285 19 16.7199C19 16.7113 19 16.7027 19 16.6941C19 16.6855 19 16.6769 19 16.6683C19 16.6597 19 16.651 19 16.6424C19 16.6338 19 16.6251 19 16.6165C19 16.6078 19 16.5992 19 16.5905C19 16.4518 19 16.3111 19 16.1685C19 16.165 19 16.0651 19 16.0613C19 16.0255 19 15.9895 19 15.9534C19 15.8097 19 15.8803 19 15.7358C19 15.7086 19 15.7084 19 15.6811C19 15.6719 19 15.6628 19 15.6536C19 15.6445 19 15.6353 19 15.6262C19 15.5477 19 15.6496 19 15.5711C19 15.5527 19 15.5344 19 15.5159C19 15.4319 19 15.4894 19 15.4052C19 15.3945 19 15.3604 19 15.3497C19 15.3404 19 15.3311 19 15.3218C19 15.3126 19 15.3033 19 15.294C19 15.2847 19 15.2754 19 15.2661C19 15.2568 19 15.2475 19 15.2382C19 15.2289 19 15.2196 19 15.2103C19 15.201 19 15.1916 19 15.1823C19 15.173 19 15.1636 19 15.1543C19 15.145 19 15.1356 19 15.1263C19 15.117 19 15.1076 19 15.0983C19 15.0889 19 15.0795 19 15.0702C19 14.9761 19 15.0519 19 14.9576C19 14.9482 19 14.9389 19 14.9294C19 14.92 19 14.9106 19 14.9012C19 14.8582 19 14.8878 19 14.8447C19 14.8197 19 14.8132 19 14.7881C19 14.7441 19 14.7755 19 14.7314C19 14.722 19 14.7125 19 14.7031C19 14.6936 19 14.6841 19 14.6747C19 14.6652 19 14.6557 19 14.6463C19 14.6368 19 14.6273 19 14.6178C19 14.6083 19 14.5989 19 14.5894C19 14.5799 19 14.5704 19 14.5609C19 14.5514 19 14.5419 19 14.5324C19 14.5229 19 14.5134 19 14.5039C19 14.4445 19 14.5063 19 14.4468C19 14.4373 19 14.4278 19 14.4183C19 14.4087 19 14.3992 19 14.3897C19 14.3826 19 14.2823 19 14.2752C19 14.2657 19 14.2561 19 14.2466C19 14.237 19 14.2275 19 14.2179C19 14.2083 19 14.1988 19 14.1892C19 14.1797 19 14.1701 19 14.1605C19 14.0559 19 14.0355 19 13.9305C19 13.8312 19 13.9147 19 13.8153C19 13.8057 19 13.7961 19 13.7865C19 13.7769 19 13.7673 19 13.7577C19 13.748 19 13.7384 19 13.7288C19 13.7192 19 13.7096 19 13.7C19 13.6416 19 13.5275 19 13.469C19 13.4305 19 13.3919 19 13.3534C19 13.3149 19 13.2763 19 13.2378C19 13.1844 19 13.1756 19 13.1222C19 13.0655 19 13.0633 19 13.0066C19 12.9449 19 12.9528 19 12.8911C19 12.8815 19 12.8719 19 12.8623C19 12.8526 19 12.843 19 12.8334C19 12.8238 19 12.8142 19 12.8046C19 12.7949 19 12.7853 19 12.7757C19 12.6695 19 12.7666 19 12.6604C19 12.6508 19 12.6412 19 12.6316C19 12.622 19 12.6124 19 12.6028C19 12.5932 19 12.5836 19 12.574C19 12.5644 19 12.5548 19 12.5452C19 12.526 19 12.5068 19 12.4877C19 12.4438 19 12.474 19 12.4302C19 12.4246 19 12.3209 19 12.3154C19 12.203 19 12.313 19 12.2007C19 12.1866 19 12.1004 19 12.0864C19 11.9618 19 11.9826 19 11.8584C19 11.7826 19 11.7071 19 11.6317C19 11.6223 19 11.6129 19 11.6035C19 11.5941 19 11.5847 19 11.5753C19 11.5392 19 11.555 19 11.5189C19 11.4266 19 11.4987 19 11.4065C19 11.3972 19 11.3879 19 11.3785C19 11.3692 19 11.3598 19 11.3505C19 11.3393 19 11.3058 19 11.2946C19 11.2853 19 11.2759 19 11.2666C19 11.2573 19 11.248 19 11.2387C19 11.2202 19 11.2016 19 11.183C19 11.1002 19 11.1546 19 11.072C19 11.0628 19 11.0535 19 11.0443C19 11.0351 19 11.0259 19 11.0166C19 10.9897 19 10.9883 19 10.9614C19 10.9514 19 10.7512 19 10.7419C19 10.5963 19 10.4523 19 10.31C19 10.1942 19 10.213 19 10.0981C19 10.0517 19 10.0919 19 10.0456C19 10.0368 19 10.0281 19 10.0194C19 10.0106 19 10.0019 19 9.99321C19 9.9845 19 9.9758 19 9.96711C19 9.95842 19 9.94973 19 9.94105C19 9.9237 19 9.90638 19 9.88909C19 9.33583 19 8.81613 19 8.3478C19 8.34048 19 8.33317 19 8.32588C19 8.31859 19 8.31131 19 8.30404C19 8.29677 19 8.28952 19 8.28228C19 8.27503 19 8.26781 19 8.26059C19 8.1667 19 8.26809 19 8.17461C19 8.12973 19 8.04962 19 8.00645C19 7.95239 19 7.73284 19 7.68603C19 7.56473 19 7.65358 19 7.53419C19 7.45262 19 7.4678 19 7.38821C19 7.36311 19 7.1314 19 7.11466C19 7.10922 19 7.10381 19 7.0984C19 7.093 19 7.08762 19 7.08225C19 7.06776 19 7.06461 19 7.05026C19 7.04496 19 7.03968 19 7.03441C19 7.02915 19 7.0239 19 7.01867C19 7.01344 19 7.00823 19 7.00303C19 6.99784 19 6.99266 19 6.9875C19 6.98234 19 6.9772 19 6.97207C19 6.96695 19 6.96184 19 6.95675C19 6.94656 19 6.93646 19 6.92642C19 6.90944 19 6.91336 19 6.89651C19 6.89157 19 6.88663 19 6.88172C19 6.87681 19 6.87191 19 6.86704C19 6.789 19 6.71557 19 6.64702C19 6.50991 19 6.39232 19 6.29646C19 6.28448 19 6.27284 19 6.26154C19 6.25827 19 6.23126 19 6.22868C19 6.22052 19 6.22102 19 6.21304C19 6.21047 19 6.20793 19 6.20541C19 6.20289 19 6.20039 19 6.19791C19 6.19544 19 6.19298 19 6.19055C19 6.18812 19 6.18571 19 6.18332C19 6.14425 19 6.20815 19 6.16926C19 6.13248 19 6.10142 19 6.07634C19 6.0334 19 6.05005 19 6.01936C19 6.01856 19 6.01779 19 6.01703C19 6.01628 19 6.01555 19 6.01485C19 6.01257 19 6.01302 19 6.01093C19 5.99042 19 6.02459 19 6.00488C19 6.00381 19 6.00362 19 6.00275C19 5.99488 19 6.00889 19 6.00122C19 5.99988 19 6.00144 19 6.00031C19 6.0002 19 6.00013 19 6.00008C19 6.00003 19 6 18 6ZM11 14C12.8744 14 14.7159 14.476 15.5528 14.8944L16.4472 13.1056C15.2841 12.524 13.1256 12 11 12V14ZM15.5528 14.8944C16.0821 15.1591 16.3932 15.3287 16.6157 15.5883C16.8008 15.8041 17 16.1795 17 17H19C19 15.8205 18.6992 14.9459 18.1343 14.2867C17.6068 13.6713 16.9179 13.3409 16.4472 13.1056L15.5528 14.8944ZM13 18C12 18 12 18.0004 12 18.0008C12 18.001 12 18.0015 12 18.0018C12 18.0024 12 18.0031 12 18.0038C12 18.0053 12 18.0069 12 18.0088C12.0001 18.0125 12.0001 18.0169 12.0002 18.022C12.0003 18.0323 12.0006 18.0455 12.001 18.0615C12.0019 18.0933 12.0035 18.1361 12.0066 18.1883C12.0129 18.2925 12.0249 18.4361 12.0486 18.6063C12.0951 18.9416 12.1901 19.4061 12.3894 19.8846C12.5884 20.3622 12.9091 20.8954 13.43 21.3121C13.9666 21.7414 14.658 22 15.5 22V20C15.092 20 14.8459 19.8836 14.6794 19.7504C14.4972 19.6046 14.3491 19.3878 14.2356 19.1154C14.1224 18.8439 14.0611 18.5584 14.0296 18.3312C14.0141 18.2202 14.0067 18.1293 14.0031 18.0695C14.0013 18.0397 14.0006 18.0181 14.0002 18.0059C14.0001 17.9999 14 17.9962 14 17.9952C14 17.9946 14 17.9948 14 17.9956C14 17.996 14 17.9965 14 17.9973C14 17.9976 14 17.998 14 17.9985C14 17.9987 14 17.9991 14 17.9992C14 17.9996 14 18 13 18ZM15.5 22C16.3423 22 17.0446 21.7406 17.5905 21.2797C18.1188 20.8335 18.4353 20.2545 18.6292 19.7113C19.0081 18.6506 19 17.4831 19 17H17C17 17.5169 16.9919 18.3494 16.7458 19.0387C16.6272 19.3705 16.475 19.604 16.3001 19.7516C16.1429 19.8844 15.9077 20 15.5 20V22Z" fill="black"/>
</svg>
