<svg width="24" height="24" viewBox="0 0 24 24" fill="none" xmlns="http://www.w3.org/2000/svg">
<path d="M6 12H5C5 12.5523 5.44772 13 6 13V12ZM12 6V5C11.4477 5 11 5.44772 11 6H12ZM18 12H19C19 11.4477 18.5523 11 18 11V12ZM12 18V19C12.5523 19 13 18.5523 13 18H12ZM8 7.52779L8.74536 6.86113C8.56851 6.6634 8.32035 6.54404 8.05548 6.52933C7.79061 6.51461 7.53075 6.60574 7.33309 6.78265L8 7.52779ZM7.52779 16L6.86113 15.2546C6.6634 15.4315 6.54404 15.6797 6.52933 15.9445C6.51461 16.2094 6.60574 16.4692 6.78265 16.6669L7.52779 16ZM15.3331 15.7271C14.9216 16.0954 14.8865 16.7276 15.2549 17.1391C15.6232 17.5507 16.2554 17.5857 16.6669 17.2173L15.3331 15.7271ZM16.4722 8L17.1389 8.74536C17.3366 8.56851 17.456 8.32035 17.4707 8.05548C17.4854 7.79061 17.3943 7.53075 17.2173 7.33309L16.4722 8ZM10.5093 13.3333L11.2544 12.6664L10.5093 13.3333ZM10.6667 10.5093L11.3336 11.2544L10.6667 10.5093ZM13.4907 10.6667L12.7456 11.3336L13.4907 10.6667ZM13.3287 13.4948L12.6641 12.7477L13.3287 13.4948ZM6 13H10V11H6V13ZM11 6V10H13V6H11ZM18 11H14V13H18V11ZM13 18V14H11V18H13ZM7 12C7 10.5193 7.6424 9.18989 8.66691 8.27292L7.33309 6.78265C5.9026 8.06297 5 9.92674 5 12H7ZM12 17C10.5193 17 9.18989 16.3576 8.27292 15.3331L6.78265 16.6669C8.06297 18.0974 9.92674 19 12 19V17ZM17 12C17 13.4807 16.3576 14.8101 15.3331 15.7271L16.6669 17.2173C18.0974 15.937 19 14.0733 19 12H17ZM12 7C13.4807 7 14.8101 7.6424 15.7271 8.66691L17.2173 7.33309C15.937 5.9026 14.0733 5 12 5V7ZM12 13C11.7039 13 11.4389 12.8726 11.2544 12.6664L9.76413 14.0002C10.312 14.6124 11.1114 15 12 15V13ZM11.2544 12.6664C11.0955 12.4888 11 12.2568 11 12H9C9 12.7677 9.28968 13.4702 9.76413 14.0002L11.2544 12.6664ZM9.8426 12.588L6.86113 15.2546L8.19445 16.7454L11.1759 14.0787L9.8426 12.588ZM11 12C11 11.7039 11.1274 11.4389 11.3336 11.2544L9.99975 9.76413C9.3876 10.312 9 11.1114 9 12H11ZM11.3336 11.2544C11.5112 11.0955 11.7432 11 12 11V9C11.2323 9 10.5298 9.28968 9.99975 9.76413L11.3336 11.2544ZM7.25464 8.19445L9.9213 11.1759L11.412 9.8426L8.74536 6.86113L7.25464 8.19445ZM12 11C12.2961 11 12.5611 11.1274 12.7456 11.3336L14.2359 9.99975C13.688 9.3876 12.8886 9 12 9V11ZM12.7456 11.3336C12.9045 11.5112 13 11.7432 13 12H15C15 11.2323 14.7103 10.5298 14.2359 9.99975L12.7456 11.3336ZM14.1574 11.412L17.1389 8.74536L15.8056 7.25464L12.8241 9.9213L14.1574 11.412ZM13 12C13 12.2972 12.8717 12.5631 12.6641 12.7477L13.9934 14.242C14.6095 13.6939 15 12.8919 15 12H13ZM12.6641 12.7477C12.4868 12.9054 12.2557 13 12 13V15C12.7644 15 13.4641 14.7128 13.9934 14.242L12.6641 12.7477ZM12.5813 14.1592L15.2526 17.1644L16.7474 15.8356L14.0762 12.8305L12.5813 14.1592Z" fill="black"/>
<path d="M19 3H5C3.89543 3 3 3.89543 3 5V19C3 20.1046 3.89543 21 5 21H19C20.1046 21 21 20.1046 21 19V5C21 3.89543 20.1046 3 19 3Z" stroke="black" stroke-width="2" stroke-linecap="round" stroke-linejoin="round"/>
</svg>
