<svg width="24" height="24" viewBox="0 0 24 24" fill="none" xmlns="http://www.w3.org/2000/svg">
<path d="M22 12C22 6.47715 17.5228 2 12 2M18 12C18 8.68629 15.3137 6 12 6M8 2.83209C4.46819 4.3752 2 7.89936 2 12C2 17.5228 6.47715 22 12 22C12.6849 22 13.3538 21.9311 14 21.8M8 7.52779C6.7725 8.62643 6 10.223 6 12C6 15.3137 8.68629 18 12 18C12.7013 18 13.3744 17.8797 14 17.6586" stroke="black" stroke-width="2" stroke-linecap="round" stroke-linejoin="round"/>
<path d="M12 14C13.1046 14 14 13.1046 14 12C14 10.8954 13.1046 10 12 10C10.8954 10 10 10.8954 10 12C10 13.1046 10.8954 14 12 14Z" stroke="black" stroke-width="2" stroke-linecap="round" stroke-linejoin="round"/>
<circle cx="20" cy="20" r="2" stroke="black" stroke-width="2"/>
</svg>
