<svg width="24" height="24" viewBox="0 0 24 24" fill="none" xmlns="http://www.w3.org/2000/svg">
<path d="M6.00002 21L5.26481 21.6778C5.60247 22.0441 6.15821 22.106 6.56815 21.8229C6.9781 21.5399 7.11723 20.9983 6.89445 20.5528L6.00002 21ZM3.00002 15L2.00105 14.9546L3.00002 15ZM5.50002 10L4.57379 9.62305L5.50002 10ZM7.00002 4L7.81071 3.41452C7.49227 2.9736 6.87984 2.86803 6.43216 3.17687C5.98448 3.48572 5.86572 4.09573 6.16484 4.54997L7.00002 4ZM7.00002 15L6.29292 14.2929L7.00002 15ZM5.50002 17.5L4.55134 17.1838L5.50002 17.5ZM14 3L14.977 2.78679C14.899 2.42953 14.6323 2.14332 14.2814 2.04041C13.9305 1.93751 13.5515 2.03433 13.2929 2.29289L14 3ZM9.21905 17.3754C8.8741 17.8067 8.9441 18.436 9.3754 18.7809C9.80671 19.1259 10.436 19.0559 10.7809 18.6246L9.21905 17.3754ZM14 11.5L13.0651 11.1452L14 11.5ZM11.2929 4.29289C10.9024 4.68342 10.9024 5.31658 11.2929 5.70711C11.6834 6.09763 12.3166 6.09763 12.7071 5.70711L11.2929 4.29289ZM14.6591 15.4589C14.3602 15.9233 14.4944 16.5421 14.9589 16.8409C15.4233 17.1398 16.0421 17.0056 16.3409 16.5411L14.6591 15.4589ZM20 5L20.9706 5.24083C21.0645 4.8621 20.9296 4.46331 20.625 4.21941C20.3204 3.97551 19.9018 3.93107 19.5528 4.10557L20 5ZM17.5528 5.10557C17.0588 5.35256 16.8586 5.95324 17.1056 6.44721C17.3526 6.94119 17.9532 7.14142 18.4472 6.89443L17.5528 5.10557ZM17 13.5L16.1183 13.0281L17 13.5ZM6.00002 21C6.73524 20.3222 6.73536 20.3223 6.73547 20.3224C6.73549 20.3224 6.73559 20.3225 6.73563 20.3226C6.73572 20.3227 6.73575 20.3227 6.73575 20.3227C6.73573 20.3227 6.73553 20.3225 6.73514 20.3221C6.73437 20.3212 6.73288 20.3196 6.73067 20.3172C6.72627 20.3123 6.71904 20.3043 6.70919 20.2934C6.68949 20.2714 6.65931 20.2375 6.6202 20.1926C6.5419 20.1027 6.42813 19.9693 6.29105 19.8004C6.01592 19.4614 5.65173 18.9852 5.29304 18.4351C4.53775 17.277 3.95507 16.0116 3.99899 15.0454L2.00105 14.9546C1.92602 16.6054 2.84334 18.3401 3.61779 19.5276C4.02396 20.1505 4.43208 20.6836 4.73804 21.0606C4.8915 21.2497 5.02047 21.4011 5.11228 21.5064C5.15821 21.5592 5.19493 21.6005 5.22086 21.6294C5.23382 21.6438 5.2441 21.6551 5.25148 21.6633C5.25518 21.6673 5.25815 21.6706 5.26038 21.673C5.2615 21.6742 5.26242 21.6752 5.26316 21.676C5.26353 21.6764 5.26385 21.6768 5.26413 21.6771C5.26426 21.6772 5.26443 21.6774 5.2645 21.6775C5.26466 21.6777 5.26481 21.6778 6.00002 21ZM3.99899 15.0454C4.03597 14.2318 4.33492 13.6696 4.80031 13.0069C5.2513 12.3648 5.96306 11.5151 6.42626 10.3769L4.57379 9.62305C4.22305 10.4849 3.73437 11.0448 3.16363 11.8574C2.60729 12.6496 2.0632 13.5874 2.00105 14.9546L3.99899 15.0454ZM6.42626 10.3769C7.48282 7.78076 7.8915 6.1925 8.02202 5.21365C8.08765 4.72151 8.08652 4.35814 8.0494 4.08392C8.03064 3.94534 8.00209 3.82506 7.96575 3.72027C7.94753 3.66776 7.92733 3.61904 7.90539 3.57393C7.89443 3.55138 7.88306 3.52978 7.87133 3.50911C7.86547 3.49878 7.85952 3.48869 7.85349 3.47884C7.85048 3.47392 7.84745 3.46905 7.8444 3.46425C7.84288 3.46185 7.84135 3.45947 7.83982 3.4571C7.83905 3.45591 7.8379 3.45414 7.83752 3.45355C7.83636 3.45179 7.83521 3.45003 7.00002 4C6.16484 4.54997 6.16369 4.54822 6.16254 4.54647C6.16216 4.54589 6.16103 4.54414 6.16028 4.54299C6.15878 4.54067 6.15731 4.53837 6.15585 4.53607C6.15294 4.53149 6.15012 4.52696 6.14738 4.52248C6.1419 4.51352 6.13675 4.50477 6.13193 4.49627C6.12227 4.47926 6.11392 4.46325 6.10671 4.44842C6.09228 4.41875 6.08255 4.39403 6.07619 4.37568C6.06354 4.33921 6.0642 4.32796 6.06747 4.35218C6.07443 4.40358 6.08869 4.58095 6.03957 4.9493C5.94061 5.69143 5.59929 7.10318 4.57379 9.62305L6.42626 10.3769ZM7.00002 4C6.18934 4.58548 6.18925 4.58536 6.18917 4.58525C6.18915 4.58523 6.18908 4.58513 6.18905 4.58509C6.189 4.58501 6.18898 4.58498 6.18899 4.58501C6.18903 4.58506 6.18921 4.58531 6.18954 4.58577C6.1902 4.58669 6.19145 4.58843 6.19326 4.59097C6.19689 4.59605 6.20278 4.60433 6.21078 4.61569C6.2268 4.6384 6.25125 4.67337 6.28293 4.71954C6.34633 4.81192 6.43846 4.9488 6.54974 5.12171C6.77289 5.46846 7.06995 5.95531 7.36588 6.51532C7.98137 7.68001 8.50002 8.99309 8.50002 10H10.5C10.5 8.4685 9.76868 6.78158 9.13416 5.58087C8.8051 4.95818 8.47716 4.42099 8.23156 4.03936C8.10846 3.84808 8.00528 3.6947 7.93196 3.58786C7.89528 3.53442 7.86602 3.49254 7.84541 3.4633C7.83511 3.44869 7.82696 3.43722 7.82113 3.42905C7.81821 3.42496 7.81587 3.42169 7.81413 3.41927C7.81325 3.41805 7.81253 3.41705 7.81196 3.41626C7.81168 3.41586 7.81143 3.41552 7.81122 3.41523C7.81111 3.41508 7.81099 3.4149 7.81093 3.41483C7.81082 3.41467 7.81071 3.41452 7.00002 4ZM8.50002 10C8.50002 11.3259 8.47807 11.6829 8.29309 12.0528C8.19572 12.2476 8.02996 12.4823 7.70204 12.8467C7.37221 13.2132 6.92549 13.6603 6.29292 14.2929L7.70713 15.7071C8.32455 15.0897 8.81534 14.5994 9.18863 14.1846C9.56384 13.7677 9.86683 13.3775 10.082 12.9472C10.522 12.0672 10.5 11.1741 10.5 10H8.50002ZM6.29292 14.2929C5.82422 14.7616 5.46992 15.1065 5.20503 15.548C4.9475 15.9772 4.7863 16.4789 4.55134 17.1838L6.4487 17.8162C6.71376 17.0211 6.80256 16.7728 6.92003 16.577C7.03013 16.3935 7.17582 16.2384 7.70713 15.7071L6.29292 14.2929ZM4.55134 17.1838C4.20627 18.2189 4.3945 19.3304 4.59775 20.0756C4.70452 20.4671 4.82832 20.8029 4.92549 21.0414C4.97434 21.1613 5.01713 21.2582 5.04872 21.3273C5.06454 21.3618 5.0776 21.3895 5.08728 21.4097C5.09212 21.4198 5.09612 21.428 5.0992 21.4343C5.10074 21.4374 5.10205 21.4401 5.10312 21.4422C5.10365 21.4433 5.10413 21.4443 5.10454 21.4451C5.10475 21.4455 5.10494 21.4459 5.10512 21.4463C5.1052 21.4464 5.10532 21.4467 5.10537 21.4468C5.10549 21.447 5.1056 21.4472 6.00002 21C6.89445 20.5528 6.89455 20.553 6.89465 20.5532C6.89468 20.5533 6.89478 20.5534 6.89484 20.5536C6.89495 20.5538 6.89505 20.554 6.89514 20.5542C6.89531 20.5545 6.89543 20.5547 6.89548 20.5549C6.8956 20.5551 6.89548 20.5549 6.89514 20.5542C6.89447 20.5528 6.89291 20.5496 6.89055 20.5447C6.88582 20.5348 6.87789 20.5181 6.86733 20.495C6.84619 20.4488 6.81477 20.3778 6.77767 20.2868C6.70296 20.1034 6.60801 19.8454 6.52728 19.5494C6.35552 18.9196 6.29375 18.2811 6.4487 17.8162L4.55134 17.1838ZM14 3C13.023 3.21321 13.023 3.21308 13.0229 3.21296C13.0229 3.21295 13.0229 3.21285 13.0229 3.21283C13.0229 3.21279 13.0229 3.21282 13.0229 3.21294C13.023 3.21317 13.0231 3.21373 13.0233 3.2146C13.0237 3.21635 13.0243 3.21938 13.0252 3.22366C13.0271 3.23221 13.0299 3.24575 13.0337 3.26405C13.0413 3.30066 13.0526 3.35627 13.0667 3.429C13.0951 3.57454 13.1348 3.7883 13.1791 4.05541C13.2679 4.59061 13.3744 5.33493 13.4452 6.17062C13.5907 7.88758 13.5687 9.81806 13.0651 11.1452L14.9349 11.8548C15.609 10.0784 15.587 7.7589 15.4381 6.00173C15.3617 5.10036 15.2473 4.3016 15.1521 3.72798C15.1044 3.44068 15.0614 3.20859 15.0299 3.04688C15.0141 2.966 15.0013 2.90263 14.9922 2.85867C14.9876 2.83669 14.984 2.81955 14.9815 2.80749C14.9802 2.80147 14.9792 2.79671 14.9784 2.79325C14.978 2.79151 14.9777 2.79011 14.9775 2.78903C14.9774 2.78849 14.9773 2.78804 14.9772 2.78766C14.9772 2.78747 14.9771 2.78726 14.9771 2.78716C14.977 2.78696 14.977 2.78679 14 3ZM13.0651 11.1452C12.5677 12.456 11.6235 14.001 10.7679 15.2561C10.3461 15.875 9.95683 16.4074 9.67334 16.7847C9.53175 16.9732 9.41691 17.1224 9.33806 17.2238C9.29864 17.2745 9.26824 17.3132 9.24801 17.3389C9.2379 17.3517 9.23034 17.3612 9.22546 17.3674C9.22302 17.3704 9.22126 17.3726 9.22018 17.374C9.21965 17.3747 9.21928 17.3751 9.21909 17.3754C9.219 17.3755 9.21895 17.3755 9.21894 17.3755C9.21894 17.3755 9.21896 17.3755 9.21896 17.3755C9.219 17.3755 9.21905 17.3754 10 18C10.7809 18.6246 10.781 18.6245 10.7811 18.6244C10.7811 18.6243 10.7812 18.6242 10.7813 18.6241C10.7815 18.6239 10.7817 18.6236 10.782 18.6233C10.7825 18.6227 10.7832 18.6218 10.7841 18.6207C10.7858 18.6185 10.7882 18.6155 10.7913 18.6115C10.7976 18.6037 10.8065 18.5924 10.8181 18.5778C10.8411 18.5486 10.8744 18.5061 10.9169 18.4515C11.0019 18.3423 11.1234 18.1842 11.2723 17.9861C11.5697 17.5902 11.9776 17.0323 12.4205 16.3826C13.2944 15.1007 14.3502 13.3957 14.9349 11.8548L13.0651 11.1452ZM13.2929 2.29289L11.2929 4.29289L12.7071 5.70711L14.7071 3.70711L13.2929 2.29289ZM19.5528 4.10557L17.5528 5.10557L18.4472 6.89443L20.4472 5.89443L19.5528 4.10557ZM15.5 16C16.3409 16.5411 16.341 16.5411 16.341 16.5411C16.341 16.5411 16.341 16.541 16.341 16.541C16.3411 16.5409 16.3411 16.5408 16.3412 16.5407C16.3414 16.5405 16.3416 16.5401 16.3419 16.5397C16.3424 16.5389 16.3432 16.5377 16.3442 16.5361C16.3461 16.533 16.349 16.5285 16.3528 16.5227C16.3603 16.511 16.3712 16.4939 16.3852 16.4719C16.4133 16.428 16.4538 16.3644 16.5039 16.2851C16.6042 16.1267 16.7434 15.9049 16.8999 15.6511C17.2097 15.1484 17.598 14.5019 17.8817 13.9719L16.1183 13.0281C15.8648 13.5019 15.5031 14.1055 15.1972 14.6018C15.0458 14.8475 14.9108 15.0625 14.8137 15.2159C14.7652 15.2926 14.7263 15.3538 14.6996 15.3956C14.6862 15.4165 14.676 15.4325 14.6691 15.4432C14.6657 15.4486 14.6631 15.4526 14.6614 15.4552C14.6606 15.4565 14.6599 15.4575 14.6595 15.4581C14.6593 15.4584 14.6592 15.4586 14.6591 15.4588C14.6591 15.4588 14.6591 15.4589 14.6591 15.4589C14.659 15.4589 14.6591 15.4589 14.659 15.4589C14.6591 15.4589 14.6591 15.4589 15.5 16ZM17.8817 13.9719C18.7591 12.3324 19.5317 10.1319 20.0774 8.38419C20.353 7.50173 20.5756 6.71836 20.7295 6.15525C20.8064 5.87351 20.8663 5.64643 20.9072 5.48908C20.9276 5.41039 20.9432 5.34911 20.9539 5.30712C20.9592 5.28612 20.9633 5.26994 20.9661 5.25881C20.9675 5.25325 20.9685 5.24895 20.9693 5.24594C20.9697 5.24444 20.97 5.24326 20.9702 5.2424C20.9703 5.24198 20.9704 5.24163 20.9704 5.24137C20.9705 5.24124 20.9705 5.2411 20.9705 5.24104C20.9705 5.24092 20.9706 5.24083 20 5C19.0294 4.75917 19.0294 4.75912 19.0295 4.75909C19.0294 4.7591 19.0295 4.75909 19.0294 4.75912C19.0294 4.75919 19.0294 4.75934 19.0293 4.75956C19.0292 4.76002 19.029 4.7608 19.0288 4.7619C19.0282 4.76411 19.0273 4.7676 19.0261 4.77234C19.0238 4.78182 19.0201 4.79632 19.0152 4.81561C19.0054 4.85418 18.9907 4.91186 18.9713 4.9868C18.9324 5.13669 18.8747 5.35544 18.8002 5.6281C18.6511 6.1738 18.4352 6.9335 18.1683 7.78809C17.6293 9.51446 16.9019 11.564 16.1183 13.0281L17.8817 13.9719Z" fill="black"/>
</svg>
