<svg width="24" height="24" viewBox="0 0 24 24" fill="none" xmlns="http://www.w3.org/2000/svg">
<path d="M7 2V1C6.44772 1 6 1.44772 6 2H7ZM17 2H18C18 1.44772 17.5523 1 17 1V2ZM17 14H16C16 14.2652 16.1054 14.5196 16.2929 14.7071C16.4804 14.8947 16.7348 15 17 15L17 14ZM20 14L20.7071 14.7071C20.9931 14.4211 21.0787 13.991 20.9239 13.6173C20.7691 13.2436 20.4045 13 20 13L20 14ZM12 22L11.2929 22.7071C11.6834 23.0976 12.3166 23.0976 12.7071 22.7071L12 22ZM4 14V13C3.59554 13 3.2309 13.2436 3.07612 13.6173C2.92134 13.991 3.0069 14.4211 3.29289 14.7071L4 14ZM7 14V15C7.55228 15 8 14.5523 8 14H7ZM11 6V5C10.4477 5 10 5.44772 10 6H11ZM13 7C13.5523 7 14 6.55228 14 6C14 5.44772 13.5523 5 13 5V7ZM10 13C10 13.5523 10.4477 14 11 14C11.5523 14 12 13.5523 12 13H10ZM13 10.5C13.5523 10.5 14 10.0523 14 9.5C14 8.94772 13.5523 8.5 13 8.5V10.5ZM7 3H17V1H7V3ZM16 2V14H18V2H16ZM17 15L20 15L20 13L17 13L17 15ZM19.2929 13.2929L11.2929 21.2929L12.7071 22.7071L20.7071 14.7071L19.2929 13.2929ZM12.7071 21.2929L4.70711 13.2929L3.29289 14.7071L11.2929 22.7071L12.7071 21.2929ZM4 15H7V13H4V15ZM8 14V2H6V14H8ZM11 7H13V5H11V7ZM10 6V9.5H12V6H10ZM10 9.5V13H12V9.5H10ZM11 10.5H13V8.5H11V10.5Z" fill="black"/>
</svg>
