<svg width="24" height="24" viewBox="0 0 24 24" fill="none" xmlns="http://www.w3.org/2000/svg">
<path d="M3 4C2.44772 4 2 4.44772 2 5C2 5.55228 2.44772 6 3 6V4ZM11 6C11.5523 6 12 5.55228 12 5C12 4.44772 11.5523 4 11 4V6ZM7 9C6.44772 9 6 9.44772 6 10C6 10.5523 6.44772 11 7 11V9ZM17 11C17.5523 11 18 10.5523 18 10C18 9.44772 17.5523 9 17 9V11ZM4 14C3.44772 14 3 14.4477 3 15C3 15.5523 3.44772 16 4 16V14ZM15 16C15.5523 16 16 15.5523 16 15C16 14.4477 15.5523 14 15 14V16ZM7.5 19C6.94772 19 6.5 19.4477 6.5 20C6.5 20.5523 6.94772 21 7.5 21V19ZM21 21C21.5523 21 22 20.5523 22 20C22 19.4477 21.5523 19 21 19V21ZM3 6H11V4H3V6ZM7 11H17V9H7V11ZM4 16H15V14H4V16ZM7.5 21H21V19H7.5V21Z" fill="black"/>
</svg>
