<svg width="24" height="24" viewBox="0 0 24 24" fill="none" xmlns="http://www.w3.org/2000/svg">
<path d="M13 20L13.8944 20.4472C13.9723 20.2914 14.0082 20.1179 13.9984 19.944L13 20ZM4 11L3.00831 10.8713L4 11ZM12 3.99998L11.9255 3.00276L12 3.99998ZM19 19L18.2929 19.7071C18.5202 19.9344 18.8429 20.0386 19.1602 19.9871C19.4775 19.9356 19.7507 19.7347 19.8944 19.4472L19 19ZM12.0757 12L13.0564 11.8047L12.0757 12ZM17.7071 16.2929C17.3166 15.9024 16.6834 15.9024 16.2929 16.2929C15.9024 16.6834 15.9024 17.3166 16.2929 17.7071L17.7071 16.2929ZM12.4256 8.78694C12.3079 8.24734 11.7751 7.90529 11.2355 8.02296C10.6959 8.14063 10.3539 8.67345 10.4715 9.21306L12.4256 8.78694ZM12.1056 19.5528C12.2709 19.222 12.5635 19.1458 12.6361 19.133C12.7064 19.1206 12.714 19.1349 12.6181 19.1179C12.4384 19.0861 12.1287 18.9879 11.7025 18.7965C10.8663 18.4211 9.76452 17.7702 8.68566 16.9333C7.60486 16.0949 6.59272 15.1052 5.89623 14.0687C5.19538 13.0256 4.87485 12.0294 4.99169 11.1286L3.00831 10.8713C2.80547 12.4351 3.3876 13.9213 4.23619 15.1841C5.08912 16.4535 6.2732 17.5931 7.45982 18.5136C8.64838 19.4356 9.88527 20.173 10.8833 20.6211C11.3743 20.8415 11.8556 21.0139 12.2689 21.0872C12.4695 21.1228 12.7241 21.1483 12.9829 21.1027C13.244 21.0567 13.6666 20.9029 13.8944 20.4472L12.1056 19.5528ZM4.99169 11.1286C5.45261 7.57509 8.30764 5.2788 12.0745 4.99719L11.9255 3.00276C7.4128 3.34011 3.61536 6.19117 3.00831 10.8713L4.99169 11.1286ZM12.0745 4.99719C14.7074 4.80037 16.8973 6.61923 18.1241 9.46513C19.3479 12.304 19.4514 15.8612 18.1056 18.5528L19.8944 19.4472C21.5486 16.1388 21.3753 11.955 19.9607 8.6734C18.5491 5.39883 15.739 2.71767 11.9255 3.00276L12.0745 4.99719ZM11.0949 12.1953C11.4158 13.8061 11.6431 15.7654 11.7905 17.3397C11.8638 18.1231 11.9167 18.8039 11.9512 19.2885C11.9685 19.5307 11.9811 19.7236 11.9894 19.8554C11.9936 19.9214 11.9966 19.972 11.9987 20.0059C11.9997 20.0229 12.0004 20.0357 12.0009 20.0441C12.0011 20.0483 12.0013 20.0514 12.0014 20.0534C12.0015 20.0544 12.0015 20.0551 12.0015 20.0555C12.0016 20.0557 12.0016 20.0559 12.0016 20.056C12.0016 20.056 12.0016 20.056 12.0016 20.056C12.0016 20.056 12.0016 20.056 13 20C13.9984 19.944 13.9984 19.9439 13.9984 19.9438C13.9984 19.9438 13.9984 19.9437 13.9984 19.9436C13.9984 19.9434 13.9984 19.9431 13.9984 19.9427C13.9983 19.942 13.9983 19.941 13.9982 19.9398C13.998 19.9372 13.9978 19.9336 13.9976 19.9288C13.997 19.9193 13.9962 19.9055 13.9951 19.8874C13.993 19.8512 13.9898 19.7981 13.9855 19.7297C13.9768 19.5929 13.9638 19.3945 13.9461 19.1464C13.9108 18.6503 13.8567 17.9544 13.7818 17.1533C13.6325 15.5587 13.3977 13.518 13.0564 11.8047L11.0949 12.1953ZM19.7071 18.2929L17.7071 16.2929L16.2929 17.7071L18.2929 19.7071L19.7071 18.2929ZM10.4715 9.21306C10.655 10.0543 10.8755 11.0938 11.0949 12.1953L13.0564 11.8047C12.8341 10.6883 12.6109 9.63666 12.4256 8.78694L10.4715 9.21306Z" fill="black"/>
</svg>
