<svg width="24" height="24" viewBox="0 0 24 24" fill="none" xmlns="http://www.w3.org/2000/svg">
<path d="M12 12.5002L12.8877 12.0399C12.7158 11.7083 12.3735 11.5002 12 11.5002C11.6265 11.5002 11.2842 11.7083 11.1123 12.0399L12 12.5002ZM2 13V12C1.61295 12 1.26065 12.2234 1.09555 12.5734C0.930442 12.9235 0.982175 13.3374 1.22837 13.6361L2 13ZM8.20802 9.5L7.29167 9.09963C7.27202 9.1446 7.25571 9.19095 7.24287 9.23831L8.20802 9.5ZM8 16.5L7.79412 15.5214L8 16.5ZM22 14C22.5523 14 23 13.5523 23 13C23 12.4477 22.5523 12 22 12V14ZM15.792 9.5L16.7571 9.23831C16.7443 9.19095 16.728 9.14459 16.7083 9.09963L15.792 9.5ZM6 12.5L5.68377 11.5513L6 12.5ZM14.3252 16.8295C14.7833 17.138 15.4047 17.0166 15.7132 16.5585C16.0216 16.1004 15.9003 15.4789 15.4422 15.1705L14.3252 16.8295ZM9.12437 9.90037C9.35676 9.36851 9.88646 9 10.5 9V7C9.06322 7 7.83084 7.86559 7.29167 9.09963L9.12437 9.90037ZM2 13C1.22837 13.6361 1.22852 13.6363 1.22869 13.6365C1.22876 13.6365 1.22894 13.6368 1.22909 13.6369C1.22938 13.6373 1.22973 13.6377 1.23012 13.6382C1.23091 13.6391 1.23191 13.6403 1.23311 13.6418C1.23551 13.6447 1.23872 13.6485 1.24273 13.6533C1.25076 13.6629 1.26198 13.6763 1.27628 13.6931C1.30488 13.7267 1.34581 13.7743 1.3981 13.8338C1.50259 13.9526 1.6529 14.1191 1.84109 14.3161C2.2158 14.7084 2.74878 15.2299 3.37569 15.737C3.99795 16.2402 4.74229 16.7535 5.54021 17.1042C6.33186 17.4522 7.26161 17.6772 8.20588 17.4786L7.79412 15.5214C7.41111 15.602 6.92722 15.5292 6.34501 15.2733C5.76906 15.0201 5.17932 14.6234 4.63339 14.1819C4.09212 13.7441 3.62283 13.2859 3.28731 12.9347C3.12039 12.7599 2.98861 12.6138 2.89977 12.5128C2.85539 12.4624 2.82186 12.4233 2.80015 12.3978C2.7893 12.385 2.78142 12.3756 2.77662 12.3699C2.77422 12.367 2.7726 12.3651 2.77176 12.3641C2.77134 12.3636 2.77112 12.3633 2.7711 12.3633C2.77109 12.3633 2.77113 12.3633 2.77122 12.3634C2.77126 12.3635 2.77137 12.3636 2.77139 12.3636C2.77151 12.3638 2.77163 12.3639 2 13ZM8.20588 17.4786C8.96547 17.3188 9.63212 16.9049 10.1766 16.4519C10.7275 15.9935 11.2099 15.4477 11.6015 14.9415C11.9956 14.4323 12.3141 13.942 12.5338 13.5802C12.6441 13.3986 12.7306 13.2474 12.7904 13.14C12.8203 13.0863 12.8437 13.0433 12.86 13.0129C12.8682 12.9977 12.8746 12.9856 12.8792 12.9768C12.8815 12.9724 12.8834 12.9688 12.8848 12.9661C12.8856 12.9647 12.8862 12.9636 12.8866 12.9627C12.8869 12.9622 12.8871 12.9618 12.8873 12.9614C12.8874 12.9612 12.8875 12.961 12.8875 12.9609C12.8876 12.9607 12.8877 12.9605 12 12.5002C11.1123 12.0399 11.1123 12.0397 11.1124 12.0395C11.1124 12.0395 11.1125 12.0393 11.1126 12.0393C11.1126 12.0391 11.1127 12.039 11.1127 12.039C11.1127 12.0389 11.1127 12.0391 11.1125 12.0394C11.1121 12.0401 11.1113 12.0416 11.1101 12.0439C11.1076 12.0486 11.1035 12.0564 11.0977 12.0673C11.086 12.089 11.0677 12.1227 11.0432 12.1668C10.994 12.255 10.92 12.3844 10.8242 12.5422C10.6317 12.8593 10.3555 13.2837 10.0198 13.7176C9.68167 14.1545 9.29912 14.5802 8.89742 14.9144C8.4892 15.2541 8.11541 15.4538 7.79412 15.5214L8.20588 17.4786ZM13.5 9C14.1135 9 14.6432 9.36851 14.8756 9.90037L16.7083 9.09963C16.1692 7.86559 14.9368 7 13.5 7V9ZM2 13C2 14 2.00011 14 2.00022 14C2.00028 14 2.0004 14 2.00051 14C2.00071 14 2.00096 14 2.00124 14C2.00181 14 2.00253 14 2.0034 14C2.00514 14 2.00748 14 2.01041 14C2.01628 14 2.0245 13.9999 2.03498 13.9999C2.05593 13.9997 2.08591 13.9995 2.12405 13.9989C2.2003 13.9979 2.30937 13.9958 2.44435 13.9917C2.7138 13.9836 3.08908 13.9673 3.5142 13.9346C4.3412 13.8709 5.44373 13.7395 6.31623 13.4487L5.68377 11.5513C5.05627 11.7605 4.1588 11.8791 3.3608 11.9404C2.97342 11.9702 2.62995 11.9852 2.38377 11.9926C2.26094 11.9964 2.16298 11.9982 2.09665 11.9991C2.06351 11.9996 2.03831 11.9998 2.02191 11.9999C2.01371 12 2.00771 12 2.00402 12C2.00218 12 2.00091 12 2.00024 12C1.9999 12 1.99971 12 1.99967 12C1.99965 12 1.99967 12 1.99972 12C1.99975 12 1.99982 12 1.99983 12C1.99991 12 2 12 2 13ZM6.31623 13.4487C7.47236 13.0633 8.18094 12.0032 8.56427 11.2733C8.77118 10.8794 8.92099 10.5082 9.01908 10.2368C9.06846 10.1002 9.10562 9.98636 9.13103 9.90455C9.14375 9.86359 9.15358 9.83047 9.16058 9.80633C9.16408 9.79425 9.16687 9.7844 9.16897 9.77692C9.17001 9.77318 9.17089 9.77003 9.17159 9.76748C9.17194 9.76621 9.17225 9.76509 9.17251 9.76413C9.17264 9.76364 9.17276 9.7632 9.17287 9.76279C9.17293 9.76259 9.173 9.76231 9.17303 9.76221C9.1731 9.76195 9.17317 9.76169 8.20802 9.5C7.24287 9.23831 7.24293 9.23807 7.243 9.23784C7.24301 9.23778 7.24307 9.23756 7.24311 9.23743C7.24318 9.23718 7.24324 9.23696 7.24329 9.23678C7.24338 9.23642 7.24344 9.2362 7.24346 9.23613C7.24351 9.23598 7.24339 9.23641 7.24311 9.23739C7.24256 9.23936 7.24138 9.24355 7.23956 9.24983C7.23592 9.26239 7.22976 9.28324 7.22103 9.31134C7.20354 9.36764 7.176 9.45229 7.13816 9.55697C7.0618 9.76825 6.94707 10.0512 6.79363 10.3434C6.45623 10.9858 6.06081 11.4256 5.68377 11.5513L6.31623 13.4487ZM22 13C22 12 22.0001 12 22.0002 12C22.0002 12 22.0002 12 22.0003 12C22.0003 12 22.0003 12 22.0003 12C22.0003 12 22.0001 12 21.9998 12C21.9991 12 21.9978 12 21.996 12C21.9923 12 21.9863 12 21.9781 11.9999C21.9617 11.9998 21.9365 11.9996 21.9033 11.9991C21.837 11.9982 21.7391 11.9964 21.6162 11.9926C21.37 11.9852 21.0266 11.9702 20.6392 11.9404C19.8412 11.8791 18.9437 11.7605 18.3162 11.5513L17.6838 13.4487C18.5563 13.7395 19.6588 13.8709 20.4858 13.9346C20.9109 13.9673 21.2862 13.9836 21.5556 13.9917C21.6906 13.9958 21.7997 13.9979 21.876 13.9989C21.9141 13.9995 21.9441 13.9997 21.965 13.9999C21.9755 13.9999 21.9837 14 21.9896 14C21.9925 14 21.9949 14 21.9966 14C21.9975 14 21.9982 14 21.9988 14C21.999 14 21.9993 14 21.9995 14C21.9996 14 21.9997 14 21.9998 14C21.9999 14 22 14 22 13ZM18.3162 11.5513C17.9392 11.4256 17.5438 10.9858 17.2064 10.3434C17.0529 10.0512 16.9382 9.76825 16.8618 9.55697C16.824 9.45229 16.7965 9.36764 16.779 9.31134C16.7702 9.28324 16.7641 9.26239 16.7604 9.24983C16.7586 9.24355 16.7574 9.23936 16.7569 9.23739C16.7566 9.23641 16.7565 9.23598 16.7565 9.23613C16.7566 9.2362 16.7566 9.23642 16.7567 9.23678C16.7568 9.23696 16.7568 9.23718 16.7569 9.23743C16.7569 9.23756 16.757 9.23778 16.757 9.23784C16.7571 9.23807 16.7571 9.23831 15.792 9.5C14.8268 9.76169 14.8269 9.76195 14.827 9.76221C14.827 9.76232 14.8271 9.76259 14.8271 9.76279C14.8272 9.7632 14.8274 9.76364 14.8275 9.76413C14.8278 9.76509 14.8281 9.76621 14.8284 9.76748C14.8291 9.77003 14.83 9.77318 14.831 9.77692C14.8331 9.7844 14.8359 9.79425 14.8394 9.80633C14.8464 9.83047 14.8562 9.86359 14.869 9.90455C14.8944 9.98636 14.9315 10.1002 14.9809 10.2368C15.079 10.5082 15.2288 10.8794 15.4357 11.2733C15.8191 12.0032 16.5276 13.0633 17.6838 13.4487L18.3162 11.5513ZM10.5 9H13.5V7H10.5V9ZM12 12.5002C11.1123 12.9605 11.1123 12.9607 11.1124 12.9608C11.1125 12.9609 11.1126 12.9611 11.1126 12.9612C11.1128 12.9615 11.1129 12.9618 11.1131 12.9622C11.1135 12.9629 11.1139 12.9637 11.1144 12.9647C11.1155 12.9667 11.1168 12.9693 11.1185 12.9724C11.1218 12.9787 11.1263 12.9872 11.1319 12.9978C11.1433 13.0192 11.1594 13.0491 11.1801 13.0867C11.2215 13.162 11.2811 13.2682 11.3575 13.3982C11.5098 13.6574 11.7306 14.0143 12.0067 14.4089C12.5449 15.1778 13.3504 16.1732 14.3252 16.8295L15.4422 15.1705C14.7748 14.7211 14.1384 13.9666 13.6453 13.262C13.4058 12.9199 13.2136 12.6091 13.0818 12.3849C13.0161 12.2731 12.966 12.1837 12.933 12.1237C12.9165 12.0937 12.9044 12.0711 12.8967 12.0568C12.8929 12.0497 12.8903 12.0446 12.8888 12.0418C12.888 12.0403 12.8875 12.0395 12.8874 12.0391C12.8873 12.039 12.8873 12.0389 12.8873 12.0391C12.8874 12.0391 12.8874 12.0392 12.8875 12.0393C12.8875 12.0394 12.8876 12.0395 12.8876 12.0396C12.8877 12.0397 12.8877 12.0399 12 12.5002Z" fill="black"/>
<circle cx="20" cy="20" r="2" stroke="black" stroke-width="2"/>
</svg>
