<svg width="24" height="24" viewBox="0 0 24 24" fill="none" xmlns="http://www.w3.org/2000/svg">
<path d="M19 3H5C3.89543 3 3 3.89543 3 5V19C3 20.1046 3.89543 21 5 21H19C20.1046 21 21 20.1046 21 19V5C21 3.89543 20.1046 3 19 3Z" stroke="black" stroke-width="2" stroke-linecap="round" stroke-linejoin="round"/>
<path d="M6 16C6 16.5523 6.44772 17 7 17C7.55228 17 8 16.5523 8 16H6ZM7 11V10C6.44772 10 6 10.4477 6 11H7ZM12 12C12.5523 12 13 11.5523 13 11C13 10.4477 12.5523 10 12 10V12ZM16.2929 21.7071C16.6834 22.0976 17.3166 22.0976 17.7071 21.7071C18.0976 21.3166 18.0976 20.6834 17.7071 20.2929L16.2929 21.7071ZM8 16V11H6V16H8ZM7 12H12V10H7V12ZM6.29289 11.7071L16.2929 21.7071L17.7071 20.2929L7.70711 10.2929L6.29289 11.7071Z" fill="black"/>
</svg>
