<svg width="24" height="24" viewBox="0 0 24 24" fill="none" xmlns="http://www.w3.org/2000/svg">
<path d="M5 11C4.44772 11 4 11.4477 4 12C4 12.5523 4.44772 13 5 13V11ZM9 13C9.55228 13 10 12.5523 10 12C10 11.4477 9.55228 11 9 11V13ZM6 14C6 14.5523 6.44772 15 7 15C7.55228 15 8 14.5523 8 14H6ZM8 10C8 9.44772 7.55228 9 7 9C6.44772 9 6 9.44772 6 10H8ZM19 11C18.4477 11 18 11.4477 18 12C18 12.5523 18.4477 13 19 13V11ZM19.01 13C19.5623 13 20.01 12.5523 20.01 12C20.01 11.4477 19.5623 11 19.01 11V13ZM15 11C14.4477 11 14 11.4477 14 12C14 12.5523 14.4477 13 15 13V11ZM15.01 13C15.5623 13 16.01 12.5523 16.01 12C16.01 11.4477 15.5623 11 15.01 11V13ZM17 9C16.4477 9 16 9.44772 16 10C16 10.5523 16.4477 11 17 11V9ZM17.01 11C17.5623 11 18.01 10.5523 18.01 10C18.01 9.44772 17.5623 9 17.01 9V11ZM17 13C16.4477 13 16 13.4477 16 14C16 14.5523 16.4477 15 17 15V13ZM17.01 15C17.5623 15 18.01 14.5523 18.01 14C18.01 13.4477 17.5623 13 17.01 13V15ZM5 13H7V11H5V13ZM7 13H9V11H7V13ZM6 12V14H8V12H6ZM8 12V10H6V12H8ZM19 13H19.01V11H19V13ZM15 13H15.01V11H15V13ZM17 11H17.01V9H17V11ZM17 15H17.01V13H17V15Z" fill="black"/>
<rect x="2" y="7" width="20" height="10" rx="5" stroke="black" stroke-width="2"/>
</svg>
