<svg width="24" height="24" viewBox="0 0 24 24" fill="none" xmlns="http://www.w3.org/2000/svg">
<path d="M4 4C4 3.44772 3.55228 3 3 3C2.44772 3 2 3.44772 2 4H4ZM2 14C2 14.5523 2.44772 15 3 15C3.55228 15 4 14.5523 4 14H2ZM10 8C10 7.44772 9.55228 7 9 7C8.44772 7 8 7.44772 8 8H10ZM8 20C8 20.5523 8.44772 21 9 21C9.55228 21 10 20.5523 10 20H8ZM16 8C16 7.44772 15.5523 7 15 7C14.4477 7 14 7.44772 14 8H16ZM14 20C14 20.5523 14.4477 21 15 21C15.5523 21 16 20.5523 16 20H14ZM20 14C20 14.5523 20.4477 15 21 15C21.5523 15 22 14.5523 22 14H20ZM22 8C22 7.44772 21.5523 7 21 7C20.4477 7 20 7.44772 20 8H22ZM2 4V14H4V4H2ZM8 8V20H10V8H8ZM14 8V20H16V8H14ZM22 14V8H20V14H22Z" fill="black"/>
</svg>
