<svg width="24" height="24" viewBox="0 0 24 24" fill="none" xmlns="http://www.w3.org/2000/svg">
<path d="M21 14V5C21 3.89543 20.1046 3 19 3H5C3.89543 3 3 3.89543 3 5V19C3 20.1046 3.89543 21 5 21H14" stroke="black" stroke-width="2" stroke-linecap="round" stroke-linejoin="round"/>
<rect x="7" y="3" width="4" height="8" stroke="black" stroke-width="2" stroke-linejoin="round"/>
<path d="M15 6C14.4477 6 14 6.44772 14 7C14 7.55228 14.4477 8 15 8V6ZM17 8C17.5523 8 18 7.55228 18 7C18 6.44772 17.5523 6 17 6V8ZM15 10C14.4477 10 14 10.4477 14 11C14 11.5523 14.4477 12 15 12V10ZM17 12C17.5523 12 18 11.5523 18 11C18 10.4477 17.5523 10 17 10V12ZM7 14C6.44772 14 6 14.4477 6 15C6 15.5523 6.44772 16 7 16V14ZM15 16C15.5523 16 16 15.5523 16 15C16 14.4477 15.5523 14 15 14V16ZM15 8H17V6H15V8ZM15 12H17V10H15V12ZM7 16H15V14H7V16Z" fill="black"/>
<circle cx="20" cy="20" r="2" stroke="black" stroke-width="2"/>
</svg>
