<svg width="24" height="24" viewBox="0 0 24 24" fill="none" xmlns="http://www.w3.org/2000/svg">
<path d="M9.85858 20.01C9.31184 20.0882 8.93195 20.5947 9.01005 21.1414C9.08816 21.6882 9.59469 22.0681 10.1414 21.99L9.85858 20.01ZM10.5 11L11.3944 11.4472C11.5494 11.1372 11.5329 10.7691 11.3507 10.4743C11.1684 10.1795 10.8466 10 10.5 10V11ZM9.5 11H8.5C8.5 11.5523 8.94772 12 9.5 12V11ZM10.5 10C10.5 9.44771 10.0523 9 9.5 9C8.94772 9 8.5 9.44771 8.5 10H10.5ZM8.60557 12.5528C8.35858 13.0468 8.55881 13.6474 9.05279 13.8944C9.54677 14.1414 10.1474 13.9412 10.3944 13.4472L8.60557 12.5528ZM17.5967 13.1677C17.3971 13.6827 17.6528 14.2619 18.1677 14.4615C18.6827 14.6612 19.2619 14.4055 19.4615 13.8906L17.5967 13.1677ZM22.2929 23.7071C22.6834 24.0976 23.3166 24.0976 23.7071 23.7071C24.0976 23.3166 24.0976 22.6834 23.7071 22.2929L22.2929 23.7071ZM9.10942 3.53845C8.59447 3.73806 8.33884 4.31733 8.53845 4.83228C8.73806 5.34723 9.31733 5.60286 9.83228 5.40325L9.10942 3.53845ZM6.57542 6.57542L7.28252 5.86831H7.28252L6.57542 6.57542ZM1.70711 0.292893C1.31658 -0.0976311 0.683418 -0.0976311 0.292893 0.292893C-0.0976311 0.683417 -0.0976311 1.31658 0.292893 1.70711L1.70711 0.292893ZM17.4986 13.2127C17.3399 13.7417 17.6401 14.2991 18.169 14.4578C18.698 14.6165 19.2555 14.3163 19.4142 13.7873L17.4986 13.2127ZM10 21C10.1414 21.99 10.1417 21.9899 10.142 21.9899C10.1422 21.9898 10.1425 21.9898 10.1427 21.9898C10.1432 21.9897 10.1438 21.9896 10.1444 21.9895C10.1456 21.9893 10.147 21.9891 10.1487 21.9889C10.1519 21.9884 10.156 21.9878 10.161 21.987C10.1709 21.9855 10.1841 21.9835 10.2006 21.9808C10.2335 21.9754 10.2792 21.9676 10.3367 21.957C10.4515 21.9359 10.6136 21.9034 10.8138 21.8565C11.2136 21.7629 11.7695 21.6112 12.4082 21.3758C13.6771 20.9083 15.3205 20.0937 16.7071 18.7071L15.2929 17.2929C14.1795 18.4063 12.8229 19.0917 11.7168 19.4992C11.168 19.7013 10.6926 19.8308 10.3581 19.9091C10.1911 19.9482 10.0602 19.9743 9.97387 19.9902C9.93074 19.9982 9.89884 20.0036 9.87924 20.0068C9.86945 20.0084 9.86274 20.0094 9.85924 20.0099C9.8575 20.0102 9.85656 20.0103 9.85644 20.0104C9.85638 20.0104 9.85653 20.0103 9.85689 20.0103C9.85706 20.0103 9.85729 20.0102 9.85758 20.0102C9.85772 20.0102 9.85797 20.0101 9.85804 20.0101C9.8583 20.0101 9.85858 20.01 10 21ZM10.5 10H9.5V12H10.5V10ZM10.5 11V10H8.5V11H10.5ZM9.60557 10.5528L8.60557 12.5528L10.3944 13.4472L11.3944 11.4472L9.60557 10.5528ZM12 17C8.68629 17 6 14.3137 6 11H4C4 15.4183 7.58172 19 12 19V17ZM12 5C15.3137 5 18 7.68629 18 11H20C20 6.58172 16.4183 3 12 3V5ZM18 11C18 11.7663 17.8569 12.4967 17.5967 13.1677L19.4615 13.8906C19.8096 12.9927 20 12.0174 20 11H18ZM15.7921 15.65C14.7582 16.4943 13.4395 17 12 17V19C13.9172 19 15.6792 18.3244 17.0571 17.1991L15.7921 15.65ZM9.83228 5.40325C10.5033 5.14315 11.2337 5 12 5V3C10.9826 3 10.0073 3.19041 9.10942 3.53845L9.83228 5.40325ZM6 11C6 9.56052 6.50565 8.24183 7.34996 7.20794L5.80087 5.9429C4.67564 7.32079 4 9.08284 4 11H6ZM0.292893 1.70711L5.86831 7.28252L7.28252 5.86831L1.70711 0.292893L0.292893 1.70711ZM5.86831 7.28252L15.7175 17.1317L17.1317 15.7175L7.28252 5.86831L5.86831 7.28252ZM15.7175 17.1317L16.1946 17.6088L17.6088 16.1946L17.1317 15.7175L15.7175 17.1317ZM16.1946 17.6088L22.2929 23.7071L23.7071 22.2929L17.6088 16.1946L16.1946 17.6088ZM16.7071 18.7071C17.0927 18.3215 17.4311 17.9005 17.7279 17.465L16.0754 16.3384C15.8383 16.6862 15.578 17.0078 15.2929 17.2929L16.7071 18.7071ZM19.4142 13.7873C19.6378 13.0419 19.7816 12.3807 19.8698 11.9042C19.914 11.6655 19.9445 11.4719 19.9642 11.3357C19.974 11.2676 19.9812 11.2137 19.986 11.1757C19.9884 11.1567 19.9902 11.1416 19.9915 11.1307C19.9922 11.1252 19.9927 11.1208 19.9931 11.1174C19.9933 11.1157 19.9935 11.1143 19.9936 11.1131C19.9936 11.1125 19.9937 11.112 19.9938 11.1116C19.9938 11.1113 19.9938 11.1111 19.9938 11.1109C19.9938 11.1109 19.9939 11.1107 19.9939 11.1107C19.9939 11.1106 19.9939 11.1104 19 11C18.0061 10.8896 18.0061 10.8895 18.0061 10.8893C18.0061 10.8893 18.0062 10.8892 18.0062 10.8892C18.0062 10.889 18.0062 10.8889 18.0062 10.8888C18.0062 10.8887 18.0062 10.8885 18.0062 10.8885C18.0062 10.8884 18.0062 10.8886 18.0062 10.889C18.0061 10.8898 18.0059 10.8917 18.0055 10.8946C18.0048 10.9003 18.0037 10.9101 18.0019 10.9237C17.9985 10.9509 17.9928 10.9934 17.9847 11.0497C17.9684 11.1623 17.9422 11.3298 17.9032 11.5402C17.8252 11.9618 17.6971 12.5507 17.4986 13.2127L19.4142 13.7873Z" fill="black"/>
</svg>
