<svg width="24" height="24" viewBox="0 0 24 24" fill="none" xmlns="http://www.w3.org/2000/svg">
<path d="M14 17.7101L14.9996 17.6835C14.9914 17.3726 14.8389 17.0832 14.5871 16.9006C14.3353 16.718 14.0129 16.6629 13.7147 16.7517L14 17.7101ZM17.4231 13.5709C17.1861 14.0698 17.3984 14.6663 17.8973 14.9033C18.3961 15.1402 18.9926 14.9279 19.2296 14.4291L17.4231 13.5709ZM9.5 10V9C8.94772 9 8.5 9.44772 8.5 10H9.5ZM10.5 10H11.5C11.5 9.44772 11.0523 9 10.5 9V10ZM10.5 11L11.3944 11.4472C11.4639 11.3084 11.5 11.1552 11.5 11H10.5ZM9.5 11H8.5C8.5 11.5523 8.94772 12 9.5 12V11ZM13.5 10V9C12.9477 9 12.5 9.44772 12.5 10H13.5ZM14.5 10H15.5C15.5 9.44772 15.0523 9 14.5 9V10ZM14.5 11L15.3944 11.4472C15.4639 11.3084 15.5 11.1552 15.5 11H14.5ZM13.5 11H12.5C12.5 11.5523 12.9477 12 13.5 12V11ZM12.6056 12.5528C12.3586 13.0468 12.5588 13.6474 13.0528 13.8944C13.5468 14.1414 14.1474 13.9412 14.3944 13.4472L12.6056 12.5528ZM8.60557 12.5528C8.35858 13.0468 8.55881 13.6474 9.05279 13.8944C9.54676 14.1414 10.1474 13.9412 10.3944 13.4472L8.60557 12.5528ZM9.85858 20.01C9.31184 20.0882 8.93195 20.5947 9.01005 21.1414C9.08816 21.6882 9.59469 22.0681 10.1414 21.99L9.85858 20.01ZM14.0476 19.5L14.5569 20.3606C14.8692 20.1758 15.0569 19.8362 15.0473 19.4734L14.0476 19.5ZM12 17C8.68629 17 6 14.3137 6 11H4C4 15.4183 7.58172 19 12 19V17ZM6 11C6 7.68629 8.68629 5 12 5V3C7.58172 3 4 6.58172 4 11H6ZM12 5C15.3137 5 18 7.68629 18 11H20C20 6.58172 16.4183 3 12 3V5ZM13.7147 16.7517C13.1726 16.913 12.5974 17 12 17V19C12.7926 19 13.5599 18.8844 14.2853 18.6686L13.7147 16.7517ZM18 11C18 11.9221 17.7927 12.7929 17.4231 13.5709L19.2296 14.4291C19.7239 13.3886 20 12.2251 20 11H18ZM9.5 11H10.5V9H9.5V11ZM9.5 10V11H11.5V10H9.5ZM10.5 10H9.5V12H10.5V10ZM10.5 11V10H8.5V11H10.5ZM13.5 11H14.5V9H13.5V11ZM13.5 10V11H15.5V10H13.5ZM14.5 10H13.5V12H14.5V10ZM14.5 11V10H12.5V11H14.5ZM13.6056 10.5528L12.6056 12.5528L14.3944 13.4472L15.3944 11.4472L13.6056 10.5528ZM9.60557 10.5528L8.60557 12.5528L10.3944 13.4472L11.3944 11.4472L9.60557 10.5528ZM10 21C10.1414 21.99 10.1416 21.9899 10.1419 21.9899C10.142 21.9899 10.1422 21.9898 10.1424 21.9898C10.1427 21.9898 10.1431 21.9897 10.1435 21.9896C10.1444 21.9895 10.1453 21.9894 10.1464 21.9892C10.1486 21.9889 10.1512 21.9885 10.1543 21.9881C10.1605 21.9871 10.1687 21.9859 10.1787 21.9843C10.1988 21.9811 10.2263 21.9766 10.2608 21.9706C10.3297 21.9587 10.4267 21.9407 10.5479 21.9154C10.7901 21.8649 11.1302 21.7849 11.5372 21.6647C12.3479 21.4252 13.4409 21.0211 14.5569 20.3606L13.5383 18.6394C12.6012 19.194 11.6703 19.5399 10.9706 19.7466C10.6222 19.8495 10.3355 19.9167 10.1395 19.9576C10.0416 19.978 9.9668 19.9918 9.91866 20.0001C9.8946 20.0043 9.87725 20.0071 9.86708 20.0087C9.86199 20.0095 9.8587 20.01 9.85726 20.0102C9.85654 20.0103 9.85629 20.0104 9.85651 20.0103C9.85661 20.0103 9.85684 20.0103 9.85719 20.0103C9.85736 20.0102 9.85756 20.0102 9.85779 20.0102C9.85791 20.0101 9.85811 20.0101 9.85816 20.0101C9.85837 20.0101 9.85858 20.01 10 21ZM15.0473 19.4734L14.9996 17.6835L13.0004 17.7367L13.048 19.5266L15.0473 19.4734Z" fill="black"/>
<circle cx="20" cy="20" r="2" stroke="black" stroke-width="2"/>
</svg>
