<svg width="24" height="24" viewBox="0 0 24 24" fill="none" xmlns="http://www.w3.org/2000/svg">
<circle cx="12" cy="11" r="7" stroke="black" stroke-width="2"/>
<path d="M9.85857 20.0101C9.31184 20.0882 8.93194 20.5947 9.01005 21.1414C9.08815 21.6882 9.59468 22.0681 10.1414 21.9899L9.85857 20.0101ZM19.9939 11.1104C20.0549 10.5615 19.6593 10.0671 19.1104 10.0061C18.5615 9.94513 18.0671 10.3407 18.0061 10.8896L19.9939 11.1104ZM12 10C11.4477 10 11 10.4477 11 11C11 11.5523 11.4477 12 12 12V10ZM12.01 12C12.5623 12 13.01 11.5523 13.01 11C13.01 10.4477 12.5623 10 12.01 10V12ZM15 10C14.4477 10 14 10.4477 14 11C14 11.5523 14.4477 12 15 12V10ZM15.01 12C15.5623 12 16.01 11.5523 16.01 11C16.01 10.4477 15.5623 10 15.01 10V12ZM9 10C8.44772 10 8 10.4477 8 11C8 11.5523 8.44772 12 9 12V10ZM9.01 12C9.56228 12 10.01 11.5523 10.01 11C10.01 10.4477 9.56228 10 9.01 10V12ZM10 21C10.1414 21.9899 10.1417 21.9899 10.142 21.9899C10.1422 21.9898 10.1425 21.9898 10.1427 21.9898C10.1432 21.9897 10.1438 21.9896 10.1444 21.9895C10.1456 21.9893 10.147 21.9891 10.1486 21.9889C10.1519 21.9884 10.156 21.9878 10.161 21.987C10.1709 21.9855 10.1841 21.9835 10.2006 21.9808C10.2335 21.9754 10.2792 21.9676 10.3367 21.957C10.4515 21.9359 10.6136 21.9034 10.8138 21.8565C11.2136 21.7629 11.7695 21.6112 12.4082 21.3758C13.6771 20.9083 15.3205 20.0937 16.7071 18.7071L15.2929 17.2929C14.1795 18.4063 12.8229 19.0917 11.7168 19.4992C11.168 19.7013 10.6926 19.8308 10.358 19.9091C10.1911 19.9482 10.0602 19.9743 9.97386 19.9902C9.93073 19.9982 9.89883 20.0036 9.87924 20.0068C9.86944 20.0084 9.86273 20.0094 9.85924 20.0099C9.85749 20.0102 9.85655 20.0103 9.85644 20.0104C9.85638 20.0104 9.85653 20.0103 9.85688 20.0103C9.85706 20.0103 9.85729 20.0102 9.85757 20.0102C9.85771 20.0102 9.85796 20.0101 9.85803 20.0101C9.8583 20.0101 9.85857 20.0101 10 21ZM16.7071 18.7071C18.1279 17.2863 18.9381 15.3521 19.3942 13.8537C19.626 13.0921 19.7747 12.4143 19.8659 11.9255C19.9115 11.6805 19.943 11.4817 19.9633 11.3418C19.9734 11.2718 19.9808 11.2165 19.9858 11.1774C19.9883 11.1579 19.9901 11.1424 19.9915 11.1312C19.9921 11.1255 19.9927 11.121 19.9931 11.1175C19.9933 11.1158 19.9934 11.1143 19.9936 11.1132C19.9936 11.1126 19.9937 11.112 19.9938 11.1116C19.9938 11.1114 19.9938 11.1111 19.9938 11.111C19.9939 11.1107 19.9939 11.1104 19 11C18.0061 10.8896 18.0061 10.8893 18.0062 10.8891C18.0062 10.8891 18.0062 10.8889 18.0062 10.8888C18.0062 10.8886 18.0062 10.8885 18.0062 10.8885C18.0062 10.8884 18.0062 10.8886 18.0062 10.889C18.0061 10.8899 18.0058 10.8918 18.0055 10.8948C18.0048 10.9008 18.0036 10.9109 18.0018 10.9249C17.9982 10.953 17.9924 10.9968 17.984 11.0547C17.9672 11.1707 17.94 11.3429 17.8997 11.5589C17.819 11.9919 17.6865 12.5954 17.4808 13.2713C17.0619 14.6479 16.3721 16.2137 15.2929 17.2929L16.7071 18.7071ZM12 12H12.01V10H12V12ZM15 12H15.01V10H15V12ZM9 12H9.01V10H9V12Z" fill="black"/>
</svg>
