<svg width="24" height="24" viewBox="0 0 24 24" fill="none" xmlns="http://www.w3.org/2000/svg">
<circle cx="12" cy="11" r="7" stroke="black" stroke-width="2"/>
<path d="M9.85858 20.0101C9.31184 20.0882 8.93195 20.5947 9.01005 21.1414C9.08816 21.6882 9.59469 22.0681 10.1414 21.9899L9.85858 20.0101ZM19.9939 11.1104C20.0549 10.5615 19.6593 10.0671 19.1104 10.0061C18.5615 9.94513 18.0671 10.3407 18.0061 10.8896L19.9939 11.1104ZM9.5 10V9C8.94772 9 8.5 9.44772 8.5 10H9.5ZM10.5 10H11.5C11.5 9.44772 11.0523 9 10.5 9V10ZM10.5 11L11.3944 11.4472C11.4639 11.3084 11.5 11.1552 11.5 11H10.5ZM9.5 11H8.5C8.5 11.5523 8.94772 12 9.5 12V11ZM13.5 10V9C12.9477 9 12.5 9.44772 12.5 10H13.5ZM14.5 10H15.5C15.5 9.44772 15.0523 9 14.5 9V10ZM14.5 11L15.3944 11.4472C15.4639 11.3084 15.5 11.1552 15.5 11H14.5ZM13.5 11H12.5C12.5 11.5523 12.9477 12 13.5 12V11ZM12.6056 12.5528C12.3586 13.0468 12.5588 13.6474 13.0528 13.8944C13.5468 14.1414 14.1474 13.9412 14.3944 13.4472L12.6056 12.5528ZM8.60557 12.5528C8.35858 13.0468 8.55881 13.6474 9.05279 13.8944C9.54676 14.1414 10.1474 13.9412 10.3944 13.4472L8.60557 12.5528ZM10 21C10.1414 21.9899 10.1417 21.9899 10.142 21.9899C10.1422 21.9898 10.1425 21.9898 10.1427 21.9898C10.1432 21.9897 10.1438 21.9896 10.1444 21.9895C10.1456 21.9893 10.147 21.9891 10.1487 21.9889C10.1519 21.9884 10.156 21.9878 10.161 21.987C10.1709 21.9855 10.1841 21.9835 10.2006 21.9808C10.2335 21.9754 10.2792 21.9676 10.3367 21.957C10.4515 21.9359 10.6136 21.9034 10.8138 21.8565C11.2136 21.7629 11.7695 21.6112 12.4082 21.3758C13.6771 20.9083 15.3205 20.0937 16.7071 18.7071L15.2929 17.2929C14.1795 18.4063 12.8229 19.0917 11.7168 19.4992C11.168 19.7013 10.6926 19.8308 10.3581 19.9091C10.1911 19.9482 10.0602 19.9743 9.97387 19.9902C9.93074 19.9982 9.89884 20.0036 9.87924 20.0068C9.86945 20.0084 9.86274 20.0094 9.85924 20.0099C9.8575 20.0102 9.85656 20.0103 9.85644 20.0104C9.85638 20.0104 9.85653 20.0103 9.85689 20.0103C9.85706 20.0103 9.85729 20.0102 9.85758 20.0102C9.85772 20.0102 9.85797 20.0101 9.85804 20.0101C9.8583 20.0101 9.85858 20.0101 10 21ZM16.7071 18.7071C18.1279 17.2863 18.9381 15.3521 19.3942 13.8537C19.626 13.0921 19.7747 12.4143 19.8659 11.9255C19.9115 11.6805 19.943 11.4817 19.9633 11.3418C19.9734 11.2718 19.9808 11.2165 19.9858 11.1774C19.9883 11.1579 19.9901 11.1424 19.9915 11.1312C19.9922 11.1255 19.9927 11.121 19.9931 11.1175C19.9933 11.1158 19.9934 11.1143 19.9936 11.1132C19.9936 11.1126 19.9937 11.112 19.9938 11.1116C19.9938 11.1114 19.9938 11.1111 19.9938 11.111C19.9939 11.1107 19.9939 11.1104 19 11C18.0061 10.8896 18.0061 10.8893 18.0062 10.8891C18.0062 10.8891 18.0062 10.8889 18.0062 10.8888C18.0062 10.8886 18.0062 10.8885 18.0062 10.8885C18.0062 10.8884 18.0062 10.8886 18.0062 10.889C18.0061 10.8899 18.0059 10.8918 18.0055 10.8948C18.0048 10.9008 18.0036 10.9109 18.0018 10.9249C17.9982 10.953 17.9924 10.9968 17.984 11.0547C17.9672 11.1707 17.94 11.3429 17.8998 11.5589C17.819 11.9919 17.6865 12.5954 17.4808 13.2713C17.0619 14.6479 16.3721 16.2137 15.2929 17.2929L16.7071 18.7071ZM9.5 11H10.5V9H9.5V11ZM9.5 10V11H11.5V10H9.5ZM10.5 10H9.5V12H10.5V10ZM10.5 11V10H8.5V11H10.5ZM13.5 11H14.5V9H13.5V11ZM13.5 10V11H15.5V10H13.5ZM14.5 10H13.5V12H14.5V10ZM14.5 11V10H12.5V11H14.5ZM13.6056 10.5528L12.6056 12.5528L14.3944 13.4472L15.3944 11.4472L13.6056 10.5528ZM9.60557 10.5528L8.60557 12.5528L10.3944 13.4472L11.3944 11.4472L9.60557 10.5528Z" fill="black"/>
</svg>
