<svg width="24" height="24" viewBox="0 0 24 24" fill="none" xmlns="http://www.w3.org/2000/svg">
<path d="M9 4V3C8.64634 3 8.31899 3.1868 8.13907 3.49127L9 4ZM15 4L15.8609 3.49127C15.681 3.1868 15.3537 3 15 3V4ZM21.5 15L22.3192 15.5735C22.5442 15.2521 22.5605 14.829 22.3609 14.4913L21.5 15ZM18 20V21C18.3263 21 18.6321 20.8408 18.8192 20.5735L18 20ZM6 20L5.18077 20.5735C5.3679 20.8408 5.67369 21 6 21V20ZM2.5 15L1.63907 14.4913C1.43953 14.829 1.45583 15.2521 1.68077 15.5735L2.5 15ZM8.8125 15L7.94092 14.5097L8.8125 15ZM9 5H15V3H9V5ZM14.1391 4.50873L20.6391 15.5087L22.3609 14.4913L15.8609 3.49127L14.1391 4.50873ZM20.6808 14.4265L17.1808 19.4265L18.8192 20.5735L22.3192 15.5735L20.6808 14.4265ZM18 19H6V21H18V19ZM6.81923 19.4265L3.31923 14.4265L1.68077 15.5735L5.18077 20.5735L6.81923 19.4265ZM3.36093 15.5087L9.86093 4.50873L8.13907 3.49127L1.63907 14.4913L3.36093 15.5087ZM6.87158 20.4903L9.68408 15.4903L7.94092 14.5097L5.12842 19.5097L6.87158 20.4903ZM21.5 14H15.1875V16H21.5V14ZM15.1875 14H8.8125V16H15.1875V14ZM8.12842 4.49026L11.1284 9.82359L12.8716 8.84307L9.87158 3.50974L8.12842 4.49026ZM11.1284 9.82359L14.3159 15.4903L16.0591 14.5097L12.8716 8.84307L11.1284 9.82359ZM9.68408 15.4903L12.8716 9.82359L11.1284 8.84307L7.94092 14.5097L9.68408 15.4903Z" fill="black"/>
</svg>
