<svg width="24" height="24" viewBox="0 0 24 24" fill="none" xmlns="http://www.w3.org/2000/svg">
<path d="M3 3C2.44772 3 2 3.44772 2 4C2 4.55228 2.44772 5 3 5V3ZM5 4H6C6 3.44772 5.55228 3 5 3V4ZM4 20C4 20.5523 4.44772 21 5 21C5.55228 21 6 20.5523 6 20H4ZM3 5H5V3H3V5ZM4 4V20H6V4H4Z" fill="black"/>
<path d="M5 4C4.44772 4 4 4.44772 4 5C4 5.55228 4.44772 6 5 6V4ZM21 5H22C22 4.44772 21.5523 4 21 4V5ZM10 20H9C9 20.5523 9.44772 21 10 21V20ZM10 17H11C11 16.4477 10.5523 16 10 16V17ZM5 16C4.44772 16 4 16.4477 4 17C4 17.5523 4.44772 18 5 18V16ZM19 17V16C18.4477 16 18 16.4477 18 17H19ZM19 20V21C19.5523 21 20 20.5523 20 20H19ZM21 17V18C21.5523 18 22 17.5523 22 17H21ZM5 6H21V4H5V6ZM11 20V17H9V20H11ZM10 16H5V18H10V16ZM19 19H10V21H19V19ZM18 17V20H20V17H18ZM20 5V17H22V5H20ZM19 18H21V16H19V18Z" fill="black"/>
<path d="M12 10C11.4477 10 11 9.55228 11 9C11 8.44772 11.4477 8 12 8V10ZM17 9V8C17.4045 8 17.7691 8.24364 17.9239 8.61732C18.0787 8.99099 17.9931 9.42111 17.7071 9.70711L17 9ZM12 14V15C11.5955 15 11.2309 14.7564 11.0761 14.3827C10.9213 14.009 11.0069 13.5789 11.2929 13.2929L12 14ZM17 13C17.5523 13 18 13.4477 18 14C18 14.5523 17.5523 15 17 15V13ZM12 8H17V10H12V8ZM17.7071 9.70711L12.7071 14.7071L11.2929 13.2929L16.2929 8.29289L17.7071 9.70711ZM12 13H17V15H12V13Z" fill="black"/>
</svg>
