<svg width="24" height="24" viewBox="0 0 24 24" fill="none" xmlns="http://www.w3.org/2000/svg">
<path d="M5 3L5.54076 2.15882C5.23305 1.96101 4.84189 1.947 4.52081 2.12229C4.19974 2.29758 4 2.63419 4 3H5ZM19 12L19.5408 12.8412C19.827 12.6572 20 12.3403 20 12C20 11.6597 19.827 11.3428 19.5408 11.1588L19 12ZM5 21H4C4 21.3658 4.19974 21.7024 4.52081 21.8777C4.84189 22.053 5.23305 22.039 5.54076 21.8412L5 21ZM11.6089 7.24855L11.9567 8.18611L11.6089 7.24855ZM16.9895 10.7075L15.9921 10.7796L16.9895 10.7075ZM18.4592 11.1588L4.45924 20.1588L5.54076 21.8412L19.5408 12.8412L18.4592 11.1588ZM6 21V3H4V21H6ZM16 11C16 12.6569 14.6569 14 13 14V16C15.7614 16 18 13.7614 18 11H16ZM13 14C11.3431 14 10 12.6569 10 11H8C8 13.7614 10.2386 16 13 16V14ZM10 11C10 9.71162 10.8126 8.61051 11.9567 8.18611L11.261 6.31098C9.35843 7.0168 8 8.8485 8 11H10ZM11.9567 8.18611C12.2803 8.06606 12.6313 8 13 8V6C12.3903 6 11.804 6.10958 11.261 6.31098L11.9567 8.18611ZM4.45924 3.84118L11.0681 8.08973L12.1496 6.40737L5.54076 2.15882L4.45924 3.84118ZM16.4487 11.5487L18.4592 12.8412L19.5408 11.1588L17.5302 9.86634L16.4487 11.5487ZM13 8C14.5826 8 15.8798 9.22615 15.9921 10.7796L17.9869 10.6354C17.7996 8.04371 15.6389 6 13 6V8ZM15.9921 10.7796C15.9973 10.8522 16 10.9257 16 11H18C18 10.8776 17.9956 10.756 17.9869 10.6354L15.9921 10.7796Z" fill="black"/>
<path d="M18 18L22 20L18 22V18Z" stroke="black" stroke-width="2" stroke-linecap="round" stroke-linejoin="round"/>
</svg>
