<svg width="24" height="24" viewBox="0 0 24 24" fill="none" xmlns="http://www.w3.org/2000/svg">
<path d="M19 3H5C3.89543 3 3 3.89543 3 5V19C3 20.1046 3.89543 21 5 21H19C20.1046 21 21 20.1046 21 19V5C21 3.89543 20.1046 3 19 3Z" stroke="black" stroke-width="2" stroke-linecap="round" stroke-linejoin="round"/>
<path d="M18 16H19C19 15.4477 18.5523 15 18 15V16ZM17 15C16.4477 15 16 15.4477 16 16C16 16.5523 16.4477 17 17 17V15ZM16.8668 13.5007C17.1434 13.9788 17.7551 14.1421 18.2332 13.8656C18.7112 13.5891 18.8746 12.9773 18.598 12.4993L16.8668 13.5007ZM17 16C17 16.5523 16.5523 17 16 17V19C17.6569 19 19 17.6569 19 16H17ZM16 17C15.4477 17 15 16.5523 15 16H13C13 17.6569 14.3431 19 16 19V17ZM15 14C15 13.4477 15.4477 13 16 13V11C14.3431 11 13 12.3431 13 14H15ZM15 16V14H13V16H15ZM18 15H17V17H18V15ZM16 13C16.3689 13 16.6924 13.1992 16.8668 13.5007L18.598 12.4993C18.0808 11.6052 17.1117 11 16 11V13Z" fill="black"/>
</svg>
