<svg width="24" height="24" viewBox="0 0 24 24" fill="none" xmlns="http://www.w3.org/2000/svg">
<path d="M13 5C12.4477 5 12 5.44772 12 6C12 6.55228 12.4477 7 13 7V5ZM13.01 7C13.5623 7 14.01 6.55228 14.01 6C14.01 5.44772 13.5623 5 13.01 5V7ZM8 7C8.55228 7 9 6.55228 9 6C9 5.44772 8.55228 5 8 5V7ZM7.01 5C6.45772 5 6.01 5.44772 6.01 6C6.01 6.55228 6.45772 7 7.01 7V5ZM16.99 5C16.4377 5 15.99 5.44772 15.99 6C15.99 6.55228 16.4377 7 16.99 7V5ZM17 7C17.5523 7 18 6.55228 18 6C18 5.44772 17.5523 5 17 5V7ZM19 20H5V22H19V20ZM4 19V9H2V19H4ZM19 2H5V4H19V2ZM2 5V9H4V5H2ZM20 9V19H22V9H20ZM3 10H21V8H3V10ZM20 5V9H22V5H20ZM13 7H13.01V5H13V7ZM8 5H7.01V7H8V5ZM16.99 7H17V5H16.99V7ZM5 2C3.34315 2 2 3.34315 2 5H4C4 4.44772 4.44772 4 5 4V2ZM19 4C19.5523 4 20 4.44772 20 5H22C22 3.34315 20.6569 2 19 2V4ZM5 20C4.44772 20 4 19.5523 4 19H2C2 20.6569 3.34315 22 5 22V20ZM19 22C20.6569 22 22 20.6569 22 19H20C20 19.5523 19.5523 20 19 20V22Z" fill="black"/>
<path d="M10 15C10 16.1046 9.10457 17 8 17C6.89543 17 6 16.1046 6 15C6 13.8954 6.89543 13 8 13C9.10457 13 10 13.8954 10 15Z" stroke="black" stroke-width="2"/>
<path d="M18 15C18 16.1046 17.1046 17 16 17C14.8954 17 14 16.1046 14 15C14 13.8954 14.8954 13 16 13C17.1046 13 18 13.8954 18 15Z" stroke="black" stroke-width="2"/>
</svg>
