<svg width="24" height="24" viewBox="0 0 24 24" fill="none" xmlns="http://www.w3.org/2000/svg">
<path d="M19 20V21C19.3981 21 19.7583 20.7638 19.9171 20.3987C20.0758 20.0336 20.0029 19.6092 19.7313 19.318L19 20ZM13.5 20L12.7705 20.6839C12.9595 20.8856 13.2236 21 13.5 21V20ZM19 4L19.7177 4.69636C19.9974 4.40805 20.0775 3.98033 19.921 3.61036C19.7644 3.24039 19.4017 3 19 3V4ZM13.5 4V3C13.2348 3 12.9804 3.10536 12.7929 3.29289L13.5 4ZM6 12L5.27046 11.3161C4.90985 11.7007 4.90985 12.2993 5.27046 12.6839L6 12ZM14.8955 14.1323C14.5188 13.7283 13.8861 13.7063 13.4821 14.0829C13.0782 14.4596 13.0561 15.0924 13.4328 15.4963L14.8955 14.1323ZM1.70711 0.292893C1.31658 -0.0976311 0.683417 -0.0976311 0.292893 0.292893C-0.0976311 0.683417 -0.0976311 1.31658 0.292893 1.70711L1.70711 0.292893ZM22.2929 23.7071C22.6834 24.0976 23.3166 24.0976 23.7071 23.7071C24.0976 23.3166 24.0976 22.6834 23.7071 22.2929L22.2929 23.7071ZM11.7929 4.29289C11.4024 4.68342 11.4024 5.31658 11.7929 5.70711C12.1834 6.09763 12.8166 6.09763 13.2071 5.70711L11.7929 4.29289ZM12.3457 12.2939C12.7216 11.8893 12.6985 11.2566 12.2939 10.8806C11.8893 10.5047 11.2566 10.5279 10.8806 10.9324L12.3457 12.2939ZM14.5889 7.11022C14.2043 7.50659 14.2138 8.13968 14.6102 8.52427C15.0066 8.90886 15.6397 8.89931 16.0243 8.50294L14.5889 7.11022ZM19 19H13.5V21H19V19ZM19 3H13.5V5H19V3ZM14.2295 19.3161L9.36791 14.1303L7.90883 15.4982L12.7705 20.6839L14.2295 19.3161ZM9.36791 14.1303L6.72954 11.3161L5.27046 12.6839L7.90883 15.4982L9.36791 14.1303ZM19.7313 19.318L14.8955 14.1323L13.4328 15.4963L18.2687 20.682L19.7313 19.318ZM0.292893 1.70711L8.19612 9.61033L9.61033 8.19612L1.70711 0.292893L0.292893 1.70711ZM8.19612 9.61033L22.2929 23.7071L23.7071 22.2929L9.61033 8.19612L8.19612 9.61033ZM8.17369 8.21928L5.27046 11.3161L6.72954 12.6839L9.63276 9.58717L8.17369 8.21928ZM12.7929 3.29289L11.7929 4.29289L13.2071 5.70711L14.2071 4.70711L12.7929 3.29289ZM9.3709 15.495L12.3457 12.2939L10.8806 10.9324L7.90584 14.1335L9.3709 15.495ZM16.0243 8.50294L19.7177 4.69636L18.2823 3.30364L14.5889 7.11022L16.0243 8.50294Z" fill="black"/>
</svg>
