<svg width="24" height="24" viewBox="0 0 24 24" fill="none" xmlns="http://www.w3.org/2000/svg">
<path d="M19 21C19.5523 21 20 20.5523 20 20C20 19.4477 19.5523 19 19 19V21ZM13.5 20L12.7705 20.6839C12.9595 20.8856 13.2236 21 13.5 21V20ZM6 12L5.27046 11.3161C4.90985 11.7007 4.90985 12.2993 5.27046 12.6839L6 12ZM19 5C19.5523 5 20 4.55228 20 4C20 3.44772 19.5523 3 19 3V5ZM13.5 4V3C13.2236 3 12.9595 3.11441 12.7705 3.31606L13.5 4ZM8.63837 14.8143L9.36791 14.1303L8.63837 14.8143ZM19 19H13.5V21H19V19ZM19 3H13.5V5H19V3ZM12.7705 3.31606L5.27046 11.3161L6.72954 12.6839L14.2295 4.68394L12.7705 3.31606ZM14.2295 19.3161L9.36791 14.1303L7.90883 15.4982L12.7705 20.6839L14.2295 19.3161ZM9.36791 14.1303L6.72954 11.3161L5.27046 12.6839L7.90883 15.4982L9.36791 14.1303Z" fill="black"/>
</svg>
