<svg width="24" height="24" viewBox="0 0 24 24" fill="none" xmlns="http://www.w3.org/2000/svg">
<g clip-path="url(#clip0)">
<path d="M22 12H2" stroke="black" stroke-width="2" stroke-linecap="round" stroke-linejoin="round"/>
<path d="M14.5 20H4C3.46957 20 2.96086 19.7893 2.58579 19.4142C2.21071 19.0391 2 18.5304 2 18V12L5.45 5.11C5.61558 4.77679 5.87083 4.49637 6.18704 4.30028C6.50326 4.10419 6.86792 4.0002 7.24 4H16.76C17.1321 4.0002 17.4967 4.10419 17.813 4.30028C18.1292 4.49637 18.3844 4.77679 18.55 5.11L22 12V14" stroke="black" stroke-width="2" stroke-linecap="round" stroke-linejoin="round"/>
</g>
<path d="M18 22L17.1056 21.5528C16.9506 21.8628 16.9671 22.2309 17.1493 22.5257C17.3316 22.8205 17.6534 23 18 23V22ZM22 22V23C22.3466 23 22.6684 22.8205 22.8507 22.5257C23.0329 22.2309 23.0494 21.8628 22.8944 21.5528L22 22ZM20 18L20.8944 17.5528C20.725 17.214 20.3788 17 20 17C19.6212 17 19.275 17.214 19.1056 17.5528L20 18ZM18 23H22V21H18V23ZM22.8944 21.5528L20.8944 17.5528L19.1056 18.4472L21.1056 22.4472L22.8944 21.5528ZM19.1056 17.5528L17.1056 21.5528L18.8944 22.4472L20.8944 18.4472L19.1056 17.5528Z" fill="black"/>
<defs>
<clipPath id="clip0">
<rect width="24" height="24" fill="white"/>
</clipPath>
</defs>
</svg>
