<svg width="24" height="24" viewBox="0 0 24 24" fill="none" xmlns="http://www.w3.org/2000/svg">
<path d="M6 20C6 20.5523 6.44772 21 7 21C7.55228 21 8 20.5523 8 20H6ZM8 6C8 5.44772 7.55228 5 7 5C6.44772 5 6 5.44772 6 6H8ZM17 11L17.1961 11.9806C17.6635 11.8871 18 11.4767 18 11H17ZM18 4C18 3.44772 17.5523 3 17 3C16.4477 3 16 3.44772 16 4H18ZM16 18C16 18.5523 16.4477 19 17 19C17.5523 19 18 18.5523 18 18H16ZM8 20V13H6V20H8ZM8 13V6H6V13H8ZM7.19612 13.9806L17.1961 11.9806L16.8039 10.0194L6.80388 12.0194L7.19612 13.9806ZM18 11V4H16V11H18ZM16 4V18H18V4H16Z" fill="black"/>
</svg>
