<svg width="24" height="24" viewBox="0 0 24 24" fill="none" xmlns="http://www.w3.org/2000/svg">
<path d="M19 14C19 14.5523 19.4477 15 20 15C20.5523 15 21 14.5523 21 14H19ZM20 8.39926H21V8.39825L20 8.39926ZM19.1111 6.84194L19.6159 5.97866L19.612 5.97642L19.1111 6.84194ZM12.8889 3.2412L12.3841 4.10448L12.388 4.10673L12.8889 3.2412ZM12 3V2V3ZM11.1111 3.2412L11.612 4.10674L11.6159 4.10447L11.1111 3.2412ZM4.88889 6.84194L4.38801 5.97641L4.38415 5.97867L4.88889 6.84194ZM4 8.39926L3 8.39825V8.39926H4ZM4 15.6007H3L3 15.6018L4 15.6007ZM4.88889 17.1581L4.38414 18.0213L4.38802 18.0236L4.88889 17.1581ZM11.1111 20.7588L11.6159 19.8955L11.612 19.8933L11.1111 20.7588ZM12.8889 20.7588L12.388 19.8933L12.3841 19.8955L12.8889 20.7588ZM14.5009 20.9813C14.9789 20.7047 15.1421 20.093 14.8655 19.6149C14.5889 19.1369 13.9771 18.9737 13.4991 19.2503L14.5009 20.9813ZM21 14V8.39926H19V14H21ZM21 8.39825C20.9995 7.90959 20.8722 7.42894 20.6299 7.00441L18.8929 7.99584C18.9626 8.11798 18.9999 8.2575 19 8.40027L21 8.39825ZM20.6299 7.00441C20.3875 6.57979 20.0382 6.22563 19.6159 5.97867L18.6064 7.70521C18.724 7.77398 18.8232 7.87378 18.8929 7.99584L20.6299 7.00441ZM19.612 5.97642L13.3898 2.37568L12.388 4.10673L18.6102 7.70746L19.612 5.97642ZM13.3936 2.37793C12.9707 2.13068 12.4901 2 12 2V4C12.1341 4 12.2665 4.0357 12.3841 4.10447L13.3936 2.37793ZM12 2C11.5099 2 11.0293 2.13068 10.6064 2.37793L11.6159 4.10447C11.7335 4.0357 11.8659 4 12 4V2ZM10.6102 2.37568L4.38802 5.97642L5.38976 7.70746L11.612 4.10673L10.6102 2.37568ZM4.38415 5.97867C3.96178 6.22563 3.61251 6.57979 3.37015 7.00441L5.10712 7.99584C5.17679 7.87378 5.27602 7.77398 5.39363 7.70521L4.38415 5.97867ZM3.37015 7.00441C3.12783 7.42894 3.0005 7.90958 3 8.39825L5 8.40027C5.00014 8.2575 5.0374 8.11798 5.10712 7.99584L3.37015 7.00441ZM3 8.39926V15.6007H5V8.39926H3ZM3 15.6018C3.0005 16.0904 3.12783 16.5711 3.37015 16.9956L5.10712 16.0042C5.0374 15.882 5.00014 15.7425 5 15.5997L3 15.6018ZM3.37015 16.9956C3.61251 17.4202 3.96178 17.7744 4.38415 18.0213L5.39363 16.2948C5.27602 16.226 5.17679 16.1262 5.10712 16.0042L3.37015 16.9956ZM4.38802 18.0236L10.6102 21.6243L11.612 19.8933L5.38976 16.2925L4.38802 18.0236ZM10.6064 21.6221C11.0293 21.8693 11.5099 22 12 22V20C11.8659 20 11.7335 19.9643 11.6159 19.8955L10.6064 21.6221ZM12 22C12.4901 22 12.9707 21.8693 13.3936 21.6221L12.3841 19.8955C12.2665 19.9643 12.1341 20 12 20V22ZM13.3898 21.6243L14.5009 20.9813L13.4991 19.2503L12.388 19.8933L13.3898 21.6243Z" fill="black"/>
<path d="M17.7682 6.64018C18.1218 6.21591 18.0645 5.58534 17.6402 5.23178C17.2159 4.87821 16.5853 4.93554 16.2318 5.35982L17.7682 6.64018ZM6.23178 17.3598C5.87821 17.7841 5.93554 18.4147 6.35982 18.7682C6.78409 19.1218 7.41466 19.0645 7.76822 18.6402L6.23178 17.3598ZM7.76822 5.35982C7.41466 4.93554 6.78409 4.87821 6.35982 5.23178C5.93554 5.58534 5.87821 6.21591 6.23178 6.64018L7.76822 5.35982ZM13.2318 15.0402C13.5853 15.4645 14.2159 15.5218 14.6402 15.1682C15.0645 14.8147 15.1218 14.1841 14.7682 13.7598L13.2318 15.0402ZM16.2318 5.35982L6.23178 17.3598L7.76822 18.6402L17.7682 6.64018L16.2318 5.35982ZM6.23178 6.64018L13.2318 15.0402L14.7682 13.7598L7.76822 5.35982L6.23178 6.64018Z" fill="black"/>
<circle cx="20" cy="20" r="2" stroke="black" stroke-width="2"/>
</svg>
