<svg width="24" height="24" viewBox="0 0 24 24" fill="none" xmlns="http://www.w3.org/2000/svg">
<g clip-path="url(#clip0)">
<g clip-path="url(#clip1)">
<path d="M12.5 3.13397L12.5 3.13398L12.5039 3.13619L19.5 7.13398C19.5005 7.13428 19.5011 7.13459 19.5016 7.13489C19.6527 7.22253 19.7783 7.34826 19.8658 7.49955C19.9535 7.65138 19.9998 7.82361 20 7.99898V15.9969C19.9998 16.1723 19.9535 16.3445 19.8658 16.4963C19.7783 16.6476 19.6527 16.7734 19.5016 16.861C19.5011 16.8613 19.5005 16.8616 19.5 16.8619L12.5039 20.8597L12.5 20.8619C12.348 20.9497 12.1755 20.9959 12 20.9959C11.8245 20.9959 11.652 20.9497 11.5 20.8619L11.4961 20.8597L4.5 16.8619C4.49947 16.8616 4.49894 16.8613 4.49841 16.861C4.34725 16.7734 4.22168 16.6476 4.13423 16.4963C4.04654 16.3446 4.00026 16.1726 4 15.9974V7.99854C4.00026 7.82333 4.04654 7.65126 4.13423 7.49956C4.22168 7.34826 4.34725 7.22254 4.49841 7.1349C4.49894 7.13459 4.49947 7.13428 4.5 7.13398L11.4961 3.13619L11.4961 3.1362L11.5 3.13397C11.652 3.04621 11.8245 3 12 3C12.1755 3 12.348 3.04621 12.5 3.13397Z" stroke="black" stroke-width="2" stroke-linejoin="round"/>
</g>
</g>
<path d="M17.7682 6.64018C18.1218 6.21591 18.0645 5.58534 17.6402 5.23178C17.2159 4.87821 16.5853 4.93554 16.2318 5.35982L17.7682 6.64018ZM6.23178 17.3598C5.87821 17.7841 5.93554 18.4147 6.35982 18.7682C6.78409 19.1218 7.41466 19.0645 7.76822 18.6402L6.23178 17.3598ZM7.76822 5.35982C7.41466 4.93554 6.78409 4.87821 6.35982 5.23178C5.93554 5.58534 5.87821 6.21591 6.23178 6.64018L7.76822 5.35982ZM16.2318 18.6402C16.5853 19.0645 17.2159 19.1218 17.6402 18.7682C18.0645 18.4147 18.1218 17.7841 17.7682 17.3598L16.2318 18.6402ZM16.2318 5.35982L6.23178 17.3598L7.76822 18.6402L17.7682 6.64018L16.2318 5.35982ZM6.23178 6.64018L16.2318 18.6402L17.7682 17.3598L7.76822 5.35982L6.23178 6.64018Z" fill="black"/>
<defs>
<clipPath id="clip0">
<path d="M0 0H24V24H0V0Z" fill="white"/>
</clipPath>
<clipPath id="clip1">
<path d="M3 2H21V21.9959H3V2Z" fill="white"/>
</clipPath>
</defs>
</svg>
