<svg width="24" height="24" viewBox="0 0 24 24" fill="none" xmlns="http://www.w3.org/2000/svg">
<path d="M14 19.866C13.507 19.9546 13.0051 19.9998 12.5 20C11.1801 20.0035 9.87812 19.6951 8.7 19.1L3 21L4.9 15.3C4.30493 14.1219 3.99656 12.8199 4 11.5C4.00061 9.92179 4.44061 8.37488 5.27072 7.03258C6.10083 5.69028 7.28825 4.6056 8.7 3.90003C9.87812 3.30496 11.1801 2.99659 12.5 3.00003H13C15.0843 3.11502 17.053 3.99479 18.5291 5.47089C20.0052 6.94699 20.885 8.91568 21 11V11.5C21.0022 12.3502 20.8751 13.193 20.6252 14" stroke="black" stroke-width="2" stroke-linecap="round" stroke-linejoin="round"/>
<path d="M17.5139 15.6368C17.8655 15.2109 17.8054 14.5806 17.3796 14.229C16.9538 13.8773 16.3235 13.9374 15.9718 14.3632L17.5139 15.6368ZM9.02819 14.3632C8.67651 13.9374 8.0462 13.8773 7.62036 14.229C7.19453 14.5806 7.13441 15.2109 7.48609 15.6368L9.02819 14.3632ZM15.9718 14.3632C15.1448 15.3646 13.897 16 12.5 16V18C14.5188 18 16.3232 17.0784 17.5139 15.6368L15.9718 14.3632ZM12.5 16C11.1029 16 9.85516 15.3646 9.02819 14.3632L7.48609 15.6368C8.67671 17.0784 10.4812 18 12.5 18V16Z" fill="black"/>
<circle cx="20" cy="20" r="2" stroke="black" stroke-width="2"/>
</svg>
