<svg width="24" height="24" viewBox="0 0 24 24" fill="none" xmlns="http://www.w3.org/2000/svg">
<path d="M19 3H5C3.89543 3 3 3.89543 3 5V19C3 20.1046 3.89543 21 5 21H19C20.1046 21 21 20.1046 21 19V5C21 3.89543 20.1046 3 19 3Z" stroke="black" stroke-width="2" stroke-linecap="round" stroke-linejoin="round"/>
<path d="M17 18C17 18.5523 17.4477 19 18 19C18.5523 19 19 18.5523 19 18H17ZM19 12C19 11.4477 18.5523 11 18 11C17.4477 11 17 11.4477 17 12H19ZM14 15H13C13 15.5523 13.4477 16 14 16V15ZM15 12C15 11.4477 14.5523 11 14 11C13.4477 11 13 11.4477 13 12H15ZM13 18C13 18.5523 13.4477 19 14 19C14.5523 19 15 18.5523 15 18H13ZM19 18V15H17V18H19ZM19 15V12H17V15H19ZM18 14H14V16H18V14ZM15 15V12H13V15H15ZM13 12V18H15V12H13Z" fill="black"/>
</svg>
