<svg width="24" height="24" viewBox="0 0 24 24" fill="none" xmlns="http://www.w3.org/2000/svg">
<path d="M17 22C17 22.5523 17.4477 23 18 23C18.5523 23 19 22.5523 19 22H17ZM19 18C19 17.4477 18.5523 17 18 17C17.4477 17 17 17.4477 17 18H19ZM19 22V18H17V22H19Z" fill="black"/>
<path d="M18 14H18.01" stroke="black" stroke-width="2" stroke-linecap="round"/>
<path d="M11 14C11 14.5523 11.4477 15 12 15C12.5523 15 13 14.5523 13 14H11ZM18 9C18.5523 9 19 8.55228 19 8C19 7.44772 18.5523 7 18 7V9ZM13 14C13 11.2386 15.2386 9 18 9V7C14.134 7 11 10.134 11 14H13Z" fill="black"/>
<path d="M5 14C5 14.5523 5.44772 15 6 15C6.55228 15 7 14.5523 7 14H5ZM18 3C18.5523 3 19 2.55228 19 2C19 1.44772 18.5523 1 18 1V3ZM7 14C7 7.92487 11.9249 3 18 3V1C10.8203 1 5 6.8203 5 14H7Z" fill="black"/>
<path d="M12.7071 17.2929C12.3166 16.9024 11.6834 16.9024 11.2929 17.2929C10.9024 17.6834 10.9024 18.3166 11.2929 18.7071L12.7071 17.2929ZM14 20L14.7071 20.7071C15.0976 20.3166 15.0976 19.6834 14.7071 19.2929L14 20ZM11.2929 21.2929C10.9024 21.6834 10.9024 22.3166 11.2929 22.7071C11.6834 23.0976 12.3166 23.0976 12.7071 22.7071L11.2929 21.2929ZM8.70711 18.7071C9.09763 18.3166 9.09763 17.6834 8.70711 17.2929C8.31658 16.9024 7.68342 16.9024 7.29289 17.2929L8.70711 18.7071ZM6 20L5.29289 19.2929C4.90237 19.6834 4.90237 20.3166 5.29289 20.7071L6 20ZM7.29289 22.7071C7.68342 23.0976 8.31658 23.0976 8.70711 22.7071C9.09763 22.3166 9.09763 21.6834 8.70711 21.2929L7.29289 22.7071ZM11.2929 18.7071L13.2929 20.7071L14.7071 19.2929L12.7071 17.2929L11.2929 18.7071ZM13.2929 19.2929L11.2929 21.2929L12.7071 22.7071L14.7071 20.7071L13.2929 19.2929ZM7.29289 17.2929L5.29289 19.2929L6.70711 20.7071L8.70711 18.7071L7.29289 17.2929ZM5.29289 20.7071L7.29289 22.7071L8.70711 21.2929L6.70711 19.2929L5.29289 20.7071Z" fill="black"/>
</svg>
