<svg width="24" height="24" viewBox="0 0 24 24" fill="none" xmlns="http://www.w3.org/2000/svg">
<path d="M17 22C17 22.5523 17.4477 23 18 23C18.5523 23 19 22.5523 19 22H17ZM19 18C19 17.4477 18.5523 17 18 17C17.4477 17 17 17.4477 17 18H19ZM19 22V18H17V22H19Z" fill="black"/>
<path d="M18 14H18.01" stroke="black" stroke-width="2" stroke-linecap="round"/>
<path d="M11 14C11 14.5523 11.4477 15 12 15C12.5523 15 13 14.5523 13 14H11ZM18 9C18.5523 9 19 8.55228 19 8C19 7.44772 18.5523 7 18 7V9ZM13 14C13 11.2386 15.2386 9 18 9V7C14.134 7 11 10.134 11 14H13Z" fill="black"/>
<path d="M5 14C5 14.5523 5.44772 15 6 15C6.55228 15 7 14.5523 7 14H5ZM18 3C18.5523 3 19 2.55228 19 2C19 1.44772 18.5523 1 18 1V3ZM7 14C7 7.92487 11.9249 3 18 3V1C10.8203 1 5 6.8203 5 14H7Z" fill="black"/>
<path d="M21 22C21 22.5523 21.4477 23 22 23C22.5523 23 23 22.5523 23 22H21ZM23 18C23 17.4477 22.5523 17 22 17C21.4477 17 21 17.4477 21 18H23ZM23 22V18H21V22H23Z" fill="black"/>
</svg>
