<svg width="24" height="24" viewBox="0 0 24 24" fill="none" xmlns="http://www.w3.org/2000/svg">
<path d="M18 14H18.01" stroke="black" stroke-width="2" stroke-linecap="round"/>
<path d="M11 14C11 14.5523 11.4477 15 12 15C12.5523 15 13 14.5523 13 14H11ZM18 9C18.5523 9 19 8.55228 19 8C19 7.44772 18.5523 7 18 7V9ZM13 14C13 11.2386 15.2386 9 18 9V7C14.134 7 11 10.134 11 14H13Z" fill="black"/>
<path d="M5 14C5 14.5523 5.44772 15 6 15C6.55228 15 7 14.5523 7 14H5ZM18 3C18.5523 3 19 2.55228 19 2C19 1.44772 18.5523 1 18 1V3ZM7 14C7 7.92487 11.9249 3 18 3V1C10.8203 1 5 6.8203 5 14H7Z" fill="black"/>
<path d="M22 22V23C22.3466 23 22.6684 22.8205 22.8507 22.5257C23.0329 22.2309 23.0494 21.8628 22.8944 21.5528L22 22ZM20 18L20.8944 17.5528C20.725 17.214 20.3788 17 20 17C19.6212 17 19.275 17.214 19.1056 17.5528L20 18ZM18 22L17.1056 21.5528C16.9506 21.8628 16.9671 22.2309 17.1493 22.5257C17.3316 22.8205 17.6534 23 18 23V22ZM22.8944 21.5528L20.8944 17.5528L19.1056 18.4472L21.1056 22.4472L22.8944 21.5528ZM19.1056 17.5528L17.1056 21.5528L18.8944 22.4472L20.8944 18.4472L19.1056 17.5528ZM18 23H22V21H18V23Z" fill="black"/>
</svg>
