<svg width="24" height="24" viewBox="0 0 24 24" fill="none" xmlns="http://www.w3.org/2000/svg">
<path d="M17 22C17 22.5523 17.4477 23 18 23C18.5523 23 19 22.5523 19 22H17ZM19 18C19 17.4477 18.5523 17 18 17C17.4477 17 17 17.4477 17 18H19ZM19 22V18H17V22H19Z" fill="black"/>
<path d="M11 14C11 14.5523 11.4477 15 12 15C12.5523 15 13 14.5523 13 14H11ZM18 9C18.5523 9 19 8.55228 19 8C19 7.44772 18.5523 7 18 7V9ZM5 14C5 14.5523 5.44772 15 6 15C6.55228 15 7 14.5523 7 14H5ZM18 3C18.5523 3 19 2.55228 19 2C19 1.44772 18.5523 1 18 1V3ZM1.70711 0.292893C1.31658 -0.0976311 0.683417 -0.0976311 0.292893 0.292893C-0.0976311 0.683417 -0.0976311 1.31658 0.292893 1.70711L1.70711 0.292893ZM22.2929 23.7071C22.6834 24.0976 23.3166 24.0976 23.7071 23.7071C24.0976 23.3166 24.0976 22.6834 23.7071 22.2929L22.2929 23.7071ZM15.6668 7.39857C15.146 7.58262 14.8731 8.15394 15.0572 8.67466C15.2412 9.19537 15.8125 9.4683 16.3332 9.28425L15.6668 7.39857ZM11.0036 3.04148C10.5384 3.33908 10.4025 3.95749 10.7001 4.42273C10.9977 4.88797 11.6161 5.02387 12.0813 4.72627L11.0036 3.04148ZM0.292893 1.70711L7.04542 8.45964L8.45964 7.04542L1.70711 0.292893L0.292893 1.70711ZM7 14C7 11.9005 7.58722 9.94117 8.60587 8.27389L6.89919 7.23117C5.69418 9.20348 5 11.5222 5 14H7ZM7.04542 8.45964L11.55 12.9642L12.9642 11.55L8.45964 7.04542L7.04542 8.45964ZM11.55 12.9642L22.2929 23.7071L23.7071 22.2929L12.9642 11.55L11.55 12.9642ZM13 14C13 13.4932 13.0751 13.0057 13.2141 12.5471L11.3001 11.967C11.1047 12.6116 11 13.2945 11 14H13ZM16.3332 9.28425C16.8533 9.10045 17.4138 9 18 9V7C17.1836 7 16.3979 7.14016 15.6668 7.39857L16.3332 9.28425ZM12.0813 4.72627C13.7896 3.63355 15.8193 3 18 3V1C15.4261 1 13.024 1.74907 11.0036 3.04148L12.0813 4.72627Z" fill="black"/>
</svg>
