<svg width="24" height="24" viewBox="0 0 24 24" fill="none" xmlns="http://www.w3.org/2000/svg">
<path d="M1 16C1 16.5523 1.44772 17 2 17C2.55228 17 3 16.5523 3 16H1ZM3 12C3 11.4477 2.55228 11 2 11C1.44772 11 1 11.4477 1 12H3ZM3 9C3 8.44772 2.55228 8 2 8C1.44772 8 1 8.44772 1 9H3ZM1 9.00999C1 9.56227 1.44772 10.01 2 10.01C2.55228 10.01 3 9.56227 3 9.00999H1ZM3 16V12H1V16H3ZM1 9V9.00999H3V9H1Z" fill="black"/>
<path d="M4 16C4 16.5523 4.44772 17 5 17C5.55228 17 6 16.5523 6 16H4ZM8 16C8 16.5523 8.44772 17 9 17C9.55228 17 10 16.5523 10 16H8ZM6 14C6 13.4477 6.44772 13 7 13V11C5.34315 11 4 12.3431 4 14H6ZM7 13C7.55228 13 8 13.4477 8 14H10C10 12.3431 8.65685 11 7 11V13ZM4 14V16H6V14H4ZM10 16V14H8V16H10Z" fill="black"/>
<path d="M17 17C17.5523 17 18 16.5523 18 16C18 15.4477 17.5523 15 17 15V17ZM18.7324 13L19.2962 13.8259C19.7285 13.5308 19.8601 12.9523 19.598 12.4993L18.7324 13ZM17.4362 12.6741C16.9801 12.9855 16.8627 13.6077 17.1741 14.0638C17.4855 14.5199 18.1077 14.6373 18.5638 14.3259L17.4362 12.6741ZM17 15C16.4477 15 16 14.5523 16 14H14C14 15.6569 15.3431 17 17 17V15ZM16 14C16 13.4477 16.4477 13 17 13V11C15.3431 11 14 12.3431 14 14H16ZM17 13C17.3689 13 17.6924 13.1992 17.8668 13.5007L19.598 12.4993C19.0808 11.6052 18.1117 11 17 11V13ZM18.1686 12.1741L17.4362 12.6741L18.5638 14.3259L19.2962 13.8259L18.1686 12.1741Z" fill="black"/>
<path d="M11 16C11 16.5523 11.4477 17 12 17C12.5523 17 13 16.5523 13 16H11ZM13 7C13 6.44772 12.5523 6 12 6C11.4477 6 11 6.44772 11 7H13ZM21 16C21 16.5523 21.4477 17 22 17C22.5523 17 23 16.5523 23 16H21ZM23 7C23 6.44772 22.5523 6 22 6C21.4477 6 21 6.44772 21 7H23ZM13 16V7H11V16H13ZM23 16V7H21V16H23Z" fill="black"/>
<path d="M10 8C9.44772 8 9 8.44772 9 9C9 9.55228 9.44772 10 10 10V8ZM14 10C14.5523 10 15 9.55228 15 9C15 8.44772 14.5523 8 14 8V10ZM10 10H14V8H10V10Z" fill="black"/>
</svg>
