<svg width="24" height="24" viewBox="0 0 24 24" fill="none" xmlns="http://www.w3.org/2000/svg">
<path d="M3 21H2C2 21.5523 2.44772 22 3 22V21ZM21 21V22C21.5523 22 22 21.5523 22 21H21ZM4 21C4 19.8362 4.17704 19.0824 4.445 18.5801C4.69662 18.1085 5.06724 17.7847 5.63513 17.5481C6.23493 17.2983 7.04405 17.1514 8.13241 17.0758C9.21546 17.0006 10.4896 17 12 17V15C10.5112 15 9.16065 14.9995 7.99384 15.0806C6.83234 15.1612 5.76636 15.3268 4.86598 15.7019C3.93368 16.0904 3.17903 16.7041 2.68041 17.6387C2.19815 18.5427 2 19.6639 2 21H4ZM12 17C13.5104 17 14.7845 17.0006 15.8676 17.0758C16.956 17.1514 17.7651 17.2983 18.3649 17.5481C18.9328 17.7847 19.3034 18.1085 19.555 18.5801C19.823 19.0824 20 19.8362 20 21H22C22 19.6639 21.8019 18.5427 21.3196 17.6387C20.821 16.7041 20.0663 16.0904 19.134 15.7019C18.2336 15.3268 17.1677 15.1612 16.0062 15.0806C14.8393 14.9995 13.4888 15 12 15V17ZM3 22H21V20H3V22ZM18.5 5.5C18.5 6.32843 17.8284 7 17 7V9C18.933 9 20.5 7.433 20.5 5.5H18.5ZM15.5 5.5C15.5 4.67157 16.1716 4 17 4V2C15.067 2 13.5 3.567 13.5 5.5H15.5ZM17 4C17.8284 4 18.5 4.67157 18.5 5.5H20.5C20.5 3.567 18.933 2 17 2V4ZM17 7C16.8053 7 16.6214 6.96339 16.4534 6.89759L15.7241 8.75989C16.1208 8.91521 16.5517 9 17 9V7ZM16.4534 6.89759C15.8936 6.67838 15.5 6.13393 15.5 5.5H13.5C13.5 6.98443 14.4237 8.25066 15.7241 8.75989L16.4534 6.89759ZM12.8943 16.4475L16.9831 8.27622L15.1945 7.38125L11.1057 15.5526L12.8943 16.4475Z" fill="black"/>
</svg>
