<svg width="24" height="24" viewBox="0 0 24 24" fill="none" xmlns="http://www.w3.org/2000/svg">
<path d="M2.75746 17.0299C2.22167 17.1638 1.89591 17.7067 2.02986 18.2425C2.16381 18.7783 2.70674 19.1041 3.24254 18.9701L2.75746 17.0299ZM18 14L18.9676 13.7475C18.8527 13.3072 18.455 13 18 13V14ZM16 7V6C15.7101 6 15.4345 6.1258 15.2445 6.3448C15.0546 6.5638 14.9691 6.85444 15.0101 7.14142L16 7ZM21 7V8C21.4794 8 21.8913 7.65983 21.982 7.18911C22.0726 6.71839 21.8165 6.24956 21.3714 6.07152L21 7ZM16 5H15C15 5.0369 15.002 5.07376 15.0061 5.11043L16 5ZM17 3C17 2.44772 16.5523 2 16 2C15.4477 2 15 2.44772 15 3H17ZM13.5 21H12.5C12.5 21.5523 12.9477 22 13.5 22V21ZM17.5 22C18.0523 22 18.5 21.5523 18.5 21C18.5 20.4477 18.0523 20 17.5 20V22ZM16 13C15.4477 13 15 13.4477 15 14C15 14.5523 15.4477 15 16 15V13ZM19.5 11.5C20.0523 11.5 20.5 11.0523 20.5 10.5C20.5 9.94772 20.0523 9.5 19.5 9.5V11.5ZM3.24254 18.9701C4.10707 18.754 4.7536 18.7527 5.43537 18.8091C6.09644 18.8638 6.97178 19 8 19V17C7.07559 17 6.45094 16.8862 5.60017 16.8159C4.77009 16.7473 3.89293 16.746 2.75746 17.0299L3.24254 18.9701ZM7.94367 18.9984C8.95788 19.0556 9.97772 18.9138 10.8961 18.7771C11.8499 18.6352 12.6909 18.5 13.5 18.5V16.5C12.5089 16.5 11.4986 16.6655 10.6018 16.7989C9.66954 16.9376 8.83949 17.0458 8.05633 17.0016L7.94367 18.9984ZM13.5 18.5C14.7952 18.5 16.3241 18.3289 17.4638 17.6685C18.0566 17.325 18.5846 16.8249 18.8803 16.1175C19.1762 15.4097 19.1921 14.6077 18.9676 13.7475L17.0324 14.2525C17.1744 14.7966 17.1236 15.1343 17.0351 15.3461C16.9464 15.5583 16.7723 15.7576 16.461 15.938C15.7924 16.3255 14.7048 16.5 13.5 16.5V18.5ZM16 8H21V6H16V8ZM21.3714 6.07152L16.3714 4.07152L15.6286 5.92848L20.6286 7.92848L21.3714 6.07152ZM17 5V3H15V5H17ZM16 5C15.0061 5.11043 15.0061 5.10992 15.006 5.10942C15.006 5.10927 15.0059 5.10879 15.0059 5.1085C15.0058 5.10793 15.0058 5.10742 15.0057 5.10697C15.0056 5.10609 15.0056 5.10547 15.0055 5.10511C15.0055 5.1044 15.0055 5.10474 15.0056 5.10611C15.0059 5.10887 15.0065 5.11578 15.0073 5.12669C15.009 5.14853 15.0114 5.18638 15.0134 5.23916C15.0173 5.34478 15.0192 5.50985 15.0089 5.72587C14.9884 6.15813 14.9189 6.79232 14.7195 7.56154C14.3223 9.09347 13.4049 11.1808 11.2929 13.2929L12.7071 14.7071C15.0951 12.3192 16.1777 9.90653 16.6555 8.06346C16.8936 7.14518 16.9804 6.37312 17.0067 5.821C17.0198 5.54484 17.0179 5.32319 17.012 5.16514C17.0091 5.08609 17.0052 5.02286 17.0017 4.97658C17 4.95344 16.9983 4.93452 16.997 4.91998C16.9963 4.9127 16.9957 4.90652 16.9951 4.90145C16.9949 4.89891 16.9947 4.89665 16.9944 4.89467C16.9943 4.89368 16.9942 4.89276 16.9941 4.89191C16.9941 4.89148 16.994 4.8909 16.994 4.89069C16.9939 4.89012 16.9939 4.88957 16 5ZM11.2929 13.2929C11.2841 13.3017 11.2754 13.3104 11.2666 13.3192C11.2579 13.3279 11.2492 13.3365 11.2406 13.3452C11.2319 13.3538 11.2233 13.3624 11.2148 13.371C11.2062 13.3796 11.1977 13.3881 11.1892 13.3966C11.1807 13.4051 11.1722 13.4136 11.1638 13.422C11.1553 13.4305 11.1469 13.4389 11.1386 13.4472C11.1302 13.4556 11.1219 13.4639 11.1136 13.4722C11.1053 13.4805 11.0971 13.4887 11.0888 13.4969C11.0806 13.5052 11.0724 13.5133 11.0643 13.5215C11.0561 13.5296 11.048 13.5378 11.04 13.5458C11.0319 13.5539 11.0238 13.562 11.0158 13.57C11.0078 13.578 10.9998 13.5859 10.9919 13.5939C10.984 13.6018 10.9761 13.6097 10.9682 13.6176C10.9603 13.6255 10.9525 13.6333 10.9447 13.6411C10.9369 13.6489 10.9291 13.6567 10.9214 13.6644C10.9136 13.6722 10.9059 13.6799 10.8983 13.6875C10.8906 13.6952 10.883 13.7028 10.8754 13.7104C10.8678 13.718 10.8602 13.7256 10.8527 13.7331C10.8452 13.7406 10.8377 13.7481 10.8302 13.7556C10.8227 13.7631 10.8153 13.7705 10.8079 13.7779C10.8005 13.7853 10.7931 13.7926 10.7858 13.8C10.7785 13.8073 10.7712 13.8146 10.7639 13.8219C10.7567 13.8291 10.7494 13.8364 10.7422 13.8435C10.735 13.8507 10.7279 13.8579 10.7207 13.865C10.7136 13.8722 10.7065 13.8793 10.6995 13.8863C10.6924 13.8934 10.6854 13.9004 10.6784 13.9074C10.6714 13.9144 10.6644 13.9214 10.6574 13.9283C10.6505 13.9353 10.6436 13.9422 10.6367 13.949C10.6299 13.9559 10.623 13.9628 10.6162 13.9696C10.6094 13.9764 10.6026 13.9831 10.5959 13.9899C10.5892 13.9966 10.5825 14.0033 10.5758 14.01C10.5691 14.0167 10.5624 14.0233 10.5558 14.03C10.5492 14.0366 10.5426 14.0432 10.5361 14.0497C10.5295 14.0563 10.523 14.0628 10.5165 14.0693C10.51 14.0758 10.5036 14.0822 10.4972 14.0886C10.4907 14.0951 10.4843 14.1015 10.478 14.1078C10.4716 14.1142 10.4653 14.1205 10.459 14.1268C10.4527 14.1331 10.4464 14.1394 10.4402 14.1456C10.4339 14.1519 10.4277 14.1581 10.4215 14.1642C10.4154 14.1704 10.4092 14.1766 10.4031 14.1827C10.397 14.1888 10.3909 14.1949 10.3848 14.2009C10.3788 14.207 10.3728 14.213 10.3668 14.219C10.3608 14.225 10.3548 14.231 10.3489 14.2369C10.3429 14.2429 10.337 14.2488 10.3312 14.2546C10.3253 14.2605 10.3194 14.2663 10.3136 14.2722C10.3078 14.278 10.302 14.2838 10.2963 14.2895C10.2905 14.2953 10.2848 14.301 10.2791 14.3067C10.2734 14.3124 10.2677 14.318 10.2621 14.3237C10.2565 14.3293 10.2509 14.3349 10.2453 14.3405C10.2397 14.3461 10.2342 14.3516 10.2286 14.3572C10.2231 14.3627 10.2176 14.3682 10.2122 14.3736C10.2067 14.3791 10.2013 14.3845 10.1959 14.3899C10.1905 14.3953 10.1851 14.4007 10.1797 14.406C10.1744 14.4114 10.1691 14.4167 10.1638 14.422C10.1585 14.4273 10.1533 14.4325 10.148 14.4378C10.1428 14.443 10.1376 14.4482 10.1324 14.4534C10.1272 14.4585 10.1221 14.4637 10.117 14.4688C10.1119 14.4739 10.1068 14.479 10.1017 14.4841C10.0966 14.4891 10.0916 14.4942 10.0866 14.4992C10.0816 14.5042 10.0766 14.5092 10.0717 14.5141C10.0667 14.5191 10.0618 14.524 10.0569 14.5289C10.052 14.5338 10.0471 14.5386 10.0423 14.5435C10.0375 14.5483 10.0327 14.5531 10.0279 14.5579C10.0231 14.5627 10.0183 14.5675 10.0136 14.5722C10.0089 14.5769 10.0042 14.5816 9.99949 14.5863C9.99481 14.591 9.99016 14.5956 9.98554 14.6002C9.98092 14.6049 9.97632 14.6095 9.97175 14.614C9.96719 14.6186 9.96264 14.6231 9.95813 14.6277C9.95361 14.6322 9.94913 14.6367 9.94466 14.6411C9.9402 14.6456 9.93577 14.65 9.93136 14.6544C9.92695 14.6588 9.92256 14.6632 9.91821 14.6676C9.91385 14.6719 9.90952 14.6763 9.90522 14.6806C9.90091 14.6849 9.89663 14.6892 9.89238 14.6934C9.88813 14.6977 9.8839 14.7019 9.8797 14.7061C9.8755 14.7103 9.87133 14.7145 9.86718 14.7186C9.86303 14.7228 9.8589 14.7269 9.85481 14.731C9.85071 14.7351 9.84663 14.7392 9.84259 14.7432C9.83854 14.7472 9.83452 14.7513 9.83052 14.7553C9.82652 14.7593 9.82255 14.7632 9.8186 14.7672C9.81466 14.7711 9.81074 14.7751 9.80684 14.7789C9.80294 14.7828 9.79907 14.7867 9.79522 14.7906C9.79138 14.7944 9.78755 14.7982 9.78376 14.802C9.77996 14.8058 9.77619 14.8096 9.77244 14.8133C9.76869 14.8171 9.76497 14.8208 9.76127 14.8245C9.75757 14.8282 9.75389 14.8319 9.75024 14.8355C9.74659 14.8392 9.74296 14.8428 9.73936 14.8464C9.73576 14.85 9.73218 14.8536 9.72862 14.8572C9.72507 14.8607 9.72154 14.8642 9.71803 14.8678C9.71452 14.8713 9.71104 14.8747 9.70758 14.8782C9.70412 14.8817 9.70068 14.8851 9.69727 14.8885C9.69386 14.8919 9.69047 14.8953 9.6871 14.8987C9.68374 14.902 9.6804 14.9054 9.67708 14.9087C9.67376 14.912 9.67046 14.9153 9.66719 14.9186C9.66392 14.9219 9.66067 14.9251 9.65744 14.9283C9.65421 14.9316 9.65101 14.9348 9.64783 14.938C9.64465 14.9411 9.64149 14.9443 9.63835 14.9474C9.63522 14.9506 9.6321 14.9537 9.62901 14.9568C9.62592 14.9599 9.62285 14.9629 9.61981 14.966C9.61676 14.969 9.61374 14.972 9.61074 14.975C9.60774 14.978 9.60476 14.981 9.6018 14.984C9.59885 14.9869 9.59591 14.9899 9.593 14.9928C9.59009 14.9957 9.58719 14.9986 9.58433 15.0015C9.58146 15.0043 9.57861 15.0072 9.57578 15.01C9.57296 15.0128 9.57015 15.0156 9.56737 15.0184C9.56459 15.0212 9.56183 15.024 9.55909 15.0267C9.55635 15.0294 9.55363 15.0322 9.55094 15.0349C9.54824 15.0375 9.54556 15.0402 9.54291 15.0429C9.54025 15.0455 9.53762 15.0482 9.53501 15.0508C9.5324 15.0534 9.5298 15.056 9.52723 15.0586C9.52466 15.0611 9.52211 15.0637 9.51958 15.0662C9.51705 15.0687 9.51455 15.0712 9.51206 15.0737C9.50957 15.0762 9.5071 15.0787 9.50465 15.0811C9.50221 15.0836 9.49978 15.086 9.49737 15.0884C9.49497 15.0908 9.49258 15.0932 9.49022 15.0956C9.48785 15.0979 9.4855 15.1003 9.48318 15.1026C9.48085 15.1049 9.47854 15.1072 9.47626 15.1095C9.47397 15.1118 9.47171 15.1141 9.46946 15.1163C9.46721 15.1186 9.46498 15.1208 9.46278 15.123C9.46057 15.1252 9.45838 15.1274 9.45621 15.1296C9.45404 15.1317 9.4519 15.1339 9.44977 15.136C9.44764 15.1382 9.44552 15.1403 9.44343 15.1424C9.44134 15.1444 9.43927 15.1465 9.43721 15.1486C9.43516 15.1506 9.43313 15.1527 9.43111 15.1547C9.42909 15.1567 9.4271 15.1587 9.42512 15.1607C9.42314 15.1626 9.42118 15.1646 9.41924 15.1665C9.4173 15.1685 9.41538 15.1704 9.41347 15.1723C9.41157 15.1742 9.40968 15.1761 9.40782 15.178C9.40595 15.1798 9.4041 15.1817 9.40227 15.1835C9.40044 15.1853 9.39862 15.1872 9.39683 15.189C9.39503 15.1908 9.39326 15.1925 9.3915 15.1943C9.38974 15.196 9.388 15.1978 9.38627 15.1995C9.38455 15.2012 9.38284 15.2029 9.38116 15.2046C9.37947 15.2063 9.3778 15.208 9.37614 15.2096C9.37449 15.2113 9.37285 15.2129 9.37124 15.2146C9.36962 15.2162 9.36802 15.2178 9.36643 15.2194C9.36485 15.2209 9.36328 15.2225 9.36173 15.2241C9.36018 15.2256 9.35865 15.2271 9.35713 15.2287C9.35561 15.2302 9.35411 15.2317 9.35263 15.2332C9.35115 15.2346 9.34968 15.2361 9.34823 15.2376C9.34678 15.239 9.34535 15.2404 9.34393 15.2419C9.34252 15.2433 9.34112 15.2447 9.33973 15.2461C9.33835 15.2474 9.33698 15.2488 9.33563 15.2502C9.33428 15.2515 9.33294 15.2528 9.33162 15.2542C9.3303 15.2555 9.329 15.2568 9.32771 15.2581C9.32643 15.2594 9.32515 15.2606 9.3239 15.2619C9.32264 15.2631 9.3214 15.2644 9.32018 15.2656C9.31895 15.2668 9.31774 15.268 9.31655 15.2692C9.31536 15.2704 9.31418 15.2716 9.31302 15.2728C9.31185 15.2739 9.31071 15.2751 9.30957 15.2762C9.30844 15.2773 9.30732 15.2785 9.30622 15.2796C9.30512 15.2807 9.30403 15.2818 9.30296 15.2828C9.30189 15.2839 9.30083 15.285 9.29979 15.286C9.29874 15.287 9.29772 15.2881 9.2967 15.2891C9.29569 15.2901 9.29469 15.2911 9.2937 15.2921C9.29272 15.2931 9.29175 15.294 9.29079 15.295C9.28984 15.2959 9.2889 15.2969 9.28797 15.2978C9.28704 15.2987 9.28613 15.2997 9.28523 15.3006C9.28433 15.3015 9.28345 15.3023 9.28257 15.3032C9.2817 15.3041 9.28085 15.3049 9.28 15.3058C9.27916 15.3066 9.27833 15.3075 9.27751 15.3083C9.2767 15.3091 9.27589 15.3099 9.2751 15.3107C9.27431 15.3115 9.27354 15.3122 9.27278 15.313C9.27201 15.3138 9.27126 15.3145 9.27053 15.3153C9.26979 15.316 9.26907 15.3167 9.26836 15.3174C9.26765 15.3181 9.26695 15.3188 9.26627 15.3195C9.26558 15.3202 9.26491 15.3209 9.26426 15.3215C9.2636 15.3222 9.26295 15.3228 9.26232 15.3235C9.26169 15.3241 9.26107 15.3247 9.26046 15.3253C9.25985 15.3259 9.25925 15.3265 9.25867 15.3271C9.25809 15.3277 9.25752 15.3283 9.25696 15.3288C9.2564 15.3294 9.25585 15.3299 9.25532 15.3305C9.25478 15.331 9.25426 15.3315 9.25375 15.332C9.25324 15.3325 9.25274 15.333 9.25225 15.3335C9.25177 15.334 9.25129 15.3345 9.25083 15.335C9.25036 15.3354 9.24991 15.3359 9.24947 15.3363C9.24903 15.3368 9.2486 15.3372 9.24819 15.3376C9.24777 15.338 9.24736 15.3384 9.24697 15.3388C9.24657 15.3392 9.24619 15.3396 9.24581 15.34C9.24544 15.3403 9.24508 15.3407 9.24473 15.3411C9.24438 15.3414 9.24404 15.3418 9.24371 15.3421C9.24338 15.3424 9.24306 15.3427 9.24275 15.343C9.24244 15.3433 9.24215 15.3436 9.24186 15.3439C9.24157 15.3442 9.2413 15.3445 9.24103 15.3448C9.24076 15.345 9.24051 15.3453 9.24026 15.3455C9.24002 15.3458 9.23978 15.346 9.23956 15.3462C9.23933 15.3465 9.23911 15.3467 9.23891 15.3469C9.2387 15.3471 9.23851 15.3473 9.23832 15.3475C9.23814 15.3476 9.23796 15.3478 9.2378 15.348C9.23763 15.3482 9.23747 15.3483 9.23733 15.3485C9.23718 15.3486 9.23704 15.3487 9.23691 15.3489C9.23678 15.349 9.23666 15.3491 9.23655 15.3492C9.23644 15.3493 9.23634 15.3494 9.23625 15.3495C9.23616 15.3496 9.23608 15.3497 9.236 15.3498C9.23593 15.3499 9.23587 15.3499 9.23581 15.35C9.23575 15.35 9.23571 15.3501 9.23567 15.3501C9.23563 15.3502 9.2356 15.3502 9.23558 15.3502C9.23556 15.3502 9.23555 15.3502 9.23554 15.3502C9.94264 16.0574 10.6498 16.7645 10.6498 16.7644C10.6498 16.7644 10.6498 16.7644 10.6498 16.7644C10.6499 16.7644 10.6499 16.7643 10.6499 16.7643C10.65 16.7642 10.65 16.7642 10.6501 16.7641C10.6502 16.7641 10.6502 16.764 10.6503 16.7639C10.6504 16.7638 10.6505 16.7638 10.6505 16.7637C10.6506 16.7636 10.6507 16.7635 10.6508 16.7634C10.6509 16.7633 10.6511 16.7632 10.6512 16.763C10.6513 16.7629 10.6514 16.7628 10.6516 16.7627C10.6517 16.7625 10.6518 16.7624 10.652 16.7622C10.6521 16.7621 10.6523 16.7619 10.6524 16.7618C10.6526 16.7616 10.6528 16.7614 10.653 16.7613C10.6531 16.7611 10.6533 16.7609 10.6535 16.7607C10.6537 16.7605 10.6539 16.7603 10.6541 16.7601C10.6543 16.7599 10.6545 16.7597 10.6547 16.7595C10.6549 16.7593 10.6551 16.7591 10.6554 16.7588C10.6556 16.7586 10.6558 16.7584 10.6561 16.7581C10.6563 16.7579 10.6566 16.7577 10.6568 16.7574C10.6571 16.7572 10.6573 16.7569 10.6576 16.7566C10.6578 16.7564 10.6581 16.7561 10.6584 16.7558C10.6586 16.7556 10.6589 16.7553 10.6592 16.755C10.6595 16.7547 10.6598 16.7544 10.6601 16.7541C10.6604 16.7538 10.6607 16.7535 10.661 16.7532C10.6613 16.7529 10.6616 16.7526 10.6619 16.7523C10.6622 16.752 10.6625 16.7517 10.6629 16.7513C10.6632 16.751 10.6635 16.7507 10.6639 16.7504C10.6642 16.75 10.6645 16.7497 10.6649 16.7493C10.6652 16.749 10.6656 16.7487 10.6659 16.7483C10.6663 16.7479 10.6666 16.7476 10.667 16.7472C10.6673 16.7469 10.6677 16.7465 10.6681 16.7461C10.6684 16.7458 10.6688 16.7454 10.6692 16.745C10.6696 16.7446 10.67 16.7443 10.6703 16.7439C10.6707 16.7435 10.6711 16.7431 10.6715 16.7427C10.6719 16.7423 10.6723 16.7419 10.6727 16.7415C10.6731 16.7411 10.6735 16.7407 10.6739 16.7403C10.6743 16.7399 10.6747 16.7395 10.6751 16.7391C10.6756 16.7387 10.676 16.7382 10.6764 16.7378C10.6768 16.7374 10.6772 16.737 10.6777 16.7366C10.6781 16.7361 10.6785 16.7357 10.6789 16.7353C10.6794 16.7348 10.6798 16.7344 10.6802 16.734C10.6807 16.7335 10.6811 16.7331 10.6816 16.7326C10.682 16.7322 10.6825 16.7318 10.6829 16.7313C10.6833 16.7309 10.6838 16.7304 10.6842 16.73C10.6847 16.7295 10.6852 16.7291 10.6856 16.7286C10.6861 16.7281 10.6865 16.7277 10.687 16.7272C10.6874 16.7268 10.6879 16.7263 10.6884 16.7258C10.6888 16.7254 10.6893 16.7249 10.6898 16.7244C10.6902 16.724 10.6907 16.7235 10.6912 16.723C10.6917 16.7226 10.6921 16.7221 10.6926 16.7216C10.6931 16.7211 10.6935 16.7207 10.694 16.7202C10.6945 16.7197 10.695 16.7192 10.6955 16.7188C10.6959 16.7183 10.6964 16.7178 10.6969 16.7173C10.6974 16.7168 10.6979 16.7163 10.6983 16.7159C10.6988 16.7154 10.6993 16.7149 10.6998 16.7144C10.7003 16.7139 10.7008 16.7134 10.7013 16.713C10.7017 16.7125 10.7022 16.712 10.7027 16.7115C10.7032 16.711 10.7037 16.7105 10.7042 16.71C10.7047 16.7095 10.7052 16.7091 10.7056 16.7086C10.7061 16.7081 10.7066 16.7076 10.7071 16.7071C10.7076 16.7066 10.7081 16.7061 10.7086 16.7056C10.7091 16.7052 10.7095 16.7047 10.71 16.7042C10.7105 16.7037 10.711 16.7032 10.7115 16.7027C10.712 16.7022 10.7125 16.7017 10.713 16.7013C10.7134 16.7008 10.7139 16.7003 10.7144 16.6998C10.7149 16.6993 10.7154 16.6988 10.7159 16.6983C10.7163 16.6979 10.7168 16.6974 10.7173 16.6969C10.7178 16.6964 10.7183 16.6959 10.7188 16.6955C10.7192 16.695 10.7197 16.6945 10.7202 16.694C10.7207 16.6935 10.7211 16.6931 10.7216 16.6926C10.7221 16.6921 10.7226 16.6917 10.723 16.6912C10.7235 16.6907 10.724 16.6902 10.7244 16.6898C10.7249 16.6893 10.7254 16.6888 10.7258 16.6884C10.7263 16.6879 10.7268 16.6874 10.7272 16.687C10.7277 16.6865 10.7281 16.6861 10.7286 16.6856C10.7291 16.6852 10.7295 16.6847 10.73 16.6842C10.7304 16.6838 10.7309 16.6833 10.7313 16.6829C10.7318 16.6825 10.7322 16.682 10.7326 16.6816C10.7331 16.6811 10.7335 16.6807 10.734 16.6802C10.7344 16.6798 10.7348 16.6794 10.7353 16.6789C10.7357 16.6785 10.7361 16.6781 10.7366 16.6777C10.737 16.6772 10.7374 16.6768 10.7378 16.6764C10.7382 16.676 10.7387 16.6756 10.7391 16.6751C10.7395 16.6747 10.7399 16.6743 10.7403 16.6739C10.7407 16.6735 10.7411 16.6731 10.7415 16.6727C10.7419 16.6723 10.7423 16.6719 10.7427 16.6715C10.7431 16.6711 10.7435 16.6707 10.7439 16.6703C10.7443 16.67 10.7446 16.6696 10.745 16.6692C10.7454 16.6688 10.7458 16.6684 10.7461 16.6681C10.7465 16.6677 10.7469 16.6673 10.7472 16.667C10.7476 16.6666 10.7479 16.6663 10.7483 16.6659C10.7487 16.6656 10.749 16.6652 10.7493 16.6649C10.7497 16.6645 10.75 16.6642 10.7504 16.6639C10.7507 16.6635 10.751 16.6632 10.7513 16.6629C10.7517 16.6625 10.752 16.6622 10.7523 16.6619C10.7526 16.6616 10.7529 16.6613 10.7532 16.661C10.7535 16.6607 10.7538 16.6604 10.7541 16.6601C10.7544 16.6598 10.7547 16.6595 10.755 16.6592C10.7553 16.6589 10.7556 16.6586 10.7558 16.6584C10.7561 16.6581 10.7564 16.6578 10.7566 16.6576C10.7569 16.6573 10.7572 16.6571 10.7574 16.6568C10.7577 16.6566 10.7579 16.6563 10.7581 16.6561C10.7584 16.6558 10.7586 16.6556 10.7588 16.6554C10.7591 16.6551 10.7593 16.6549 10.7595 16.6547C10.7597 16.6545 10.7599 16.6543 10.7601 16.6541C10.7603 16.6539 10.7605 16.6537 10.7607 16.6535C10.7609 16.6533 10.7611 16.6531 10.7613 16.653C10.7614 16.6528 10.7616 16.6526 10.7618 16.6524C10.7619 16.6523 10.7621 16.6521 10.7622 16.652C10.7624 16.6518 10.7625 16.6517 10.7627 16.6516C10.7628 16.6514 10.7629 16.6513 10.763 16.6512C10.7632 16.6511 10.7633 16.6509 10.7634 16.6508C10.7635 16.6507 10.7636 16.6506 10.7637 16.6505C10.7638 16.6505 10.7638 16.6504 10.7639 16.6503C10.764 16.6502 10.7641 16.6502 10.7641 16.6501C10.7642 16.65 10.7642 16.65 10.7643 16.6499C10.7643 16.6499 10.7644 16.6499 10.7644 16.6498C10.7644 16.6498 10.7644 16.6498 10.7644 16.6498C10.7645 16.6498 10.0574 15.9426 9.35025 15.2355C9.35024 15.2355 9.35023 15.2356 9.35021 15.2356C9.35019 15.2356 9.35016 15.2356 9.35012 15.2357C9.35008 15.2357 9.35003 15.2358 9.34998 15.2358C9.34992 15.2359 9.34985 15.2359 9.34978 15.236C9.34971 15.2361 9.34963 15.2362 9.34953 15.2363C9.34944 15.2363 9.34934 15.2364 9.34923 15.2366C9.34912 15.2367 9.349 15.2368 9.34887 15.2369C9.34875 15.237 9.34861 15.2372 9.34846 15.2373C9.34831 15.2375 9.34816 15.2376 9.34799 15.2378C9.34783 15.238 9.34765 15.2381 9.34746 15.2383C9.34728 15.2385 9.34708 15.2387 9.34688 15.2389C9.34667 15.2391 9.34646 15.2393 9.34623 15.2396C9.34601 15.2398 9.34577 15.24 9.34552 15.2403C9.34528 15.2405 9.34502 15.2408 9.34476 15.241C9.34449 15.2413 9.34421 15.2416 9.34393 15.2419C9.34364 15.2421 9.34334 15.2424 9.34304 15.2428C9.34273 15.2431 9.34241 15.2434 9.34208 15.2437C9.34175 15.244 9.34141 15.2444 9.34106 15.2447C9.34071 15.2451 9.34035 15.2454 9.33997 15.2458C9.3396 15.2462 9.33922 15.2466 9.33882 15.247C9.33843 15.2474 9.33802 15.2478 9.3376 15.2482C9.33718 15.2486 9.33675 15.249 9.33631 15.2495C9.33587 15.2499 9.33542 15.2504 9.33496 15.2508C9.33449 15.2513 9.33402 15.2518 9.33353 15.2523C9.33305 15.2527 9.33255 15.2532 9.33204 15.2537C9.33153 15.2543 9.331 15.2548 9.33047 15.2553C9.32993 15.2559 9.32939 15.2564 9.32883 15.257C9.32827 15.2575 9.3277 15.2581 9.32712 15.2587C9.32653 15.2593 9.32594 15.2598 9.32533 15.2605C9.32472 15.2611 9.3241 15.2617 9.32347 15.2623C9.32283 15.263 9.32219 15.2636 9.32153 15.2643C9.32087 15.2649 9.3202 15.2656 9.31952 15.2663C9.31883 15.267 9.31814 15.2676 9.31743 15.2684C9.31672 15.2691 9.31599 15.2698 9.31526 15.2705C9.31452 15.2713 9.31377 15.272 9.31301 15.2728C9.31225 15.2735 9.31147 15.2743 9.31068 15.2751C9.30989 15.2759 9.30909 15.2767 9.30827 15.2775C9.30746 15.2783 9.30663 15.2792 9.30578 15.28C9.30494 15.2808 9.30408 15.2817 9.30321 15.2826C9.30234 15.2834 9.30146 15.2843 9.30056 15.2852C9.29966 15.2861 9.29874 15.287 9.29782 15.288C9.29689 15.2889 9.29595 15.2898 9.29499 15.2908C9.29404 15.2917 9.29307 15.2927 9.29208 15.2937C9.2911 15.2947 9.2901 15.2957 9.28908 15.2967C9.28807 15.2977 9.28704 15.2987 9.286 15.2998C9.28496 15.3008 9.2839 15.3019 9.28283 15.303C9.28175 15.304 9.28067 15.3051 9.27957 15.3062C9.27846 15.3073 9.27735 15.3084 9.27621 15.3096C9.27508 15.3107 9.27393 15.3119 9.27277 15.313C9.27161 15.3142 9.27043 15.3154 9.26924 15.3166C9.26804 15.3177 9.26683 15.319 9.26561 15.3202C9.26438 15.3214 9.26314 15.3226 9.26189 15.3239C9.26063 15.3252 9.25936 15.3264 9.25807 15.3277C9.25679 15.329 9.25548 15.3303 9.25416 15.3316C9.25284 15.3329 9.25151 15.3343 9.25016 15.3356C9.24881 15.337 9.24744 15.3383 9.24605 15.3397C9.24467 15.3411 9.24327 15.3425 9.24185 15.3439C9.24044 15.3454 9.239 15.3468 9.23755 15.3482C9.2361 15.3497 9.23464 15.3511 9.23316 15.3526C9.23167 15.3541 9.23017 15.3556 9.22866 15.3571C9.22714 15.3586 9.22561 15.3602 9.22406 15.3617C9.22251 15.3633 9.22094 15.3648 9.21936 15.3664C9.21777 15.368 9.21617 15.3696 9.21455 15.3712C9.21293 15.3729 9.2113 15.3745 9.20964 15.3761C9.20799 15.3778 9.20632 15.3795 9.20463 15.3812C9.20294 15.3828 9.20124 15.3846 9.19951 15.3863C9.19779 15.388 9.19605 15.3897 9.19429 15.3915C9.19253 15.3933 9.19075 15.395 9.18896 15.3968C9.18716 15.3986 9.18535 15.4004 9.18352 15.4023C9.18169 15.4041 9.17984 15.4059 9.17797 15.4078C9.1761 15.4097 9.17422 15.4116 9.17231 15.4135C9.17041 15.4154 9.16849 15.4173 9.16655 15.4192C9.1646 15.4212 9.16264 15.4231 9.16067 15.4251C9.15869 15.4271 9.15669 15.4291 9.15468 15.4311C9.15266 15.4331 9.15063 15.4352 9.14857 15.4372C9.14652 15.4393 9.14445 15.4413 9.14235 15.4434C9.14026 15.4455 9.13815 15.4476 9.13602 15.4498C9.13389 15.4519 9.13174 15.454 9.12957 15.4562C9.1274 15.4584 9.12522 15.4606 9.12301 15.4628C9.1208 15.465 9.11857 15.4672 9.11633 15.4695C9.11408 15.4717 9.11181 15.474 9.10953 15.4763C9.10724 15.4785 9.10494 15.4809 9.10261 15.4832C9.10028 15.4855 9.09794 15.4878 9.09557 15.4902C9.0932 15.4926 9.09082 15.495 9.08841 15.4974C9.08601 15.4998 9.08358 15.5022 9.08113 15.5047C9.07868 15.5071 9.07622 15.5096 9.07373 15.5121C9.07124 15.5145 9.06873 15.5171 9.0662 15.5196C9.06367 15.5221 9.06112 15.5247 9.05855 15.5272C9.05598 15.5298 9.05339 15.5324 9.05078 15.535C9.04817 15.5376 9.04553 15.5403 9.04288 15.5429C9.04022 15.5456 9.03755 15.5482 9.03485 15.5509C9.03215 15.5536 9.02944 15.5563 9.0267 15.5591C9.02396 15.5618 9.0212 15.5646 9.01841 15.5674C9.01563 15.5702 9.01283 15.573 9.01 15.5758C9.00718 15.5786 9.00433 15.5815 9.00146 15.5843C8.99859 15.5872 8.9957 15.5901 8.99279 15.593C8.98988 15.5959 8.98694 15.5988 8.98398 15.6018C8.98103 15.6048 8.97805 15.6077 8.97505 15.6107C8.97205 15.6137 8.96902 15.6168 8.96598 15.6198C8.96293 15.6229 8.95986 15.6259 8.95677 15.629C8.95368 15.6321 8.95057 15.6352 8.94743 15.6384C8.9443 15.6415 8.94114 15.6446 8.93796 15.6478C8.93478 15.651 8.93157 15.6542 8.92835 15.6574C8.92512 15.6607 8.92187 15.6639 8.9186 15.6672C8.91532 15.6705 8.91203 15.6738 8.90871 15.6771C8.90539 15.6804 8.90205 15.6837 8.89868 15.6871C8.89532 15.6905 8.89193 15.6939 8.88851 15.6973C8.8851 15.7007 8.88167 15.7041 8.87821 15.7076C8.87475 15.711 8.87126 15.7145 8.86776 15.718C8.86425 15.7215 8.86072 15.7251 8.85716 15.7286C8.85361 15.7322 8.85003 15.7358 8.84643 15.7394C8.84282 15.743 8.8392 15.7466 8.83555 15.7502C8.8319 15.7539 8.82822 15.7576 8.82452 15.7613C8.82082 15.765 8.8171 15.7687 8.81335 15.7724C8.8096 15.7762 8.80583 15.78 8.80203 15.7838C8.79823 15.7876 8.79441 15.7914 8.79056 15.7952C8.78672 15.7991 8.78284 15.8029 8.77895 15.8068C8.77505 15.8107 8.77113 15.8147 8.76718 15.8186C8.76324 15.8226 8.75926 15.8265 8.75527 15.8305C8.75127 15.8345 8.74725 15.8385 8.7432 15.8426C8.73915 15.8466 8.73508 15.8507 8.73098 15.8548C8.72688 15.8589 8.72276 15.863 8.71861 15.8672C8.71446 15.8713 8.71029 15.8755 8.70608 15.8797C8.70188 15.8839 8.69766 15.8881 8.6934 15.8924C8.68915 15.8966 8.68487 15.9009 8.68057 15.9052C8.67627 15.9095 8.67193 15.9139 8.66758 15.9182C8.66322 15.9226 8.65884 15.9269 8.65443 15.9314C8.65002 15.9358 8.64558 15.9402 8.64112 15.9447C8.63666 15.9491 8.63217 15.9536 8.62766 15.9581C8.62314 15.9626 8.6186 15.9672 8.61403 15.9718C8.60946 15.9763 8.60487 15.9809 8.60025 15.9855C8.59562 15.9902 8.59098 15.9948 8.5863 15.9995C8.58162 16.0042 8.57692 16.0089 8.57219 16.0136C8.56746 16.0183 8.5627 16.0231 8.55792 16.0279C8.55313 16.0327 8.54832 16.0375 8.54348 16.0423C8.53864 16.0471 8.53377 16.052 8.52888 16.0569C8.52399 16.0618 8.51906 16.0667 8.51411 16.0717C8.50916 16.0766 8.50419 16.0816 8.49918 16.0866C8.49417 16.0916 8.48914 16.0966 8.48408 16.1017C8.47902 16.1068 8.47393 16.1119 8.46881 16.117C8.46369 16.1221 8.45855 16.1272 8.45337 16.1324C8.4482 16.1376 8.443 16.1428 8.43777 16.148C8.43254 16.1533 8.42728 16.1585 8.42199 16.1638C8.4167 16.1691 8.41138 16.1744 8.40604 16.1797C8.40069 16.1851 8.39532 16.1905 8.38992 16.1959C8.38451 16.2013 8.37908 16.2067 8.37362 16.2122C8.36816 16.2176 8.36267 16.2231 8.35715 16.2286C8.35163 16.2342 8.34608 16.2397 8.34051 16.2453C8.33493 16.2509 8.32932 16.2565 8.32369 16.2621C8.31805 16.2677 8.31238 16.2734 8.30669 16.2791C8.30099 16.2848 8.29527 16.2905 8.28951 16.2963C8.28376 16.302 8.27798 16.3078 8.27216 16.3136C8.26635 16.3194 8.2605 16.3253 8.25463 16.3312C8.24875 16.337 8.24285 16.3429 8.23692 16.3489C8.23098 16.3548 8.22502 16.3608 8.21902 16.3668C8.21303 16.3728 8.207 16.3788 8.20095 16.3848C8.19489 16.3909 8.18881 16.397 8.18269 16.4031C8.17657 16.4092 8.17043 16.4154 8.16425 16.4215C8.15807 16.4277 8.15186 16.4339 8.14562 16.4402C8.13938 16.4464 8.13311 16.4527 8.12681 16.459C8.12051 16.4653 8.11418 16.4716 8.10782 16.478C8.10145 16.4843 8.09506 16.4907 8.08863 16.4972C8.08221 16.5036 8.07575 16.51 8.06926 16.5165C8.06277 16.523 8.05625 16.5295 8.0497 16.5361C8.04315 16.5426 8.03657 16.5492 8.02995 16.5558C8.02334 16.5624 8.01669 16.5691 8.01001 16.5758C8.00334 16.5824 7.99663 16.5892 7.98988 16.5959C7.98314 16.6026 7.97637 16.6094 7.96956 16.6162C7.96276 16.623 7.95592 16.6299 7.94905 16.6367C7.94218 16.6436 7.93527 16.6505 7.92834 16.6574C7.9214 16.6644 7.91443 16.6714 7.90743 16.6784C7.90043 16.6854 7.8934 16.6924 7.88634 16.6995C7.87927 16.7065 7.87217 16.7136 7.86504 16.7207C7.85791 16.7279 7.85075 16.735 7.84355 16.7422C7.83635 16.7494 7.82912 16.7567 7.82186 16.7639C7.8146 16.7712 7.8073 16.7785 7.79997 16.7858C7.79264 16.7931 7.78528 16.8005 7.77788 16.8079C7.77049 16.8153 7.76306 16.8227 7.75559 16.8302C7.74813 16.8377 7.74063 16.8452 7.7331 16.8527C7.72557 16.8602 7.71801 16.8678 7.71041 16.8754C7.70281 16.883 7.69518 16.8906 7.68752 16.8983C7.67985 16.9059 7.67215 16.9136 7.66442 16.9214C7.65668 16.9291 7.64892 16.9369 7.64111 16.9447C7.63331 16.9525 7.62547 16.9603 7.6176 16.9682C7.60973 16.9761 7.60183 16.984 7.59389 16.9919C7.58595 16.9998 7.57797 17.0078 7.56997 17.0158C7.56196 17.0238 7.55391 17.0319 7.54583 17.04C7.53776 17.048 7.52964 17.0561 7.52149 17.0643C7.51335 17.0724 7.50516 17.0806 7.49695 17.0888C7.48873 17.0971 7.48047 17.1053 7.47218 17.1136C7.4639 17.1219 7.45557 17.1302 7.44721 17.1386C7.43885 17.1469 7.43046 17.1553 7.42203 17.1638C7.4136 17.1722 7.40513 17.1807 7.39663 17.1892C7.38813 17.1977 7.37959 17.2062 7.37102 17.2148C7.36245 17.2233 7.35384 17.2319 7.34519 17.2406C7.33655 17.2492 7.32787 17.2579 7.31915 17.2666C7.31044 17.2754 7.30168 17.2841 7.29289 17.2929L8.70711 18.7071C8.7159 18.6983 8.72465 18.6896 8.73337 18.6808C8.74208 18.6721 8.75076 18.6635 8.75941 18.6548C8.76805 18.6462 8.77666 18.6376 8.78523 18.629C8.79381 18.6204 8.80234 18.6119 8.81084 18.6034C8.81935 18.5949 8.82781 18.5864 8.83624 18.578C8.84467 18.5695 8.85307 18.5611 8.86143 18.5528C8.86979 18.5444 8.87811 18.5361 8.8864 18.5278C8.89469 18.5195 8.90294 18.5113 8.91116 18.5031C8.91938 18.4948 8.92756 18.4867 8.93571 18.4785C8.94386 18.4704 8.95197 18.4622 8.96005 18.4542C8.96813 18.4461 8.97617 18.438 8.98418 18.43C8.99219 18.422 9.00016 18.4141 9.0081 18.4061C9.01604 18.3982 9.02395 18.3903 9.03182 18.3824C9.03969 18.3745 9.04752 18.3667 9.05533 18.3589C9.06313 18.3511 9.0709 18.3433 9.07863 18.3356C9.08636 18.3278 9.09406 18.3201 9.10173 18.3125C9.1094 18.3048 9.11703 18.2972 9.12462 18.2896C9.13222 18.282 9.13979 18.2744 9.14732 18.2669C9.15485 18.2594 9.16234 18.2519 9.16981 18.2444C9.17727 18.2369 9.1847 18.2295 9.1921 18.2221C9.19949 18.2147 9.20685 18.2074 9.21418 18.2C9.22151 18.1927 9.22881 18.1854 9.23607 18.1781C9.24334 18.1709 9.25057 18.1636 9.25776 18.1565C9.26496 18.1493 9.27212 18.1421 9.27925 18.135C9.28639 18.1278 9.29348 18.1207 9.30055 18.1137C9.30761 18.1066 9.31465 18.0996 9.32165 18.0926C9.32865 18.0856 9.33562 18.0786 9.34255 18.0717C9.34949 18.0647 9.35639 18.0578 9.36326 18.051C9.37013 18.0441 9.37697 18.0372 9.38378 18.0304C9.39058 18.0236 9.39736 18.0169 9.4041 18.0101C9.41084 18.0034 9.41755 17.9967 9.42423 17.99C9.43091 17.9833 9.43755 17.9767 9.44417 17.97C9.45078 17.9634 9.45737 17.9568 9.46392 17.9503C9.47047 17.9437 9.47699 17.9372 9.48348 17.9307C9.48996 17.9242 9.49642 17.9178 9.50285 17.9114C9.50927 17.9049 9.51567 17.8985 9.52203 17.8922C9.52839 17.8858 9.53473 17.8795 9.54103 17.8732C9.54733 17.8669 9.5536 17.8606 9.55984 17.8544C9.56608 17.8481 9.57229 17.8419 9.57846 17.8358C9.58464 17.8296 9.59079 17.8234 9.5969 17.8173C9.60302 17.8112 9.60911 17.8051 9.61516 17.7991C9.62122 17.793 9.62724 17.787 9.63324 17.781C9.63923 17.775 9.6452 17.769 9.65113 17.7631C9.65706 17.7571 9.66297 17.7512 9.66884 17.7454C9.67472 17.7395 9.68056 17.7337 9.68637 17.7278C9.69219 17.722 9.69797 17.7162 9.70373 17.7105C9.70948 17.7047 9.71521 17.699 9.7209 17.6933C9.7266 17.6876 9.73226 17.682 9.7379 17.6763C9.74354 17.6707 9.74914 17.6651 9.75472 17.6595C9.7603 17.6539 9.76585 17.6484 9.77136 17.6428C9.77688 17.6373 9.78237 17.6318 9.78783 17.6264C9.79329 17.6209 9.79873 17.6155 9.80413 17.6101C9.80953 17.6047 9.81491 17.5993 9.82025 17.594C9.8256 17.5886 9.83091 17.5833 9.8362 17.578C9.84149 17.5727 9.84675 17.5675 9.85198 17.5622C9.85721 17.557 9.86241 17.5518 9.86759 17.5466C9.87276 17.5415 9.87791 17.5363 9.88303 17.5312C9.88814 17.5261 9.89323 17.521 9.89829 17.5159C9.90336 17.5109 9.90839 17.5058 9.91339 17.5008C9.9184 17.4958 9.92338 17.4908 9.92833 17.4859C9.93328 17.4809 9.9382 17.476 9.94309 17.4711C9.94799 17.4662 9.95286 17.4614 9.9577 17.4565C9.96253 17.4517 9.96735 17.4469 9.97213 17.4421C9.97692 17.4373 9.98167 17.4325 9.9864 17.4278C9.99113 17.4231 9.99584 17.4184 10.0005 17.4137C10.0052 17.409 10.0098 17.4044 10.0145 17.3998C10.0191 17.3951 10.0237 17.3905 10.0282 17.386C10.0328 17.3814 10.0374 17.3769 10.0419 17.3723C10.0464 17.3678 10.0509 17.3633 10.0553 17.3589C10.0598 17.3544 10.0642 17.35 10.0686 17.3456C10.0731 17.3412 10.0774 17.3368 10.0818 17.3324C10.0861 17.3281 10.0905 17.3237 10.0948 17.3194C10.0991 17.3151 10.1034 17.3108 10.1076 17.3066C10.1119 17.3023 10.1161 17.2981 10.1203 17.2939C10.1245 17.2897 10.1287 17.2855 10.1328 17.2814C10.137 17.2772 10.1411 17.2731 10.1452 17.269C10.1493 17.2649 10.1534 17.2608 10.1574 17.2568C10.1615 17.2528 10.1655 17.2487 10.1695 17.2447C10.1735 17.2407 10.1774 17.2368 10.1814 17.2328C10.1853 17.2289 10.1893 17.2249 10.1932 17.2211C10.1971 17.2172 10.2009 17.2133 10.2048 17.2094C10.2086 17.2056 10.2124 17.2018 10.2162 17.198C10.22 17.1942 10.2238 17.1904 10.2276 17.1867C10.2313 17.1829 10.235 17.1792 10.2387 17.1755C10.2424 17.1718 10.2461 17.1681 10.2498 17.1645C10.2534 17.1608 10.257 17.1572 10.2606 17.1536C10.2642 17.15 10.2678 17.1464 10.2714 17.1428C10.2749 17.1393 10.2785 17.1358 10.282 17.1322C10.2855 17.1287 10.289 17.1253 10.2924 17.1218C10.2959 17.1183 10.2993 17.1149 10.3027 17.1115C10.3061 17.1081 10.3095 17.1047 10.3129 17.1013C10.3163 17.098 10.3196 17.0946 10.3229 17.0913C10.3262 17.088 10.3295 17.0847 10.3328 17.0814C10.3361 17.0781 10.3393 17.0749 10.3426 17.0717C10.3458 17.0684 10.349 17.0652 10.3522 17.062C10.3554 17.0589 10.3585 17.0557 10.3616 17.0526C10.3648 17.0494 10.3679 17.0463 10.371 17.0432C10.3741 17.0401 10.3771 17.0371 10.3802 17.034C10.3832 17.031 10.3863 17.028 10.3893 17.025C10.3923 17.022 10.3952 17.019 10.3982 17.016C10.4012 17.0131 10.4041 17.0101 10.407 17.0072C10.4099 17.0043 10.4128 17.0014 10.4157 16.9985C10.4185 16.9957 10.4214 16.9928 10.4242 16.99C10.427 16.9872 10.4298 16.9844 10.4326 16.9816C10.4354 16.9788 10.4382 16.976 10.4409 16.9733C10.4436 16.9706 10.4464 16.9678 10.4491 16.9651C10.4518 16.9625 10.4544 16.9598 10.4571 16.9571C10.4597 16.9545 10.4624 16.9518 10.465 16.9492C10.4676 16.9466 10.4702 16.944 10.4728 16.9414C10.4753 16.9389 10.4779 16.9363 10.4804 16.9338C10.4829 16.9313 10.4855 16.9288 10.4879 16.9263C10.4904 16.9238 10.4929 16.9213 10.4953 16.9189C10.4978 16.9164 10.5002 16.914 10.5026 16.9116C10.505 16.9092 10.5074 16.9068 10.5098 16.9044C10.5122 16.9021 10.5145 16.8997 10.5168 16.8974C10.5191 16.8951 10.5215 16.8928 10.5237 16.8905C10.526 16.8882 10.5283 16.8859 10.5305 16.8837C10.5328 16.8814 10.535 16.8792 10.5372 16.877C10.5394 16.8748 10.5416 16.8726 10.5438 16.8704C10.546 16.8683 10.5481 16.8661 10.5502 16.864C10.5524 16.8618 10.5545 16.8597 10.5566 16.8576C10.5587 16.8556 10.5607 16.8535 10.5628 16.8514C10.5648 16.8494 10.5669 16.8473 10.5689 16.8453C10.5709 16.8433 10.5729 16.8413 10.5749 16.8393C10.5769 16.8374 10.5788 16.8354 10.5808 16.8335C10.5827 16.8315 10.5846 16.8296 10.5865 16.8277C10.5884 16.8258 10.5903 16.8239 10.5922 16.822C10.5941 16.8202 10.5959 16.8183 10.5977 16.8165C10.5996 16.8147 10.6014 16.8128 10.6032 16.811C10.605 16.8092 10.6067 16.8075 10.6085 16.8057C10.6103 16.804 10.612 16.8022 10.6137 16.8005C10.6154 16.7988 10.6172 16.7971 10.6188 16.7954C10.6205 16.7937 10.6222 16.792 10.6239 16.7904C10.6255 16.7887 10.6271 16.7871 10.6288 16.7854C10.6304 16.7838 10.632 16.7822 10.6336 16.7806C10.6352 16.7791 10.6367 16.7775 10.6383 16.7759C10.6398 16.7744 10.6414 16.7729 10.6429 16.7713C10.6444 16.7698 10.6459 16.7683 10.6474 16.7668C10.6489 16.7654 10.6503 16.7639 10.6518 16.7624C10.6532 16.761 10.6547 16.7596 10.6561 16.7581C10.6575 16.7567 10.6589 16.7553 10.6603 16.7539C10.6617 16.7526 10.663 16.7512 10.6644 16.7498C10.6657 16.7485 10.6671 16.7472 10.6684 16.7458C10.6697 16.7445 10.671 16.7432 10.6723 16.7419C10.6736 16.7406 10.6748 16.7394 10.6761 16.7381C10.6774 16.7369 10.6786 16.7356 10.6798 16.7344C10.681 16.7332 10.6823 16.732 10.6834 16.7308C10.6846 16.7296 10.6858 16.7284 10.687 16.7272C10.6881 16.7261 10.6893 16.7249 10.6904 16.7238C10.6916 16.7227 10.6927 16.7215 10.6938 16.7204C10.6949 16.7193 10.696 16.7182 10.697 16.7172C10.6981 16.7161 10.6992 16.715 10.7002 16.714C10.7013 16.713 10.7023 16.7119 10.7033 16.7109C10.7043 16.7099 10.7053 16.7089 10.7063 16.7079C10.7073 16.7069 10.7082 16.706 10.7092 16.705C10.7102 16.7041 10.7111 16.7031 10.712 16.7022C10.713 16.7013 10.7139 16.7003 10.7148 16.6994C10.7157 16.6985 10.7166 16.6977 10.7174 16.6968C10.7183 16.6959 10.7192 16.6951 10.72 16.6942C10.7208 16.6934 10.7217 16.6925 10.7225 16.6917C10.7233 16.6909 10.7241 16.6901 10.7249 16.6893C10.7257 16.6885 10.7265 16.6878 10.7272 16.687C10.728 16.6862 10.7287 16.6855 10.7295 16.6847C10.7302 16.684 10.7309 16.6833 10.7316 16.6826C10.7324 16.6819 10.733 16.6812 10.7337 16.6805C10.7344 16.6798 10.7351 16.6791 10.7357 16.6785C10.7364 16.6778 10.737 16.6772 10.7377 16.6765C10.7383 16.6759 10.7389 16.6753 10.7395 16.6747C10.7402 16.6741 10.7407 16.6735 10.7413 16.6729C10.7419 16.6723 10.7425 16.6717 10.743 16.6712C10.7436 16.6706 10.7441 16.6701 10.7447 16.6695C10.7452 16.669 10.7457 16.6685 10.7462 16.668C10.7468 16.6675 10.7473 16.667 10.7477 16.6665C10.7482 16.666 10.7487 16.6655 10.7492 16.665C10.7496 16.6646 10.7501 16.6641 10.7505 16.6637C10.751 16.6632 10.7514 16.6628 10.7518 16.6624C10.7522 16.662 10.7526 16.6616 10.753 16.6612C10.7534 16.6608 10.7538 16.6604 10.7542 16.66C10.7546 16.6597 10.7549 16.6593 10.7553 16.6589C10.7556 16.6586 10.756 16.6582 10.7563 16.6579C10.7566 16.6576 10.7569 16.6573 10.7572 16.657C10.7576 16.6567 10.7579 16.6564 10.7581 16.6561C10.7584 16.6558 10.7587 16.6555 10.759 16.6552C10.7592 16.655 10.7595 16.6547 10.7597 16.6545C10.76 16.6542 10.7602 16.654 10.7604 16.6538C10.7607 16.6535 10.7609 16.6533 10.7611 16.6531C10.7613 16.6529 10.7615 16.6527 10.7617 16.6525C10.7619 16.6524 10.762 16.6522 10.7622 16.652C10.7624 16.6518 10.7625 16.6517 10.7627 16.6515C10.7628 16.6514 10.763 16.6513 10.7631 16.6511C10.7632 16.651 10.7633 16.6509 10.7634 16.6508C10.7636 16.6507 10.7637 16.6506 10.7637 16.6505C10.7638 16.6504 10.7639 16.6503 10.764 16.6502C10.7641 16.6501 10.7641 16.6501 10.7642 16.65C10.7642 16.65 10.7643 16.6499 10.7643 16.6499C10.7644 16.6498 10.7644 16.6498 10.7644 16.6498C10.7644 16.6498 10.7645 16.6498 10.7645 16.6498C10.0574 15.9426 9.35025 15.2355 9.35023 15.2356C9.35022 15.2356 9.3502 15.2356 9.35017 15.2356C9.35014 15.2356 9.35011 15.2357 9.35006 15.2357C9.35002 15.2358 9.34997 15.2358 9.34991 15.2359C9.34985 15.2359 9.34978 15.236 9.3497 15.2361C9.34963 15.2362 9.34955 15.2362 9.34945 15.2363C9.34936 15.2364 9.34927 15.2365 9.34916 15.2366C9.34905 15.2367 9.34894 15.2368 9.34882 15.237C9.3487 15.2371 9.34857 15.2372 9.34844 15.2373C9.34831 15.2375 9.34816 15.2376 9.34802 15.2378C9.34787 15.2379 9.34771 15.2381 9.34755 15.2382C9.34739 15.2384 9.34722 15.2386 9.34704 15.2387C9.34687 15.2389 9.34669 15.2391 9.3465 15.2393C9.34631 15.2395 9.34611 15.2397 9.34591 15.2399C9.34571 15.2401 9.3455 15.2403 9.34529 15.2405C9.34507 15.2407 9.34485 15.2409 9.34463 15.2412C9.3444 15.2414 9.34417 15.2416 9.34393 15.2419C9.34369 15.2421 9.34345 15.2423 9.3432 15.2426C9.34295 15.2428 9.34269 15.2431 9.34243 15.2434C9.34217 15.2436 9.3419 15.2439 9.34162 15.2442C9.34135 15.2444 9.34107 15.2447 9.34079 15.245C9.34051 15.2453 9.34022 15.2456 9.33992 15.2459C9.33963 15.2462 9.33933 15.2465 9.33902 15.2468C9.33872 15.2471 9.33841 15.2474 9.33809 15.2477C9.33778 15.248 9.33746 15.2483 9.33713 15.2487C9.33681 15.249 9.33648 15.2493 9.33615 15.2496C9.33581 15.25 9.33547 15.2503 9.33513 15.2507C9.33479 15.251 9.33444 15.2513 9.33409 15.2517C9.33373 15.2521 9.33338 15.2524 9.33302 15.2528C9.33266 15.2531 9.33229 15.2535 9.33192 15.2539C9.33155 15.2542 9.33118 15.2546 9.3308 15.255C9.33042 15.2554 9.33004 15.2557 9.32966 15.2561C9.32927 15.2565 9.32888 15.2569 9.32849 15.2573C9.3281 15.2577 9.3277 15.2581 9.3273 15.2585C9.3269 15.2589 9.3265 15.2593 9.32609 15.2597C9.32569 15.2601 9.32528 15.2605 9.32486 15.2609C9.32445 15.2613 9.32403 15.2618 9.32361 15.2622C9.32319 15.2626 9.32277 15.263 9.32234 15.2634C9.32192 15.2639 9.32149 15.2643 9.32106 15.2647C9.32063 15.2652 9.32019 15.2656 9.31975 15.266C9.31932 15.2665 9.31888 15.2669 9.31843 15.2674C9.31799 15.2678 9.31755 15.2682 9.3171 15.2687C9.31665 15.2691 9.3162 15.2696 9.31575 15.27C9.3153 15.2705 9.31484 15.2709 9.31439 15.2714C9.31393 15.2719 9.31347 15.2723 9.31301 15.2728C9.31255 15.2732 9.31209 15.2737 9.31163 15.2742C9.31116 15.2746 9.31069 15.2751 9.31023 15.2756C9.30976 15.276 9.30929 15.2765 9.30882 15.277C9.30835 15.2774 9.30787 15.2779 9.3074 15.2784C9.30693 15.2789 9.30645 15.2793 9.30597 15.2798C9.3055 15.2803 9.30502 15.2808 9.30454 15.2812C9.30406 15.2817 9.30358 15.2822 9.3031 15.2827C9.30262 15.2832 9.30213 15.2837 9.30165 15.2841C9.30117 15.2846 9.30068 15.2851 9.3002 15.2856C9.29972 15.2861 9.29923 15.2866 9.29874 15.287C9.29826 15.2875 9.29777 15.288 9.29728 15.2885C9.2968 15.289 9.29631 15.2895 9.29582 15.29C9.29533 15.2905 9.29485 15.2909 9.29436 15.2914C9.29387 15.2919 9.29338 15.2924 9.29289 15.2929C9.29241 15.2934 9.29192 15.2939 9.29143 15.2944C9.29094 15.2948 9.29045 15.2953 9.28996 15.2958C9.28948 15.2963 9.28899 15.2968 9.2885 15.2973C9.28802 15.2978 9.28753 15.2983 9.28704 15.2987C9.28656 15.2992 9.28607 15.2997 9.28559 15.3002C9.2851 15.3007 9.28462 15.3012 9.28413 15.3017C9.28365 15.3021 9.28317 15.3026 9.28269 15.3031C9.28221 15.3036 9.28173 15.3041 9.28125 15.3045C9.28077 15.305 9.28029 15.3055 9.27981 15.306C9.27934 15.3065 9.27886 15.3069 9.27839 15.3074C9.27791 15.3079 9.27744 15.3083 9.27697 15.3088C9.2765 15.3093 9.27603 15.3098 9.27556 15.3102C9.27509 15.3107 9.27463 15.3112 9.27416 15.3116C9.2737 15.3121 9.27323 15.3126 9.27277 15.313C9.27231 15.3135 9.27185 15.3139 9.2714 15.3144C9.27094 15.3148 9.27049 15.3153 9.27004 15.3158C9.26958 15.3162 9.26913 15.3167 9.26869 15.3171C9.26824 15.3175 9.26779 15.318 9.26735 15.3184C9.26691 15.3189 9.26647 15.3193 9.26603 15.3198C9.26559 15.3202 9.26516 15.3206 9.26473 15.3211C9.2643 15.3215 9.26387 15.3219 9.26344 15.3223C9.26302 15.3228 9.26259 15.3232 9.26217 15.3236C9.26175 15.324 9.26134 15.3244 9.26092 15.3249C9.26051 15.3253 9.2601 15.3257 9.25969 15.3261C9.25929 15.3265 9.25888 15.3269 9.25848 15.3273C9.25808 15.3277 9.25769 15.3281 9.2573 15.3285C9.2569 15.3289 9.25651 15.3293 9.25613 15.3297C9.25574 15.33 9.25536 15.3304 9.25499 15.3308C9.25461 15.3312 9.25423 15.3316 9.25387 15.3319C9.2535 15.3323 9.25313 15.3327 9.25277 15.333C9.25241 15.3334 9.25205 15.3337 9.2517 15.3341C9.25135 15.3344 9.251 15.3348 9.25066 15.3351C9.25031 15.3355 9.24997 15.3358 9.24964 15.3361C9.24931 15.3365 9.24898 15.3368 9.24865 15.3371C9.24833 15.3375 9.24801 15.3378 9.24769 15.3381C9.24738 15.3384 9.24707 15.3387 9.24676 15.339C9.24646 15.3393 9.24616 15.3396 9.24586 15.3399C9.24557 15.3402 9.24528 15.3405 9.245 15.3408C9.24471 15.3411 9.24443 15.3414 9.24416 15.3416C9.24389 15.3419 9.24362 15.3422 9.24336 15.3424C9.2431 15.3427 9.24284 15.3429 9.24259 15.3432C9.24234 15.3434 9.2421 15.3437 9.24186 15.3439C9.24162 15.3442 9.24139 15.3444 9.24116 15.3446C9.24093 15.3449 9.24071 15.3451 9.2405 15.3453C9.24028 15.3455 9.24008 15.3457 9.23987 15.3459C9.23967 15.3461 9.23948 15.3463 9.23929 15.3465C9.2391 15.3467 9.23892 15.3469 9.23874 15.347C9.23857 15.3472 9.2384 15.3474 9.23824 15.3476C9.23807 15.3477 9.23792 15.3479 9.23777 15.348C9.23762 15.3482 9.23748 15.3483 9.23735 15.3484C9.23721 15.3486 9.23708 15.3487 9.23696 15.3488C9.23684 15.3489 9.23673 15.3491 9.23663 15.3492C9.23652 15.3493 9.23642 15.3494 9.23633 15.3495C9.23624 15.3495 9.23616 15.3496 9.23608 15.3497C9.23601 15.3498 9.23594 15.3498 9.23588 15.3499C9.23582 15.35 9.23577 15.35 9.23572 15.3501C9.23568 15.3501 9.23564 15.3501 9.23561 15.3502C9.23558 15.3502 9.23556 15.3502 9.23555 15.3502C9.23554 15.3502 9.94264 16.0574 10.6498 16.7645C10.6498 16.7645 10.6498 16.7644 10.6498 16.7644C10.6498 16.7644 10.6498 16.7644 10.6499 16.7643C10.6499 16.7643 10.65 16.7642 10.65 16.7642C10.6501 16.7641 10.6501 16.7641 10.6502 16.764C10.6503 16.7639 10.6504 16.7638 10.6505 16.7637C10.6506 16.7637 10.6507 16.7636 10.6508 16.7634C10.6509 16.7633 10.651 16.7632 10.6511 16.7631C10.6513 16.763 10.6514 16.7628 10.6515 16.7627C10.6517 16.7625 10.6518 16.7624 10.652 16.7622C10.6522 16.762 10.6524 16.7619 10.6525 16.7617C10.6527 16.7615 10.6529 16.7613 10.6531 16.7611C10.6533 16.7609 10.6535 16.7607 10.6538 16.7604C10.654 16.7602 10.6542 16.76 10.6545 16.7597C10.6547 16.7595 10.655 16.7592 10.6552 16.759C10.6555 16.7587 10.6558 16.7584 10.6561 16.7581C10.6564 16.7579 10.6567 16.7576 10.657 16.7572C10.6573 16.7569 10.6576 16.7566 10.6579 16.7563C10.6582 16.756 10.6586 16.7556 10.6589 16.7553C10.6593 16.7549 10.6597 16.7546 10.66 16.7542C10.6604 16.7538 10.6608 16.7534 10.6612 16.753C10.6616 16.7526 10.662 16.7522 10.6624 16.7518C10.6628 16.7514 10.6632 16.751 10.6637 16.7505C10.6641 16.7501 10.6646 16.7496 10.665 16.7492C10.6655 16.7487 10.666 16.7482 10.6665 16.7477C10.667 16.7473 10.6675 16.7468 10.668 16.7463C10.6685 16.7457 10.669 16.7452 10.6695 16.7447C10.6701 16.7441 10.6706 16.7436 10.6712 16.743C10.6717 16.7425 10.6723 16.7419 10.6729 16.7413C10.6735 16.7407 10.6741 16.7402 10.6747 16.7395C10.6753 16.7389 10.6759 16.7383 10.6765 16.7377C10.6772 16.737 10.6778 16.7364 10.6785 16.7357C10.6791 16.7351 10.6798 16.7344 10.6805 16.7337C10.6812 16.733 10.6819 16.7324 10.6826 16.7316C10.6833 16.7309 10.684 16.7302 10.6847 16.7295C10.6855 16.7287 10.6862 16.728 10.687 16.7272C10.6878 16.7265 10.6885 16.7257 10.6893 16.7249C10.6901 16.7241 10.6909 16.7233 10.6917 16.7225C10.6925 16.7217 10.6934 16.7208 10.6942 16.72C10.6951 16.7192 10.6959 16.7183 10.6968 16.7174C10.6977 16.7166 10.6985 16.7157 10.6994 16.7148C10.7003 16.7139 10.7013 16.713 10.7022 16.712C10.7031 16.7111 10.7041 16.7102 10.705 16.7092C10.706 16.7083 10.7069 16.7073 10.7079 16.7063C10.7089 16.7053 10.7099 16.7043 10.7109 16.7033C10.7119 16.7023 10.713 16.7013 10.714 16.7002C10.715 16.6992 10.7161 16.6981 10.7172 16.697C10.7182 16.696 10.7193 16.6949 10.7204 16.6938C10.7215 16.6927 10.7227 16.6916 10.7238 16.6904C10.7249 16.6893 10.7261 16.6881 10.7272 16.687C10.7284 16.6858 10.7296 16.6846 10.7308 16.6834C10.732 16.6823 10.7332 16.681 10.7344 16.6798C10.7356 16.6786 10.7369 16.6774 10.7381 16.6761C10.7394 16.6748 10.7406 16.6736 10.7419 16.6723C10.7432 16.671 10.7445 16.6697 10.7458 16.6684C10.7472 16.6671 10.7485 16.6657 10.7498 16.6644C10.7512 16.663 10.7526 16.6617 10.7539 16.6603C10.7553 16.6589 10.7567 16.6575 10.7581 16.6561C10.7596 16.6546 10.761 16.6532 10.7624 16.6518C10.7639 16.6503 10.7654 16.6489 10.7668 16.6474C10.7683 16.6459 10.7698 16.6444 10.7713 16.6429C10.7729 16.6414 10.7744 16.6398 10.7759 16.6383C10.7775 16.6367 10.7791 16.6352 10.7806 16.6336C10.7822 16.632 10.7838 16.6304 10.7854 16.6288C10.7871 16.6271 10.7887 16.6255 10.7904 16.6239C10.792 16.6222 10.7937 16.6205 10.7954 16.6188C10.7971 16.6172 10.7988 16.6154 10.8005 16.6137C10.8022 16.612 10.804 16.6103 10.8057 16.6085C10.8075 16.6067 10.8092 16.605 10.811 16.6032C10.8128 16.6014 10.8147 16.5996 10.8165 16.5977C10.8183 16.5959 10.8202 16.5941 10.822 16.5922C10.8239 16.5903 10.8258 16.5884 10.8277 16.5865C10.8296 16.5846 10.8315 16.5827 10.8335 16.5808C10.8354 16.5788 10.8374 16.5769 10.8393 16.5749C10.8413 16.5729 10.8433 16.5709 10.8453 16.5689C10.8473 16.5669 10.8494 16.5648 10.8514 16.5628C10.8535 16.5607 10.8556 16.5587 10.8576 16.5566C10.8597 16.5545 10.8618 16.5524 10.864 16.5502C10.8661 16.5481 10.8683 16.546 10.8704 16.5438C10.8726 16.5416 10.8748 16.5394 10.877 16.5372C10.8792 16.535 10.8814 16.5328 10.8837 16.5305C10.8859 16.5283 10.8882 16.526 10.8905 16.5237C10.8928 16.5215 10.8951 16.5191 10.8974 16.5168C10.8997 16.5145 10.9021 16.5122 10.9044 16.5098C10.9068 16.5074 10.9092 16.505 10.9116 16.5026C10.914 16.5002 10.9164 16.4978 10.9189 16.4953C10.9213 16.4929 10.9238 16.4904 10.9263 16.4879C10.9288 16.4855 10.9313 16.4829 10.9338 16.4804C10.9363 16.4779 10.9389 16.4753 10.9414 16.4728C10.944 16.4702 10.9466 16.4676 10.9492 16.465C10.9518 16.4624 10.9545 16.4597 10.9571 16.4571C10.9598 16.4544 10.9625 16.4518 10.9651 16.4491C10.9678 16.4464 10.9706 16.4437 10.9733 16.4409C10.976 16.4382 10.9788 16.4354 10.9816 16.4326C10.9844 16.4298 10.9872 16.427 10.99 16.4242C10.9928 16.4214 10.9957 16.4185 10.9985 16.4157C11.0014 16.4128 11.0043 16.4099 11.0072 16.407C11.0101 16.4041 11.0131 16.4012 11.016 16.3982C11.019 16.3952 11.022 16.3923 11.025 16.3893C11.028 16.3863 11.031 16.3832 11.034 16.3802C11.0371 16.3771 11.0401 16.3741 11.0432 16.371C11.0463 16.3679 11.0494 16.3648 11.0526 16.3616C11.0557 16.3585 11.0589 16.3554 11.062 16.3522C11.0652 16.349 11.0684 16.3458 11.0717 16.3426C11.0749 16.3393 11.0781 16.3361 11.0814 16.3328C11.0847 16.3295 11.088 16.3262 11.0913 16.3229C11.0946 16.3196 11.098 16.3163 11.1013 16.3129C11.1047 16.3095 11.1081 16.3061 11.1115 16.3027C11.1149 16.2993 11.1183 16.2959 11.1218 16.2924C11.1253 16.289 11.1287 16.2855 11.1322 16.282C11.1358 16.2785 11.1393 16.2749 11.1428 16.2714C11.1464 16.2678 11.15 16.2642 11.1536 16.2606C11.1572 16.257 11.1608 16.2534 11.1645 16.2498C11.1681 16.2461 11.1718 16.2424 11.1755 16.2387C11.1792 16.235 11.1829 16.2313 11.1867 16.2276C11.1904 16.2238 11.1942 16.22 11.198 16.2162C11.2018 16.2124 11.2056 16.2086 11.2094 16.2048C11.2133 16.2009 11.2172 16.1971 11.2211 16.1932C11.2249 16.1893 11.2289 16.1853 11.2328 16.1814C11.2368 16.1774 11.2407 16.1735 11.2447 16.1695C11.2487 16.1655 11.2528 16.1615 11.2568 16.1574C11.2608 16.1534 11.2649 16.1493 11.269 16.1452C11.2731 16.1411 11.2772 16.137 11.2814 16.1328C11.2855 16.1287 11.2897 16.1245 11.2939 16.1203C11.2981 16.1161 11.3023 16.1119 11.3066 16.1076C11.3108 16.1034 11.3151 16.0991 11.3194 16.0948C11.3237 16.0905 11.3281 16.0861 11.3324 16.0818C11.3368 16.0774 11.3412 16.0731 11.3456 16.0686C11.35 16.0642 11.3544 16.0598 11.3589 16.0553C11.3633 16.0509 11.3678 16.0464 11.3723 16.0419C11.3769 16.0374 11.3814 16.0328 11.386 16.0282C11.3905 16.0237 11.3951 16.0191 11.3998 16.0145C11.4044 16.0098 11.409 16.0052 11.4137 16.0005C11.4184 15.9958 11.4231 15.9911 11.4278 15.9864C11.4325 15.9817 11.4373 15.9769 11.4421 15.9721C11.4469 15.9673 11.4517 15.9625 11.4565 15.9577C11.4614 15.9529 11.4662 15.948 11.4711 15.9431C11.476 15.9382 11.4809 15.9333 11.4859 15.9283C11.4908 15.9234 11.4958 15.9184 11.5008 15.9134C11.5058 15.9084 11.5109 15.9034 11.5159 15.8983C11.521 15.8932 11.5261 15.8881 11.5312 15.883C11.5363 15.8779 11.5415 15.8728 11.5466 15.8676C11.5518 15.8624 11.557 15.8572 11.5622 15.852C11.5675 15.8467 11.5727 15.8415 11.578 15.8362C11.5833 15.8309 11.5886 15.8256 11.594 15.8203C11.5993 15.8149 11.6047 15.8095 11.6101 15.8041C11.6155 15.7987 11.6209 15.7933 11.6264 15.7878C11.6318 15.7824 11.6373 15.7769 11.6428 15.7714C11.6484 15.7658 11.6539 15.7603 11.6595 15.7547C11.6651 15.7491 11.6707 15.7435 11.6763 15.7379C11.682 15.7323 11.6876 15.7266 11.6933 15.7209C11.699 15.7152 11.7047 15.7095 11.7105 15.7037C11.7162 15.698 11.722 15.6922 11.7278 15.6864C11.7337 15.6806 11.7395 15.6747 11.7454 15.6688C11.7512 15.663 11.7571 15.6571 11.7631 15.6511C11.769 15.6452 11.775 15.6392 11.781 15.6332C11.787 15.6272 11.793 15.6212 11.7991 15.6152C11.8051 15.6091 11.8112 15.603 11.8173 15.5969C11.8234 15.5908 11.8296 15.5846 11.8358 15.5785C11.8419 15.5723 11.8481 15.5661 11.8544 15.5598C11.8606 15.5536 11.8669 15.5473 11.8732 15.541C11.8795 15.5347 11.8858 15.5284 11.8922 15.522C11.8985 15.5157 11.9049 15.5093 11.9114 15.5028C11.9178 15.4964 11.9242 15.49 11.9307 15.4835C11.9372 15.477 11.9437 15.4705 11.9503 15.4639C11.9568 15.4574 11.9634 15.4508 11.97 15.4442C11.9767 15.4376 11.9833 15.4309 11.99 15.4242C11.9967 15.4176 12.0034 15.4108 12.0101 15.4041C12.0169 15.3974 12.0236 15.3906 12.0304 15.3838C12.0372 15.377 12.0441 15.3701 12.051 15.3633C12.0578 15.3564 12.0647 15.3495 12.0717 15.3426C12.0786 15.3356 12.0856 15.3286 12.0926 15.3216C12.0996 15.3146 12.1066 15.3076 12.1137 15.3005C12.1207 15.2935 12.1278 15.2864 12.135 15.2793C12.1421 15.2721 12.1493 15.265 12.1565 15.2578C12.1636 15.2506 12.1709 15.2433 12.1781 15.2361C12.1854 15.2288 12.1927 15.2215 12.2 15.2142C12.2074 15.2069 12.2147 15.1995 12.2221 15.1921C12.2295 15.1847 12.2369 15.1773 12.2444 15.1698C12.2519 15.1623 12.2594 15.1548 12.2669 15.1473C12.2744 15.1398 12.282 15.1322 12.2896 15.1246C12.2972 15.117 12.3048 15.1094 12.3125 15.1017C12.3201 15.0941 12.3278 15.0864 12.3356 15.0786C12.3433 15.0709 12.3511 15.0631 12.3589 15.0553C12.3667 15.0475 12.3745 15.0397 12.3824 15.0318C12.3903 15.0239 12.3982 15.016 12.4061 15.0081C12.4141 15.0002 12.422 14.9922 12.43 14.9842C12.438 14.9762 12.4461 14.9681 12.4542 14.96C12.4622 14.952 12.4704 14.9439 12.4785 14.9357C12.4867 14.9276 12.4948 14.9194 12.5031 14.9112C12.5113 14.9029 12.5195 14.8947 12.5278 14.8864C12.5361 14.8781 12.5444 14.8698 12.5528 14.8614C12.5611 14.8531 12.5695 14.8447 12.578 14.8362C12.5864 14.8278 12.5949 14.8193 12.6034 14.8108C12.6119 14.8023 12.6204 14.7938 12.629 14.7852C12.6376 14.7767 12.6462 14.7681 12.6548 14.7594C12.6635 14.7508 12.6721 14.7421 12.6808 14.7334C12.6896 14.7246 12.6983 14.7159 12.7071 14.7071L11.2929 13.2929ZM12.5 17.5V21H14.5V17.5H12.5ZM13.5 22H17.5V20H13.5V22ZM18 13H17V15H18V13ZM17 13H16V15H17V13ZM15.0101 7.14142L15.5101 10.6414L17.4899 10.3586L16.9899 6.85858L15.0101 7.14142ZM15.5101 10.6414L16.0101 14.1414L17.9899 13.8586L17.4899 10.3586L15.5101 10.6414ZM16.5 11.5H19.5V9.5H16.5V11.5Z" fill="black"/>
</svg>
