<svg width="24" height="24" viewBox="0 0 24 24" fill="none" xmlns="http://www.w3.org/2000/svg">
<path d="M21 2L19 4M11.3891 11.6109C12.3844 12.6062 13 13.9812 13 15.5C13 18.5376 10.5376 21 7.5 21C4.46244 21 2 18.5376 2 15.5C2 12.4624 4.46244 10 7.5 10C9.01878 10 10.3938 10.6156 11.3891 11.6109ZM11.3891 11.6109L15.5 7.5M15.5 7.5L18.5 10.5L22 6.99999L19 4M15.5 7.5L19 4" stroke="black" stroke-width="2" stroke-linecap="round" stroke-linejoin="round"/>
<path d="M18.8944 17.5528C18.6474 17.0588 18.0468 16.8586 17.5528 17.1056C17.0588 17.3526 16.8586 17.9532 17.1056 18.4472L18.8944 17.5528ZM20 22L19.1056 22.4472C19.275 22.786 19.6212 23 20 23C20.3788 23 20.725 22.786 20.8944 22.4472L20 22ZM22.8944 18.4472C23.1414 17.9532 22.9412 17.3526 22.4472 17.1056C21.9532 16.8586 21.3526 17.0588 21.1056 17.5528L22.8944 18.4472ZM17.1056 18.4472L19.1056 22.4472L20.8944 21.5528L18.8944 17.5528L17.1056 18.4472ZM20.8944 22.4472L22.8944 18.4472L21.1056 17.5528L19.1056 21.5528L20.8944 22.4472Z" fill="black"/>
</svg>
