<svg width="24" height="24" viewBox="0 0 24 24" fill="none" xmlns="http://www.w3.org/2000/svg">
<path d="M21 2L19 4M11.3891 11.6109C12.3844 12.6062 13 13.9812 13 15.5C13 18.5376 10.5376 21 7.5 21C4.46244 21 2 18.5376 2 15.5C2 12.4624 4.46244 10 7.5 10C9.01878 10 10.3938 10.6156 11.3891 11.6109ZM11.3891 11.6109L15.5 7.5M15.5 7.5L18.5 10.5L22 6.99999L19 4M15.5 7.5L19 4" stroke="black" stroke-width="2" stroke-linecap="round" stroke-linejoin="round"/>
<path d="M21.1056 22.4472C21.3526 22.9412 21.9532 23.1414 22.4472 22.8944C22.9412 22.6474 23.1414 22.0468 22.8944 21.5528L21.1056 22.4472ZM20 18L20.8944 17.5528C20.725 17.214 20.3788 17 20 17C19.6212 17 19.275 17.214 19.1056 17.5528L20 18ZM17.1056 21.5528C16.8586 22.0468 17.0588 22.6474 17.5528 22.8944C18.0468 23.1414 18.6474 22.9412 18.8944 22.4472L17.1056 21.5528ZM22.8944 21.5528L20.8944 17.5528L19.1056 18.4472L21.1056 22.4472L22.8944 21.5528ZM19.1056 17.5528L17.1056 21.5528L18.8944 22.4472L20.8944 18.4472L19.1056 17.5528Z" fill="black"/>
</svg>
