<svg width="24" height="24" viewBox="0 0 24 24" fill="none" xmlns="http://www.w3.org/2000/svg">
<path d="M3 10C2.44772 10 2 10.4477 2 11C2 11.5523 2.44772 12 3 12V10ZM22 12C22.5523 12 23 11.5523 23 11C23 10.4477 22.5523 10 22 10V12ZM6 10C6 10.5523 6.44772 11 7 11C7.55228 11 8 10.5523 8 10H6ZM8 7C8 6.44772 7.55228 6 7 6C6.44772 6 6 6.44772 6 7H8ZM16 10C16 10.5523 16.4477 11 17 11C17.5523 11 18 10.5523 18 10H16ZM18 7C18 6.44772 17.5523 6 17 6C16.4477 6 16 6.44772 16 7H18ZM6 15C6 15.5523 6.44772 16 7 16C7.55228 16 8 15.5523 8 15H6ZM8 12C8 11.4477 7.55228 11 7 11C6.44772 11 6 11.4477 6 12H8ZM21 14C21 14.5523 21.4477 15 22 15C22.5523 15 23 14.5523 23 14H21ZM1.70711 0.292893C1.31658 -0.0976311 0.683417 -0.0976311 0.292893 0.292893C-0.0976311 0.683417 -0.0976311 1.31658 0.292893 1.70711L1.70711 0.292893ZM22.2929 23.7071C22.6834 24.0976 23.3166 24.0976 23.7071 23.7071C24.0976 23.3166 24.0976 22.6834 23.7071 22.2929L22.2929 23.7071ZM18 10C17.4477 10 17 10.4477 17 11C17 11.5523 17.4477 12 18 12V10ZM13 5C12.4477 5 12 5.44772 12 6C12 6.55228 12.4477 7 13 7V5ZM8 10V7H6V10H8ZM18 10V7H16V10H18ZM8 15V12H6V15H8ZM21 8V14H23V8H21ZM3 14V8H1V14H3ZM4 15C3.44772 15 3 14.5523 3 14H1C1 15.6569 2.34315 17 4 17V15ZM20 7C20.5523 7 21 7.44772 21 8H23C23 6.34315 21.6569 5 20 5V7ZM4 5C2.34315 5 1 6.34315 1 8H3C3 7.44772 3.44772 7 4 7V5ZM0.292893 1.70711L5.29289 6.70711L6.70711 5.29289L1.70711 0.292893L0.292893 1.70711ZM4 7H6V5H4V7ZM15.2929 16.7071L22.2929 23.7071L23.7071 22.2929L16.7071 15.2929L15.2929 16.7071ZM16 15H4V17H16V15ZM5.29289 6.70711L10.2929 11.7071L11.7071 10.2929L6.70711 5.29289L5.29289 6.70711ZM10.2929 11.7071L15.2929 16.7071L16.7071 15.2929L11.7071 10.2929L10.2929 11.7071ZM3 12H11V10H3V12ZM18 12H22V10H18V12ZM13 7H20V5H13V7Z" fill="black"/>
</svg>
