<svg width="24" height="24" viewBox="0 0 24 24" fill="none" xmlns="http://www.w3.org/2000/svg">
<path d="M10.062 12.5L11.0152 12.8024C11.1591 12.3487 10.9633 11.8565 10.5472 11.6256L10.062 12.5ZM8 19L7.04681 18.6976C6.95039 19.0016 7.00471 19.3333 7.19304 19.5906C7.38137 19.8479 7.68112 20 8 20V19ZM16 19V20C16.3189 20 16.6186 19.8479 16.807 19.5906C16.9953 19.3333 17.0496 19.0016 16.9532 18.6976L16 19ZM13.938 12.5L13.4528 11.6256C13.0367 11.8565 12.8409 12.3487 12.9848 12.8024L13.938 12.5ZM9 9C9 7.34315 10.3431 6 12 6V4C9.23858 4 7 6.23858 7 9H9ZM12 6C13.6569 6 15 7.34315 15 9H17C17 6.23858 14.7614 4 12 4V6ZM10.5472 11.6256C9.62233 11.1124 9 10.1282 9 9H7C7 10.8838 8.04224 12.5229 9.57679 13.3744L10.5472 11.6256ZM9.10881 12.1976L7.04681 18.6976L8.95319 19.3024L11.0152 12.8024L9.10881 12.1976ZM8 20H16V18H8V20ZM15 9C15 10.1282 14.3777 11.1124 13.4528 11.6256L14.4232 13.3744C15.9578 12.5229 17 10.8838 17 9H15ZM16.9532 18.6976L14.8912 12.1976L12.9848 12.8024L15.0468 19.3024L16.9532 18.6976Z" fill="black"/>
</svg>
