<svg width="24" height="24" viewBox="0 0 24 24" fill="none" xmlns="http://www.w3.org/2000/svg">
<path d="M19 15V5H5V15H19Z" stroke="black" stroke-width="2" stroke-linecap="round" stroke-linejoin="round"/>
<path d="M5 15V14C4.62123 14 4.27496 14.214 4.10557 14.5528L5 15ZM19 15L19.8944 14.5528C19.725 14.214 19.3788 14 19 14V15ZM3 19L2.10557 18.5528C1.95058 18.8628 1.96714 19.2309 2.14935 19.5257C2.33156 19.8205 2.65342 20 3 20V19ZM21 19V20C21.3466 20 21.6684 19.8205 21.8507 19.5257C22.0329 19.2309 22.0494 18.8628 21.8944 18.5528L21 19ZM5 16H19V14H5V16ZM4.10557 14.5528L2.10557 18.5528L3.89443 19.4472L5.89443 15.4472L4.10557 14.5528ZM3 20H21V18H3V20ZM21.8944 18.5528L19.8944 14.5528L18.1056 15.4472L20.1056 19.4472L21.8944 18.5528Z" fill="black"/>
</svg>
