<svg width="24" height="24" viewBox="0 0 24 24" fill="none" xmlns="http://www.w3.org/2000/svg">
<path d="M5 5V15H15M19 14V5H10" stroke="black" stroke-width="2" stroke-linecap="round" stroke-linejoin="round"/>
<path d="M5 15V14C4.62123 14 4.27496 14.214 4.10557 14.5528L5 15ZM3 19L2.10557 18.5528C1.95058 18.8628 1.96714 19.2309 2.14935 19.5257C2.33156 19.8205 2.65342 20 3 20V19ZM15 15L15.7071 14.2929L15.4142 14H15V15ZM19 19V20H21.4142L19.7071 18.2929L19 19ZM4.10557 14.5528L2.10557 18.5528L3.89443 19.4472L5.89443 15.4472L4.10557 14.5528ZM5 16H15V14H5V16ZM3 20H19V18H3V20ZM14.2929 15.7071L18.2929 19.7071L19.7071 18.2929L15.7071 14.2929L14.2929 15.7071Z" fill="black"/>
<path d="M1 1L23 23" stroke="black" stroke-width="2" stroke-linecap="round" stroke-linejoin="round"/>
</svg>
