<svg width="24" height="24" viewBox="0 0 24 24" fill="none" xmlns="http://www.w3.org/2000/svg">
<path d="M15 18V19C15.5523 19 16 18.5523 16 18H15ZM9 18H8C8 18.5523 8.44772 19 9 19V18ZM15 15.3264L14.5709 14.4231C14.2222 14.5888 14 14.9403 14 15.3264H15ZM9 15.3264H10C10 14.9403 9.77779 14.5888 9.42909 14.4231L9 15.3264ZM10 21C9.44771 21 9 21.4477 9 22C9 22.5523 9.44771 23 10 23V21ZM14 23C14.5523 23 15 22.5523 15 22C15 21.4477 14.5523 21 14 21V23ZM1.70711 0.292893C1.31658 -0.0976311 0.683417 -0.0976311 0.292893 0.292893C-0.0976311 0.683417 -0.0976311 1.31658 0.292893 1.70711L1.70711 0.292893ZM22.2929 23.7071C22.6834 24.0976 23.3166 24.0976 23.7071 23.7071C24.0976 23.3166 24.0976 22.6834 23.7071 22.2929L22.2929 23.7071ZM7.60129 2.3169C7.14021 2.62091 7.01289 3.24114 7.3169 3.70222C7.62091 4.1633 8.24114 4.29063 8.70222 3.98662L7.60129 2.3169ZM17.0134 12.2978C16.7094 12.7589 16.8367 13.3791 17.2978 13.6831C17.7589 13.9871 18.3791 13.8598 18.6831 13.3987L17.0134 12.2978ZM12 3C15.3137 3 18 5.68629 18 9H20C20 4.58172 16.4183 1 12 1V3ZM15 17H9V19H15V17ZM14 15.3264V18H16V15.3264H14ZM10 18V15.3264H8V18H10ZM9.42909 14.4231C7.39967 13.459 6 11.392 6 9H4C4 12.1928 5.87043 14.9468 8.57091 16.2296L9.42909 14.4231ZM10 23H14V21H10V23ZM14.511 15.9252L22.2929 23.7071L23.7071 22.2929L15.9252 14.511L14.511 15.9252ZM14.7577 14.3303C14.6961 14.3623 14.6338 14.3932 14.5709 14.4231L15.4291 16.2296C15.513 16.1898 15.5962 16.1485 15.6784 16.1058L14.7577 14.3303ZM0.292893 1.70711L5.07482 6.48904L6.48904 5.07482L1.70711 0.292893L0.292893 1.70711ZM5.07482 6.48904L14.511 15.9252L15.9252 14.511L6.48904 5.07482L5.07482 6.48904ZM6 9C6 8.00371 6.24204 7.06688 6.66966 6.2423L4.8942 5.32157C4.32254 6.42392 4 7.67576 4 9H6ZM8.70222 3.98662C9.64804 3.36299 10.7801 3 12 3V1C10.3769 1 8.86382 1.48445 7.60129 2.3169L8.70222 3.98662ZM18 9C18 10.2199 17.637 11.352 17.0134 12.2978L18.6831 13.3987C19.5155 12.1362 20 10.6231 20 9H18Z" fill="black"/>
</svg>
