<svg width="24" height="24" viewBox="0 0 24 24" fill="none" xmlns="http://www.w3.org/2000/svg">
<path d="M15 18V19C15.5523 19 16 18.5523 16 18H15ZM9 18H8C8 18.5523 8.44772 19 9 19V18ZM15 15.3264L14.5709 14.4231C14.2222 14.5888 14 14.9403 14 15.3264H15ZM9 15.3264H10C10 14.9403 9.77779 14.5888 9.42909 14.4231L9 15.3264ZM10 21C9.44772 21 9 21.4477 9 22C9 22.5523 9.44772 23 10 23V21ZM14 23C14.5523 23 15 22.5523 15 22C15 21.4477 14.5523 21 14 21V23ZM6 9C6 5.68629 8.68629 3 12 3V1C7.58172 1 4 4.58172 4 9H6ZM12 3C15.3137 3 18 5.68629 18 9H20C20 4.58172 16.4183 1 12 1V3ZM15 17H9V19H15V17ZM14 15.3264V18H16V15.3264H14ZM18 9C18 11.392 16.6003 13.459 14.5709 14.4231L15.4291 16.2296C18.1296 14.9468 20 12.1928 20 9H18ZM10 18V15.3264H8V18H10ZM9.42909 14.4231C7.39967 13.459 6 11.392 6 9H4C4 12.1928 5.87043 14.9468 8.57091 16.2296L9.42909 14.4231ZM10 23H14V21H10V23Z" fill="black"/>
</svg>
