<svg width="24" height="24" viewBox="0 0 24 24" fill="none" xmlns="http://www.w3.org/2000/svg">
<path d="M7 11V7C7 5.67392 7.52678 4.40215 8.46447 3.46447C9.40215 2.52678 10.6739 2 12 2C13.3261 2 14.5979 2.52678 15.5355 3.46447C16.4732 4.40215 17 5.67392 17 7V11" stroke="black" stroke-width="2" stroke-linecap="round" stroke-linejoin="round"/>
<path d="M14 22H5C3.89543 22 3 21.1046 3 20V13C3 11.8954 3.89543 11 5 11H19C20.1046 11 21 11.8954 21 13V14" stroke="black" stroke-width="2" stroke-linecap="round" stroke-linejoin="round"/>
<path d="M21 22C21 22.5523 21.4477 23 22 23C22.5523 23 23 22.5523 23 22H21ZM22 18H23C23 17.4477 22.5523 17 22 17V18ZM18 17C17.4477 17 17 17.4477 17 18C17 18.5523 17.4477 19 18 19V17ZM17.2929 21.2929C16.9024 21.6834 16.9024 22.3166 17.2929 22.7071C17.6834 23.0976 18.3166 23.0976 18.7071 22.7071L17.2929 21.2929ZM23 22V18H21V22H23ZM22 17H18V19H22V17ZM21.2929 17.2929L17.2929 21.2929L18.7071 22.7071L22.7071 18.7071L21.2929 17.2929Z" fill="black"/>
</svg>
