<svg width="24" height="24" viewBox="0 0 24 24" fill="none" xmlns="http://www.w3.org/2000/svg">
<path d="M6 11C6 11.5523 6.44772 12 7 12C7.55228 12 8 11.5523 8 11H6ZM8 7C8 6.44772 7.55228 6 7 6C6.44772 6 6 6.44772 6 7H8ZM20 14C20 14.5523 20.4477 15 21 15C21.5523 15 22 14.5523 22 14H20ZM1.70711 0.292893C1.31658 -0.0976311 0.683417 -0.0976311 0.292893 0.292893C-0.0976311 0.683417 -0.0976311 1.31658 0.292893 1.70711L1.70711 0.292893ZM22.2929 23.7071C22.6834 24.0976 23.3166 24.0976 23.7071 23.7071C24.0976 23.3166 24.0976 22.6834 23.7071 22.2929L22.2929 23.7071ZM18 11L17.2929 11.7071C17.4804 11.8946 17.7348 12 18 12V11ZM17 10H16C16 10.2652 16.1054 10.5196 16.2929 10.7071L17 10ZM9.60001 1.50091C9.09383 1.72182 8.86257 2.31124 9.08348 2.81742C9.30439 3.3236 9.89382 3.55485 10.4 3.33394L9.60001 1.50091ZM8 11V7H6V11H8ZM12 3C13.0609 3 14.0783 3.42143 14.8284 4.17157L16.2426 2.75736C15.1174 1.63214 13.5913 1 12 1V3ZM14.8284 4.17157C15.5786 4.92172 16 5.93913 16 7H18C18 5.4087 17.3679 3.88258 16.2426 2.75736L14.8284 4.17157ZM19 12C19.5523 12 20 12.4477 20 13H22C22 11.3431 20.6569 10 19 10V12ZM20 13V14H22V13H20ZM19 21H5V23H19V21ZM5 21C4.44772 21 4 20.5523 4 20H2C2 21.6569 3.34315 23 5 23V21ZM4 20V13H2V20H4ZM4 13C4 12.4477 4.44772 12 5 12V10C3.34315 10 2 11.3431 2 13H4ZM0.292893 1.70711L10.2929 11.7071L11.7071 10.2929L1.70711 0.292893L0.292893 1.70711ZM5 12H11V10H5V12ZM18 12H19V10H18V12ZM16 7V10H18V7H16ZM16.2929 10.7071L17.2929 11.7071L18.7071 10.2929L17.7071 9.29289L16.2929 10.7071ZM10.4 3.33394C10.9 3.11574 11.444 3 12 3V1C11.166 1 10.3498 1.17366 9.60001 1.50091L10.4 3.33394ZM10.2929 11.7071L20.1161 21.5304L21.5304 20.1161L11.7071 10.2929L10.2929 11.7071ZM20.1161 21.5304L22.2929 23.7071L23.7071 22.2929L21.5304 20.1161L20.1161 21.5304ZM19.9121 20.4112C19.7542 20.7603 19.404 21 19 21V23C20.2182 23 21.2647 22.274 21.7344 21.2353L19.9121 20.4112Z" fill="black"/>
</svg>
