<svg width="24" height="24" viewBox="0 0 24 24" fill="none" xmlns="http://www.w3.org/2000/svg">
<path d="M14 21C14 21.5523 14.4477 22 15 22C15.5523 22 16 21.5523 16 21H14ZM16 3C16 2.44772 15.5523 2 15 2C14.4477 2 14 2.44772 14 3H16ZM8 18C8 18.5523 8.44772 19 9 19C9.55228 19 10 18.5523 10 18H8ZM10 8C10 7.44772 9.55228 7 9 7C8.44772 7 8 7.44772 8 8H10ZM2 17C2 17.5523 2.44772 18 3 18C3.55228 18 4 17.5523 4 17H2ZM4 9C4 8.44772 3.55228 8 3 8C2.44772 8 2 8.44772 2 9H4ZM20 18C20 18.5523 20.4477 19 21 19C21.5523 19 22 18.5523 22 18H20ZM22 9C22 8.44772 21.5523 8 21 8C20.4477 8 20 8.44772 20 9H22ZM16 21V3H14V21H16ZM10 18V8H8V18H10ZM4 17V9H2V17H4ZM22 18V9H20V18H22Z" fill="black"/>
</svg>
