<svg width="24" height="24" viewBox="0 0 24 24" fill="none" xmlns="http://www.w3.org/2000/svg">
<path d="M4 5C4.55228 5 5 4.55228 5 4C5 3.44772 4.55228 3 4 3V5ZM20 21C20.5523 21 21 20.5523 21 20C21 19.4477 20.5523 19 20 19V21ZM12 13L11.4265 13.8192C11.7709 14.0603 12.2291 14.0603 12.5735 13.8192L12 13ZM1.70711 0.292893C1.31658 -0.0976311 0.683417 -0.0976311 0.292893 0.292893C-0.0976311 0.683417 -0.0976311 1.31658 0.292893 1.70711L1.70711 0.292893ZM22.2929 23.7071C22.6834 24.0976 23.3166 24.0976 23.7071 23.7071C24.0976 23.3166 24.0976 22.6834 23.7071 22.2929L22.2929 23.7071ZM21 15C21 15.5523 21.4477 16 22 16C22.5523 16 23 15.5523 23 15H21ZM11 3C10.4477 3 10 3.44772 10 4C10 4.55228 10.4477 5 11 5V3ZM16.1324 8.88665C15.68 9.20336 15.5699 9.82689 15.8867 10.2793C16.2034 10.7318 16.8269 10.8418 17.2793 10.5251L16.1324 8.88665ZM20 5C20.5477 5 21 5.45228 21 6H23C23 4.34772 21.6523 3 20 3V5ZM20 19H4V21H20V19ZM4 19C3.45228 19 3 18.5477 3 18H1C1 19.6523 2.34772 21 4 21V19ZM3 18V6H1V18H3ZM3 6C3 5.45228 3.45228 5 4 5V3C2.34772 3 1 4.34772 1 6H3ZM12.5735 12.1808L2.57346 5.18077L1.42654 6.81923L11.4265 13.8192L12.5735 12.1808ZM21 6V15H23V6H21ZM11 5H20V3H11V5ZM21.4265 5.18077L16.1324 8.88665L17.2793 10.5251L22.5735 6.81923L21.4265 5.18077ZM12.0148 11.769L11.4265 12.1808L12.5735 13.8192L13.1617 13.4075L12.0148 11.769ZM0.292893 1.70711L11.8811 13.2953L13.2953 11.8811L1.70711 0.292893L0.292893 1.70711ZM11.8811 13.2953L22.2929 23.7071L23.7071 22.2929L13.2953 11.8811L11.8811 13.2953Z" fill="black"/>
</svg>
