<svg width="24" height="24" viewBox="0 0 24 24" fill="none" xmlns="http://www.w3.org/2000/svg">
<path d="M4 20C4 20.5523 4.44772 21 5 21C5.55228 21 6 20.5523 6 20H4ZM5 4L5.75258 3.3415C5.47824 3.02797 5.03826 2.91736 4.64827 3.0639C4.25828 3.21043 4 3.58339 4 4H5ZM12 12L11.2474 12.6585C11.4373 12.8755 11.7116 13 12 13C12.2884 13 12.5627 12.8755 12.7526 12.6585L12 12ZM19 4H20C20 3.58339 19.7417 3.21043 19.3517 3.0639C18.9617 2.91736 18.5218 3.02797 18.2474 3.3415L19 4ZM18 14C18 14.5523 18.4477 15 19 15C19.5523 15 20 14.5523 20 14H18ZM6 20V4H4V20H6ZM4.24742 4.6585L11.2474 12.6585L12.7526 11.3415L5.75258 3.3415L4.24742 4.6585ZM12.7526 12.6585L19.7526 4.6585L18.2474 3.3415L11.2474 11.3415L12.7526 12.6585ZM18 4V14H20V4H18Z" fill="black"/>
<path d="M18 22L17.1056 21.5528C16.9506 21.8628 16.9671 22.2309 17.1493 22.5257C17.3316 22.8205 17.6534 23 18 23V22ZM22 22V23C22.3466 23 22.6684 22.8205 22.8507 22.5257C23.0329 22.2309 23.0494 21.8628 22.8944 21.5528L22 22ZM20 18L20.8944 17.5528C20.725 17.214 20.3788 17 20 17C19.6212 17 19.275 17.214 19.1056 17.5528L20 18ZM18 23H22V21H18V23ZM22.8944 21.5528L20.8944 17.5528L19.1056 18.4472L21.1056 22.4472L22.8944 21.5528ZM19.1056 17.5528L17.1056 21.5528L18.8944 22.4472L20.8944 18.4472L19.1056 17.5528Z" fill="black"/>
</svg>
