<svg width="24" height="24" viewBox="0 0 24 24" fill="none" xmlns="http://www.w3.org/2000/svg">
<path d="M4 20C4 20.5523 4.44772 21 5 21C5.55228 21 6 20.5523 6 20H4ZM5 4L5.75258 3.3415C5.47824 3.02797 5.03826 2.91736 4.64827 3.0639C4.25828 3.21043 4 3.58339 4 4H5ZM12 12L11.2474 12.6585C11.4373 12.8755 11.7116 13 12 13C12.2884 13 12.5627 12.8755 12.7526 12.6585L12 12ZM19 4H20C20 3.58339 19.7417 3.21043 19.3517 3.0639C18.9617 2.91736 18.5218 3.02797 18.2474 3.3415L19 4ZM18 20C18 20.5523 18.4477 21 19 21C19.5523 21 20 20.5523 20 20H18ZM6 20V4H4V20H6ZM4.24742 4.6585L11.2474 12.6585L12.7526 11.3415L5.75258 3.3415L4.24742 4.6585ZM12.7526 12.6585L19.7526 4.6585L18.2474 3.3415L11.2474 11.3415L12.7526 12.6585ZM18 4V20H20V4H18Z" fill="black"/>
<path d="M9 21C8.44772 21 8 21.4477 8 22C8 22.5523 8.44772 23 9 23V21ZM9.01 23C9.56228 23 10.01 22.5523 10.01 22C10.01 21.4477 9.56228 21 9.01 21V23ZM12 21C11.4477 21 11 21.4477 11 22C11 22.5523 11.4477 23 12 23V21ZM12.01 23C12.5623 23 13.01 22.5523 13.01 22C13.01 21.4477 12.5623 21 12.01 21V23ZM15 21C14.4477 21 14 21.4477 14 22C14 22.5523 14.4477 23 15 23V21ZM15.01 23C15.5623 23 16.01 22.5523 16.01 22C16.01 21.4477 15.5623 21 15.01 21V23ZM9 23H9.01V21H9V23ZM12 23H12.01V21H12V23ZM15 23H15.01V21H15V23Z" fill="black"/>
</svg>
