<svg width="24" height="24" viewBox="0 0 24 24" fill="none" xmlns="http://www.w3.org/2000/svg">
<path d="M5.99963 12L6.7992 12.6006C7.06644 12.2448 7.06644 11.7552 6.7992 11.3994L5.99963 12ZM14.5911 16.9835L14.6718 15.9868C14.2449 15.9522 13.8434 16.1934 13.6733 16.5865L14.5911 16.9835ZM14.5911 7.01648L13.6733 7.41353C13.8434 7.80662 14.2449 8.04777 14.6718 8.01322L14.5911 7.01648ZM10 15.9835H9C9 16.352 9.20261 16.6906 9.5273 16.8647C9.85199 17.0389 10.2462 17.0204 10.5531 16.8166L10 15.9835ZM10 8.01648L10.5531 7.18337C10.2462 6.97958 9.85199 6.96109 9.5273 7.13525C9.20261 7.30942 9 7.64802 9 8.01648H10ZM16 12L16.5531 12.8331C16.8322 12.6478 17 12.335 17 12C17 11.665 16.8322 11.3522 16.5531 11.1669L16 12ZM6 9C6 6.79086 7.79086 5 10 5V3C6.68629 3 4 5.68629 4 9H6ZM10 19C7.79086 19 6 17.2091 6 15H4C4 18.3137 6.68629 21 10 21V19ZM19 12C19 14.2091 17.2091 16 15 16V18C18.3137 18 21 15.3137 21 12H19ZM15 8C17.2091 8 19 9.79086 19 12H21C21 8.68629 18.3137 6 15 6V8ZM6 15C6 14.0984 6.29712 13.269 6.7992 12.6006L5.20007 11.3994C4.44677 12.4023 4 13.6504 4 15H6ZM6.7992 11.3994C6.29712 10.731 6 9.90163 6 9H4C4 10.3496 4.44677 11.5977 5.20007 12.6006L6.7992 11.3994ZM15 16C14.8893 16 14.7798 15.9955 14.6718 15.9868L14.5104 17.9803C14.6721 17.9933 14.8354 18 15 18V16ZM13.6733 16.5865C13.0582 18.0083 11.6438 19 10 19V21C12.4696 21 14.5885 19.5082 15.5089 17.3806L13.6733 16.5865ZM14.6718 8.01322C14.7798 8.00447 14.8893 8 15 8V6C14.8354 6 14.6721 6.00665 14.5104 6.01974L14.6718 8.01322ZM10 5C11.6438 5 13.0582 5.99171 13.6733 7.41353L15.5089 6.61942C14.5885 4.49184 12.4696 3 10 3V5ZM11 15.9835V8.01648H9V15.9835H11ZM9.44688 8.84958L15.4469 12.8331L16.5531 11.1669L10.5531 7.18337L9.44688 8.84958ZM15.4469 11.1669L9.44688 15.1504L10.5531 16.8166L16.5531 12.8331L15.4469 11.1669Z" fill="black"/>
</svg>
