<svg width="24" height="24" viewBox="0 0 24 24" fill="none" xmlns="http://www.w3.org/2000/svg">
<path d="M3 21H2C2 21.4045 2.24364 21.7691 2.61732 21.9239C2.99099 22.0787 3.42111 21.9931 3.70711 21.7071L3 21ZM6.70711 18.7071C7.09763 18.3166 7.09763 17.6834 6.70711 17.2929C6.31658 16.9024 5.68342 16.9024 5.29289 17.2929L6.70711 18.7071ZM4 9C4 8.44772 3.55228 8 3 8C2.44772 8 2 8.44772 2 9H4ZM2 11C2 11.5523 2.44772 12 3 12C3.55228 12 4 11.5523 4 11H2ZM18 16C17.4477 16 17 16.4477 17 17C17 17.5523 17.4477 18 18 18V16ZM19 18C19.5523 18 20 17.5523 20 17C20 16.4477 19.5523 16 19 16V18ZM4 15C4 14.4477 3.55228 14 3 14C2.44772 14 2 14.4477 2 15H4ZM5 2C4.44772 2 4 2.44772 4 3C4 3.55228 4.44772 4 5 4V2ZM6 4C6.55228 4 7 3.55228 7 3C7 2.44772 6.55228 2 6 2V4ZM19 4C19.5523 4 20 3.55228 20 3C20 2.44772 19.5523 2 19 2V4ZM18 2C17.4477 2 17 2.44772 17 3C17 3.55228 17.4477 4 18 4V2ZM10 16C9.44772 16 9 16.4477 9 17C9 17.5523 9.44772 18 10 18V16ZM14 18C14.5523 18 15 17.5523 15 17C15 16.4477 14.5523 16 14 16V18ZM10 2C9.44772 2 9 2.44772 9 3C9 3.55228 9.44772 4 10 4V2ZM14 4C14.5523 4 15 3.55228 15 3C15 2.44772 14.5523 2 14 2V4ZM3.70711 21.7071L6.70711 18.7071L5.29289 17.2929L2.29289 20.2929L3.70711 21.7071ZM2 9V11H4V9H2ZM18 18H19V16H18V18ZM4 21V15H2V21H4ZM5 4H6V2H5V4ZM19 2H18V4H19V2ZM10 18H14V16H10V18ZM10 4H14V2H10V4Z" fill="black"/>
<path d="M22 15C22 14.4477 21.5523 14 21 14C20.4477 14 20 14.4477 20 15H22ZM19 16C18.4477 16 18 16.4477 18 17C18 17.5523 18.4477 18 19 18V16ZM2 5C2 5.55228 2.44772 6 3 6C3.55228 6 4 5.55228 4 5H2ZM5 4C5.55228 4 6 3.55228 6 3C6 2.44772 5.55228 2 5 2V4ZM20 15C20 15.5523 19.5523 16 19 16V18C20.6569 18 22 16.6569 22 15H20ZM4 5C4 4.44772 4.44772 4 5 4V2C3.34315 2 2 3.34315 2 5H4Z" fill="black"/>
<path d="M20 5C20 5.55228 20.4477 6 21 6C21.5523 6 22 5.55228 22 5H20ZM19 2C18.4477 2 18 2.44772 18 3C18 3.55228 18.4477 4 19 4V2ZM20 11C20 11.5523 20.4477 12 21 12C21.5523 12 22 11.5523 22 11H20ZM22 9C22 8.44772 21.5523 8 21 8C20.4477 8 20 8.44772 20 9H22ZM19 4C19.5523 4 20 4.44772 20 5H22C22 3.34315 20.6569 2 19 2V4ZM22 11V9H20V11H22Z" fill="black"/>
</svg>
