<svg width="24" height="24" viewBox="0 0 24 24" fill="none" xmlns="http://www.w3.org/2000/svg">
<path d="M20.6252 14C20.8751 13.193 21.0022 12.3502 21 11.5V11C20.885 8.91568 20.0052 6.94699 18.5291 5.47089C17.053 3.99479 15.0843 3.11502 13 3.00003H12.5C11.1801 2.99659 9.87812 3.30496 8.7 3.90003C7.28825 4.6056 6.10083 5.69028 5.27072 7.03258C4.44061 8.37488 4.00061 9.92179 4 11.5C3.99656 12.8199 4.30493 14.1219 4.9 15.3L3 21L8.7 19.1C9.87812 19.6951 11.1801 20.0035 12.5 20C13.0051 19.9998 13.507 19.9546 14 19.866" stroke="black" stroke-width="2" stroke-linecap="round" stroke-linejoin="round"/>
<path d="M17.2425 12.9701C17.7783 12.8362 18.1041 12.2933 17.9701 11.7575C17.8362 11.2217 17.2933 10.8959 16.7575 11.0299L17.2425 12.9701ZM13 13L12.0513 13.3162C12.2166 13.8119 12.7356 14.0969 13.2425 13.9701L13 13ZM12 10L12.9487 9.68377C12.7834 9.18805 12.2644 8.90312 11.7575 9.02986L12 10ZM7.75746 10.0299C7.22167 10.1638 6.89591 10.7067 7.02986 11.2425C7.16381 11.7783 7.70674 12.1041 8.24254 11.9701L7.75746 10.0299ZM16.7575 11.0299L12.7575 12.0299L13.2425 13.9701L17.2425 12.9701L16.7575 11.0299ZM13.9487 12.6838L12.9487 9.68377L11.0513 10.3162L12.0513 13.3162L13.9487 12.6838ZM11.7575 9.02986L7.75746 10.0299L8.24254 11.9701L12.2425 10.9701L11.7575 9.02986Z" fill="black"/>
<circle cx="20" cy="20" r="2" stroke="black" stroke-width="2"/>
</svg>
