<svg width="24" height="24" viewBox="0 0 24 24" fill="none" xmlns="http://www.w3.org/2000/svg">
<path d="M21 11.5C21.0034 12.8199 20.6951 14.1219 20.1 15.3C19.3944 16.7118 18.3098 17.8992 16.9674 18.7293C15.6251 19.5594 14.0782 19.9994 12.5 20C11.1801 20.0035 9.87812 19.6951 8.7 19.1L3 21L4.9 15.3C4.30493 14.1219 3.99656 12.8199 4 11.5C4.00061 9.92179 4.44061 8.37488 5.27072 7.03258C6.10083 5.69028 7.28825 4.6056 8.7 3.90003C9.87812 3.30496 11.1801 2.99659 12.5 3.00003H13C15.0843 3.11502 17.053 3.99479 18.5291 5.47089C20.0052 6.94699 20.885 8.91568 21 11V11.5Z" stroke="black" stroke-width="2" stroke-linecap="round" stroke-linejoin="round"/>
<path d="M17.2425 12.9701C17.7783 12.8362 18.1041 12.2933 17.9701 11.7575C17.8362 11.2217 17.2933 10.8959 16.7575 11.0299L17.2425 12.9701ZM13 13L12.0513 13.3162C12.2166 13.8119 12.7356 14.0969 13.2425 13.9701L13 13ZM12 10L12.9487 9.68377C12.7834 9.18805 12.2644 8.90312 11.7575 9.02986L12 10ZM7.75746 10.0299C7.22167 10.1638 6.89591 10.7067 7.02986 11.2425C7.16381 11.7783 7.70674 12.1041 8.24254 11.9701L7.75746 10.0299ZM16.7575 11.0299L12.7575 12.0299L13.2425 13.9701L17.2425 12.9701L16.7575 11.0299ZM13.9487 12.6838L12.9487 9.68377L11.0513 10.3162L12.0513 13.3162L13.9487 12.6838ZM11.7575 9.02986L7.75746 10.0299L8.24254 11.9701L12.2425 10.9701L11.7575 9.02986Z" fill="black"/>
</svg>
