<svg width="24" height="24" viewBox="0 0 24 24" fill="none" xmlns="http://www.w3.org/2000/svg">
<path d="M20 3H4C2.89543 3 2 3.89543 2 5V15C2 16.1046 2.89543 17 4 17H20C21.1046 17 22 16.1046 22 15V5C22 3.89543 21.1046 3 20 3Z" stroke="black" stroke-width="2" stroke-linecap="round" stroke-linejoin="round"/>
<path d="M8 21H16" stroke="black" stroke-width="2" stroke-linecap="round" stroke-linejoin="round"/>
<path d="M12 17V21" stroke="black" stroke-width="2" stroke-linecap="round" stroke-linejoin="round"/>
<path d="M11.1362 12.4961C10.8579 12.9732 11.0191 13.5855 11.4961 13.8638C11.9732 14.1421 12.5855 13.9809 12.8638 13.5039L11.1362 12.4961ZM14.6138 10.5039C14.8921 10.0268 14.7309 9.4145 14.2539 9.13622C13.7768 8.85794 13.1645 9.01908 12.8862 9.49613L14.6138 10.5039ZM11 9C11 8.44772 11.4477 8 12 8V6C10.3431 6 9 7.34315 9 9H11ZM12 8C12.5523 8 13 8.44772 13 9H15C15 7.34315 13.6569 6 12 6V8ZM13 9C13 9.55228 12.5523 10 12 10V12C13.6569 12 15 10.6569 15 9H13ZM12 10C11.4477 10 11 9.55228 11 9H9C9 10.6569 10.3431 12 12 12V10ZM12.8638 13.5039L14.6138 10.5039L12.8862 9.49613L11.1362 12.4961L12.8638 13.5039Z" fill="black"/>
</svg>
