<svg width="24" height="24" viewBox="0 0 24 24" fill="none" xmlns="http://www.w3.org/2000/svg">
<path d="M20 3H4C2.89543 3 2 3.89543 2 5V15C2 16.1046 2.89543 17 4 17H20C21.1046 17 22 16.1046 22 15V5C22 3.89543 21.1046 3 20 3Z" stroke="black" stroke-width="2" stroke-linecap="round" stroke-linejoin="round"/>
<path d="M8 21H16" stroke="black" stroke-width="2" stroke-linecap="round" stroke-linejoin="round"/>
<path d="M12 17V21" stroke="black" stroke-width="2" stroke-linecap="round" stroke-linejoin="round"/>
<path d="M11.1332 11.4993C10.8566 11.0212 10.2449 10.8579 9.76684 11.1344C9.28878 11.411 9.12541 12.0227 9.40196 12.5007L11.1332 11.4993ZM13 9.26758L12.085 8.86407C11.8792 9.33085 12.0577 9.87774 12.4993 10.1332L13 9.26758ZM10 6C9.44772 6 9 6.44772 9 7C9 7.55228 9.44772 8 10 8V6ZM14 7L14.915 7.4035C15.0514 7.09424 15.0223 6.73702 14.8377 6.45388C14.6531 6.17074 14.338 6 14 6V7ZM13 11C13 11.5523 12.5523 12 12 12V14C13.6569 14 15 12.6569 15 11H13ZM12 12C11.6311 12 11.3076 11.8008 11.1332 11.4993L9.40196 12.5007C9.91916 13.3948 10.8883 14 12 14V12ZM12.4993 10.1332C12.8008 10.3076 13 10.6311 13 11H15C15 9.88833 14.3948 8.91918 13.5007 8.40197L12.4993 10.1332ZM10 8H14V6H10V8ZM13.085 6.5965L12.085 8.86407L13.915 9.67108L14.915 7.4035L13.085 6.5965Z" fill="black"/>
</svg>
