<svg width="24" height="24" viewBox="0 0 24 24" fill="none" xmlns="http://www.w3.org/2000/svg">
<path d="M20 3H4C2.89543 3 2 3.89543 2 5V15C2 16.1046 2.89543 17 4 17H20C21.1046 17 22 16.1046 22 15V5C22 3.89543 21.1046 3 20 3Z" stroke="black" stroke-width="2" stroke-linecap="round" stroke-linejoin="round"/>
<path d="M8 21H16" stroke="black" stroke-width="2" stroke-linecap="round" stroke-linejoin="round"/>
<path d="M12 17V21" stroke="black" stroke-width="2" stroke-linecap="round" stroke-linejoin="round"/>
<path d="M12.8638 7.50387C13.1421 7.02682 12.9809 6.4145 12.5039 6.13622C12.0268 5.85794 11.4145 6.01908 11.1362 6.49613L12.8638 7.50387ZM9.38622 9.49613C9.10794 9.97318 9.26908 10.5855 9.74613 10.8638C10.2232 11.1421 10.8355 10.9809 11.1138 10.5039L9.38622 9.49613ZM13 11C13 11.5523 12.5523 12 12 12V14C13.6569 14 15 12.6569 15 11H13ZM12 12C11.4477 12 11 11.5523 11 11H9C9 12.6569 10.3431 14 12 14V12ZM11 11C11 10.4477 11.4477 10 12 10V8C10.3431 8 9 9.34315 9 11H11ZM12 10C12.5523 10 13 10.4477 13 11H15C15 9.34315 13.6569 8 12 8V10ZM11.1362 6.49613L9.38622 9.49613L11.1138 10.5039L12.8638 7.50387L11.1362 6.49613Z" fill="black"/>
</svg>
