<svg width="24" height="24" viewBox="0 0 24 24" fill="none" xmlns="http://www.w3.org/2000/svg">
<path d="M20 3H4C2.89543 3 2 3.89543 2 5V15C2 16.1046 2.89543 17 4 17H20C21.1046 17 22 16.1046 22 15V5C22 3.89543 21.1046 3 20 3Z" stroke="black" stroke-width="2" stroke-linecap="round" stroke-linejoin="round"/>
<path d="M8 21H16" stroke="black" stroke-width="2" stroke-linecap="round" stroke-linejoin="round"/>
<path d="M12 17V21" stroke="black" stroke-width="2" stroke-linecap="round" stroke-linejoin="round"/>
<path d="M9 9C9 9.55228 9.44772 10 10 10C10.5523 10 11 9.55228 11 9H9ZM14 14C14.5523 14 15 13.5523 15 13C15 12.4477 14.5523 12 14 12V14ZM10 13L9.4 12.2C9.05566 12.4583 8.9152 12.9079 9.05132 13.3162C9.18743 13.7246 9.56957 14 10 14V13ZM13.2162 10.5879L13.8162 11.3879L13.8248 11.3813L13.2162 10.5879ZM11 9C11 8.44772 11.4477 8 12 8V6C10.3431 6 9 7.34315 9 9H11ZM12 8C12.5523 8 13 8.44772 13 9H15C15 7.34315 13.6569 6 12 6V8ZM14 12H10V14H14V12ZM10.6 13.8L13.8162 11.3879L12.6162 9.78788L9.4 12.2L10.6 13.8ZM13 9C13 9.32294 12.848 9.60996 12.6075 9.79442L13.8248 11.3813C14.5375 10.8347 15 9.97115 15 9H13Z" fill="black"/>
</svg>
