<svg width="24" height="24" viewBox="0 0 24 24" fill="none" xmlns="http://www.w3.org/2000/svg">
<path d="M20 3H4C2.89543 3 2 3.89543 2 5V15C2 16.1046 2.89543 17 4 17H20C21.1046 17 22 16.1046 22 15V5C22 3.89543 21.1046 3 20 3Z" stroke="black" stroke-width="2" stroke-linecap="round" stroke-linejoin="round"/>
<path d="M8 21H16" stroke="black" stroke-width="2" stroke-linecap="round" stroke-linejoin="round"/>
<path d="M12 17V21" stroke="black" stroke-width="2" stroke-linecap="round" stroke-linejoin="round"/>
<path d="M11 13C11 13.5523 11.4477 14 12 14C12.5523 14 13 13.5523 13 13H11ZM12 11V10C11.4477 10 11 10.4477 11 11H12ZM14 12C14.5523 12 15 11.5523 15 11C15 10.4477 14.5523 10 14 10V12ZM10 11L9.10557 10.5528C8.95058 10.8628 8.96714 11.2309 9.14935 11.5257C9.33156 11.8205 9.65342 12 10 12V11ZM12.8944 7.44721C13.1414 6.95324 12.9412 6.35256 12.4472 6.10557C11.9532 5.85858 11.3526 6.05881 11.1056 6.55279L12.8944 7.44721ZM13 13V11H11V13H13ZM12 12H14V10H12V12ZM14 10H10V12H14V10ZM10.8944 11.4472L12.8944 7.44721L11.1056 6.55279L9.10557 10.5528L10.8944 11.4472Z" fill="black"/>
</svg>
