<svg width="24" height="24" viewBox="0 0 24 24" fill="none" xmlns="http://www.w3.org/2000/svg">
<path d="M11 17L10.0299 16.7575C9.95517 17.0562 10.0223 17.3727 10.2118 17.6154C10.4013 17.8581 10.6921 18 11 18V17ZM12 13L12.9701 13.2425C13.0553 12.9018 12.9555 12.5413 12.7071 12.2929L12 13ZM9 10V9C8.59554 9 8.2309 9.24364 8.07612 9.61732C7.92134 9.99099 8.0069 10.4211 8.29289 10.7071L9 10ZM14 10L14.7071 9.29289L14.7071 9.29289L14 10ZM18 17V18C18.3079 18 18.5987 17.8581 18.7882 17.6154C18.9777 17.3727 19.0448 17.0562 18.9701 16.7575L18 17ZM12 8L11.0159 7.82245C10.9577 8.14491 11.0612 8.47541 11.2929 8.70711L12 8ZM11.9701 17.2425L12.9701 13.2425L11.0299 12.7575L10.0299 16.7575L11.9701 17.2425ZM12.7071 12.2929L9.70711 9.29289L8.29289 10.7071L11.2929 13.7071L12.7071 12.2929ZM9 11H14V9H9V11ZM13.2929 10.7071L16.2929 13.7071L17.7071 12.2929L14.7071 9.29289L13.2929 10.7071ZM16.0299 13.2425L17.0299 17.2425L18.9701 16.7575L17.9701 12.7575L16.0299 13.2425ZM11 18H18V16H11V18ZM11.2929 8.70711L13.2929 10.7071L14.7071 9.29289L12.7071 7.29289L11.2929 8.70711ZM15.5 5C13.6975 5 12.5495 5.58422 11.8533 6.30552C11.5172 6.65374 11.3128 7.00719 11.1908 7.28322C11.1298 7.42126 11.0888 7.54109 11.0619 7.6333C11.0483 7.6795 11.0383 7.71906 11.0308 7.75086C11.0271 7.76678 11.0241 7.78079 11.0216 7.79275C11.0204 7.79874 11.0193 7.80421 11.0184 7.80917C11.0179 7.81165 11.0174 7.81399 11.017 7.81621C11.0168 7.81731 11.0166 7.81839 11.0164 7.81943C11.0163 7.81995 11.0162 7.82071 11.0162 7.82096C11.016 7.82171 11.0159 7.82245 12 8C12.9841 8.17755 12.984 8.17827 12.9839 8.17899C12.9838 8.17922 12.9837 8.17993 12.9836 8.18039C12.9834 8.18131 12.9833 8.1822 12.9831 8.18306C12.9828 8.18479 12.9825 8.18642 12.9822 8.18793C12.9816 8.19096 12.9811 8.19357 12.9806 8.19577C12.9797 8.20017 12.9791 8.20295 12.9788 8.20422C12.9782 8.20672 12.9789 8.20332 12.9814 8.19482C12.9864 8.17766 12.9982 8.14124 13.0201 8.09178C13.0638 7.99281 13.1458 7.84626 13.2923 7.69448C13.5613 7.41578 14.1633 7 15.5 7V5ZM17 13C17.2425 13.9701 17.2431 13.97 17.2437 13.9699C17.2439 13.9698 17.2445 13.9697 17.2449 13.9696C17.2457 13.9694 17.2465 13.9691 17.2474 13.9689C17.2491 13.9685 17.251 13.968 17.253 13.9675C17.257 13.9664 17.2615 13.9652 17.2665 13.9639C17.2766 13.9612 17.2886 13.9578 17.3025 13.9538C17.3302 13.9457 17.3655 13.9348 17.4072 13.9206C17.4906 13.8923 17.6009 13.8507 17.7292 13.7919C17.9841 13.675 18.3208 13.4856 18.6585 13.1901C19.36 12.5763 20 11.5583 20 10H18C18 10.9417 17.64 11.4237 17.3415 11.6849C17.1792 11.8269 17.0159 11.9187 16.8958 11.9737C16.8366 12.0009 16.7907 12.0178 16.7646 12.0267C16.7517 12.031 16.744 12.0333 16.7425 12.0338C16.7417 12.034 16.7425 12.0338 16.7449 12.0331C16.7462 12.0328 16.7478 12.0323 16.7499 12.0318C16.7509 12.0315 16.7521 12.0312 16.7533 12.0309C16.754 12.0307 16.7546 12.0306 16.7553 12.0304C16.7557 12.0303 16.7562 12.0302 16.7564 12.0301C16.7569 12.03 16.7575 12.0299 17 13ZM15.5 7C16.2387 7 16.8379 7.27084 17.2601 7.73517C17.6874 8.20525 18 8.94968 18 10H20C20 8.55032 19.5626 7.29475 18.7399 6.38983C17.9121 5.47916 16.7613 5 15.5 5V7Z" fill="black"/>
<path d="M6 9C5.44772 9 5 9.44772 5 10C5 10.5523 5.44772 11 6 11V9ZM6.01 11C6.56228 11 7.01 10.5523 7.01 10C7.01 9.44772 6.56228 9 6.01 9V11ZM6 11H6.01V9H6V11Z" fill="black"/>
<path d="M3 22H21" stroke="black" stroke-width="2" stroke-linecap="round" stroke-linejoin="round"/>
</svg>
