<svg width="24" height="24" viewBox="0 0 24 24" fill="none" xmlns="http://www.w3.org/2000/svg">
<path d="M17 15V16C17.5523 16 18 15.5523 18 15H17ZM18 4C18 3.44772 17.5523 3 17 3C16.4477 3 16 3.44772 16 4H18ZM8 4C8 3.44772 7.55228 3 7 3C6.44772 3 6 3.44772 6 4H8ZM6 20C6 20.5523 6.44772 21 7 21C7.55228 21 8 20.5523 8 20H6ZM12 14C9.79086 14 8 12.2091 8 10H6C6 13.3137 8.68629 16 12 16V14ZM12 16H17V14H12V16ZM18 15V4H16V15H18ZM6 4V10H8V4H6ZM6 10V20H8V10H6Z" fill="black"/>
<path d="M18 18L22 22" stroke="black" stroke-width="2" stroke-linecap="round" stroke-linejoin="round"/>
<path d="M22 18L18 22" stroke="black" stroke-width="2" stroke-linecap="round" stroke-linejoin="round"/>
</svg>
