<svg width="24" height="24" viewBox="0 0 24 24" fill="none" xmlns="http://www.w3.org/2000/svg">
<path d="M21 4H22C22 3.59554 21.7564 3.2309 21.3827 3.07612C21.009 2.92134 20.5789 3.0069 20.2929 3.29289L21 4ZM20 20C20 20.5523 20.4477 21 21 21C21.5523 21 22 20.5523 22 20H20ZM3 6L3.70711 5.29289C3.42111 5.0069 2.99099 4.92134 2.61732 5.07612C2.24364 5.2309 2 5.59554 2 6H3ZM3 20H2C2 20.4045 2.24364 20.7691 2.61732 20.9239C2.99099 21.0787 3.42111 20.9931 3.70711 20.7071L3 20ZM10 13L10.7071 13.7071C11.0976 13.3166 11.0976 12.6834 10.7071 12.2929L10 13ZM7.70711 3.29289C7.31658 2.90237 6.68342 2.90237 6.29289 3.29289C5.90237 3.68342 5.90237 4.31658 6.29289 4.70711L7.70711 3.29289ZM14 11L13.2929 11.7071C13.6834 12.0976 14.3166 12.0976 14.7071 11.7071L14 11ZM20 4V20H22V4H20ZM2 6V20H4V6H2ZM3.70711 20.7071L10.7071 13.7071L9.29289 12.2929L2.29289 19.2929L3.70711 20.7071ZM10.7071 12.2929L3.70711 5.29289L2.29289 6.70711L9.29289 13.7071L10.7071 12.2929ZM6.29289 4.70711L13.2929 11.7071L14.7071 10.2929L7.70711 3.29289L6.29289 4.70711ZM14.7071 11.7071L21.7071 4.70711L20.2929 3.29289L13.2929 10.2929L14.7071 11.7071Z" fill="black"/>
</svg>
