<svg width="24" height="24" viewBox="0 0 24 24" fill="none" xmlns="http://www.w3.org/2000/svg">
<path d="M16 2H17C17 1.64128 16.8079 1.31004 16.4965 1.13195C16.1851 0.953855 15.8022 0.956189 15.493 1.13807L16 2ZM16 5H15C15 5.55228 15.4477 6 16 6L16 5ZM21 5.00004H22C22 4.44776 21.5523 4.00005 21 4.00004L21 5.00004ZM16 9.00004V8.00004C15.4477 8.00004 15 8.44776 15 9.00004H16ZM16 12L15.493 12.862C15.8022 13.0439 16.1851 13.0462 16.4965 12.8681C16.8079 12.69 17 12.3588 17 12H16ZM3 7.00004V6.00004C2.44772 6.00004 2 6.44776 2 7.00004H3ZM3 19H2C2 19.5523 2.44772 20 3 20V19ZM8 19H9C9 18.4478 8.55228 18 8 18V19ZM8 22H7C7 22.3588 7.19214 22.69 7.50352 22.8681C7.81491 23.0462 8.19783 23.0439 8.50702 22.862L8 22ZM8 12L8.50702 11.1381C8.19783 10.9562 7.81491 10.9539 7.50352 11.132C7.19214 11.3101 7 11.6413 7 12H8ZM8 15V16C8.55228 16 9 15.5523 9 15H8ZM21 17V18C21.5523 18 22 17.5523 22 17H21ZM8.00702 7.86197L16.507 2.86193L15.493 1.13807L6.99298 6.13811L8.00702 7.86197ZM15 2V5H17V2H15ZM16 6L21 6.00004L21 4.00004L16 4L16 6ZM20 5.00004V9.00004H22V5.00004H20ZM21 8.00004H16V10H21V8.00004ZM15 9.00004V12H17V9.00004H15ZM16.507 11.1381L8.00702 6.13811L6.99298 7.86198L15.493 12.862L16.507 11.1381ZM3 20H8V18H3V20ZM7 19V22H9V19H7ZM8.50702 22.862L17.007 17.862L15.993 16.1381L7.49298 21.1381L8.50702 22.862ZM17.007 16.1381L8.50702 11.1381L7.49298 12.862L15.993 17.862L17.007 16.1381ZM7 12V15H9V12H7ZM2 7.00004V15H4V7.00004H2ZM2 15V19H4V15H2ZM8 14H3V16H8V14ZM22 17V9.00004H20V17H22ZM7.5 6.00004H3V8.00004H7.5V6.00004ZM16.5 18H21V16H16.5V18Z" fill="black"/>
</svg>
