<svg width="24" height="24" viewBox="0 0 24 24" fill="none" xmlns="http://www.w3.org/2000/svg">
<path d="M13 12C12.4477 12 12 12.4477 12 13C12 13.5523 12.4477 14 13 14V12ZM13.01 14C13.5623 14 14.01 13.5523 14.01 13C14.01 12.4477 13.5623 12 13.01 12V14ZM13 14H13.01V12H13V14Z" fill="black"/>
<path d="M4 6V5C3.44772 5 3 5.44772 3 6H4ZM20 8.5C20 7.94772 19.5523 7.5 19 7.5C18.4477 7.5 18 7.94772 18 8.5H20ZM15.9338 13.4336L14.9415 13.5578C14.9817 13.879 15.1749 14.1608 15.4599 14.3142C15.745 14.4676 16.0866 14.4735 16.3768 14.3301L15.9338 13.4336ZM9.70711 4.70711C10.0976 4.31658 10.0976 3.68342 9.70711 3.29289C9.31658 2.90237 8.68342 2.90237 8.29289 3.29289L9.70711 4.70711ZM16.9999 9.01494C17.0081 8.46272 16.5672 8.00836 16.0149 8.00011C15.4627 7.99186 15.0084 8.43284 15.0001 8.98506L16.9999 9.01494ZM14 19C11.3602 19 9.01967 18.4629 7.37615 17.6411C5.67281 16.7894 5 15.7979 5 15H3C3 16.9635 4.56577 18.472 6.48172 19.43C8.45748 20.4178 11.117 21 14 21V19ZM18 15C18 17.2091 16.2091 19 14 19V21C17.3137 21 20 18.3137 20 15H18ZM3 6V15H5V6H3ZM18 8.5C18 10.2689 16.9795 11.8012 15.4907 12.5371L16.3768 14.3301C18.5215 13.2701 20 11.0586 20 8.5H18ZM7.5 7C11.3227 7 14.4787 9.86082 14.9415 13.5578L16.926 13.3094C16.3396 8.62424 12.3438 5 7.5 5V7ZM18 8.5V15H20V8.5H18ZM7.5 5H7V7H7.5V5ZM7 5H4V7H7V5ZM7.70711 6.70711L9.70711 4.70711L8.29289 3.29289L6.29289 5.29289L7.70711 6.70711ZM16.9336 13.4485L16.9999 9.01494L15.0001 8.98506L14.9339 13.4187L16.9336 13.4485Z" fill="black"/>
</svg>
