<svg width="24" height="24" viewBox="0 0 24 24" fill="none" xmlns="http://www.w3.org/2000/svg">
<path d="M8 2C7.44772 2 7 2.44772 7 3C7 3.55228 7.44772 4 8 4V2ZM20 16C20 16.5523 20.4477 17 21 17C21.5523 17 22 16.5523 22 16H20ZM7 15C6.44772 15 6 15.4477 6 16C6 16.5523 6.44772 17 7 17V15ZM7.01 17C7.56228 17 8.01 16.5523 8.01 16C8.01 15.4477 7.56228 15 7.01 15V17ZM6 13C6 13.5523 6.44772 14 7 14C7.55228 14 8 13.5523 8 13H6ZM8 8C8 7.44772 7.55228 7 7 7C6.44772 7 6 7.44772 6 8H8ZM10 16C10 16.5523 10.4477 17 11 17C11.5523 17 12 16.5523 12 16H10ZM12 11C12 10.4477 11.5523 10 11 10C10.4477 10 10 10.4477 10 11H12ZM14.2929 9.29289C13.9024 9.68342 13.9024 10.3166 14.2929 10.7071C14.6834 11.0976 15.3166 11.0976 15.7071 10.7071L14.2929 9.29289ZM17 8H18C18 7.59554 17.7564 7.2309 17.3827 7.07612C17.009 6.92134 16.5789 7.0069 16.2929 7.29289L17 8ZM16 12C16 12.5523 16.4477 13 17 13C17.5523 13 18 12.5523 18 12H16ZM1.70711 0.292893C1.31658 -0.0976311 0.683417 -0.0976311 0.292893 0.292893C-0.0976311 0.683417 -0.0976311 1.31658 0.292893 1.70711L1.70711 0.292893ZM22.2929 23.7071C22.6834 24.0976 23.3166 24.0976 23.7071 23.7071C24.0976 23.3166 24.0976 22.6834 23.7071 22.2929L22.2929 23.7071ZM8 4H19V2H8V4ZM19 4C19.5523 4 20 4.44771 20 5H22C22 3.34315 20.6569 2 19 2V4ZM20 5V16H22V5H20ZM19 20H5V22H19V20ZM5 20C4.44771 20 4 19.5523 4 19H2C2 20.6569 3.34315 22 5 22V20ZM4 19V5H2V19H4ZM7 17H7.01V15H7V17ZM8 13V8H6V13H8ZM12 16V11H10V16H12ZM15.7071 10.7071L17.7071 8.70711L16.2929 7.29289L14.2929 9.29289L15.7071 10.7071ZM16 8V12H18V8H16ZM0.292893 1.70711L2.87868 4.29289L4.29289 2.87868L1.70711 0.292893L0.292893 1.70711ZM4 5C4 4.72358 4.11083 4.47495 4.29289 4.29289L2.87868 2.87868C2.33688 3.42048 2 4.17185 2 5H4ZM2.87868 4.29289L19.7071 21.1213L21.1213 19.7071L4.29289 2.87868L2.87868 4.29289ZM19.7071 21.1213L22.2929 23.7071L23.7071 22.2929L21.1213 19.7071L19.7071 21.1213ZM19.7071 19.7071C19.525 19.8892 19.2764 20 19 20V22C19.8282 22 20.5795 21.6631 21.1213 21.1213L19.7071 19.7071Z" fill="black"/>
</svg>
