<svg width="24" height="24" viewBox="0 0 24 24" fill="none" xmlns="http://www.w3.org/2000/svg">
<path d="M19 3H5C3.89543 3 3 3.89543 3 5V19C3 20.1046 3.89543 21 5 21H19C20.1046 21 21 20.1046 21 19V5C21 3.89543 20.1046 3 19 3Z" stroke="black" stroke-width="2" stroke-linecap="round" stroke-linejoin="round"/>
<path d="M7 15C6.44772 15 6 15.4477 6 16C6 16.5523 6.44772 17 7 17V15ZM7.01 17C7.56228 17 8.01 16.5523 8.01 16C8.01 15.4477 7.56228 15 7.01 15V17ZM6 13C6 13.5523 6.44772 14 7 14C7.55228 14 8 13.5523 8 13H6ZM8 8C8 7.44772 7.55228 7 7 7C6.44772 7 6 7.44772 6 8H8ZM10 16C10 16.5523 10.4477 17 11 17C11.5523 17 12 16.5523 12 16H10ZM11 8L11.7071 7.29289C11.4211 7.0069 10.991 6.92134 10.6173 7.07612C10.2436 7.2309 10 7.59554 10 8H11ZM14 11L13.2929 11.7071C13.6834 12.0976 14.3166 12.0976 14.7071 11.7071L14 11ZM17 8H18C18 7.59554 17.7564 7.2309 17.3827 7.07612C17.009 6.92134 16.5789 7.0069 16.2929 7.29289L17 8ZM16 16C16 16.5523 16.4477 17 17 17C17.5523 17 18 16.5523 18 16H16ZM7 17H7.01V15H7V17ZM8 13V8H6V13H8ZM12 16V8H10V16H12ZM10.2929 8.70711L13.2929 11.7071L14.7071 10.2929L11.7071 7.29289L10.2929 8.70711ZM14.7071 11.7071L17.7071 8.70711L16.2929 7.29289L13.2929 10.2929L14.7071 11.7071ZM16 8V16H18V8H16Z" fill="black"/>
</svg>
