<svg width="24" height="24" viewBox="0 0 24 24" fill="none" xmlns="http://www.w3.org/2000/svg">
<path d="M7 19C6.44772 19 6 19.4477 6 20C6 20.5523 6.44772 21 7 21V19ZM18 21C18.5523 21 19 20.5523 19 20C19 19.4477 18.5523 19 18 19V21ZM12.5 4H13.5C13.5 3.44772 13.0523 3 12.5 3V4ZM9.5 3C8.94772 3 8.5 3.44772 8.5 4C8.5 4.55228 8.94772 5 9.5 5V3ZM13.5 12.5C13.5 11.9477 13.0523 11.5 12.5 11.5C11.9477 11.5 11.5 11.9477 11.5 12.5H13.5ZM11.5 7C11.5 7.55228 11.9477 8 12.5 8C13.0523 8 13.5 7.55228 13.5 7H11.5ZM7 21H12.5V19H7V21ZM12.5 21H18V19H12.5V21ZM12.5 3H9.5V5H12.5V3ZM13.5 20V12.5H11.5V20H13.5ZM13.5 7V4H11.5V7H13.5Z" fill="black"/>
<path d="M1 1L23 23" stroke="black" stroke-width="2" stroke-linecap="round" stroke-linejoin="round"/>
</svg>
