<svg width="24" height="24" viewBox="0 0 24 24" fill="none" xmlns="http://www.w3.org/2000/svg">
<path d="M8.5 7C9.05228 7 9.5 6.55228 9.5 6C9.5 5.44772 9.05228 5 8.5 5V7ZM8.23688 18.4648C8.76971 18.6101 9.31945 18.2959 9.46476 17.7631C9.61008 17.2303 9.29594 16.6806 8.76312 16.5352L8.23688 18.4648ZM12.8162 8.05132C12.2923 7.87667 11.726 8.15983 11.5513 8.68377C11.3767 9.20772 11.6598 9.77404 12.1838 9.94868L12.8162 8.05132ZM15 10.5L15.7071 11.2071C16.0976 10.8166 16.0976 10.1834 15.7071 9.79289L15 10.5ZM12.6104 5.00612C12.0615 4.94513 11.5671 5.34066 11.5061 5.88957C11.4451 6.43848 11.8407 6.93289 12.3896 6.99388L12.6104 5.00612ZM19.5 10.5L20.3944 10.9472C20.5502 10.6356 20.5326 10.2654 20.348 9.97L19.5 10.5ZM12.5 13.5C11.9477 13.5 11.5 13.9477 11.5 14.5C11.5 15.0523 11.9477 15.5 12.5 15.5V13.5ZM12.5 17C11.9477 17 11.5 17.4477 11.5 18C11.5 18.5523 11.9477 19 12.5 19V17ZM22.5547 15.8321C23.0142 15.5257 23.1384 14.9048 22.8321 14.4453C22.5257 13.9858 21.9048 13.8616 21.4453 14.1679L22.5547 15.8321ZM8.74254 9.97014C9.27833 9.83619 9.60409 9.29326 9.47014 8.75746C9.33619 8.22167 8.79326 7.89591 8.25746 8.02986L8.74254 9.97014ZM5.5 11L4.66795 10.4453C4.49677 10.7021 4.45373 11.0235 4.55132 11.3162L5.5 11ZM7.9855 14.8575C8.45908 15.1416 9.07334 14.9881 9.35749 14.5145C9.64164 14.0409 9.48808 13.4267 9.0145 13.1425L7.9855 14.8575ZM14 10C13.4477 10 13 10.4477 13 11C13 11.5523 13.4477 12 14 12V10ZM9.5 3.5C9.5 4.05228 9.94772 4.5 10.5 4.5C11.0523 4.5 11.5 4.05228 11.5 3.5H9.5ZM10.5 2.5V1.5C9.94772 1.5 9.5 1.94772 9.5 2.5H10.5ZM21.5 2.5H22.5C22.5 1.94772 22.0523 1.5 21.5 1.5V2.5ZM20.5 8C20.5 8.55228 20.9477 9 21.5 9C22.0523 9 22.5 8.55228 22.5 8H20.5ZM11.5 20.5C11.5 19.9477 11.0523 19.5 10.5 19.5C9.94772 19.5 9.5 19.9477 9.5 20.5H11.5ZM10.5 21.5H9.5C9.5 22.0523 9.94772 22.5 10.5 22.5V21.5ZM21.5 21.5V22.5C22.0523 22.5 22.5 22.0523 22.5 21.5H21.5ZM22.5 19C22.5 18.4477 22.0523 18 21.5 18C20.9477 18 20.5 18.4477 20.5 19H22.5ZM8.5 5C6.65975 5 4.81241 6.04445 3.50031 7.09413C2.82591 7.63365 2.24019 8.21617 1.81288 8.7503C1.60001 9.0164 1.41236 9.28799 1.2729 9.55082C1.14808 9.78606 1 10.1267 1 10.5H3C3 10.6233 2.9613 10.6358 3.0396 10.4882C3.10327 10.3683 3.21249 10.2024 3.37462 9.9997C3.69731 9.59633 4.17409 9.11635 4.7497 8.65587C5.9376 7.70555 7.34026 7 8.5 7V5ZM1 10.5C1 11.2058 1.31306 12.769 2.34989 14.3588C3.41129 15.9862 5.2337 17.6457 8.23688 18.4648L8.76312 16.5352C6.2663 15.8543 4.83871 14.5138 4.02511 13.2662C3.18694 11.981 3 10.7942 3 10.5H1ZM12.1838 9.94868C12.8121 10.1581 13.3478 10.4773 13.7313 10.7512C13.921 10.8868 14.0683 11.0075 14.1654 11.0916C14.2138 11.1336 14.2493 11.1661 14.2709 11.1863C14.2818 11.1964 14.2891 11.2035 14.2928 11.2071C14.2946 11.2089 14.2956 11.2098 14.2956 11.2098C14.2956 11.2098 14.2954 11.2096 14.295 11.2092C14.2947 11.2089 14.2944 11.2087 14.2941 11.2083C14.2939 11.2081 14.2937 11.208 14.2935 11.2078C14.2934 11.2077 14.2933 11.2075 14.2932 11.2074C14.2931 11.2073 14.2929 11.2071 15 10.5C15.7071 9.79289 15.7069 9.79272 15.7067 9.79254C15.7067 9.79247 15.7065 9.79229 15.7064 9.79216C15.7061 9.79189 15.7058 9.79162 15.7055 9.79133C15.7049 9.79074 15.7043 9.7901 15.7036 9.78939C15.7022 9.78797 15.7005 9.78632 15.6986 9.78442C15.6947 9.78063 15.6899 9.77588 15.684 9.77023C15.6723 9.75893 15.6567 9.74398 15.6373 9.72578C15.5984 9.6894 15.544 9.63987 15.4752 9.58025C15.3379 9.46123 15.1415 9.30071 14.8937 9.12377C14.4022 8.77268 13.6879 8.34187 12.8162 8.05132L12.1838 9.94868ZM12.3896 6.99388C14.3639 7.21325 15.9271 8.20422 17.0207 9.18274C17.5643 9.66916 17.9794 10.1416 18.2566 10.4899C18.3949 10.6636 18.4978 10.8051 18.5642 10.9001C18.5974 10.9476 18.6214 10.9834 18.6361 11.0057C18.6435 11.0168 18.6485 11.0245 18.6511 11.0287C18.6525 11.0307 18.6532 11.0319 18.6533 11.0321C18.6534 11.0322 18.6533 11.0321 18.6531 11.0318C18.653 11.0316 18.6529 11.0314 18.6527 11.0311C18.6526 11.0309 18.6524 11.0307 18.6524 11.0306C18.6522 11.0303 18.652 11.03 19.5 10.5C20.348 9.97 20.3478 9.96967 20.3476 9.96933C20.3475 9.9692 20.3473 9.96884 20.3471 9.96857C20.3468 9.96803 20.3464 9.96743 20.346 9.96677C20.3451 9.96544 20.3441 9.96388 20.343 9.96207C20.3407 9.95845 20.3378 9.95387 20.3343 9.94835C20.3272 9.93732 20.3176 9.92254 20.3055 9.90426C20.2814 9.86769 20.2473 9.81704 20.2034 9.75417C20.1155 9.62852 19.9879 9.45357 19.8215 9.24444C19.4894 8.82714 18.9982 8.26834 18.3543 7.69226C17.0729 6.54578 15.1361 5.28675 12.6104 5.00612L12.3896 6.99388ZM19.5 10.5C18.6056 10.0528 18.6058 10.0524 18.606 10.052C18.606 10.0518 18.6062 10.0514 18.6064 10.0512C18.6066 10.0508 18.6068 10.0503 18.607 10.05C18.6073 10.0493 18.6076 10.0489 18.6077 10.0486C18.6079 10.0482 18.6077 10.0486 18.607 10.05C18.6055 10.0527 18.6022 10.059 18.597 10.0686C18.5866 10.0879 18.5686 10.1204 18.5428 10.1642C18.491 10.252 18.4084 10.3845 18.2934 10.547C18.0624 10.873 17.7054 11.3128 17.2106 11.7526C16.2294 12.6248 14.7072 13.5 12.5 13.5V15.5C15.2928 15.5 17.2706 14.3752 18.5394 13.2474C19.1696 12.6872 19.6251 12.127 19.9254 11.703C20.0759 11.4905 20.1887 11.3105 20.2658 11.1796C20.3045 11.114 20.3343 11.0606 20.3556 11.0212C20.3663 11.0015 20.3748 10.9854 20.3813 10.9729C20.3845 10.9667 20.3872 10.9615 20.3894 10.9572C20.3905 10.955 20.3915 10.9531 20.3923 10.9515C20.3927 10.9506 20.3931 10.9499 20.3935 10.9491C20.3936 10.9488 20.3939 10.9483 20.394 10.9481C20.3942 10.9477 20.3944 10.9472 19.5 10.5ZM12.5 19C15.1873 19 17.7032 18.1973 19.5189 17.4191C20.4327 17.0275 21.1839 16.6357 21.709 16.3403C21.9719 16.1925 22.179 16.0683 22.3224 15.9797C22.3941 15.9354 22.45 15.9 22.489 15.8749C22.5085 15.8623 22.5238 15.8524 22.5348 15.8452C22.5403 15.8416 22.5447 15.8387 22.548 15.8365C22.5497 15.8354 22.5511 15.8344 22.5522 15.8337C22.5528 15.8333 22.5532 15.833 22.5537 15.8327C22.5539 15.8326 22.5541 15.8324 22.5542 15.8324C22.5545 15.8322 22.5547 15.8321 22 15C21.4453 14.1679 21.4455 14.1678 21.4457 14.1677C21.4457 14.1677 21.4459 14.1676 21.4459 14.1675C21.4461 14.1674 21.4461 14.1674 21.4462 14.1674C21.4462 14.1674 21.4459 14.1675 21.4454 14.1679C21.4443 14.1686 21.4422 14.17 21.4391 14.1721C21.4327 14.1762 21.4221 14.1831 21.4075 14.1925C21.3782 14.2114 21.3325 14.2404 21.2714 14.2781C21.1492 14.3536 20.9656 14.4638 20.7285 14.5972C20.2536 14.8643 19.5673 15.2225 18.7311 15.5809C17.0468 16.3027 14.8127 17 12.5 17V19ZM8.25746 8.02986C7.06551 8.32785 6.17747 8.92219 5.5915 9.43492C5.29761 9.69208 5.07496 9.93273 4.92259 10.1137C4.84622 10.2044 4.78693 10.2807 4.74464 10.3376C4.72348 10.366 4.70652 10.3896 4.69376 10.4078C4.68737 10.4168 4.68203 10.4246 4.67773 10.4308C4.67558 10.434 4.67369 10.4368 4.67206 10.4392C4.67125 10.4404 4.6705 10.4415 4.66981 10.4425C4.66947 10.443 4.66914 10.4435 4.66883 10.444C4.66868 10.4442 4.66846 10.4445 4.66838 10.4447C4.66816 10.445 4.66795 10.4453 5.5 11C6.33205 11.5547 6.33185 11.555 6.33164 11.5553C6.33158 11.5554 6.33138 11.5557 6.33126 11.5559C6.33101 11.5563 6.33078 11.5566 6.33056 11.5569C6.33011 11.5576 6.32973 11.5582 6.3294 11.5586C6.32875 11.5596 6.32833 11.5602 6.32813 11.5605C6.32774 11.5611 6.32825 11.5603 6.32968 11.5583C6.33254 11.5542 6.33902 11.5451 6.34911 11.5316C6.36932 11.5044 6.40378 11.4597 6.45241 11.4019C6.55004 11.286 6.70239 11.1204 6.9085 10.9401C7.32253 10.5778 7.93449 10.1722 8.74254 9.97014L8.25746 8.02986ZM5.5 11C4.55132 11.3162 4.5515 11.3168 4.55169 11.3174C4.55176 11.3176 4.55195 11.3181 4.55208 11.3185C4.55235 11.3193 4.55262 11.3201 4.55291 11.321C4.55347 11.3226 4.55407 11.3244 4.55471 11.3262C4.55598 11.33 4.55741 11.334 4.55898 11.3385C4.56213 11.3474 4.56589 11.3577 4.57031 11.3694C4.57915 11.3929 4.59062 11.422 4.60512 11.4564C4.63411 11.525 4.67517 11.6146 4.73136 11.7218C4.84383 11.9366 5.01642 12.2214 5.27315 12.5514C5.78819 13.2136 6.6321 14.0455 7.9855 14.8575L9.0145 13.1425C7.8679 12.4545 7.21181 11.7864 6.85185 11.3236C6.67108 11.0911 6.56242 10.9072 6.50302 10.7938C6.47327 10.737 6.45573 10.6976 6.44762 10.6784C6.44356 10.6688 6.44185 10.6642 6.44214 10.665C6.44229 10.6654 6.44293 10.6671 6.44404 10.6702C6.44459 10.6718 6.44526 10.6737 6.44603 10.6759C6.44642 10.6771 6.44684 10.6783 6.44728 10.6796C6.4475 10.6802 6.44773 10.6809 6.44796 10.6816C6.44808 10.682 6.44826 10.6825 6.44832 10.6827C6.4485 10.6832 6.44868 10.6838 5.5 11ZM15 10.5C14.2929 9.79289 14.2931 9.79272 14.2932 9.79255C14.2933 9.7925 14.2935 9.79233 14.2936 9.79222C14.2938 9.79201 14.294 9.7918 14.2942 9.7916C14.2946 9.79119 14.295 9.79082 14.2953 9.79047C14.296 9.78977 14.2966 9.78918 14.2971 9.78869C14.2981 9.78772 14.2987 9.78717 14.2988 9.78701C14.2992 9.7867 14.2979 9.78791 14.2952 9.79043C14.2898 9.79553 14.2788 9.80556 14.2633 9.81887C14.2312 9.84638 14.1854 9.88289 14.1328 9.91795C13.9951 10.0097 13.9494 10 14 10V12C14.5506 12 15.0049 11.7403 15.2422 11.5821C15.3771 11.4921 15.4876 11.4036 15.5649 11.3374C15.604 11.3038 15.636 11.2748 15.6599 11.2525C15.6718 11.2414 15.6818 11.2319 15.6897 11.2242C15.6936 11.2204 15.6971 11.217 15.7 11.2142C15.7014 11.2127 15.7028 11.2114 15.7039 11.2103C15.7045 11.2097 15.7051 11.2091 15.7056 11.2086C15.7059 11.2083 15.7061 11.2081 15.7064 11.2078C15.7065 11.2077 15.7067 11.2075 15.7068 11.2075C15.7069 11.2073 15.7071 11.2071 15 10.5ZM11.5 3.5V2.5H9.5V3.5H11.5ZM10.5 3.5H21.5V1.5H10.5V3.5ZM20.5 2.5V8H22.5V2.5H20.5ZM9.5 20.5V21.5H11.5V20.5H9.5ZM10.5 22.5H21.5V20.5H10.5V22.5ZM22.5 21.5V19H20.5V21.5H22.5Z" fill="black"/>
</svg>
