<svg width="24" height="24" viewBox="0 0 24 24" fill="none" xmlns="http://www.w3.org/2000/svg">
<path d="M8.23688 18.4648C8.76971 18.6101 9.31945 18.2959 9.46476 17.7631C9.61008 17.2303 9.29594 16.6806 8.76312 16.5352L8.23688 18.4648ZM15 10.5L15.7071 11.2071C16.0976 10.8166 16.0976 10.1834 15.7071 9.7929L15 10.5ZM12.6104 5.00612C12.0615 4.94513 11.5671 5.34066 11.5061 5.88957C11.4451 6.43848 11.8407 6.9329 12.3896 6.99389L12.6104 5.00612ZM19.5 10.5L20.3944 10.9472C20.5502 10.6356 20.5326 10.2654 20.348 9.97L19.5 10.5ZM12.5 13.5C11.9477 13.5 11.5 13.9477 11.5 14.5C11.5 15.0523 11.9477 15.5 12.5 15.5V13.5ZM12.5 17C11.9477 17 11.5 17.4477 11.5 18C11.5 18.5523 11.9477 19 12.5 19V17ZM22.5547 15.8321C23.0142 15.5257 23.1384 14.9048 22.8321 14.4453C22.5257 13.9858 21.9048 13.8616 21.4453 14.168L22.5547 15.8321ZM8.74254 9.97014C9.27833 9.8362 9.60409 9.29326 9.47014 8.75747C9.33619 8.22167 8.79326 7.89591 8.25746 8.02986L8.74254 9.97014ZM5.5 11L4.66795 10.4453C4.49677 10.7021 4.45373 11.0235 4.55132 11.3162L5.5 11ZM7.9855 14.8575C8.45908 15.1416 9.07335 14.9881 9.35749 14.5145C9.64164 14.0409 9.48808 13.4267 9.0145 13.1425L7.9855 14.8575ZM9.5 3.5C9.5 4.05229 9.94771 4.5 10.5 4.5C11.0523 4.5 11.5 4.05229 11.5 3.5H9.5ZM10.5 2.5V1.5C9.94771 1.5 9.5 1.94772 9.5 2.5H10.5ZM21.5 2.5H22.5C22.5 1.94772 22.0523 1.5 21.5 1.5V2.5ZM20.5 8C20.5 8.55229 20.9477 9 21.5 9C22.0523 9 22.5 8.55229 22.5 8H20.5ZM11.5 20.5C11.5 19.9477 11.0523 19.5 10.5 19.5C9.94771 19.5 9.5 19.9477 9.5 20.5H11.5ZM10.5 21.5H9.5C9.5 22.0523 9.94771 22.5 10.5 22.5V21.5ZM21.5 22.5C22.0523 22.5 22.5 22.0523 22.5 21.5C22.5 20.9477 22.0523 20.5 21.5 20.5V22.5ZM1.70711 0.292893C1.31658 -0.0976311 0.683417 -0.0976311 0.292893 0.292893C-0.0976311 0.683417 -0.0976311 1.31658 0.292893 1.70711L1.70711 0.292893ZM22.2929 23.7071C22.6834 24.0976 23.3166 24.0976 23.7071 23.7071C24.0976 23.3166 24.0976 22.6834 23.7071 22.2929L22.2929 23.7071ZM15.0754 9.25722C14.6348 8.92425 14.0076 9.01152 13.6747 9.45214C13.3417 9.89276 13.429 10.5199 13.8696 10.8529L15.0754 9.25722ZM14.2846 9.80012C13.8742 10.1697 13.8411 10.802 14.2106 11.2124C14.5802 11.6228 15.2125 11.6559 15.6229 11.2864L14.2846 9.80012ZM16.7527 12.1268C16.3108 12.4581 16.221 13.0848 16.5523 13.5268C16.8835 13.9687 17.5103 14.0584 17.9522 13.7271L16.7527 12.1268ZM19.9026 15.0361C19.4091 15.2841 19.2101 15.8851 19.458 16.3786C19.706 16.8721 20.3071 17.0711 20.8005 16.8232L19.9026 15.0361ZM1 10.5C1 11.2058 1.31306 12.769 2.34989 14.3588C3.41129 15.9862 5.2337 17.6457 8.23688 18.4648L8.76312 16.5352C6.2663 15.8543 4.83871 14.5138 4.02511 13.2662C3.18694 11.981 3 10.7942 3 10.5H1ZM12.3896 6.99389C14.3639 7.21325 15.9271 8.20422 17.0207 9.18274C17.5643 9.66916 17.9794 10.1416 18.2566 10.4899C18.3949 10.6636 18.4978 10.8051 18.5642 10.9001C18.5974 10.9476 18.6214 10.9834 18.6361 11.0057C18.6435 11.0168 18.6485 11.0245 18.6511 11.0287C18.6525 11.0307 18.6532 11.0319 18.6533 11.0321C18.6534 11.0322 18.6533 11.0321 18.6531 11.0318C18.653 11.0316 18.6529 11.0314 18.6527 11.0311C18.6526 11.0309 18.6524 11.0307 18.6524 11.0306C18.6522 11.0303 18.652 11.03 19.5 10.5C20.348 9.97 20.3478 9.96968 20.3476 9.96933C20.3475 9.9692 20.3473 9.96884 20.3471 9.96857C20.3468 9.96803 20.3464 9.96743 20.346 9.96677C20.3451 9.96545 20.3441 9.96388 20.343 9.96207C20.3407 9.95845 20.3378 9.95387 20.3343 9.94835C20.3272 9.93732 20.3176 9.92255 20.3055 9.90426C20.2814 9.8677 20.2473 9.81704 20.2034 9.75418C20.1155 9.62852 19.9879 9.45357 19.8215 9.24444C19.4894 8.82715 18.9982 8.26835 18.3543 7.69226C17.0729 6.54578 15.1361 5.28675 12.6104 5.00612L12.3896 6.99389ZM8.25746 8.02986C7.06551 8.32785 6.17747 8.92219 5.5915 9.43493C5.29761 9.69208 5.07496 9.93273 4.92259 10.1137C4.84622 10.2044 4.78693 10.2807 4.74464 10.3376C4.72348 10.366 4.70652 10.3896 4.69376 10.4078C4.68737 10.4168 4.68203 10.4246 4.67773 10.4308C4.67558 10.434 4.67369 10.4368 4.67206 10.4392C4.67125 10.4404 4.6705 10.4415 4.66981 10.4425C4.66947 10.443 4.66914 10.4435 4.66883 10.444C4.66868 10.4442 4.66846 10.4445 4.66838 10.4447C4.66816 10.445 4.66795 10.4453 5.5 11C6.33205 11.5547 6.33185 11.555 6.33164 11.5553C6.33158 11.5554 6.33138 11.5557 6.33126 11.5559C6.33101 11.5563 6.33078 11.5566 6.33056 11.5569C6.33011 11.5576 6.32973 11.5582 6.3294 11.5586C6.32875 11.5596 6.32833 11.5602 6.32813 11.5605C6.32774 11.5611 6.32825 11.5603 6.32968 11.5583C6.33254 11.5542 6.33902 11.5451 6.34911 11.5316C6.36932 11.5044 6.40378 11.4597 6.45241 11.4019C6.55004 11.286 6.70239 11.1204 6.9085 10.9401C7.32253 10.5778 7.93449 10.1722 8.74254 9.97014L8.25746 8.02986ZM5.5 11C4.55132 11.3162 4.5515 11.3168 4.55169 11.3174C4.55176 11.3176 4.55195 11.3181 4.55208 11.3185C4.55235 11.3193 4.55262 11.3201 4.55291 11.321C4.55347 11.3226 4.55407 11.3244 4.55471 11.3262C4.55598 11.33 4.55741 11.334 4.55898 11.3385C4.56213 11.3474 4.56589 11.3577 4.57031 11.3694C4.57915 11.3929 4.59062 11.422 4.60512 11.4564C4.63411 11.525 4.67517 11.6146 4.73136 11.7218C4.84383 11.9366 5.01642 12.2214 5.27315 12.5514C5.78819 13.2136 6.6321 14.0455 7.9855 14.8575L9.0145 13.1425C7.8679 12.4546 7.21181 11.7864 6.85185 11.3236C6.67108 11.0911 6.56242 10.9072 6.50302 10.7938C6.47327 10.737 6.45573 10.6976 6.44762 10.6784C6.44356 10.6688 6.44185 10.6642 6.44214 10.665C6.44229 10.6654 6.44293 10.6671 6.44404 10.6702C6.44459 10.6718 6.44526 10.6737 6.44603 10.6759C6.44642 10.6771 6.44684 10.6783 6.44728 10.6796C6.4475 10.6802 6.44773 10.6809 6.44796 10.6816C6.44808 10.682 6.44826 10.6825 6.44832 10.6827C6.4485 10.6832 6.44868 10.6838 5.5 11ZM11.5 3.5V2.5H9.5V3.5H11.5ZM10.5 3.5H21.5V1.5H10.5V3.5ZM20.5 2.5V8H22.5V2.5H20.5ZM9.5 20.5V21.5H11.5V20.5H9.5ZM10.5 22.5H21.5V20.5H10.5V22.5ZM0.292893 1.70711L5.75062 7.16483L7.16483 5.75062L1.70711 0.292893L0.292893 1.70711ZM6.07177 5.53521C4.75711 6.08523 3.54149 6.98171 2.65476 7.83579C2.20945 8.2647 1.82542 8.70364 1.54426 9.10964C1.404 9.31217 1.27769 9.52322 1.18304 9.73396C1.09515 9.92964 1 10.1999 1 10.5H3C3 10.606 2.97079 10.635 3.00747 10.5534C3.03737 10.4868 3.09425 10.3844 3.18849 10.2483C3.37633 9.97703 3.66654 9.6381 4.0422 9.27628C4.79741 8.54888 5.81064 7.81244 6.84369 7.38024L6.07177 5.53521ZM13.8696 10.8529C14.0155 10.9632 14.1275 11.0578 14.2003 11.1222C14.2366 11.1543 14.2629 11.1787 14.2786 11.1935C14.2865 11.2009 14.2916 11.2059 14.294 11.2083C14.2952 11.2095 14.2958 11.21 14.2956 11.2098C14.2955 11.2097 14.2952 11.2094 14.2948 11.209C14.2945 11.2088 14.2943 11.2085 14.294 11.2082C14.2938 11.208 14.2936 11.2079 14.2935 11.2077C14.2934 11.2076 14.2933 11.2075 14.2932 11.2074C14.2931 11.2074 14.2931 11.2073 14.293 11.2073C14.293 11.2072 14.2929 11.2071 15 10.5C15.7071 9.7929 15.707 9.79282 15.707 9.79274C15.7069 9.79272 15.7069 9.79264 15.7068 9.79259C15.7067 9.79248 15.7066 9.79237 15.7065 9.79226C15.7062 9.79203 15.706 9.7918 15.7058 9.79155C15.7053 9.79106 15.7047 9.79051 15.7041 9.78993C15.7029 9.78875 15.7016 9.78739 15.7 9.78584C15.6969 9.78276 15.693 9.77894 15.6883 9.77443C15.6791 9.76541 15.6668 9.75359 15.6516 9.73923C15.6212 9.71052 15.579 9.67157 15.5256 9.62438C15.4191 9.53015 15.2673 9.40228 15.0754 9.25722L13.8696 10.8529ZM15 10.5C14.2929 9.7929 14.2929 9.79286 14.293 9.79283C14.293 9.79282 14.293 9.79279 14.293 9.79277C14.2931 9.79273 14.2931 9.79269 14.2931 9.79265C14.2932 9.79257 14.2933 9.79249 14.2934 9.79241C14.2935 9.79225 14.2937 9.79209 14.2938 9.79194C14.2942 9.79164 14.2944 9.79135 14.2947 9.79107C14.2953 9.79052 14.2958 9.79003 14.2962 9.78959C14.2971 9.78872 14.2978 9.78807 14.2982 9.78764C14.2991 9.78678 14.2991 9.78675 14.2983 9.78749C14.2968 9.78899 14.2921 9.79341 14.2846 9.80012L15.6229 11.2864C15.6453 11.2662 15.6637 11.249 15.6778 11.2356C15.6849 11.2289 15.6909 11.2231 15.6957 11.2183C15.6982 11.2159 15.7004 11.2138 15.7023 11.2119C15.7032 11.211 15.7041 11.2101 15.7049 11.2093C15.7053 11.2089 15.7057 11.2085 15.7061 11.2082C15.7062 11.208 15.7064 11.2078 15.7066 11.2076C15.7067 11.2075 15.7068 11.2074 15.7069 11.2074C15.7069 11.2073 15.7069 11.2073 15.707 11.2072C15.707 11.2072 15.707 11.2072 15.707 11.2072C15.7071 11.2071 15.7071 11.2071 15 10.5ZM19.5 10.5C18.6056 10.0528 18.6057 10.0525 18.6058 10.0523C18.6059 10.0522 18.606 10.052 18.606 10.0518C18.6062 10.0516 18.6063 10.0513 18.6065 10.051C18.6067 10.0505 18.6069 10.0501 18.6071 10.0497C18.6075 10.049 18.6077 10.0486 18.6077 10.0485C18.6078 10.0483 18.6073 10.0493 18.6062 10.0514C18.604 10.0557 18.5993 10.0646 18.5921 10.0777C18.5777 10.104 18.5533 10.1473 18.5186 10.2046C18.4492 10.3195 18.3393 10.4898 18.1865 10.6935C17.8797 11.1025 17.4076 11.6359 16.7527 12.1268L17.9522 13.7271C18.7913 13.0982 19.3929 12.4182 19.7864 11.8936C19.9837 11.6306 20.1306 11.4041 20.2304 11.2389C20.2804 11.1562 20.3188 11.0885 20.3459 11.039C20.3595 11.0142 20.3703 10.9939 20.3784 10.9785C20.3824 10.9708 20.3857 10.9643 20.3884 10.9591C20.3898 10.9565 20.3909 10.9542 20.3919 10.9522C20.3924 10.9512 20.3929 10.9503 20.3933 10.9495C20.3935 10.949 20.3937 10.9486 20.3939 10.9483C20.394 10.9481 20.3941 10.9478 20.3942 10.9477C20.3943 10.9475 20.3944 10.9472 19.5 10.5ZM20.8005 16.8232C21.3393 16.5525 21.7716 16.3088 22.0719 16.131C22.2221 16.0421 22.3396 15.9695 22.421 15.9181C22.4618 15.8924 22.4936 15.872 22.516 15.8575C22.5272 15.8502 22.536 15.8444 22.5425 15.8401C22.5457 15.838 22.5484 15.8363 22.5504 15.8349C22.5514 15.8342 22.5523 15.8337 22.553 15.8332C22.5534 15.8329 22.5537 15.8327 22.554 15.8325C22.5541 15.8324 22.5542 15.8324 22.5544 15.8323C22.5544 15.8322 22.5545 15.8322 22.5545 15.8322C22.5546 15.8321 22.5547 15.8321 22 15C21.4453 14.168 21.4454 14.1679 21.4454 14.1679C21.4455 14.1678 21.4455 14.1678 21.4456 14.1678C21.4457 14.1677 21.4457 14.1677 21.4458 14.1676C21.4459 14.1675 21.446 14.1675 21.4461 14.1674C21.4462 14.1674 21.4462 14.1674 21.446 14.1675C21.4456 14.1677 21.4447 14.1684 21.4431 14.1694C21.4401 14.1714 21.4347 14.1749 21.427 14.1799C21.4116 14.1899 21.3871 14.2057 21.3539 14.2266C21.2874 14.2686 21.1861 14.3313 21.0531 14.41C20.787 14.5675 20.3951 14.7886 19.9026 15.0361L20.8005 16.8232ZM12.5 19C14.308 19 16.0343 18.6368 17.5159 18.1664L16.9107 16.2602C15.5643 16.6876 14.0476 17 12.5 17V19ZM16.5062 17.9204L22.2929 23.7071L23.7071 22.2929L17.9204 16.5062L16.5062 17.9204ZM5.75062 7.16483L13.6051 15.0193L15.0193 13.6051L7.16483 5.75062L5.75062 7.16483ZM13.6051 15.0193L16.5062 17.9204L17.9204 16.5062L15.0193 13.6051L13.6051 15.0193ZM14.1018 13.3346C13.6171 13.4388 13.0843 13.5 12.5 13.5V15.5C13.2252 15.5 13.899 15.424 14.5225 15.2898L14.1018 13.3346Z" fill="black"/>
</svg>
