<svg width="24" height="24" viewBox="0 0 24 24" fill="none" xmlns="http://www.w3.org/2000/svg">
<path d="M5.5145 15.1425C5.04092 14.8584 4.42666 15.0119 4.14251 15.4855C3.85836 15.9591 4.01192 16.5733 4.4855 16.8575L5.5145 15.1425ZM9.4855 19.8575C9.95908 20.1416 10.5733 19.9881 10.8575 19.5145C11.1416 19.0409 10.9881 18.4267 10.5145 18.1425L9.4855 19.8575ZM5.5145 10.1425C5.04092 9.85836 4.42666 10.0119 4.14251 10.4855C3.85836 10.9591 4.01192 11.5733 4.4855 11.8575L5.5145 10.1425ZM9.4855 14.8575C9.95908 15.1416 10.5733 14.9881 10.8575 14.5145C11.1416 14.0409 10.9881 13.4267 10.5145 13.1425L9.4855 14.8575ZM5.5145 5.14251C5.04092 4.85836 4.42666 5.01192 4.14251 5.4855C3.85836 5.95908 4.01192 6.57334 4.4855 6.85749L5.5145 5.14251ZM9.4855 9.85749C9.95908 10.1416 10.5733 9.98808 10.8575 9.5145C11.1416 9.04092 10.9881 8.42666 10.5145 8.14251L9.4855 9.85749ZM14.5145 15.1425C14.0409 14.8584 13.4267 15.0119 13.1425 15.4855C12.8584 15.9591 13.0119 16.5733 13.4855 16.8575L14.5145 15.1425ZM18.4855 19.8575C18.9591 20.1416 19.5733 19.9881 19.8575 19.5145C20.1416 19.0409 19.9881 18.4267 19.5145 18.1425L18.4855 19.8575ZM14.5145 10.1425C14.0409 9.85836 13.4267 10.0119 13.1425 10.4855C12.8584 10.9591 13.0119 11.5733 13.4855 11.8575L14.5145 10.1425ZM18.4855 14.8575C18.9591 15.1416 19.5733 14.9881 19.8575 14.5145C20.1416 14.0409 19.9881 13.4267 19.5145 13.1425L18.4855 14.8575ZM14.5145 5.14251C14.0409 4.85836 13.4267 5.01192 13.1425 5.4855C12.8584 5.95908 13.0119 6.57334 13.4855 6.85749L14.5145 5.14251ZM18.4855 9.85749C18.9591 10.1416 19.5733 9.98808 19.8575 9.5145C20.1416 9.04092 19.9881 8.42666 19.5145 8.14251L18.4855 9.85749ZM4.4855 16.8575L9.4855 19.8575L10.5145 18.1425L5.5145 15.1425L4.4855 16.8575ZM4.4855 11.8575L9.4855 14.8575L10.5145 13.1425L5.5145 10.1425L4.4855 11.8575ZM4.4855 6.85749L9.4855 9.85749L10.5145 8.14251L5.5145 5.14251L4.4855 6.85749ZM13.4855 16.8575L18.4855 19.8575L19.5145 18.1425L14.5145 15.1425L13.4855 16.8575ZM13.4855 11.8575L18.4855 14.8575L19.5145 13.1425L14.5145 10.1425L13.4855 11.8575ZM13.4855 6.85749L18.4855 9.85749L19.5145 8.14251L14.5145 5.14251L13.4855 6.85749Z" fill="black"/>
</svg>
