<svg width="24" height="24" viewBox="0 0 24 24" fill="none" xmlns="http://www.w3.org/2000/svg">
<path d="M8.77008 2.53311L8.44725 1.58665L8.77008 2.53311ZM15.2299 2.53311L15.5527 1.58665L15.2299 2.53311ZM2.15462 13.7613L3.13919 13.5864L2.15462 13.7613ZM5.81566 19.8589L5.19673 20.6443L5.81566 19.8589ZM21.8454 13.7613L22.83 13.9363L21.8454 13.7613ZM20.82 13.8011C20.7101 14.3423 21.0598 14.8701 21.601 14.98C22.1423 15.0899 22.6701 14.7402 22.78 14.1989L20.82 13.8011ZM14.1989 22.78C14.7402 22.6701 15.0899 22.1423 14.98 21.601C14.8701 21.0598 14.3423 20.7101 13.8011 20.82L14.1989 22.78ZM11 15C11 17.2091 9.20914 19 7 19V21C10.3137 21 13 18.3137 13 15H11ZM3 12C3 8.0482 5.54758 4.68883 9.0929 3.47957L8.44725 1.58665C4.11678 3.06372 1 7.16658 1 12H3ZM9.0929 3.47957C10.0036 3.16895 10.981 3 12 3V1C10.7585 1 9.56306 1.20606 8.44725 1.58665L9.0929 3.47957ZM8 6.35C8 5.12617 8.5484 4.03143 9.41643 3.29615L8.12373 1.77007C6.82626 2.86911 6 4.51357 6 6.35H8ZM12 3C13.019 3 13.9964 3.16895 14.9071 3.47957L15.5527 1.58665C14.4369 1.20606 13.2415 1 12 1V3ZM14.9071 3.47957C18.4524 4.68883 21 8.0482 21 12H23C23 7.16658 19.8832 3.06372 15.5527 1.58665L14.9071 3.47957ZM3.13919 13.5864C3.04781 13.0721 3 12.542 3 12H1C1 12.6599 1.05822 13.307 1.17004 13.9363L3.13919 13.5864ZM12 21C9.89772 21 7.96628 20.2804 6.4346 19.0735L5.19673 20.6443C7.06853 22.1193 9.43281 23 12 23V21ZM6.4346 19.0735C4.73555 17.7346 3.53239 15.7991 3.13919 13.5864L1.17004 13.9363C1.65165 16.6466 3.12434 19.0113 5.19673 20.6443L6.4346 19.0735ZM7 19C6.67209 19 6.35468 18.9608 6.05169 18.8872L5.57963 20.8306C6.03599 20.9415 6.51183 21 7 21V19ZM21 12C21 12.542 20.9522 13.0721 20.8608 13.5864L22.83 13.9363C22.9418 13.307 23 12.6599 23 12H21ZM17 11C18.8657 11 20.4354 12.2783 20.8764 14.0083L22.8144 13.5144C22.1531 10.9198 19.802 9 17 9V11ZM13.8406 9.90255C13.2907 10.1882 12.6657 10.35 12 10.35V12.35C12.9941 12.35 13.9345 12.1074 14.7625 11.6774L13.8406 9.90255ZM13 15C13 13.587 13.7319 12.3444 14.8419 11.6314L13.7611 9.94858C12.1024 11.0139 11 12.8779 11 15H13ZM14.8419 11.6314C15.464 11.2318 16.2034 11 17 11V9C15.8088 9 14.6959 9.34815 13.7611 9.94858L14.8419 11.6314ZM12 10.35C11.3343 10.35 10.7093 10.1882 10.1594 9.90255L9.23754 11.6774C10.0655 12.1074 11.0059 12.35 12 12.35V10.35ZM10.1594 9.90255C8.8743 9.23503 8 7.89378 8 6.35H6C6 8.66922 7.31611 10.6794 9.23754 11.6774L10.1594 9.90255ZM9.15806 11.6314C10.2681 12.3444 11 13.587 11 15H13C13 12.8779 11.8976 11.0139 10.2389 9.94858L9.15806 11.6314ZM20.8608 13.5864C20.848 13.6582 20.8344 13.7298 20.82 13.8011L22.78 14.1989C22.7977 14.1118 22.8143 14.0242 22.83 13.9363L20.8608 13.5864ZM13.8011 20.82C13.22 20.9379 12.6177 21 12 21V23C12.7521 23 13.4876 22.9244 14.1989 22.78L13.8011 20.82Z" fill="black"/>
<circle cx="20" cy="20" r="2" stroke="black" stroke-width="2"/>
</svg>
