<svg width="24" height="24" viewBox="0 0 24 24" fill="none" xmlns="http://www.w3.org/2000/svg">
<path d="M12 15C12 17.7614 9.76142 20 7 20C6.59196 20 6.19534 19.9511 5.81566 19.8589M12 15C12 13.2325 12.9171 11.6791 14.3015 10.79M12 15C12 13.2325 11.0829 11.6791 9.69849 10.79M8.77008 2.53311C4.83218 3.87627 2 7.60739 2 12C2 12.601 2.05301 13.1896 2.15462 13.7613C2.59202 16.2228 3.92995 18.3729 5.81566 19.8589M8.77008 2.53311C9.78332 2.18751 10.8698 2 12 2C13.1302 2 14.2167 2.18751 15.2299 2.53311C19.1678 3.87627 22 7.60739 22 12C22 12.601 21.947 13.1896 21.8454 13.7613M8.77008 2.53311C7.68733 3.45027 7 4.81987 7 6.35C7 8.2815 8.09521 9.9572 9.69849 10.79M5.81566 19.8589C7.51741 21.1999 9.66526 22 12 22C14.3347 22 16.4826 21.1999 18.1843 19.8589C20.0701 18.3729 21.408 16.2228 21.8454 13.7613M21.8454 13.7613C21.2943 11.5991 19.3339 10 17 10C16.0061 10 15.0799 10.29 14.3015 10.79M14.3015 10.79C13.6126 11.1478 12.8299 11.35 12 11.35C11.1701 11.35 10.3874 11.1478 9.69849 10.79" stroke="black" stroke-width="2"/>
</svg>
