<svg width="24" height="24" viewBox="0 0 24 24" fill="none" xmlns="http://www.w3.org/2000/svg">
<path d="M4 20C4 20.5523 4.44772 21 5 21C5.55228 21 6 20.5523 6 20H4ZM18 14C18 14.5523 18.4477 15 19 15C19.5523 15 20 14.5523 20 14H18ZM6 9C6 5.68629 8.68629 3 12 3V1C7.58172 1 4 4.58172 4 9H6ZM12 3C15.3137 3 18 5.68629 18 9H20C20 4.58172 16.4183 1 12 1V3ZM6 20V9H4V20H6ZM20 14V9H18V14H20Z" fill="black"/>
<path d="M10 20C10 19.4477 9.55228 19 9 19C8.44772 19 8 19.4477 8 20H10ZM6 20C6 19.4477 5.55228 19 5 19C4.44772 19 4 19.4477 4 20H6ZM14.6669 22.9812C15.0784 22.6129 15.1135 21.9807 14.7451 21.5692C14.3768 21.1577 13.7446 21.1226 13.3331 21.491L14.6669 22.9812ZM10 10C10 9.44772 9.55228 9 9 9C8.44772 9 8 9.44772 8 10H10ZM8 10.01C8 10.5623 8.44772 11.01 9 11.01C9.55228 11.01 10 10.5623 10 10.01H8ZM16 10C16 9.44772 15.5523 9 15 9C14.4477 9 14 9.44772 14 10H16ZM14 10.01C14 10.5623 14.4477 11.01 15 11.01C15.5523 11.01 16 10.5623 16 10.01H14ZM8 20C8 20.5523 7.55228 21 7 21V23C8.65685 23 10 21.6569 10 20H8ZM7 21C6.44772 21 6 20.5523 6 20H4C4 21.6569 5.34315 23 7 23V21ZM12 22C10.8954 22 10 21.1046 10 20H8C8 22.2091 9.79086 24 12 24V22ZM13.3331 21.491C12.9786 21.8083 12.5129 22 12 22V24C13.0238 24 13.9599 23.614 14.6669 22.9812L13.3331 21.491ZM8 10V10.01H10V10H8ZM14 10V10.01H16V10H14Z" fill="black"/>
<circle cx="20" cy="20" r="2" stroke="black" stroke-width="2"/>
</svg>
