<svg width="24" height="24" viewBox="0 0 24 24" fill="none" xmlns="http://www.w3.org/2000/svg">
<path d="M18 20C18 20.5523 18.4477 21 19 21C19.5523 21 20 20.5523 20 20H18ZM4 20C4 20.5523 4.44772 21 5 21C5.55228 21 6 20.5523 6 20H4ZM6 9C6 5.68629 8.68629 3 12 3V1C7.58172 1 4 4.58172 4 9H6ZM12 3C15.3137 3 18 5.68629 18 9H20C20 4.58172 16.4183 1 12 1V3ZM6 20V9H4V20H6ZM20 20V9H18V20H20Z" fill="black"/>
<path d="M10 20C10 19.4477 9.55228 19 9 19C8.44772 19 8 19.4477 8 20H10ZM6 20C6 19.4477 5.55228 19 5 19C4.44772 19 4 19.4477 4 20H6ZM20 20C20 19.4477 19.5523 19 19 19C18.4477 19 18 19.4477 18 20H20ZM16 20C16 19.4477 15.5523 19 15 19C14.4477 19 14 19.4477 14 20H16ZM8 20C8 20.5523 7.55228 21 7 21V23C8.65685 23 10 21.6569 10 20H8ZM7 21C6.44772 21 6 20.5523 6 20H4C4 21.6569 5.34315 23 7 23V21ZM18 20C18 20.5523 17.5523 21 17 21V23C18.6569 23 20 21.6569 20 20H18ZM17 21C16.4477 21 16 20.5523 16 20H14C14 21.6569 15.3431 23 17 23V21ZM14 20C14 21.1046 13.1046 22 12 22V24C14.2091 24 16 22.2091 16 20H14ZM12 22C10.8954 22 10 21.1046 10 20H8C8 22.2091 9.79086 24 12 24V22Z" fill="black"/>
</svg>
