<svg width="24" height="24" viewBox="0 0 24 24" fill="none" xmlns="http://www.w3.org/2000/svg">
<path d="M19 3H5C3.89543 3 3 3.89543 3 5V19C3 20.1046 3.89543 21 5 21H19C20.1046 21 21 20.1046 21 19V5C21 3.89543 20.1046 3 19 3Z" stroke="black" stroke-width="2" stroke-linecap="round" stroke-linejoin="round"/>
<circle cx="8" cy="8" r="2" stroke="black" stroke-width="2"/>
<circle cx="16" cy="16" r="2" stroke="black" stroke-width="2"/>
<path d="M13 18C13 18.5523 13.4477 19 14 19C14.5523 19 15 18.5523 15 18H13ZM15 12C15 11.4477 14.5523 11 14 11C13.4477 11 13 11.4477 13 12H15ZM15 18V12H13V18H15Z" fill="black"/>
</svg>
