<svg width="24" height="24" viewBox="0 0 24 24" fill="none" xmlns="http://www.w3.org/2000/svg">
<path d="M4 6H5.63636H20.3636C21.2674 6 22 6.67157 22 7.5V16.5C22 17.3284 21.2674 18 20.3636 18H5.63636H4" stroke="black" stroke-width="2" stroke-linecap="round" stroke-linejoin="round"/>
<path d="M20 18V22H12V18" stroke="black" stroke-width="2" stroke-linejoin="round"/>
<path d="M3 20C3 20.5523 3.44772 21 4 21C4.55228 21 5 20.5523 5 20H3ZM4 2H5C5 1.44772 4.55228 1 4 1V2ZM2 1C1.44772 1 1 1.44772 1 2C1 2.55228 1.44772 3 2 3V1ZM5 20V2H3V20H5ZM4 1H2V3H4V1Z" fill="black"/>
</svg>
