<svg width="26" height="24" viewBox="0 0 26 24" fill="none" xmlns="http://www.w3.org/2000/svg">
<path d="M6.12 16.0001C4.96093 15.3585 3.97932 14.4391 3.26332 13.3245C2.54731 12.2099 2.11931 10.9349 2.01775 9.61405C1.91618 8.29317 2.14424 6.96774 2.68143 5.75677C3.21862 4.54579 4.04814 3.48718 5.0955 2.67596C6.14287 1.86475 7.37529 1.32634 8.68213 1.10906C9.98897 0.891787 11.3293 1.00245 12.5828 1.43112C13.8363 1.85979 14.9638 2.59304 15.8639 3.56504C16.764 4.53705 17.4087 5.71737 17.74 7.00006H19C20.2399 6.99881 21.4361 7.45834 22.3563 8.28943C23.2765 9.12052 23.8551 10.2639 23.9797 11.4976C24.0666 12.3577 23.9285 13.219 23.5876 14" stroke="black" stroke-width="2" stroke-linecap="round" stroke-linejoin="round"/>
<path d="M10 11V10C9.44772 10 9 10.4477 9 11H10ZM9 22C9 22.5523 9.44772 23 10 23C10.5523 23 11 22.5523 11 22H9ZM15 14C15 15.1046 14.1046 16 13 16V18C15.2091 18 17 16.2091 17 14H15ZM13 12C14.1046 12 15 12.8954 15 14H17C17 11.7909 15.2091 10 13 10V12ZM10 12H13V10H10V12ZM9 11V17H11V11H9ZM9 17V22H11V17H9ZM13 16H10V18H13V16Z" fill="black"/>
<path d="M19 22L18.1056 21.5528C17.9506 21.8628 17.9671 22.2309 18.1493 22.5257C18.3316 22.8205 18.6534 23 19 23V22ZM23 22V23C23.3466 23 23.6684 22.8205 23.8507 22.5257C24.0329 22.2309 24.0494 21.8628 23.8944 21.5528L23 22ZM21 18L21.8944 17.5528C21.725 17.214 21.3788 17 21 17C20.6212 17 20.275 17.214 20.1056 17.5528L21 18ZM19 23H23V21H19V23ZM23.8944 21.5528L21.8944 17.5528L20.1056 18.4472L22.1056 22.4472L23.8944 21.5528ZM20.1056 17.5528L18.1056 21.5528L19.8944 22.4472L21.8944 18.4472L20.1056 17.5528Z" fill="black"/>
</svg>
