<svg width="26" height="24" viewBox="0 0 26 24" fill="none" xmlns="http://www.w3.org/2000/svg">
<path d="M5.99999 5L5.29288 5.70711L5.29289 5.70711L5.99999 5ZM10 11V10C9.44772 10 9 10.4477 9 11H10ZM9 22C9 22.5523 9.44772 23 10 23C10.5523 23 11 22.5523 11 22H9ZM15.8715 14.8715L16.5786 14.1644L15.8715 14.8715ZM23.2929 23.7071C23.6834 24.0976 24.3166 24.0976 24.7071 23.7071C25.0976 23.3166 25.0976 22.6834 24.7071 22.2929L23.2929 23.7071ZM2.70711 0.292894C2.31658 -0.0976307 1.68342 -0.0976315 1.29289 0.292892C0.902369 0.683416 0.902369 1.31658 1.29289 1.70711L2.70711 0.292894ZM12 11L12.7071 10.2929V10.2929L12 11ZM23.0307 14.9655L22.2255 14.3724L23.0307 14.9655ZM19 7.00006V8.00006L19.001 8.00005L19 7.00006ZM17.74 7.00006L16.7718 7.25014C16.8858 7.69162 17.284 8.00006 17.74 8.00006V7.00006ZM8.68213 1.10906L8.84614 2.09552L8.68213 1.10906ZM2.68143 5.75677L3.59553 6.16226L2.68143 5.75677ZM5.63572 16.875C6.11892 17.1424 6.72745 16.9675 6.99491 16.4843C7.26237 16.0011 7.08747 15.3926 6.60427 15.1251L5.63572 16.875ZM7.67341 0.305105C7.1398 0.44752 6.82268 0.995544 6.9651 1.52915C7.10751 2.06276 7.65553 2.37988 8.18914 2.23747L7.67341 0.305105ZM21.6921 14.9631C21.283 15.3341 21.2521 15.9665 21.6231 16.3756C21.9941 16.7847 22.6265 16.8156 23.0356 16.4446L21.6921 14.9631ZM4.34061 3.34062L5.04772 2.63351L4.34061 3.34062ZM9 11V17H11V11H9ZM9 17V22H11V17H9ZM13 16H10V18H13V16ZM15.1644 15.5786L23.2929 23.7071L24.7071 22.2929L16.5786 14.1644L15.1644 15.5786ZM14.9145 14.5814C14.6653 15.4034 13.901 16 13 16V18C14.8065 18 16.3309 16.8032 16.8285 15.1615L14.9145 14.5814ZM5.29289 5.70711L11.2929 11.7071L12.7071 10.2929L6.7071 4.29289L5.29289 5.70711ZM11.2929 11.7071L15.1644 15.5786L16.5786 14.1644L12.7071 10.2929L11.2929 11.7071ZM10 12H12V10H10V12ZM23.8358 15.5586C24.7183 14.3606 25.1242 12.8775 24.9746 11.3971L22.9848 11.5981C23.0845 12.585 22.8139 13.5738 22.2255 14.3724L23.8358 15.5586ZM24.9746 11.3971C24.8251 9.91665 24.1308 8.54461 23.0266 7.5473L21.6861 9.03155C22.4222 9.69643 22.8851 10.6111 22.9848 11.5981L24.9746 11.3971ZM23.0266 7.5473C21.9223 6.54999 20.4869 5.99856 18.999 6.00006L19.001 8.00005C19.993 7.99906 20.9499 8.36668 21.6861 9.03155L23.0266 7.5473ZM19 6.00006H17.74V8.00006H19V6.00006ZM18.7082 6.74997C18.3355 5.30695 17.6103 3.97908 16.5976 2.88558L15.1302 4.2445C15.9178 5.09501 16.4819 6.12779 16.7718 7.25014L18.7082 6.74997ZM16.5976 2.88558C15.585 1.79208 14.3166 0.967167 12.9064 0.484916L12.2592 2.37732C13.3561 2.7524 14.3426 3.394 15.1302 4.2445L16.5976 2.88558ZM12.9064 0.484916C11.4962 0.0026657 9.98831 -0.121831 8.51812 0.122604L8.84614 2.09552C9.98962 1.90541 11.1624 2.00224 12.2592 2.37732L12.9064 0.484916ZM1.76733 5.35127C1.16299 6.71362 0.906433 8.20472 1.02069 9.69071L3.0148 9.53738C2.92594 8.38161 3.12548 7.22187 3.59553 6.16226L1.76733 5.35127ZM1.02069 9.69071C1.13495 11.1767 1.61645 12.6111 2.42196 13.865L4.10468 12.784C3.47817 11.8088 3.10367 10.6932 3.0148 9.53738L1.02069 9.69071ZM2.42196 13.865C3.22746 15.1189 4.33177 16.1532 5.63572 16.875L6.60427 15.1251C5.59009 14.5638 4.73118 13.7593 4.10468 12.784L2.42196 13.865ZM8.51812 0.122604C8.23311 0.169991 7.95123 0.230956 7.67341 0.305105L8.18914 2.23747C8.40522 2.1798 8.62445 2.13238 8.84614 2.09552L8.51812 0.122604ZM23.0356 16.4446C23.3292 16.1784 23.5976 15.882 23.8358 15.5586L22.2255 14.3724C22.0667 14.5881 21.8878 14.7856 21.6921 14.9631L23.0356 16.4446ZM3.63391 2.6331C2.85192 3.4142 2.21813 4.33504 1.76733 5.35127L3.59553 6.16226C3.94615 5.37187 4.43909 4.65565 5.04731 4.04813L3.63391 2.6331ZM1.29289 1.70711L3.6335 4.04772L5.04772 2.63351L2.70711 0.292894L1.29289 1.70711ZM3.6335 4.04772L5.29288 5.70711L6.7071 4.29289L5.04772 2.63351L3.6335 4.04772Z" fill="black"/>
</svg>
