<svg width="24" height="24" viewBox="0 0 24 24" fill="none" xmlns="http://www.w3.org/2000/svg">
<path d="M12 13C12.5523 13 13 12.5523 13 12C13 11.4477 12.5523 11 12 11C11.4477 11 11 11.4477 11 12C11 12.5523 11.4477 13 12 13Z" stroke="black" stroke-width="2" stroke-linecap="round" stroke-linejoin="round"/>
<path d="M19 13C19.5523 13 20 12.5523 20 12C20 11.4477 19.5523 11 19 11C18.4477 11 18 11.4477 18 12C18 12.5523 18.4477 13 19 13Z" stroke="black" stroke-width="2" stroke-linecap="round" stroke-linejoin="round"/>
<path d="M5 13C5.55228 13 6 12.5523 6 12C6 11.4477 5.55228 11 5 11C4.44772 11 4 11.4477 4 12C4 12.5523 4.44772 13 5 13Z" stroke="black" stroke-width="2" stroke-linecap="round" stroke-linejoin="round"/>
<path d="M21 18V19C21.5523 19 22 18.5523 22 18H21ZM3 18H2C2 18.5523 2.44772 19 3 19V18ZM5 21H4C4 21.5523 4.44772 22 5 22V21ZM8 21V22C8.26522 22 8.51957 21.8946 8.70711 21.7071L8 21ZM16 21L15.2929 21.7071C15.4804 21.8946 15.7348 22 16 22V21ZM19 21V22C19.5523 22 20 21.5523 20 21H19ZM5 18H6C6 17.4477 5.55228 17 5 17V18ZM11 18V17C10.7348 17 10.4804 17.1054 10.2929 17.2929L11 18ZM13 18L13.7071 17.2929C13.5196 17.1054 13.2652 17 13 17V18ZM19 18V17C18.4477 17 18 17.4477 18 18H19ZM22 17C22 16.4477 21.5523 16 21 16C20.4477 16 20 16.4477 20 17H22ZM4 17C4 16.4477 3.55228 16 3 16C2.44772 16 2 16.4477 2 17H4ZM5.39857 6.66675C5.21452 7.18747 5.48745 7.75879 6.00817 7.94284C6.52888 8.12689 7.1002 7.85396 7.28425 7.33325L5.39857 6.66675ZM16.7157 7.33325C16.8998 7.85396 17.4711 8.12689 17.9918 7.94284C18.5126 7.75879 18.7855 7.18747 18.6014 6.66675L16.7157 7.33325ZM5 22H8V20H5V22ZM16 22H19V20H16V22ZM4 18V21H6V18H4ZM8.70711 21.7071L11.7071 18.7071L10.2929 17.2929L7.29289 20.2929L8.70711 21.7071ZM12.2929 18.7071L15.2929 21.7071L16.7071 20.2929L13.7071 17.2929L12.2929 18.7071ZM20 21V18H18V21H20ZM21 17H19V19H21V17ZM13 17H11V19H13V17ZM5 17H3V19H5V17ZM20 17V18H22V17H20ZM4 18V17H2V18H4ZM7.28425 7.33325C7.97112 5.38991 9.82453 4 12 4V2C8.95059 2 6.35905 3.94932 5.39857 6.66675L7.28425 7.33325ZM12 4C14.1755 4 16.0289 5.38991 16.7157 7.33325L18.6014 6.66675C17.641 3.94932 15.0494 2 12 2V4Z" fill="black"/>
<path d="M10 6C9.44772 6 9 6.44772 9 7C9 7.55228 9.44772 8 10 8V6ZM10.01 8C10.5623 8 11.01 7.55228 11.01 7C11.01 6.44772 10.5623 6 10.01 6V8ZM14 6C13.4477 6 13 6.44772 13 7C13 7.55228 13.4477 8 14 8V6ZM14.01 8C14.5623 8 15.01 7.55228 15.01 7C15.01 6.44772 14.5623 6 14.01 6V8ZM10 8H10.01V6H10V8ZM14 8H14.01V6H14V8Z" fill="black"/>
</svg>
