<svg width="24" height="24" viewBox="0 0 24 24" fill="none" xmlns="http://www.w3.org/2000/svg">
<path d="M3 9V8C2.44772 8 2 8.44772 2 9H3ZM21 9H22C22 8.44772 21.5523 8 21 8V9ZM21 18V19C21.5523 19 22 18.5523 22 18H21ZM3 18H2C2 18.5523 2.44772 19 3 19V18ZM6 9V10C6.55228 10 7 9.55228 7 9H6ZM18 9H17C17 9.55228 17.4477 10 18 10V9ZM5 21H4C4 21.5523 4.44772 22 5 22V21ZM8 21V22C8.26522 22 8.51957 21.8946 8.70711 21.7071L8 21ZM16 21L15.2929 21.7071C15.4804 21.8946 15.7348 22 16 22V21ZM19 21V22C19.5523 22 20 21.5523 20 21H19ZM5 18H6C6 17.4477 5.55228 17 5 17V18ZM11 18V17C10.7348 17 10.4804 17.1054 10.2929 17.2929L11 18ZM13 18L13.7071 17.2929C13.5196 17.1054 13.2652 17 13 17V18ZM19 18V17C18.4477 17 18 17.4477 18 18H19ZM20 9V18H22V9H20ZM4 18V9H2V18H4ZM7 9C7 6.23858 9.23858 4 12 4V2C8.13401 2 5 5.13401 5 9H7ZM12 4C14.7614 4 17 6.23858 17 9H19C19 5.13401 15.866 2 12 2V4ZM5 22H8V20H5V22ZM16 22H19V20H16V22ZM4 18V21H6V18H4ZM8.70711 21.7071L11.7071 18.7071L10.2929 17.2929L7.29289 20.2929L8.70711 21.7071ZM12.2929 18.7071L15.2929 21.7071L16.7071 20.2929L13.7071 17.2929L12.2929 18.7071ZM20 21V18H18V21H20ZM3 10H6V8H3V10ZM18 10H21V8H18V10ZM21 17H19V19H21V17ZM13 17H11V19H13V17ZM5 17H3V19H5V17Z" fill="black"/>
<path d="M10 6C9.44772 6 9 6.44772 9 7C9 7.55228 9.44772 8 10 8V6ZM10.01 8C10.5623 8 11.01 7.55228 11.01 7C11.01 6.44772 10.5623 6 10.01 6V8ZM14 6C13.4477 6 13 6.44772 13 7C13 7.55228 13.4477 8 14 8V6ZM14.01 8C14.5623 8 15.01 7.55228 15.01 7C15.01 6.44772 14.5623 6 14.01 6V8ZM10 8H10.01V6H10V8ZM14 8H14.01V6H14V8Z" fill="black"/>
</svg>
