<svg width="24" height="24" viewBox="0 0 24 24" fill="none" xmlns="http://www.w3.org/2000/svg">
<path d="M19 3H5C3.89543 3 3 3.89543 3 5V19C3 20.1046 3.89543 21 5 21H19C20.1046 21 21 20.1046 21 19V5C21 3.89543 20.1046 3 19 3Z" stroke="black" stroke-width="2" stroke-linecap="round" stroke-linejoin="round"/>
<path d="M21 14C21.5523 14 22 13.5523 22 13C22 12.4477 21.5523 12 21 12V14ZM3 12C2.44772 12 2 12.4477 2 13C2 13.5523 2.44772 14 3 14V12ZM11 17.01C11 17.5623 11.4477 18.01 12 18.01C12.5523 18.01 13 17.5623 13 17.01H11ZM13 17C13 16.4477 12.5523 16 12 16C11.4477 16 11 16.4477 11 17H13ZM7 17.01C7 17.5623 7.44772 18.01 8 18.01C8.55228 18.01 9 17.5623 9 17.01H7ZM9 17C9 16.4477 8.55228 16 8 16C7.44772 16 7 16.4477 7 17H9ZM15 17.01C15 17.5623 15.4477 18.01 16 18.01C16.5523 18.01 17 17.5623 17 17.01H15ZM17 17C17 16.4477 16.5523 16 16 16C15.4477 16 15 16.4477 15 17H17ZM21 12H3V14H21V12ZM13 17.01V17H11V17.01H13ZM9 17.01V17H7V17.01H9ZM17 17.01V17H15V17.01H17Z" fill="black"/>
<circle cx="7" cy="7" r="1" fill="black"/>
<circle cx="17" cy="7" r="1" fill="black"/>
<path d="M11.5007 7.86682C11.0227 7.59027 10.4109 7.75364 10.1344 8.2317C9.85785 8.70976 10.0212 9.32148 10.4993 9.59803L11.5007 7.86682ZM13.5007 9.59803C13.9788 9.32148 14.1421 8.70976 13.8656 8.2317C13.5891 7.75364 12.9773 7.59027 12.4993 7.86682L13.5007 9.59803ZM12 7.99999C11.8162 7.99999 11.6468 7.95131 11.5007 7.86682L10.4993 9.59803C10.9416 9.85387 11.4552 9.99999 12 9.99999V7.99999ZM12.4993 7.86682C12.3532 7.95131 12.1838 7.99999 12 7.99999V9.99999C12.5448 9.99999 13.0584 9.85387 13.5007 9.59803L12.4993 7.86682Z" fill="black"/>
</svg>
