<svg width="24" height="24" viewBox="0 0 24 24" fill="none" xmlns="http://www.w3.org/2000/svg">
<path d="M5.63 6.63989C4.37162 7.89868 3.51475 9.50233 3.16772 11.2481C2.82069 12.9938 2.99909 14.8033 3.68036 16.4476C4.36164 18.092 5.51519 19.4974 6.99517 20.4862C8.47515 21.475 10.2151 22.0028 11.995 22.0028C13.7749 22.0028 15.5148 21.475 16.9948 20.4862C18.4748 19.4974 19.6284 18.092 20.3096 16.4476C20.8935 15.0383 21.108 13.5078 20.939 12" stroke="black" stroke-width="2" stroke-linecap="round" stroke-linejoin="round"/>
<path d="M12 2V12" stroke="black" stroke-width="2" stroke-linecap="round" stroke-linejoin="round"/>
<path d="M20 0C19.4477 0 19 0.447715 19 1C19 1.55228 19.4477 2 20 2V0ZM20.01 2C20.5623 2 21.01 1.55228 21.01 1C21.01 0.447715 20.5623 0 20.01 0V2ZM21 5C21 4.44772 20.5523 4 20 4C19.4477 4 19 4.44772 19 5H21ZM19 8C19 8.55228 19.4477 9 20 9C20.5523 9 21 8.55228 21 8H19ZM20 2H20.01V0H20V2ZM19 5V8H21V5H19Z" fill="black"/>
</svg>
