<svg width="24" height="24" viewBox="0 0 24 24" fill="none" xmlns="http://www.w3.org/2000/svg">
<path d="M9.82929 19L10.7721 19.3332C10.7797 19.3117 10.7866 19.2899 10.7927 19.2679L9.82929 19ZM5.96521 15.1832L6.31014 16.1219C6.58554 16.0207 6.80259 15.8036 6.90381 15.5282C7.00503 15.2528 6.98021 14.9469 6.83591 14.6914L5.96521 15.1832ZM9.95266 18.5563L9.00147 18.2477C8.99709 18.2612 8.99301 18.2748 8.98921 18.2884L9.95266 18.5563ZM15.9512 3.30862C16.1216 2.78329 15.8339 2.21926 15.3086 2.04881C14.7833 1.87837 14.2193 2.16606 14.0488 2.69138L15.9512 3.30862ZM10.9041 15.6238L9.95295 15.3152V15.3152L10.9041 15.6238ZM6 11.5C6 7.91015 8.91015 5 12.5 5V3C7.80558 3 4 6.80558 4 11.5H6ZM12.5 5C13.1273 5 13.7322 5.08858 14.3038 5.25327L14.8576 3.33147C14.1078 3.11542 13.3165 3 12.5 3V5ZM7 20C5.89543 20 5 19.1046 5 18H3C3 20.2091 4.79086 22 7 22V20ZM8.88645 18.6668C8.61142 19.4449 7.86925 20 7 20V22C8.74319 22 10.2235 20.8855 10.7721 19.3332L8.88645 18.6668ZM5 18C5 17.1395 5.54399 16.4034 6.31014 16.1219L5.62028 14.2446C4.09246 14.8061 3 16.2742 3 18H5ZM6.83591 14.6914C6.30393 13.7496 6 12.6618 6 11.5H4C4 13.0154 4.39745 14.441 5.09451 15.6751L6.83591 14.6914ZM10.7927 19.2679L10.9161 18.8242L8.98921 18.2884L8.86584 18.7321L10.7927 19.2679ZM18 10C18 12.7614 15.7614 15 13 15V17C16.866 17 20 13.866 20 10H18ZM13 15C12.3838 15 11.7959 14.889 11.2535 14.6868L10.5548 16.5608C11.3173 16.8451 12.1417 17 13 17V15ZM10.9038 18.8649L11.8553 15.9324L9.95295 15.3152L9.00147 18.2477L10.9038 18.8649ZM11.8553 15.9324L15.5319 4.60099L13.6295 3.98376L9.95295 15.3152L11.8553 15.9324ZM14.3138 5.2561C16.4473 5.847 18 7.72446 18 10H20C20 6.75999 17.7827 4.14156 14.8476 3.32865L14.3138 5.2561ZM15.5319 4.60099L15.9512 3.30862L14.0488 2.69138L13.6295 3.98376L15.5319 4.60099Z" fill="black"/>
</svg>
