<svg width="24" height="24" viewBox="0 0 24 24" fill="none" xmlns="http://www.w3.org/2000/svg">
<path d="M22 19C22 19.5304 21.7893 20.0391 21.4142 20.4142C21.0391 20.7893 20.5304 21 20 21H4C3.46957 21 2.96086 20.7893 2.58579 20.4142C2.21071 20.0391 2 19.5304 2 19V5C2 4.46957 2.21071 3.96086 2.58579 3.58579C2.96086 3.21071 3.46957 3 4 3H9L11 6H20C20.5304 6 21.0391 6.21071 21.4142 6.58579C21.7893 6.96086 22 7.46957 22 8V19Z" stroke="black" stroke-width="2" stroke-linecap="round" stroke-linejoin="round"/>
<path d="M13 17C13 16.4477 12.5523 16 12 16C11.4477 16 11 16.4477 11 17H13ZM11 17.01C11 17.5623 11.4477 18.01 12 18.01C12.5523 18.01 13 17.5623 13 17.01H11ZM11 14C11 14.5523 11.4477 15 12 15C12.5523 15 13 14.5523 13 14H11ZM13 10C13 9.44772 12.5523 9 12 9C11.4477 9 11 9.44772 11 10H13ZM11 17V17.01H13V17H11ZM13 14V10H11V14H13Z" fill="black"/>
</svg>
