<svg width="24" height="24" viewBox="0 0 24 24" fill="none" xmlns="http://www.w3.org/2000/svg">
<path d="M22 19C22 19.5304 21.7893 20.0391 21.4142 20.4142C21.0391 20.7893 20.5304 21 20 21H4C3.46957 21 2.96086 20.7893 2.58579 20.4142C2.21071 20.0391 2 19.5304 2 19V5C2 4.46957 2.21071 3.96086 2.58579 3.58579C2.96086 3.21071 3.46957 3 4 3H9L11 6H20C20.5304 6 21.0391 6.21071 21.4142 6.58579C21.7893 6.96086 22 7.46957 22 8V19Z" stroke="black" stroke-width="2" stroke-linecap="round" stroke-linejoin="round"/>
<path d="M11 10C11 9.44772 10.5523 9 10 9C9.44772 9 9 9.44772 9 10H11ZM10 16L9.29289 16.7071C9.57889 16.9931 10.009 17.0787 10.3827 16.9239C10.7564 16.7691 11 16.4045 11 16H10ZM7.70711 12.2929C7.31658 11.9024 6.68342 11.9024 6.29289 12.2929C5.90237 12.6834 5.90237 13.3166 6.29289 13.7071L7.70711 12.2929ZM13 16C13 16.5523 13.4477 17 14 17C14.5523 17 15 16.5523 15 16H13ZM14 10L14.7071 9.29289C14.4211 9.0069 13.991 8.92134 13.6173 9.07612C13.2436 9.2309 13 9.59554 13 10H14ZM16.2929 13.7071C16.6834 14.0976 17.3166 14.0976 17.7071 13.7071C18.0976 13.3166 18.0976 12.6834 17.7071 12.2929L16.2929 13.7071ZM9 10V16H11V10H9ZM10.7071 15.2929L7.70711 12.2929L6.29289 13.7071L9.29289 16.7071L10.7071 15.2929ZM15 16V10H13V16H15ZM13.2929 10.7071L16.2929 13.7071L17.7071 12.2929L14.7071 9.29289L13.2929 10.7071Z" fill="black"/>
</svg>
