<svg width="24" height="24" viewBox="0 0 24 24" fill="none" xmlns="http://www.w3.org/2000/svg">
<path d="M22 19C22 19.5304 21.7893 20.0391 21.4142 20.4142C21.0391 20.7893 20.5304 21 20 21H4C3.46957 21 2.96086 20.7893 2.58579 20.4142C2.21071 20.0391 2 19.5304 2 19V5C2 4.46957 2.21071 3.96086 2.58579 3.58579C2.96086 3.21071 3.46957 3 4 3H9L11 6H20C20.5304 6 21.0391 6.21071 21.4142 6.58579C21.7893 6.96086 22 7.46957 22 8V19Z" stroke="black" stroke-width="2" stroke-linecap="round" stroke-linejoin="round"/>
<path d="M7.21913 15.3753C6.87412 15.8066 6.94404 16.4359 7.3753 16.7809C7.80657 17.1259 8.43586 17.056 8.78087 16.6247L7.21913 15.3753ZM12 11L12.7809 10.3753C12.5911 10.1381 12.3038 10 12 10C11.6962 10 11.4089 10.1381 11.2191 10.3753L12 11ZM15.2191 16.6247C15.5641 17.056 16.1934 17.1259 16.6247 16.7809C17.056 16.4359 17.1259 15.8066 16.7809 15.3753L15.2191 16.6247ZM8.78087 16.6247L12.7809 11.6247L11.2191 10.3753L7.21913 15.3753L8.78087 16.6247ZM11.2191 11.6247L15.2191 16.6247L16.7809 15.3753L12.7809 10.3753L11.2191 11.6247Z" fill="black"/>
</svg>
