<svg width="24" height="24" viewBox="0 0 24 24" fill="none" xmlns="http://www.w3.org/2000/svg">
<path d="M22 19C22 19.5304 21.7893 20.0391 21.4142 20.4142C21.0391 20.7893 20.5304 21 20 21H4C3.46957 21 2.96086 20.7893 2.58579 20.4142C2.21071 20.0391 2 19.5304 2 19V5C2 4.46957 2.21071 3.96086 2.58579 3.58579C2.96086 3.21071 3.46957 3 4 3H9L11 6H20C20.5304 6 21.0391 6.21071 21.4142 6.58579C21.7893 6.96086 22 7.46957 22 8V19Z" stroke="black" stroke-width="2" stroke-linecap="round" stroke-linejoin="round"/>
<path d="M8.78087 10.3753C8.43586 9.94404 7.80657 9.87412 7.3753 10.2191C6.94404 10.5641 6.87412 11.1934 7.21913 11.6247L8.78087 10.3753ZM12 16L11.2191 16.6247C11.4089 16.8619 11.6962 17 12 17C12.3038 17 12.5911 16.8619 12.7809 16.6247L12 16ZM16.7809 11.6247C17.1259 11.1934 17.056 10.5641 16.6247 10.2191C16.1934 9.87412 15.5641 9.94404 15.2191 10.3753L16.7809 11.6247ZM7.21913 11.6247L11.2191 16.6247L12.7809 15.3753L8.78087 10.3753L7.21913 11.6247ZM12.7809 16.6247L16.7809 11.6247L15.2191 10.3753L11.2191 15.3753L12.7809 16.6247Z" fill="black"/>
</svg>
