<svg width="24" height="24" viewBox="0 0 24 24" fill="none" xmlns="http://www.w3.org/2000/svg">
<circle cx="7" cy="12" r="3" stroke="black" stroke-width="2"/>
<circle cx="17" cy="12" r="3" stroke="black" stroke-width="2"/>
<path d="M15 4C15 3.44772 14.5523 3 14 3C13.4477 3 13 3.44772 13 4H15ZM13 12C13 12.5523 13.4477 13 14 13C14.5523 13 15 12.5523 15 12H13ZM11 12C11 11.4477 10.5523 11 10 11C9.44772 11 9 11.4477 9 12H11ZM9 20C9 20.5523 9.44772 21 10 21C10.5523 21 11 20.5523 11 20H9ZM13 4V12H15V4H13ZM9 12V20H11V12H9Z" fill="black"/>
</svg>
