<svg width="24" height="24" viewBox="0 0 24 24" fill="none" xmlns="http://www.w3.org/2000/svg">
<path d="M18 18V17C17.4477 17 17 17.4477 17 18H18ZM18 19V20C18.5523 20 19 19.5523 19 19H18ZM18 14L17.2929 14.7071C17.4804 14.8946 17.7348 15 18 15V14ZM18.2071 13.2071C18.5976 12.8166 18.5976 12.1834 18.2071 11.7929C17.8166 11.4024 17.1834 11.4024 16.7929 11.7929L18.2071 13.2071ZM10 19L9.29289 19.7071C9.48043 19.8946 9.73478 20 10 20V19ZM14 10H13C13 10.2652 13.1054 10.5196 13.2929 10.7071L14 10ZM4 13H3C3 13.2652 3.10536 13.5196 3.29289 13.7071L4 13ZM4 12L3.24967 11.3389C3.08877 11.5216 3 11.7566 3 12H4ZM9.12132 5.87868L9.82843 6.58579V6.58579L9.12132 5.87868ZM9 6L8.29289 5.29289C8.2668 5.31898 8.24218 5.34649 8.21913 5.3753L9 6ZM12 9L11.2929 9.70711C11.4804 9.89464 11.7348 10 12 10V9ZM15 10C15.5523 10 16 9.55228 16 9C16 8.44772 15.5523 8 15 8V10ZM6.17457 9.53179L6.9249 10.1929L6.9406 10.175L6.95544 10.1565L6.17457 9.53179ZM11.7485 6.06453C12.283 6.20343 12.829 5.88271 12.9679 5.34818C13.1068 4.81364 12.786 4.26772 12.2515 4.12882L11.7485 6.06453ZM17 18V19H19V18H17ZM18.7071 13.2929L17.7071 12.2929L16.2929 13.7071L17.2929 14.7071L18.7071 13.2929ZM17.7071 13.7071L18.2071 13.2071L16.7929 11.7929L16.2929 12.2929L17.7071 13.7071ZM18 18H10V20H18V18ZM15 10V9H13V10H15ZM10.7071 18.2929L4.70711 12.2929L3.29289 13.7071L9.29289 19.7071L10.7071 18.2929ZM5 13V12H3V13H5ZM19 16C19 16.5523 18.5523 17 18 17V19C19.6569 19 21 17.6569 21 16H19ZM18 15C18.5523 15 19 15.4477 19 16H21C21 14.3431 19.6569 13 18 13V15ZM9.70711 6.70711L9.82843 6.58579L8.41421 5.17157L8.29289 5.29289L9.70711 6.70711ZM8.29289 6.70711L11.2929 9.70711L12.7071 8.29289L9.70711 5.29289L8.29289 6.70711ZM12 10H14V8H12V10ZM13.2929 10.7071L16.2929 13.7071L17.7071 12.2929L14.7071 9.29289L13.2929 10.7071ZM14 10H15V8H14V10ZM4.75033 12.6611L6.9249 10.1929L5.42424 8.87073L3.24967 11.3389L4.75033 12.6611ZM6.95544 10.1565L9.78087 6.62469L8.21913 5.3753L5.3937 8.9071L6.95544 10.1565ZM9.82843 6.58579C10.3476 6.0666 11.0817 5.89127 11.7485 6.06453L12.2515 4.12882C10.9267 3.78457 9.4552 4.13058 8.41421 5.17157L9.82843 6.58579Z" fill="black"/>
</svg>
