<svg width="24" height="24" viewBox="0 0 24 24" fill="none" xmlns="http://www.w3.org/2000/svg">
<path d="M3.5547 2.16795C3.09517 1.8616 2.4743 1.98577 2.16795 2.4453C1.8616 2.90483 1.98577 3.5257 2.4453 3.83205L3.5547 2.16795ZM12 9L12.5547 9.83205C12.8329 9.64658 13 9.33435 13 9C13 8.66565 12.8329 8.35342 12.5547 8.16795L12 9ZM2.4453 14.1679C1.98577 14.4743 1.8616 15.0952 2.16795 15.5547C2.4743 16.0142 3.09517 16.1384 3.5547 15.8321L2.4453 14.1679ZM21.5547 9.83205C22.0142 9.5257 22.1384 8.90483 21.8321 8.4453C21.5257 7.98577 20.9048 7.8616 20.4453 8.16795L21.5547 9.83205ZM12 15L11.4453 14.1679C11.1671 14.3534 11 14.6656 11 15C11 15.3344 11.1671 15.6466 11.4453 15.8321L12 15ZM20.4453 21.8321C20.9048 22.1384 21.5257 22.0142 21.8321 21.5547C22.1384 21.0952 22.0142 20.4743 21.5547 20.1679L20.4453 21.8321ZM2.4453 3.83205L11.4453 9.83205L12.5547 8.16795L3.5547 2.16795L2.4453 3.83205ZM11.4453 8.16795L2.4453 14.1679L3.5547 15.8321L12.5547 9.83205L11.4453 8.16795ZM20.4453 8.16795L11.4453 14.1679L12.5547 15.8321L21.5547 9.83205L20.4453 8.16795ZM11.4453 15.8321L20.4453 21.8321L21.5547 20.1679L12.5547 14.1679L11.4453 15.8321Z" fill="black"/>
</svg>
