<svg width="24" height="24" viewBox="0 0 24 24" fill="none" xmlns="http://www.w3.org/2000/svg">
<path d="M9 1C8.44772 1 8 1.44772 8 2C8 2.55228 8.44772 3 9 3V1ZM21 15C21 15.5523 21.4477 16 22 16C22.5523 16 23 15.5523 23 15H21ZM6 7C6.55228 7 7 6.55228 7 6C7 5.44772 6.55228 5 6 5V7ZM18 6H17C17 6.55229 17.4477 7 18 7V6ZM19 18C19 17.4477 18.5523 17 18 17C17.4477 17 17 17.4477 17 18H19ZM6 18H7C7 17.4477 6.55228 17 6 17V18ZM1.70711 0.292893C1.31658 -0.0976311 0.683417 -0.0976311 0.292893 0.292893C-0.0976311 0.683417 -0.0976311 1.31658 0.292893 1.70711L1.70711 0.292893ZM22.2929 23.7071C22.6834 24.0976 23.3166 24.0976 23.7071 23.7071C24.0976 23.3166 24.0976 22.6834 23.7071 22.2929L22.2929 23.7071ZM9 3H16V1H9V3ZM16 3C16.5523 3 17 3.44772 17 4H19C19 2.34315 17.6569 1 16 1V3ZM17 20C17 20.5523 16.5523 21 16 21V23C17.6569 23 19 21.6569 19 20H17ZM16 21H8V23H16V21ZM8 21C7.44771 21 7 20.5523 7 20H5C5 21.6569 6.34315 23 8 23V21ZM21 8V15H23V8H21ZM4 17C3.44771 17 3 16.5523 3 16H1C1 17.6569 2.34314 19 4 19V17ZM3 16V8H1V16H3ZM3 8C3 7.44772 3.44771 7 4 7V5C2.34315 5 1 6.34314 1 8H3ZM20 7C20.5523 7 21 7.44772 21 8H23C23 6.34315 21.6569 5 20 5V7ZM4 7H6V5H4V7ZM18 7H20V5H18V7ZM17 4V6H19V4H17ZM17 18V20H19V18H17ZM6 17H4V19H6V17ZM7 20V18H5V20H7ZM0.292893 1.70711L22.2929 23.7071L23.7071 22.2929L1.70711 0.292893L0.292893 1.70711Z" fill="black"/>
</svg>
