<svg width="24" height="24" viewBox="0 0 24 24" fill="none" xmlns="http://www.w3.org/2000/svg">
<path d="M17.4453 20.8321C17.9048 21.1384 18.5257 21.0142 18.8321 20.5547C19.1384 20.0952 19.0142 19.4743 18.5547 19.1679L17.4453 20.8321ZM5 20C5 20.5523 5.44772 21 6 21C6.55228 21 7 20.5523 7 20H5ZM6 4V3C5.44772 3 5 3.44772 5 4H6ZM14 12V13V12ZM5.4453 12.832L17.4453 20.8321L18.5547 19.1679L6.5547 11.1679L5.4453 12.832ZM7 20V12H5V20H7ZM7 12V4H5V12H7ZM17 8C17 9.65685 15.6569 11 14 11V13C16.7614 13 19 10.7614 19 8H17ZM14 5C15.6569 5 17 6.34315 17 8H19C19 5.23858 16.7614 3 14 3V5ZM6 5H14V3H6V5ZM14 11L6 11L6 13L14 13V11Z" fill="black"/>
</svg>
