<svg width="24" height="24" viewBox="0 0 24 24" fill="none" xmlns="http://www.w3.org/2000/svg">
<g clip-path="url(#clip0)">
<path d="M4.00001 17.5C1.5 18.5 2.00001 22 2.00001 22C2.00001 22 6.00003 22 6.50001 20" stroke="black" stroke-width="2" stroke-linejoin="round"/>
<path d="M22 2L22.9912 2.13216C23.0336 1.81421 22.9209 1.49522 22.6882 1.27448C22.4555 1.05373 22.131 0.958015 21.8157 1.01713L22 2ZM11 7L11.7593 7.65079L11 7ZM3.99999 15L4.7071 15.7071C4.72095 15.6933 4.73439 15.679 4.7474 15.6644L3.99999 15ZM8.99999 20L8.34149 19.2474C8.32479 19.262 8.30858 19.2772 8.29289 19.2929L8.99999 20ZM17 13L17.6585 13.7526L17 13ZM2 13L1.16795 12.4453C0.903535 12.8419 0.955829 13.37 1.29289 13.7071L2 13ZM3.99999 10V9C3.66564 9 3.35341 9.1671 3.16794 9.4453L3.99999 10ZM11 22L10.2929 22.7071C10.63 23.0442 11.1581 23.0965 11.5547 22.8321L11 22ZM14 20L14.5547 20.8321C14.8329 20.6466 15 20.3344 15 20H14ZM22 2C21.8157 1.01713 21.8155 1.01717 21.8153 1.01721C21.8152 1.01723 21.8149 1.01728 21.8147 1.01732C21.8142 1.01741 21.8136 1.01753 21.8129 1.01766C21.8114 1.01793 21.8095 1.01829 21.8071 1.01875C21.8024 1.01966 21.7957 1.02094 21.7871 1.0226C21.77 1.02591 21.7454 1.03072 21.7137 1.03704C21.6504 1.04968 21.5587 1.06837 21.442 1.09324C21.2086 1.14296 20.8744 1.21747 20.4651 1.31781C19.6475 1.51819 18.524 1.82305 17.3013 2.24134C14.9132 3.05832 11.9307 4.37759 10.2407 6.34921L11.7593 7.65079C13.0693 6.12241 15.5868 4.94168 17.9487 4.13366C19.101 3.73945 20.165 3.45056 20.9412 3.26031C21.3287 3.16534 21.6429 3.09532 21.8588 3.04934C21.9666 3.02636 22.0498 3.0094 22.1051 2.99836C22.1328 2.99284 22.1535 2.9888 22.1668 2.98622C22.1735 2.98493 22.1783 2.98401 22.1812 2.98345C22.1827 2.98317 22.1837 2.98299 22.1842 2.98289C22.1845 2.98284 22.1846 2.98282 22.1846 2.98281C22.1846 2.98281 22.1845 2.98283 22.1845 2.98283C22.1844 2.98285 22.1843 2.98287 22 2ZM3.99999 15C3.29289 14.2929 3.29202 14.2938 3.29115 14.2946C3.29085 14.2949 3.28998 14.2958 3.28939 14.2964C3.2882 14.2976 3.287 14.2988 3.28578 14.3001C3.28335 14.3026 3.28085 14.3051 3.27829 14.3078C3.27316 14.3131 3.26779 14.3188 3.26218 14.3249C3.25098 14.337 3.23885 14.3507 3.22599 14.3659C3.20029 14.3963 3.17158 14.4329 3.14151 14.4761C3.0813 14.5625 3.01563 14.6749 2.95813 14.8146C2.8405 15.1002 2.76852 15.4721 2.81861 15.9229C2.91684 16.807 3.46734 17.8816 4.79289 19.2071L6.2071 17.7929C5.03265 16.6184 4.83314 15.943 4.80638 15.7021C4.79397 15.5904 4.81574 15.556 4.80748 15.5761C4.80467 15.5829 4.7976 15.5977 4.78231 15.6196C4.7747 15.6306 4.76503 15.6433 4.75276 15.6578C4.74662 15.665 4.7398 15.6728 4.73222 15.681C4.72843 15.6851 4.72445 15.6893 4.72027 15.6937C4.71818 15.6959 4.71604 15.6981 4.71384 15.7003C4.71275 15.7014 4.71164 15.7025 4.71051 15.7037C4.70995 15.7042 4.7091 15.7051 4.70882 15.7054C4.70796 15.7062 4.7071 15.7071 3.99999 15ZM4.79289 19.2071C6.11844 20.5327 7.19297 21.0832 8.07706 21.1814C8.52788 21.2315 8.89976 21.1595 9.18543 21.0419C9.32508 20.9844 9.43754 20.9187 9.52394 20.8585C9.56708 20.8284 9.60372 20.7997 9.6341 20.774C9.64929 20.7611 9.66295 20.749 9.6751 20.7378C9.68117 20.7322 9.68687 20.7268 9.6922 20.7217C9.69487 20.7191 9.69744 20.7166 9.69993 20.7142C9.70117 20.713 9.70239 20.7118 9.70358 20.7106C9.70418 20.71 9.70506 20.7091 9.70536 20.7088C9.70623 20.708 9.7071 20.7071 8.99999 20C8.29289 19.2929 8.29375 19.292 8.29461 19.2912C8.29489 19.2909 8.29575 19.29 8.29632 19.2895C8.29745 19.2884 8.29858 19.2872 8.2997 19.2861C8.30193 19.284 8.30414 19.2818 8.30632 19.2797C8.31067 19.2755 8.3149 19.2716 8.319 19.2678C8.32721 19.2602 8.33495 19.2534 8.34221 19.2472C8.35672 19.235 8.36944 19.2253 8.38035 19.2177C8.40229 19.2024 8.4171 19.1953 8.42393 19.1925C8.44398 19.1843 8.40962 19.206 8.29793 19.1936C8.05702 19.1668 7.38156 18.9673 6.2071 17.7929L4.79289 19.2071ZM17.6585 13.7526C19.866 11.821 21.185 8.85865 21.9512 6.496C22.3401 5.29686 22.5989 4.21313 22.7606 3.4285C22.8417 3.03559 22.8987 2.7161 22.9357 2.49276C22.9543 2.38105 22.9678 2.29327 22.9769 2.23226C22.9814 2.20175 22.9849 2.17792 22.9872 2.16112C22.9884 2.15272 22.9893 2.14608 22.99 2.14124C22.9903 2.13882 22.9906 2.13685 22.9908 2.13533C22.9909 2.13458 22.991 2.13393 22.9911 2.13341C22.9911 2.13314 22.9911 2.13283 22.9911 2.1327C22.9912 2.13242 22.9912 2.13216 22 2C21.0088 1.86784 21.0088 1.86764 21.0088 1.86747C21.0088 1.86746 21.0088 1.86732 21.0088 1.86728C21.0089 1.86721 21.0088 1.86725 21.0088 1.8674C21.0088 1.86771 21.0087 1.86846 21.0085 1.86966C21.0082 1.87206 21.0076 1.87623 21.0068 1.88212C21.0051 1.89392 21.0024 1.91263 20.9987 1.93791C20.9912 1.98846 20.9793 2.06524 20.9627 2.16544C20.9294 2.36593 20.8771 2.65973 20.8018 3.02462C20.6511 3.75562 20.4099 4.76564 20.0488 5.879C19.315 8.14135 18.134 10.679 16.3415 12.2474L17.6585 13.7526ZM4.7071 14.2929L2.70711 12.2929L1.29289 13.7071L3.29289 15.7071L4.7071 14.2929ZM2.83205 13.5547L4.83205 10.5547L3.16794 9.4453L1.16795 12.4453L2.83205 13.5547ZM10.2407 6.34921C9.41832 7.30869 8.51979 8.34442 7.64871 9.34243L9.15549 10.6576C10.0289 9.65684 10.9317 8.61631 11.7593 7.65079L10.2407 6.34921ZM7.64871 9.34243C6.50057 10.6579 5.40141 11.9063 4.58915 12.8261C4.18306 13.2859 3.84879 13.6634 3.6161 13.9259C3.49975 14.0572 3.40881 14.1597 3.34698 14.2294C3.31607 14.2642 3.29243 14.2908 3.27655 14.3087C3.2686 14.3176 3.26259 14.3244 3.25858 14.3289C3.25658 14.3311 3.25507 14.3328 3.25407 14.334C3.25356 14.3345 3.25319 14.335 3.25294 14.3352C3.25282 14.3354 3.25273 14.3355 3.25267 14.3355C3.25264 14.3356 3.25262 14.3356 3.2526 14.3356C3.25259 14.3356 3.25259 14.3356 3.99999 15C4.7474 15.6644 4.74742 15.6644 4.74743 15.6643C4.74745 15.6643 4.74748 15.6643 4.74751 15.6642C4.74758 15.6642 4.74768 15.6641 4.74781 15.6639C4.74808 15.6636 4.74847 15.6632 4.74899 15.6626C4.75003 15.6614 4.75157 15.6597 4.75361 15.6574C4.75769 15.6528 4.76377 15.6459 4.77179 15.6369C4.78782 15.6189 4.81161 15.5921 4.84268 15.5571C4.90481 15.4871 4.99609 15.3842 5.11278 15.2526C5.34617 14.9893 5.68125 14.6108 6.08824 14.15C6.90213 13.2284 8.00401 11.9768 9.15549 10.6576L7.64871 9.34243ZM3.99999 11H8.4021V9H3.99999V11ZM8.29289 20.7071L10.2929 22.7071L11.7071 21.2929L9.7071 19.2929L8.29289 20.7071ZM11.5547 22.8321L14.5547 20.8321L13.4453 19.1679L10.4453 21.1679L11.5547 22.8321ZM8.99999 20C9.6585 20.7526 9.65851 20.7526 9.65852 20.7526C9.65854 20.7525 9.65857 20.7525 9.6586 20.7525C9.65867 20.7524 9.65876 20.7523 9.6589 20.7522C9.65917 20.752 9.65958 20.7516 9.66012 20.7512C9.66119 20.7502 9.6628 20.7488 9.66494 20.7469C9.66922 20.7432 9.67562 20.7376 9.68407 20.7302C9.70099 20.7154 9.72616 20.6934 9.75919 20.6645C9.82524 20.6067 9.9227 20.5214 10.0484 20.4115C10.2997 20.1916 10.6637 19.873 11.1148 19.4783C12.0169 18.689 13.2669 17.5952 14.6585 16.3776L13.3415 14.8724C11.9499 16.0901 10.6999 17.1838 9.79777 17.9732C9.34672 18.3678 8.98265 18.6864 8.73134 18.9063C8.60569 19.0162 8.50823 19.1015 8.44218 19.1593C8.40915 19.1882 8.38398 19.2102 8.36706 19.225C8.35861 19.2324 8.35221 19.238 8.34793 19.2418C8.34579 19.2437 8.34418 19.2451 8.34311 19.246C8.34256 19.2465 8.34217 19.2468 8.3419 19.2471C8.34177 19.2472 8.34165 19.2473 8.34159 19.2473C8.34156 19.2474 8.34153 19.2474 8.34152 19.2474C8.3415 19.2474 8.34149 19.2474 8.99999 20ZM14.6585 16.3776C15.614 15.5415 16.6362 14.647 17.6585 13.7526L16.3415 12.2474C15.3192 13.1419 14.297 14.0364 13.3415 14.8724L14.6585 16.3776ZM15 20V15.625H13V20H15Z" fill="black"/>
</g>
<defs>
<clipPath id="clip0">
<path d="M0 0H24V24H0V0Z" fill="white"/>
</clipPath>
</defs>
</svg>
