<svg width="24" height="24" viewBox="0 0 24 24" fill="none" xmlns="http://www.w3.org/2000/svg">
<path d="M4 17.5C1.49998 18.5 2 22 2 22C2 22 6.00001 22 6.5 20" stroke="black" stroke-width="2" stroke-linejoin="round"/>
<path d="M22 2L22.9912 2.13216C23.0336 1.81421 22.9209 1.49522 22.6882 1.27448C22.4555 1.05373 22.131 0.958015 21.8157 1.01713L22 2ZM11 7L11.7593 7.65079L11 7ZM4 15L4.70711 15.7071C4.72096 15.6933 4.7344 15.679 4.74741 15.6644L4 15ZM9 20L8.3415 19.2474C8.3248 19.262 8.30859 19.2772 8.29289 19.2929L9 20ZM17 13L17.6585 13.7526L17 13ZM2.00001 13L1.16796 12.4453C0.903543 12.8419 0.955837 13.37 1.2929 13.7071L2.00001 13ZM4 10V9C3.66565 9 3.35342 9.1671 3.16795 9.4453L4 10ZM11 22L10.2929 22.7071C10.63 23.0442 11.1581 23.0965 11.5547 22.8321L11 22ZM14 20L14.5547 20.8321C14.8329 20.6466 15 20.3344 15 20H14ZM22 2C21.8157 1.01713 21.8155 1.01717 21.8153 1.01721C21.8152 1.01723 21.8149 1.01728 21.8147 1.01732C21.8142 1.01741 21.8136 1.01753 21.8129 1.01766C21.8115 1.01793 21.8095 1.01829 21.8071 1.01875C21.8024 1.01966 21.7957 1.02094 21.7871 1.0226C21.77 1.02591 21.7454 1.03072 21.7137 1.03704C21.6504 1.04968 21.5588 1.06837 21.442 1.09324C21.2086 1.14296 20.8745 1.21747 20.4651 1.31781C19.6475 1.51819 18.524 1.82305 17.3013 2.24134C14.9132 3.05832 11.9307 4.37759 10.2407 6.34921L11.7593 7.65079C13.0693 6.12241 15.5868 4.94168 17.9487 4.13366C19.101 3.73945 20.165 3.45056 20.9412 3.26031C21.3287 3.16534 21.6429 3.09532 21.8588 3.04934C21.9666 3.02636 22.0498 3.0094 22.1052 2.99836C22.1328 2.99284 22.1535 2.9888 22.1668 2.98622C22.1735 2.98493 22.1783 2.98401 22.1812 2.98345C22.1827 2.98317 22.1837 2.98299 22.1842 2.98289C22.1845 2.98284 22.1846 2.98282 22.1846 2.98281C22.1846 2.98281 22.1845 2.98283 22.1845 2.98283C22.1844 2.98285 22.1843 2.98287 22 2ZM4 15C3.2929 14.2929 3.29203 14.2938 3.29116 14.2946C3.29086 14.2949 3.28999 14.2958 3.28939 14.2964C3.28821 14.2976 3.28701 14.2988 3.28579 14.3001C3.28336 14.3026 3.28086 14.3051 3.27829 14.3078C3.27317 14.3131 3.26779 14.3188 3.26219 14.3249C3.25099 14.337 3.23886 14.3507 3.226 14.3659C3.2003 14.3963 3.17159 14.4329 3.14152 14.4761C3.0813 14.5625 3.01564 14.6749 2.95814 14.8146C2.84051 15.1002 2.76853 15.4721 2.81862 15.9229C2.91685 16.807 3.46734 17.8816 4.7929 19.2071L6.20711 17.7929C5.03265 16.6184 4.83315 15.943 4.80638 15.7021C4.79397 15.5904 4.81575 15.556 4.80749 15.5761C4.80468 15.5829 4.79761 15.5977 4.78231 15.6196C4.77471 15.6306 4.76504 15.6433 4.75277 15.6578C4.74662 15.665 4.7398 15.6728 4.73223 15.681C4.72844 15.6851 4.72446 15.6893 4.72028 15.6937C4.71819 15.6959 4.71605 15.6981 4.71385 15.7003C4.71275 15.7014 4.71164 15.7025 4.71052 15.7037C4.70996 15.7042 4.7091 15.7051 4.70882 15.7054C4.70797 15.7062 4.70711 15.7071 4 15ZM4.7929 19.2071C6.11845 20.5327 7.19298 21.0832 8.07707 21.1814C8.52788 21.2315 8.89977 21.1595 9.18544 21.0419C9.32509 20.9844 9.43755 20.9187 9.52395 20.8585C9.56708 20.8284 9.60373 20.7997 9.63411 20.774C9.6493 20.7611 9.66296 20.749 9.6751 20.7378C9.68118 20.7322 9.68688 20.7268 9.69221 20.7217C9.69488 20.7191 9.69745 20.7166 9.69993 20.7142C9.70118 20.713 9.70239 20.7118 9.70359 20.7106C9.70419 20.71 9.70507 20.7091 9.70537 20.7088C9.70624 20.708 9.70711 20.7071 9 20C8.29289 19.2929 8.29376 19.292 8.29461 19.2912C8.2949 19.2909 8.29576 19.29 8.29632 19.2895C8.29746 19.2884 8.29858 19.2872 8.2997 19.2861C8.30194 19.284 8.30415 19.2818 8.30633 19.2797C8.31068 19.2755 8.31491 19.2716 8.31901 19.2678C8.32722 19.2602 8.33496 19.2534 8.34222 19.2472C8.35672 19.235 8.36944 19.2253 8.38036 19.2177C8.4023 19.2024 8.4171 19.1953 8.42394 19.1925C8.44399 19.1843 8.40963 19.206 8.29794 19.1936C8.05703 19.1668 7.38156 18.9673 6.20711 17.7929L4.7929 19.2071ZM17.6585 13.7526C19.866 11.821 21.185 8.85865 21.9512 6.496C22.3401 5.29686 22.5989 4.21313 22.7607 3.4285C22.8417 3.03559 22.8987 2.7161 22.9357 2.49276C22.9543 2.38105 22.9678 2.29327 22.9769 2.23226C22.9814 2.20175 22.9849 2.17792 22.9872 2.16112C22.9884 2.15272 22.9893 2.14608 22.99 2.14124C22.9903 2.13882 22.9906 2.13685 22.9908 2.13533C22.9909 2.13458 22.991 2.13393 22.9911 2.13341C22.9911 2.13314 22.9911 2.13283 22.9912 2.1327C22.9912 2.13242 22.9912 2.13216 22 2C21.0088 1.86784 21.0088 1.86764 21.0088 1.86747C21.0088 1.86746 21.0088 1.86732 21.0088 1.86728C21.0089 1.86721 21.0089 1.86725 21.0088 1.8674C21.0088 1.86771 21.0087 1.86846 21.0085 1.86966C21.0082 1.87206 21.0076 1.87623 21.0068 1.88212C21.0051 1.89392 21.0024 1.91263 20.9987 1.93791C20.9912 1.98846 20.9793 2.06524 20.9627 2.16544C20.9294 2.36593 20.8771 2.65973 20.8019 3.02462C20.6511 3.75562 20.4099 4.76564 20.0488 5.879C19.315 8.14135 18.134 10.679 16.3415 12.2474L17.6585 13.7526ZM4.70711 14.2929L2.70712 12.2929L1.2929 13.7071L3.29289 15.7071L4.70711 14.2929ZM2.83206 13.5547L4.83205 10.5547L3.16795 9.4453L1.16796 12.4453L2.83206 13.5547ZM10.2407 6.34921C9.41833 7.30869 8.51979 8.34442 7.64871 9.34243L9.1555 10.6576C10.029 9.65684 10.9317 8.61631 11.7593 7.65079L10.2407 6.34921ZM7.64871 9.34243C6.50058 10.6579 5.40141 11.9063 4.58916 12.8261C4.18307 13.2859 3.8488 13.6634 3.6161 13.9259C3.49976 14.0572 3.40881 14.1597 3.34699 14.2294C3.31607 14.2642 3.29244 14.2908 3.27655 14.3087C3.26861 14.3176 3.2626 14.3244 3.25859 14.3289C3.25658 14.3311 3.25508 14.3328 3.25407 14.334C3.25357 14.3345 3.2532 14.335 3.25295 14.3352C3.25283 14.3354 3.25274 14.3355 3.25268 14.3355C3.25265 14.3356 3.25263 14.3356 3.25261 14.3356C3.2526 14.3356 3.25259 14.3356 4 15C4.74741 15.6644 4.74742 15.6644 4.74744 15.6643C4.74746 15.6643 4.74749 15.6643 4.74752 15.6642C4.74759 15.6642 4.74769 15.6641 4.74782 15.6639C4.74809 15.6636 4.74848 15.6632 4.749 15.6626C4.75003 15.6614 4.75158 15.6597 4.75362 15.6574C4.7577 15.6528 4.76378 15.6459 4.7718 15.6369C4.78783 15.6189 4.81162 15.5921 4.84268 15.5571C4.90482 15.4871 4.9961 15.3842 5.11279 15.2526C5.34618 14.9893 5.68126 14.6108 6.08825 14.15C6.90214 13.2284 8.00402 11.9768 9.1555 10.6576L7.64871 9.34243ZM4 11H8.4021V9H4V11ZM8.2929 20.7071L10.2929 22.7071L11.7071 21.2929L9.70711 19.2929L8.2929 20.7071ZM11.5547 22.8321L14.5547 20.8321L13.4453 19.1679L10.4453 21.1679L11.5547 22.8321ZM9 20C9.65851 20.7526 9.65852 20.7526 9.65853 20.7526C9.65855 20.7525 9.65857 20.7525 9.65861 20.7525C9.65868 20.7524 9.65877 20.7523 9.65891 20.7522C9.65918 20.752 9.65959 20.7516 9.66012 20.7512C9.6612 20.7502 9.66281 20.7488 9.66495 20.7469C9.66923 20.7432 9.67562 20.7376 9.68408 20.7302C9.701 20.7154 9.72617 20.6934 9.75919 20.6645C9.82524 20.6067 9.92271 20.5214 10.0484 20.4115C10.2997 20.1916 10.6637 19.873 11.1148 19.4783C12.0169 18.689 13.2669 17.5952 14.6585 16.3776L13.3415 14.8724C11.9499 16.0901 10.6999 17.1838 9.79778 17.9732C9.34673 18.3678 8.98266 18.6864 8.73135 18.9063C8.6057 19.0162 8.50823 19.1015 8.44218 19.1593C8.40916 19.1882 8.38399 19.2102 8.36707 19.225C8.35862 19.2324 8.35222 19.238 8.34794 19.2418C8.3458 19.2437 8.34419 19.2451 8.34311 19.246C8.34257 19.2465 8.34218 19.2468 8.3419 19.2471C8.34177 19.2472 8.34166 19.2473 8.3416 19.2473C8.34157 19.2474 8.34154 19.2474 8.34152 19.2474C8.34151 19.2474 8.3415 19.2474 9 20ZM14.6585 16.3776C15.614 15.5415 16.6363 14.647 17.6585 13.7526L16.3415 12.2474C15.3192 13.1419 14.297 14.0364 13.3415 14.8724L14.6585 16.3776ZM15 20V15.625H13V20H15Z" fill="black"/>
<circle cx="20" cy="20" r="2" stroke="black" stroke-width="2"/>
</svg>
