<svg width="24" height="24" viewBox="0 0 24 24" fill="none" xmlns="http://www.w3.org/2000/svg">
<path d="M1 1L4.92893 4.92893M23 23L19.0711 19.0711M21.6462 14.6462C21.8768 13.8033 22 12.916 22 12C22 6.47715 17.5228 2 12 2C11.084 2 10.1967 2.12317 9.35385 2.35385M4.92893 4.92893C3.11929 6.73858 2 9.23858 2 12C2 17.5228 6.47715 22 12 22C14.7614 22 17.2614 20.8807 19.0711 19.0711M4.92893 4.92893L19.0711 19.0711" stroke="black" stroke-width="2" stroke-linecap="round" stroke-linejoin="round"/>
<path d="M22 13C22.5523 13 23 12.5523 23 12C23 11.4477 22.5523 11 22 11V13ZM13 2C13 1.44772 12.5523 1 12 1C11.4477 1 11 1.44772 11 2H13ZM19 11C18.4477 11 18 11.4477 18 12C18 12.5523 18.4477 13 19 13V11ZM11 5C11 5.55228 11.4477 6 12 6C12.5523 6 13 5.55228 13 5H11ZM22 11H19V13H22V11ZM13 5V2H11V5H13Z" fill="black"/>
<circle cx="7" cy="11" r="1" stroke="black" stroke-width="2"/>
<circle cx="13" cy="17" r="1" stroke="black" stroke-width="2"/>
</svg>
