<svg width="24" height="24" viewBox="0 0 24 24" fill="none" xmlns="http://www.w3.org/2000/svg">
<path d="M18 10L18.7071 10.7071C19.0976 10.3166 19.0976 9.68342 18.7071 9.29289L18 10ZM14 6L14.7071 5.29289C14.3166 4.90237 13.6834 4.90237 13.2929 5.29289L14 6ZM19.7071 5.70711C20.0976 5.31658 20.0976 4.68342 19.7071 4.29289C19.3166 3.90237 18.6834 3.90237 18.2929 4.29289L19.7071 5.70711ZM17 19L16.2929 19.7071C16.6834 20.0976 17.3166 20.0976 17.7071 19.7071L17 19ZM21 15L21.7071 15.7071C22.0976 15.3166 22.0976 14.6834 21.7071 14.2929L21 15ZM5 7L4.29289 6.29289C3.90237 6.68342 3.90237 7.31658 4.29289 7.70711L5 7ZM9 3L9.70711 2.29289C9.31658 1.90237 8.68342 1.90237 8.29289 2.29289L9 3ZM8 12L7.29289 11.2929C6.90237 11.6834 6.90237 12.3166 7.29289 12.7071L8 12ZM12 16L11.2929 16.7071C11.6834 17.0976 12.3166 17.0976 12.7071 16.7071L12 16ZM8 21C8 21.5523 8.44772 22 9 22C9.55228 22 10 21.5523 10 21H8ZM3 14C2.44772 14 2 14.4477 2 15C2 15.5523 2.44772 16 3 16V14ZM18.7071 9.29289L16.7071 7.29289L15.2929 8.70711L17.2929 10.7071L18.7071 9.29289ZM16.7071 7.29289L14.7071 5.29289L13.2929 6.70711L15.2929 8.70711L16.7071 7.29289ZM16.7071 8.70711L19.7071 5.70711L18.2929 4.29289L15.2929 7.29289L16.7071 8.70711ZM12.2929 15.7071L16.2929 19.7071L17.7071 18.2929L13.7071 14.2929L12.2929 15.7071ZM17.7071 19.7071L21.7071 15.7071L20.2929 14.2929L16.2929 18.2929L17.7071 19.7071ZM17.2929 9.29289L16.2929 10.2929L17.7071 11.7071L18.7071 10.7071L17.2929 9.29289ZM16.2929 10.2929L12.2929 14.2929L13.7071 15.7071L17.7071 11.7071L16.2929 10.2929ZM21.7071 14.2929L17.7071 10.2929L16.2929 11.7071L20.2929 15.7071L21.7071 14.2929ZM13.2929 5.29289L12.2929 6.29289L13.7071 7.70711L14.7071 6.70711L13.2929 5.29289ZM12.2929 6.29289L8.29289 10.2929L9.70711 11.7071L13.7071 7.70711L12.2929 6.29289ZM9.70711 10.2929L5.70711 6.29289L4.29289 7.70711L8.29289 11.7071L9.70711 10.2929ZM5.70711 7.70711L9.70711 3.70711L8.29289 2.29289L4.29289 6.29289L5.70711 7.70711ZM8.29289 3.70711L12.2929 7.70711L13.7071 6.29289L9.70711 2.29289L8.29289 3.70711ZM8.29289 10.2929L7.29289 11.2929L8.70711 12.7071L9.70711 11.7071L8.29289 10.2929ZM7.29289 12.7071L11.2929 16.7071L12.7071 15.2929L8.70711 11.2929L7.29289 12.7071ZM12.7071 16.7071L13.7071 15.7071L12.2929 14.2929L11.2929 15.2929L12.7071 16.7071ZM3 16C5.76142 16 8 18.2386 8 21H10C10 17.134 6.86599 14 3 14V16Z" fill="black"/>
</svg>
