<svg width="24" height="24" viewBox="0 0 24 24" fill="none" xmlns="http://www.w3.org/2000/svg">
<path d="M12 22C12 22 20 18 20 12V5L12 2L4 5V12C4 18 12 22 12 22Z" stroke="black" stroke-width="2" stroke-linecap="round" stroke-linejoin="round"/>
<path d="M15.4649 9V10C16.0172 10 16.4649 9.55228 16.4649 9H15.4649ZM7.66952 8.49927C7.39298 8.97733 7.55634 9.58906 8.0344 9.86561C8.51246 10.1421 9.12419 9.97879 9.40073 9.50073L7.66952 8.49927ZM8.53513 13V12C7.98284 12 7.53513 12.4477 7.53513 13H8.53513ZM16.3305 13.5007C16.607 13.0227 16.4437 12.4109 15.9656 12.1344C15.4875 11.8579 14.8758 12.0212 14.5993 12.4993L16.3305 13.5007ZM16.4649 8C16.4649 7.44772 16.0172 7 15.4649 7C14.9126 7 14.4649 7.44772 14.4649 8H16.4649ZM14.5 8C13.9477 8 13.5 8.44772 13.5 9C13.5 9.55228 13.9477 10 14.5 10V8ZM9.5 14C10.0523 14 10.5 13.5523 10.5 13C10.5 12.4477 10.0523 12 9.5 12V14ZM7.53513 14C7.53513 14.5523 7.98284 15 8.53513 15C9.08741 15 9.53513 14.5523 9.53513 14H7.53513ZM12 8C13.1092 8 14.079 8.60141 14.5993 9.50073L16.3305 8.49927C15.4675 7.00738 13.852 6 12 6V8ZM9.40073 9.50073C9.92096 8.60141 10.8908 8 12 8V6C10.148 6 8.53253 7.00738 7.66952 8.49927L9.40073 9.50073ZM12 14C10.8908 14 9.92096 13.3986 9.40073 12.4993L7.66952 13.5007C8.53253 14.9926 10.148 16 12 16V14ZM14.5993 12.4993C14.079 13.3986 13.1092 14 12 14V16C13.852 16 15.4675 14.9926 16.3305 13.5007L14.5993 12.4993ZM16.4649 9V8H14.4649V9H16.4649ZM15.4649 8H14.5V10H15.4649V8ZM8.53513 14H9.5V12H8.53513V14ZM7.53513 13V14H9.53513V13H7.53513Z" fill="black"/>
</svg>
