<svg width="24" height="24" viewBox="0 0 24 24" fill="none" xmlns="http://www.w3.org/2000/svg">
<g clip-path="url(#clip0)">
<path d="M12 2C6.47715 2 2 6.47715 2 12C2 17.5228 6.47715 22 12 22C17.5228 22 22 17.5228 22 12C22 6.47715 17.5228 2 12 2Z" stroke="black" stroke-width="2" stroke-linecap="round" stroke-linejoin="round"/>
<circle cx="22" cy="12" r="1" transform="rotate(-180 22 12)" stroke="black" stroke-width="2"/>
<circle cx="14" cy="10" r="1" transform="rotate(-180 14 10)" stroke="black" stroke-width="2"/>
<path d="M14 10L4 18M14 10L12 2M14 10L22 12" stroke="black" stroke-width="2"/>
<circle cx="12" cy="2" r="1" transform="rotate(-180 12 2)" stroke="black" stroke-width="2"/>
<circle cx="4" cy="18" r="1" transform="rotate(-180 4 18)" stroke="black" stroke-width="2"/>
</g>
<defs>
<clipPath id="clip0">
<rect width="24" height="24" fill="white" transform="translate(24 24) rotate(-180)"/>
</clipPath>
</defs>
</svg>
