<svg width="34" height="34" viewBox="0 0 34 34" fill="none" xmlns="http://www.w3.org/2000/svg">
<g clip-path="url(#clip0)">
<g clip-path="url(#clip1)">
<path d="M12 8.33989C7.21707 11.1013 5.57832 17.2172 8.33975 22.0001C11.1012 26.7831 17.2171 28.4218 22 25.6604C26.7829 22.899 28.4217 16.7831 25.6603 12.0001C22.8988 7.21722 16.7829 5.57847 12 8.33989Z" stroke="black" stroke-width="2" stroke-linecap="round" stroke-linejoin="round"/>
</g>
<circle cx="25.6602" cy="11.9999" r="1" transform="rotate(150 25.6602 11.9999)" stroke="black" stroke-width="2"/>
<circle cx="17.732" cy="14.268" r="1" transform="rotate(150 17.732 14.268)" stroke="black" stroke-width="2"/>
<path d="M17.7321 14.2681L13.0718 26.1963M17.7321 14.2681L12 8.33988M17.7321 14.2681L25.6603 12.0001" stroke="black" stroke-width="2"/>
<circle cx="12" cy="8.33979" r="1" transform="rotate(150 12 8.33979)" stroke="black" stroke-width="2"/>
<circle cx="13.0718" cy="26.1962" r="1" transform="rotate(150 13.0718 26.1962)" stroke="black" stroke-width="2"/>
</g>
<defs>
<clipPath id="clip0">
<rect width="24" height="24" fill="white" transform="translate(33.3923 21.3923) rotate(150)"/>
</clipPath>
<clipPath id="clip1">
<rect width="24" height="24" fill="white" transform="translate(33.3923 21.3923) rotate(150)"/>
</clipPath>
</defs>
</svg>
