<svg width="24" height="24" viewBox="0 0 24 24" fill="none" xmlns="http://www.w3.org/2000/svg">
<g clip-path="url(#clip0)">
<path d="M22 12C22 6.47715 17.5228 2 12 2C6.47715 2 2 6.47715 2 12C2 17.5228 6.47715 22 12 22C17.5228 22 22 17.5228 22 12Z" stroke="black" stroke-width="2" stroke-linecap="round" stroke-linejoin="round"/>
<circle cx="12" cy="22" r="1" transform="rotate(-90 12 22)" stroke="black" stroke-width="2"/>
<circle cx="14" cy="14" r="1" transform="rotate(-90 14 14)" stroke="black" stroke-width="2"/>
<path d="M14 14L6 4M14 14L22 12M14 14L12 22" stroke="black" stroke-width="2"/>
<circle cx="22" cy="12" r="1" transform="rotate(-90 22 12)" stroke="black" stroke-width="2"/>
<circle cx="6" cy="4" r="1" transform="rotate(-90 6 4)" stroke="black" stroke-width="2"/>
</g>
<defs>
<clipPath id="clip0">
<rect width="24" height="24" fill="white" transform="translate(0 24) rotate(-90)"/>
</clipPath>
</defs>
</svg>
