<svg width="34" height="34" viewBox="0 0 34 34" fill="none" xmlns="http://www.w3.org/2000/svg">
<g clip-path="url(#clip0)">
<g clip-path="url(#clip1)">
<path d="M25.6603 22.0001C28.4217 17.2172 26.7829 11.1013 22 8.33989C17.2171 5.57847 11.1012 7.21722 8.33975 12.0001C5.57833 16.7831 7.21708 22.899 12 25.6604C16.7829 28.4218 22.8988 26.7831 25.6603 22.0001Z" stroke="black" stroke-width="2" stroke-linecap="round" stroke-linejoin="round"/>
</g>
<circle cx="12" cy="25.6603" r="1" transform="rotate(-60 12 25.6603)" stroke="black" stroke-width="2"/>
<circle cx="17.7321" cy="19.7321" r="1" transform="rotate(-60 17.7321 19.7321)" stroke="black" stroke-width="2"/>
<path d="M17.7321 19.7322L15.8039 7.07194M17.7321 19.7322L25.6603 22.0001M17.7321 19.7322L12 25.6604" stroke="black" stroke-width="2"/>
<circle cx="25.6602" cy="21.9999" r="1" transform="rotate(-60 25.6602 21.9999)" stroke="black" stroke-width="2"/>
<circle cx="15.8039" cy="7.07172" r="1" transform="rotate(-60 15.8039 7.07172)" stroke="black" stroke-width="2"/>
</g>
<defs>
<clipPath id="clip0">
<rect width="24" height="24" fill="white" transform="translate(0.607697 21.3923) rotate(-60)"/>
</clipPath>
<clipPath id="clip1">
<rect width="24" height="24" fill="white" transform="translate(0.607697 21.3923) rotate(-60)"/>
</clipPath>
</defs>
</svg>
