<svg width="24" height="24" viewBox="0 0 24 24" fill="none" xmlns="http://www.w3.org/2000/svg">
<circle cx="2" cy="12" r="1" stroke="black" stroke-width="2"/>
<circle cx="10" cy="14" r="1" stroke="black" stroke-width="2"/>
<circle cx="12" cy="22" r="1" stroke="black" stroke-width="2"/>
<circle cx="20" cy="6" r="1" stroke="black" stroke-width="2"/>
<path d="M22.2929 23.7071C22.6834 24.0976 23.3166 24.0976 23.7071 23.7071C24.0976 23.3166 24.0976 22.6834 23.7071 22.2929L22.2929 23.7071ZM1.70711 0.292893C1.31658 -0.0976311 0.683417 -0.0976311 0.292893 0.292893C-0.0976311 0.683417 -0.0976311 1.31658 0.292893 1.70711L1.70711 0.292893ZM8.70035 1.50375C8.17344 1.66924 7.88046 2.23054 8.04595 2.75745C8.21144 3.28436 8.77274 3.57734 9.29965 3.41185L8.70035 1.50375ZM20.5881 14.7003C20.4227 15.2273 20.7156 15.7886 21.2425 15.954C21.7695 16.1195 22.3308 15.8266 22.4962 15.2997L20.5881 14.7003ZM15.2086 8.55246C14.7774 8.89747 14.7075 9.52677 15.0525 9.95803C15.3975 10.3893 16.0268 10.4592 16.458 10.1142L15.2086 8.55246ZM9.02986 14.2425L11.0299 22.2425L12.9701 21.7575L10.9701 13.7575L9.02986 14.2425ZM10.2425 13.0299L2.24254 11.0299L1.75746 12.9701L9.75746 14.9701L10.2425 13.0299ZM12 21C7.02944 21 3 16.9706 3 12H1C1 18.0751 5.92487 23 12 23V21ZM12 3C16.9706 3 21 7.02944 21 12H23C23 5.92487 18.0751 1 12 1V3ZM18.364 19.7782L22.2929 23.7071L23.7071 22.2929L19.7782 18.364L18.364 19.7782ZM18.364 18.364C16.7342 19.9937 14.4856 21 12 21V23C15.0373 23 17.7887 21.7677 19.7782 19.7782L18.364 18.364ZM0.292893 1.70711L4.22183 5.63604L5.63604 4.22183L1.70711 0.292893L0.292893 1.70711ZM3 12C3 9.51444 4.00626 7.26581 5.63604 5.63604L4.22183 4.22183C2.23231 6.21134 1 8.96271 1 12H3ZM9.29965 3.41185C10.1508 3.14451 11.0576 3 12 3V1C10.852 1 9.74323 1.1762 8.70035 1.50375L9.29965 3.41185ZM21 12C21 12.9424 20.8555 13.8492 20.5881 14.7003L22.4962 15.2997C22.8238 14.2568 23 13.148 23 12H21ZM4.22183 5.63604L11.5151 12.9293L12.9293 11.5151L5.63604 4.22183L4.22183 5.63604ZM11.5151 12.9293L18.364 19.7782L19.7782 18.364L12.9293 11.5151L11.5151 12.9293ZM10.6247 14.7809L12.8469 13.0031L11.5975 11.4414L9.37531 13.2191L10.6247 14.7809ZM16.458 10.1142L20.6247 6.78087L19.3753 5.21913L15.2086 8.55246L16.458 10.1142Z" fill="black"/>
</svg>
