<svg width="24" height="24" viewBox="0 0 24 24" fill="none" xmlns="http://www.w3.org/2000/svg">
<path d="M5.5 4V3C5.12864 3 4.78786 3.20579 4.61498 3.53445C4.44209 3.86311 4.46557 4.26051 4.67596 4.56653L5.5 4ZM18.5 4H19.5C19.5 3.44772 19.0523 3 18.5 3V4ZM11 12L11.824 12.5665C12.0587 12.2253 12.0587 11.7747 11.824 11.4335L11 12ZM5.5 20L4.67596 19.4335C4.46557 19.7395 4.44209 20.1369 4.61498 20.4655C4.78786 20.7942 5.12864 21 5.5 21V20ZM18.5 20V21C19.0523 21 19.5 20.5523 19.5 20H18.5ZM19.5 18.5C19.5 17.9477 19.0523 17.5 18.5 17.5C17.9477 17.5 17.5 17.9477 17.5 18.5H19.5ZM17.5 5.5C17.5 6.05228 17.9477 6.5 18.5 6.5C19.0523 6.5 19.5 6.05228 19.5 5.5H17.5ZM5.5 5H18.5V3H5.5V5ZM4.67596 4.56653L10.176 12.5665L11.824 11.4335L6.32404 3.43347L4.67596 4.56653ZM10.176 11.4335L4.67596 19.4335L6.32404 20.5665L11.824 12.5665L10.176 11.4335ZM5.5 21H18.5V19H5.5V21ZM19.5 20V18.5H17.5V20H19.5ZM17.5 4V5.5H19.5V4H17.5Z" fill="black"/>
</svg>
