<svg width="24" height="24" viewBox="0 0 24 24" fill="none" xmlns="http://www.w3.org/2000/svg">
<path d="M21 11.5C21.0034 12.8199 20.6951 14.1219 20.1 15.3C19.3944 16.7118 18.3098 17.8992 16.9674 18.7293C15.6251 19.5594 14.0782 19.9994 12.5 20C11.1801 20.0035 9.87812 19.6951 8.7 19.1L3 21L4.9 15.3C4.30493 14.1219 3.99656 12.8199 4 11.5C4.00061 9.92179 4.44061 8.37488 5.27072 7.03258C6.10083 5.69028 7.28825 4.6056 8.7 3.90003C9.87812 3.30496 11.1801 2.99659 12.5 3.00003H13C15.0843 3.11502 17.053 3.99479 18.5291 5.47089C20.0052 6.94699 20.885 8.91568 21 11V11.5Z" stroke="black" stroke-width="2" stroke-linecap="round" stroke-linejoin="round"/>
<path d="M9.1989 10.3332C9.38295 9.81253 9.11002 9.24121 8.5893 9.05716C8.06859 8.87311 7.49727 9.14604 7.31322 9.66675L9.1989 10.3332ZM17.6868 9.66675C17.5027 9.14604 16.9314 8.87311 16.4107 9.05716C15.89 9.24121 15.6171 9.81253 15.8011 10.3332L17.6868 9.66675ZM15.8011 12.6668C15.6171 13.1875 15.89 13.7588 16.4107 13.9428C16.9314 14.1269 17.5027 13.854 17.6868 13.3332L15.8011 12.6668ZM7.31322 13.3332C7.49727 13.854 8.06859 14.1269 8.5893 13.9428C9.11002 13.7588 9.38295 13.1875 9.1989 12.6668L7.31322 13.3332ZM11.3332 14.8011C10.8125 14.6171 10.2412 14.89 10.0572 15.4107C9.87311 15.9314 10.146 16.5027 10.6668 16.6868L11.3332 14.8011ZM10.6668 6.31322C10.146 6.49727 9.87311 7.06859 10.0572 7.5893C10.2412 8.11002 10.8125 8.38295 11.3332 8.1989L10.6668 6.31322ZM13.6668 8.1989C14.1875 8.38295 14.7588 8.11002 14.9428 7.5893C15.1269 7.06859 14.854 6.49727 14.3332 6.31322L13.6668 8.1989ZM14.3332 16.6868C14.854 16.5027 15.1269 15.9314 14.9428 15.4107C14.7588 14.89 14.1875 14.6171 13.6668 14.8011L14.3332 16.6868ZM9 11.5C9 11.0891 9.07038 10.6969 9.1989 10.3332L7.31322 9.66675C7.11009 10.2415 7 10.859 7 11.5H9ZM15.8011 10.3332C15.9296 10.6969 16 11.0891 16 11.5H18C18 10.859 17.8899 10.2415 17.6868 9.66675L15.8011 10.3332ZM16 11.5C16 11.9109 15.9296 12.3031 15.8011 12.6668L17.6868 13.3332C17.8899 12.7585 18 12.141 18 11.5H16ZM9.1989 12.6668C9.07038 12.3031 9 11.9109 9 11.5H7C7 12.141 7.11009 12.7585 7.31322 13.3332L9.1989 12.6668ZM12.5 15C12.0891 15 11.6969 14.9296 11.3332 14.8011L10.6668 16.6868C11.2415 16.8899 11.859 17 12.5 17V15ZM11.3332 8.1989C11.6969 8.07038 12.0891 8 12.5 8V6C11.859 6 11.2415 6.11009 10.6668 6.31322L11.3332 8.1989ZM12.5 8C12.9109 8 13.3031 8.07038 13.6668 8.1989L14.3332 6.31322C13.7585 6.11009 13.141 6 12.5 6V8ZM13.6668 14.8011C13.3031 14.9296 12.9109 15 12.5 15V17C13.141 17 13.7585 16.8899 14.3332 16.6868L13.6668 14.8011Z" fill="black"/>
</svg>
