<svg width="24" height="24" viewBox="0 0 24 24" fill="none" xmlns="http://www.w3.org/2000/svg">
<circle cx="20" cy="20" r="2" stroke="black" stroke-width="2"/>
<path d="M12 15C11.4477 15 11 15.4477 11 16C11 16.5523 11.4477 17 12 17V15ZM12.01 17C12.5623 17 13.01 16.5523 13.01 16C13.01 15.4477 12.5623 15 12.01 15V17ZM13 8C13 7.44772 12.5523 7 12 7C11.4477 7 11 7.44772 11 8H13ZM11 12C11 12.5523 11.4477 13 12 13C12.5523 13 13 12.5523 13 12H11ZM2 20L1.3753 19.2191C1.04368 19.4844 0.915797 19.9303 1.05637 20.331C1.19695 20.7318 1.57531 21 2 21V20ZM22 4H23C23 3.61559 22.7797 3.26522 22.4332 3.0987C22.0867 2.93218 21.6755 2.979 21.3753 3.21913L22 4ZM8.6247 15.9809C9.05596 15.6359 9.12588 15.0066 8.78087 14.5753C8.43586 14.144 7.80657 14.0741 7.3753 14.4191L8.6247 15.9809ZM15.3753 8.01913C14.944 8.36414 14.8741 8.99343 15.2191 9.42469C15.5641 9.85596 16.1934 9.92588 16.6247 9.58087L15.3753 8.01913ZM21 14C21 14.5523 21.4477 15 22 15C22.5523 15 23 14.5523 23 14H21ZM14 21C14.5523 21 15 20.5523 15 20C15 19.4477 14.5523 19 14 19V21ZM12 17H12.01V15H12V17ZM11 8V12H13V8H11ZM7.3753 14.4191L1.3753 19.2191L2.6247 20.7809L8.6247 15.9809L7.3753 14.4191ZM21.3753 3.21913L15.3753 8.01913L16.6247 9.58087L22.6247 4.78087L21.3753 3.21913ZM23 14V4H21V14H23ZM2 21H14V19H2V21Z" fill="black"/>
</svg>
