<svg width="24" height="24" viewBox="0 0 24 24" fill="none" xmlns="http://www.w3.org/2000/svg">
<path d="M2 20L1.3753 19.2191C1.04368 19.4844 0.915797 19.9303 1.05637 20.331C1.19695 20.7318 1.57531 21 2 21V20ZM22 4H23C23 3.61559 22.7797 3.26522 22.4332 3.0987C22.0867 2.93218 21.6755 2.979 21.3753 3.21913L22 4ZM14 21C14.5523 21 15 20.5523 15 20C15 19.4477 14.5523 19 14 19V21ZM21 14C21 14.5523 21.4477 15 22 15C22.5523 15 23 14.5523 23 14H21ZM21.3753 3.21913L1.3753 19.2191L2.6247 20.7809L22.6247 4.78087L21.3753 3.21913ZM2 21H14V19H2V21ZM23 14V4H21V14H23Z" fill="black"/>
<circle cx="20" cy="20" r="2" stroke="black" stroke-width="2"/>
<path d="M18 14V7.5" stroke="black" stroke-width="2" stroke-linecap="round"/>
</svg>
