<svg width="24" height="24" viewBox="0 0 24 24" fill="none" xmlns="http://www.w3.org/2000/svg">
<path d="M12 16H12.01" stroke="black" stroke-width="2" stroke-linecap="round" stroke-linejoin="round"/>
<path d="M12 8V12" stroke="black" stroke-width="2" stroke-linecap="round" stroke-linejoin="round"/>
<path d="M2 20L1.3753 19.2191C1.04368 19.4844 0.915797 19.9303 1.05637 20.331C1.19695 20.7318 1.57531 21 2 21V20ZM22 20V21C22.5523 21 23 20.5523 23 20H22ZM22 4H23C23 3.61559 22.7797 3.26522 22.4332 3.0987C22.0867 2.93218 21.6755 2.979 21.3753 3.21913L22 4ZM8.6247 15.9809C9.05596 15.6359 9.12588 15.0066 8.78087 14.5753C8.43586 14.144 7.80657 14.0741 7.3753 14.4191L8.6247 15.9809ZM15.3753 8.01913C14.944 8.36414 14.8741 8.99343 15.2191 9.42469C15.5641 9.85596 16.1934 9.92588 16.6247 9.58087L15.3753 8.01913ZM2 21H22V19H2V21ZM23 20V4H21V20H23ZM7.3753 14.4191L1.3753 19.2191L2.6247 20.7809L8.6247 15.9809L7.3753 14.4191ZM21.3753 3.21913L15.3753 8.01913L16.6247 9.58087L22.6247 4.78087L21.3753 3.21913Z" fill="black"/>
</svg>
