<svg width="24" height="24" viewBox="0 0 24 24" fill="none" xmlns="http://www.w3.org/2000/svg">
<path d="M12 16H12.01" stroke="black" stroke-width="2" stroke-linecap="round" stroke-linejoin="round"/>
<path d="M2 20L1.3753 19.2191C1.04368 19.4844 0.915797 19.9303 1.05637 20.331C1.19695 20.7318 1.57531 21 2 21V20ZM22 20V21C22.5523 21 23 20.5523 23 20H22ZM22 4H23C23 3.61559 22.7797 3.26522 22.4332 3.0987C22.0867 2.93218 21.6755 2.979 21.3753 3.21913L22 4ZM8.6247 15.9809C9.05596 15.6359 9.12588 15.0066 8.78087 14.5753C8.43586 14.144 7.80657 14.0741 7.3753 14.4191L8.6247 15.9809ZM18.3753 5.61913C17.944 5.96414 17.8741 6.59343 18.2191 7.02469C18.5641 7.45596 19.1934 7.52588 19.6247 7.18087L18.3753 5.61913ZM2 21H22V19H2V21ZM23 20V4H21V20H23ZM7.3753 14.4191L1.3753 19.2191L2.6247 20.7809L8.6247 15.9809L7.3753 14.4191ZM21.3753 3.21913L18.3753 5.61913L19.6247 7.18087L22.6247 4.78087L21.3753 3.21913Z" fill="black"/>
<path d="M9.17 9.00448C9.4051 8.33614 9.86915 7.77258 10.48 7.41361C11.0908 7.05463 11.8089 6.92341 12.5072 7.04319C13.2055 7.16296 13.8388 7.526 14.2951 8.068C14.7513 8.61001 15.0011 9.296 15 10.0045C15 12.0045 12 13.0045 12 13.0045" stroke="black" stroke-width="2" stroke-linecap="round" stroke-linejoin="round"/>
</svg>
