<svg width="24" height="24" viewBox="0 0 24 24" fill="none" xmlns="http://www.w3.org/2000/svg">
<path d="M12.5 4L13.4265 3.62362C13.2733 3.2466 12.9069 3 12.5 3C12.0931 3 11.7267 3.2466 11.5735 3.62362L12.5 4ZM9.25 12L8.32353 11.6236L9.25 12ZM5.07353 19.6236C4.86567 20.1353 5.11195 20.7186 5.62362 20.9265C6.1353 21.1343 6.7186 20.8881 6.92647 20.3764L5.07353 19.6236ZM18.0735 20.3764C18.2814 20.8881 18.8647 21.1343 19.3764 20.9265C19.8881 20.7186 20.1343 20.1353 19.9265 19.6236L18.0735 20.3764ZM10.9265 10.5302C11.1343 10.0185 10.8881 9.43525 10.3764 9.22738C9.8647 9.01951 9.2814 9.2658 9.07353 9.77747L10.9265 10.5302ZM19.3171 18.1236C19.1092 17.6119 18.5259 17.3657 18.0142 17.5735C17.5026 17.7814 17.2563 18.3647 17.4642 18.8764L19.3171 18.1236ZM12 13C12.5523 13 13 12.5523 13 12C13 11.4477 12.5523 11 12 11V13ZM13.762 9.76337C13.9699 10.275 14.5532 10.5213 15.0648 10.3135C15.5765 10.1056 15.8228 9.52229 15.6149 9.01062L13.762 9.76337ZM10.761 5.62362C10.5532 6.1353 10.7994 6.7186 11.3111 6.92647C11.8228 7.13433 12.4061 6.88805 12.614 6.37638L10.761 5.62362ZM8.32353 11.6236L5.07353 19.6236L6.92647 20.3764L10.1765 12.3764L8.32353 11.6236ZM9.07353 9.77747L8.32353 11.6236L10.1765 12.3764L10.9265 10.5302L9.07353 9.77747ZM19.9265 19.6236L19.3171 18.1236L17.4642 18.8764L18.0735 20.3764L19.9265 19.6236ZM9.25 13H12V11H9.25V13ZM15.6149 9.01062L13.4265 3.62362L11.5735 4.37638L13.762 9.76337L15.6149 9.01062ZM11.5735 3.62362L10.761 5.62362L12.614 6.37638L13.4265 4.37638L11.5735 3.62362Z" fill="black"/>
<path d="M1 1L23 23" stroke="black" stroke-width="2" stroke-linecap="round" stroke-linejoin="round"/>
</svg>
