<svg width="24" height="24" viewBox="0 0 24 24" fill="none" xmlns="http://www.w3.org/2000/svg">
<path d="M5.07353 19.6236C4.86567 20.1353 5.11195 20.7186 5.62362 20.9265C6.1353 21.1343 6.7186 20.8881 6.92647 20.3764L5.07353 19.6236ZM18.0735 20.3764C18.2814 20.8881 18.8647 21.1343 19.3764 20.9265C19.8881 20.7186 20.1343 20.1353 19.9265 19.6236L18.0735 20.3764ZM12.5 4L13.4265 3.62362C13.2733 3.2466 12.9069 3 12.5 3C12.0931 3 11.7267 3.2466 11.5735 3.62362L12.5 4ZM11.5735 3.62362L8.32353 11.6236L10.1765 12.3764L13.4265 4.37638L11.5735 3.62362ZM8.32353 11.6236L5.07353 19.6236L6.92647 20.3764L10.1765 12.3764L8.32353 11.6236ZM19.9265 19.6236L16.6765 11.6236L14.8235 12.3764L18.0735 20.3764L19.9265 19.6236ZM16.6765 11.6236L13.4265 3.62362L11.5735 4.37638L14.8235 12.3764L16.6765 11.6236ZM9.25 13H15.75V11H9.25V13Z" fill="black"/>
</svg>
