<svg width="24" height="24" viewBox="0 0 24 24" fill="none" xmlns="http://www.w3.org/2000/svg">
<path d="M12.5 8L13.4363 7.64888C13.29 7.25857 12.9168 7 12.5 7C12.0832 7 11.71 7.25857 11.5637 7.64888L12.5 8ZM7.06367 19.6489C6.86975 20.166 7.13176 20.7424 7.64888 20.9363C8.166 21.1302 8.74241 20.8682 8.93633 20.3511L7.06367 19.6489ZM16.0637 20.3511C16.2576 20.8682 16.834 21.1302 17.3511 20.9363C17.8682 20.7424 18.1302 20.166 17.9363 19.6489L16.0637 20.3511ZM11.5637 7.64888L9.31367 13.6489L11.1863 14.3511L13.4363 8.35112L11.5637 7.64888ZM9.31367 13.6489L7.06367 19.6489L8.93633 20.3511L11.1863 14.3511L9.31367 13.6489ZM17.9363 19.6489L15.6863 13.6489L13.8137 14.3511L16.0637 20.3511L17.9363 19.6489ZM15.6863 13.6489L13.4363 7.64888L11.5637 8.35112L13.8137 14.3511L15.6863 13.6489ZM10.25 15H14.75V13H10.25V15Z" fill="black"/>
</svg>
