<svg width="24" height="24" viewBox="0 0 24 24" fill="none" xmlns="http://www.w3.org/2000/svg">
<path d="M5 12C5 12.5523 5.44772 13 6 13C6.55228 13 7 12.5523 7 12H5ZM12 7C12.5523 7 13 6.55228 13 6C13 5.44772 12.5523 5 12 5V7ZM6 10.2361H7C7 9.95166 6.87887 9.68067 6.66691 9.49097L6 10.2361ZM14 19C14.5523 19 15 18.5523 15 18C15 17.4477 14.5523 17 14 17V19ZM17 14C17 14.5523 17.4477 15 18 15C18.5523 15 19 14.5523 19 14H17ZM10.2361 6L9.49097 6.66691C9.68067 6.87887 9.95166 7 10.2361 7V6ZM0.292893 22.2929C-0.0976311 22.6834 -0.0976311 23.3166 0.292893 23.7071C0.683417 24.0976 1.31658 24.0976 1.70711 23.7071L0.292893 22.2929ZM23.7071 1.70711C24.0976 1.31658 24.0976 0.683417 23.7071 0.292893C23.3166 -0.0976311 22.6834 -0.0976311 22.2929 0.292893L23.7071 1.70711ZM6 8C6 6.89543 6.89543 6 8 6V4C5.79086 4 4 5.79086 4 8H6ZM6.66691 9.49097C6.25615 9.12333 6 8.59224 6 8H4C4 9.18476 4.51635 10.2502 5.33309 10.9812L6.66691 9.49097ZM7 12V10.2361H5V12H7ZM12 19H14V17H12V19ZM17 12V14H19V12H17ZM8 6C8.59224 6 9.12333 6.25615 9.49097 6.66691L10.9812 5.33309C10.2502 4.51635 9.18476 4 8 4V6ZM12 5H10.2361V7H12V5ZM16.9497 8.46447L23.7071 1.70711L22.2929 0.292893L15.5355 7.05025L16.9497 8.46447ZM15.5355 8.46447C16.4415 9.37038 17 10.619 17 12H19C19 10.0673 18.2154 8.31591 16.9497 7.05025L15.5355 8.46447ZM1.70711 23.7071L8.46447 16.9497L7.05025 15.5355L0.292893 22.2929L1.70711 23.7071ZM8.46447 16.9497L16.9497 8.46447L15.5355 7.05025L7.05025 15.5355L8.46447 16.9497ZM12 17C10.619 17 9.37038 16.4415 8.46447 15.5355L7.05025 16.9497C8.31591 18.2154 10.0673 19 12 19V17Z" fill="black"/>
<circle cx="20" cy="20" r="2" stroke="black" stroke-width="2"/>
</svg>
