<svg width="24" height="24" viewBox="0 0 24 24" fill="none" xmlns="http://www.w3.org/2000/svg">
<path d="M6 10.2361H7C7 9.95166 6.87887 9.68067 6.66691 9.49097L6 10.2361ZM14 19C14.5523 19 15 18.5523 15 18C15 17.4477 14.5523 17 14 17V19ZM17 14C17 14.5523 17.4477 15 18 15C18.5523 15 19 14.5523 19 14H17ZM10.2361 6L9.49097 6.66691C9.68067 6.87887 9.95166 7 10.2361 7V6ZM12 17C9.23858 17 7 14.7614 7 12H5C5 15.866 8.13401 19 12 19V17ZM12 7C14.7614 7 17 9.23858 17 12H19C19 8.13401 15.866 5 12 5V7ZM6 8C6 6.89543 6.89543 6 8 6V4C5.79086 4 4 5.79086 4 8H6ZM6.66691 9.49097C6.25615 9.12333 6 8.59224 6 8H4C4 9.18476 4.51635 10.2502 5.33309 10.9812L6.66691 9.49097ZM7 12V10.2361H5V12H7ZM12 19H14V17H12V19ZM17 12V14H19V12H17ZM8 6C8.59224 6 9.12333 6.25615 9.49097 6.66691L10.9812 5.33309C10.2502 4.51635 9.18476 4 8 4V6ZM12 5H10.2361V7H12V5Z" fill="black"/>
<circle cx="20" cy="20" r="2" stroke="black" stroke-width="2"/>
<path d="M10 12L9.4453 11.1679C9.1671 11.3534 9 11.6656 9 12C9 12.3344 9.1671 12.6466 9.4453 12.8321L10 12ZM13.5547 10.8321C14.0142 10.5257 14.1384 9.90483 13.8321 9.4453C13.5257 8.98577 12.9048 8.8616 12.4453 9.16795L13.5547 10.8321ZM12.4453 14.8321C12.9048 15.1384 13.5257 15.0142 13.8321 14.5547C14.1384 14.0952 14.0142 13.4743 13.5547 13.1679L12.4453 14.8321ZM10.5547 12.8321L13.5547 10.8321L12.4453 9.16795L9.4453 11.1679L10.5547 12.8321ZM9.4453 12.8321L12.4453 14.8321L13.5547 13.1679L10.5547 11.1679L9.4453 12.8321Z" fill="black"/>
</svg>
