<svg width="24" height="24" viewBox="0 0 24 24" fill="none" xmlns="http://www.w3.org/2000/svg">
<path d="M6 10.2361H7C7 9.95166 6.87887 9.68067 6.66691 9.49097L6 10.2361ZM14 19C14.5523 19 15 18.5523 15 18C15 17.4477 14.5523 17 14 17V19ZM17 14C17 14.5523 17.4477 15 18 15C18.5523 15 19 14.5523 19 14H17ZM10.2361 6L9.49097 6.66691C9.68067 6.87887 9.95166 7 10.2361 7V6ZM12 17C9.23858 17 7 14.7614 7 12H5C5 15.866 8.13401 19 12 19V17ZM12 7C14.7614 7 17 9.23858 17 12H19C19 8.13401 15.866 5 12 5V7ZM6 8C6 6.89543 6.89543 6 8 6V4C5.79086 4 4 5.79086 4 8H6ZM6.66691 9.49097C6.25615 9.12333 6 8.59224 6 8H4C4 9.18476 4.51635 10.2502 5.33309 10.9812L6.66691 9.49097ZM7 12V10.2361H5V12H7ZM12 19H14V17H12V19ZM17 12V14H19V12H17ZM8 6C8.59224 6 9.12333 6.25615 9.49097 6.66691L10.9812 5.33309C10.2502 4.51635 9.18476 4 8 4V6ZM12 5H10.2361V7H12V5Z" fill="black"/>
<circle cx="20" cy="20" r="2" stroke="black" stroke-width="2"/>
<path d="M10.7071 9.29289C10.3166 8.90237 9.68342 8.90237 9.29289 9.29289C8.90237 9.68342 8.90237 10.3166 9.29289 10.7071L10.7071 9.29289ZM13.2929 14.7071C13.6834 15.0976 14.3166 15.0976 14.7071 14.7071C15.0976 14.3166 15.0976 13.6834 14.7071 13.2929L13.2929 14.7071ZM14.7071 10.7071C15.0976 10.3166 15.0976 9.68342 14.7071 9.2929C14.3166 8.90237 13.6834 8.90237 13.2929 9.29289L14.7071 10.7071ZM9.29289 13.2929C8.90237 13.6834 8.90237 14.3166 9.29289 14.7071C9.68342 15.0976 10.3166 15.0976 10.7071 14.7071L9.29289 13.2929ZM9.29289 10.7071L13.2929 14.7071L14.7071 13.2929L10.7071 9.29289L9.29289 10.7071ZM13.2929 9.29289L9.29289 13.2929L10.7071 14.7071L14.7071 10.7071L13.2929 9.29289Z" fill="black"/>
</svg>
