<svg width="24" height="24" viewBox="0 0 24 24" fill="none" xmlns="http://www.w3.org/2000/svg">
<path d="M5 12.0001C5 12.5523 5.44772 13.0001 6 13.0001C6.55228 13.0001 7 12.5523 7 12.0001H5ZM12 7.00006C12.5523 7.00006 13 6.55234 13 6.00006C13 5.44777 12.5523 5.00006 12 5.00006V7.00006ZM6 10.2362H7C7 9.95172 6.87887 9.68073 6.66691 9.49103L6 10.2362ZM13.7639 18.0001L14.509 17.3331C14.3193 17.1212 14.0483 17.0001 13.7639 17.0001V18.0001ZM18 13.764H17C17 14.0484 17.1211 14.3194 17.3331 14.5091L18 13.764ZM10.2361 6.00006L9.49097 6.66697C9.68067 6.87892 9.95166 7.00006 10.2361 7.00006V6.00006ZM23.7071 1.70711C24.0976 1.31658 24.0976 0.683418 23.7071 0.292893C23.3166 -0.0976311 22.6834 -0.0976311 22.2929 0.292893L23.7071 1.70711ZM0.292893 22.2929C-0.0976311 22.6834 -0.0976311 23.3166 0.292893 23.7071C0.683417 24.0976 1.31658 24.0976 1.70711 23.7071L0.292893 22.2929ZM16.2426 7.75739L15.5355 7.05028L16.2426 7.75739ZM6 8.00006C6 6.89549 6.89543 6.00006 8 6.00006V4.00006C5.79086 4.00006 4 5.79092 4 8.00006H6ZM18 16.0001C18 17.1046 17.1046 18.0001 16 18.0001V20.0001C18.2091 20.0001 20 18.2092 20 16.0001H18ZM6.66691 9.49103C6.25615 9.12338 6 8.5923 6 8.00006H4C4 9.18482 4.51635 10.2503 5.33309 10.9813L6.66691 9.49103ZM7 12.0001V10.2362H5V12.0001H7ZM16 18.0001C15.4078 18.0001 14.8767 17.7439 14.509 17.3331L13.0188 18.667C13.7498 19.4837 14.8152 20.0001 16 20.0001V18.0001ZM12 19.0001H13.7639V17.0001H12V19.0001ZM17.3331 14.5091C17.7439 14.8767 18 15.4078 18 16.0001H20C20 14.8153 19.4836 13.7498 18.6669 13.0188L17.3331 14.5091ZM17 12.0001V13.764H19V12.0001H17ZM8 6.00006C8.59224 6.00006 9.12333 6.25621 9.49097 6.66697L10.9812 5.33314C10.2502 4.51641 9.18476 4.00006 8 4.00006V6.00006ZM12 5.00006H10.2361V7.00006H12V5.00006ZM7.05022 15.5356L0.292893 22.2929L1.70711 23.7071L8.46444 16.9498L7.05022 15.5356ZM12 17.0001C10.619 17.0001 9.37036 16.4415 8.46444 15.5356L7.05022 16.9498C8.31588 18.2154 10.0673 19.0001 12 19.0001V17.0001ZM22.2929 0.292893L15.5355 7.05028L16.9497 8.46449L23.7071 1.70711L22.2929 0.292893ZM15.5355 7.05028L7.05022 15.5356L8.46444 16.9498L16.9497 8.46449L15.5355 7.05028ZM15.5355 8.4645C16.4414 9.37042 17 10.6191 17 12.0001H19C19 10.0673 18.2154 8.31593 16.9497 7.05028L15.5355 8.4645Z" fill="black"/>
</svg>
