<svg width="24" height="24" viewBox="0 0 24 24" fill="none" xmlns="http://www.w3.org/2000/svg">
<path d="M6 10.2361H7C7 9.95166 6.87887 9.68067 6.66691 9.49097L6 10.2361ZM13.7639 18L14.509 17.3331C14.3193 17.1211 14.0483 17 13.7639 17V18ZM18 13.7639H17C17 14.0483 17.1211 14.3193 17.3331 14.509L18 13.7639ZM10.2361 6L9.49097 6.66691C9.68067 6.87887 9.95166 7 10.2361 7V6ZM12 17C9.23858 17 7 14.7614 7 12H5C5 15.866 8.13401 19 12 19V17ZM12 7C14.7614 7 17 9.23858 17 12H19C19 8.13401 15.866 5 12 5V7ZM6 8C6 6.89543 6.89543 6 8 6V4C5.79086 4 4 5.79086 4 8H6ZM18 16C18 17.1046 17.1046 18 16 18V20C18.2091 20 20 18.2091 20 16H18ZM6.66691 9.49097C6.25615 9.12333 6 8.59224 6 8H4C4 9.18476 4.51635 10.2502 5.33309 10.9812L6.66691 9.49097ZM7 12V10.2361H5V12H7ZM16 18C15.4078 18 14.8767 17.7438 14.509 17.3331L13.0188 18.6669C13.7498 19.4836 14.8152 20 16 20V18ZM12 19H13.7639V17H12V19ZM17.3331 14.509C17.7438 14.8767 18 15.4078 18 16H20C20 14.8152 19.4836 13.7498 18.6669 13.0188L17.3331 14.509ZM17 12V13.7639H19V12H17ZM8 6C8.59224 6 9.12333 6.25615 9.49097 6.66691L10.9812 5.33309C10.2502 4.51635 9.18476 4 8 4V6ZM12 5H10.2361V7H12V5Z" fill="black"/>
<path d="M10.7071 9.29289C10.3166 8.90237 9.68342 8.90237 9.29289 9.29289C8.90237 9.68342 8.90237 10.3166 9.29289 10.7071L10.7071 9.29289ZM13.2929 14.7071C13.6834 15.0976 14.3166 15.0976 14.7071 14.7071C15.0976 14.3166 15.0976 13.6834 14.7071 13.2929L13.2929 14.7071ZM14.7071 10.7071C15.0976 10.3166 15.0976 9.68342 14.7071 9.2929C14.3166 8.90237 13.6834 8.90237 13.2929 9.29289L14.7071 10.7071ZM9.29289 13.2929C8.90237 13.6834 8.90237 14.3166 9.29289 14.7071C9.68342 15.0976 10.3166 15.0976 10.7071 14.7071L9.29289 13.2929ZM9.29289 10.7071L13.2929 14.7071L14.7071 13.2929L10.7071 9.29289L9.29289 10.7071ZM13.2929 9.29289L9.29289 13.2929L10.7071 14.7071L14.7071 10.7071L13.2929 9.29289Z" fill="black"/>
</svg>
