<svg width="24" height="24" viewBox="0 0 24 24" fill="none" xmlns="http://www.w3.org/2000/svg">
<path d="M12 18H12.01" stroke="black" stroke-width="2" stroke-linecap="round"/>
<path d="M1.70711 0.292893C1.31658 -0.0976311 0.683417 -0.0976311 0.292893 0.292893C-0.0976311 0.683417 -0.0976311 1.31658 0.292893 1.70711L1.70711 0.292893ZM22.2929 23.7071C22.6834 24.0976 23.3166 24.0976 23.7071 23.7071C24.0976 23.3166 24.0976 22.6834 23.7071 22.2929L22.2929 23.7071ZM8 1C7.44772 1 7 1.44772 7 2C7 2.55228 7.44772 3 8 3V1ZM18 12.2667C18 12.819 18.4477 13.2667 19 13.2667C19.5523 13.2667 20 12.819 20 12.2667H18ZM17 3C17.5523 3 18 3.44772 18 4H20C20 2.34315 18.6569 1 17 1V3ZM18 20C18 20.5523 17.5523 21 17 21V23C18.6569 23 20 21.6569 20 20H18ZM17 21H7V23H17V21ZM7 21C6.44771 21 6 20.5523 6 20H4C4 21.6569 5.34315 23 7 23V21ZM0.292893 1.70711L4.29289 5.70711L5.70711 4.29289L1.70711 0.292893L0.292893 1.70711ZM6 20V5H4V20H6ZM4.29289 5.70711L18.2929 19.7071L19.7071 18.2929L5.70711 4.29289L4.29289 5.70711ZM18.2929 19.7071L22.2929 23.7071L23.7071 22.2929L19.7071 18.2929L18.2929 19.7071ZM18 19V20H20V19H18ZM8 3H17V1H8V3ZM18 4V12.2667H20V4H18Z" fill="black"/>
</svg>
