<svg width="24" height="24" viewBox="0 0 24 24" fill="none" xmlns="http://www.w3.org/2000/svg">
<path d="M19 3H5C3.89543 3 3 3.89543 3 5V19C3 20.1046 3.89543 21 5 21H19C20.1046 21 21 20.1046 21 19V5C21 3.89543 20.1046 3 19 3Z" stroke="black" stroke-width="2" stroke-linecap="round" stroke-linejoin="round"/>
<path d="M8 11C7.44772 11 7 11.4477 7 12C7 12.5523 7.44772 13 8 13V11ZM16 13C16.5523 13 17 12.5523 17 12C17 11.4477 16.5523 11 16 11V13ZM9.10557 15.5528C8.85858 16.0468 9.05881 16.6474 9.55279 16.8944C10.0468 17.1414 10.6474 16.9412 10.8944 16.4472L9.10557 15.5528ZM10.8944 7.55279C10.6474 7.05881 10.0468 6.85858 9.55279 7.10557C9.05881 7.35256 8.85858 7.95324 9.10557 8.44721L10.8944 7.55279ZM14.8944 8.44721C15.1414 7.95324 14.9412 7.35256 14.4472 7.10557C13.9532 6.85858 13.3526 7.05881 13.1056 7.55279L14.8944 8.44721ZM13.1056 16.4472C13.3526 16.9412 13.9532 17.1414 14.4472 16.8944C14.9412 16.6474 15.1414 16.0468 14.8944 15.5528L13.1056 16.4472ZM8 13H12V11H8V13ZM12 13H16V11H12V13ZM11.1056 11.5528L9.10557 15.5528L10.8944 16.4472L12.8944 12.4472L11.1056 11.5528ZM12.8944 11.5528L10.8944 7.55279L9.10557 8.44721L11.1056 12.4472L12.8944 11.5528ZM12.8944 12.4472L14.8944 8.44721L13.1056 7.55279L11.1056 11.5528L12.8944 12.4472ZM11.1056 12.4472L13.1056 16.4472L14.8944 15.5528L12.8944 11.5528L11.1056 12.4472Z" fill="black"/>
</svg>
