<svg width="24" height="24" viewBox="0 0 24 24" fill="none" xmlns="http://www.w3.org/2000/svg">
<circle cx="12" cy="13" r="3" stroke="black" stroke-width="2"/>
<path d="M14 21H4C3.46957 21 2.96086 20.7893 2.58579 20.4142C2.21071 20.0391 2 19.5304 2 19V5C2 4.46957 2.21071 3.96086 2.58579 3.58579C2.96086 3.21071 3.46957 3 4 3H9L11 6H20C20.5304 6 21.0391 6.21071 21.4142 6.58579C21.7893 6.96086 22 7.46957 22 8V14" stroke="black" stroke-width="2" stroke-linecap="round" stroke-linejoin="round"/>
<path d="M18.8944 17.5528C18.6474 17.0588 18.0468 16.8586 17.5528 17.1056C17.0588 17.3526 16.8586 17.9532 17.1056 18.4472L18.8944 17.5528ZM20 22L19.1056 22.4472C19.275 22.786 19.6212 23 20 23C20.3788 23 20.725 22.786 20.8944 22.4472L20 22ZM22.8944 18.4472C23.1414 17.9532 22.9412 17.3526 22.4472 17.1056C21.9532 16.8586 21.3526 17.0588 21.1056 17.5528L22.8944 18.4472ZM17.1056 18.4472L19.1056 22.4472L20.8944 21.5528L18.8944 17.5528L17.1056 18.4472ZM20.8944 22.4472L22.8944 18.4472L21.1056 17.5528L19.1056 21.5528L20.8944 22.4472Z" fill="black"/>
</svg>
