<svg width="24" height="24" viewBox="0 0 24 24" fill="none" xmlns="http://www.w3.org/2000/svg">
<path d="M4.60389 6.0818C4.09678 6.30056 3.86303 6.889 4.0818 7.39611C4.30056 7.90322 4.889 8.13697 5.39611 7.9182L4.60389 6.0818ZM18.4448 8.83177C18.9041 9.13842 19.5251 9.01464 19.8317 8.55531C20.1383 8.09597 20.0146 7.47502 19.5552 7.16838L18.4448 8.83177ZM5.4567 11.1605C4.99303 11.4606 4.86041 12.0797 5.16046 12.5434C5.46052 13.007 6.07964 13.1397 6.5433 12.8396L5.4567 11.1605ZM17.4282 13.8205C17.8813 14.1363 18.5046 14.025 18.8204 13.5719C19.1362 13.1188 19.0249 12.4955 18.5718 12.1797L17.4282 13.8205ZM6.33632 16.2521C5.9232 16.6186 5.88544 17.2506 6.25198 17.6638C6.61852 18.0769 7.25056 18.1146 7.66368 17.7481L6.33632 16.2521ZM16.3487 18.7589C16.7679 19.1186 17.3992 19.0704 17.7589 18.6513C18.1185 18.2322 18.0704 17.6009 17.6513 17.2412L16.3487 18.7589ZM12 6.00006L12.0734 5.00276L12 6.00006ZM12 16.0001L11.9059 16.9956L12 16.0001ZM5 7C5.39611 7.9182 5.39587 7.91831 5.39564 7.91841C5.39557 7.91843 5.39535 7.91853 5.39523 7.91858C5.39498 7.91869 5.39477 7.91878 5.39462 7.91885C5.3943 7.91898 5.39416 7.91904 5.3942 7.91903C5.39427 7.91899 5.39506 7.91866 5.39656 7.91803C5.39956 7.91677 5.40537 7.91433 5.41395 7.91082C5.43111 7.90379 5.4593 7.89242 5.49803 7.87741C5.57552 7.84738 5.69507 7.80284 5.8528 7.74927C6.16852 7.64206 6.63569 7.49924 7.2236 7.36437C8.40201 7.09402 10.0495 6.85928 11.9266 6.99737L12.0734 5.00276C9.95053 4.84659 8.09799 5.11181 6.7764 5.41501C6.11431 5.5669 5.58148 5.72923 5.2097 5.85549C5.02368 5.91866 4.8776 5.97292 4.77541 6.01252C4.7243 6.03232 4.68413 6.04848 4.65539 6.06026C4.64101 6.06615 4.6295 6.07095 4.62089 6.07457C4.61659 6.07638 4.61302 6.07789 4.61018 6.0791C4.60877 6.0797 4.60753 6.08023 4.60648 6.08068C4.60596 6.08091 4.60548 6.08111 4.60505 6.0813C4.60483 6.08139 4.60454 6.08152 4.60443 6.08156C4.60416 6.08168 4.60389 6.0818 5 7ZM11.9266 6.99737C14.0666 7.1548 15.72 7.62945 16.8272 8.05706C17.381 8.27092 17.798 8.47297 18.0704 8.61751C18.2066 8.68977 18.3066 8.74759 18.3693 8.78524C18.4007 8.80406 18.4228 8.81783 18.4354 8.82583C18.4417 8.82983 18.4456 8.83238 18.4472 8.8334C18.448 8.83391 18.4482 8.83404 18.4478 8.83377C18.4476 8.83364 18.4472 8.83341 18.4467 8.83307C18.4465 8.83291 18.4462 8.83271 18.4459 8.8325C18.4457 8.83239 18.4454 8.83221 18.4453 8.83215C18.4451 8.83197 18.4448 8.83177 19 8.00007C19.5552 7.16838 19.5549 7.16817 19.5546 7.16796C19.5545 7.16788 19.5542 7.16766 19.5539 7.1675C19.5534 7.16718 19.5529 7.16684 19.5524 7.16647C19.5512 7.16573 19.55 7.16489 19.5486 7.16396C19.5457 7.16208 19.5423 7.15981 19.5382 7.15715C19.53 7.15184 19.5194 7.14498 19.5063 7.13667C19.4801 7.12006 19.444 7.09765 19.3982 7.07019C19.3067 7.01527 19.1762 6.94012 19.0077 6.85074C18.6708 6.67201 18.1815 6.43612 17.5478 6.19136C16.28 5.70172 14.4334 5.17637 12.0734 5.00276L11.9266 6.99737ZM6 12.0001C6.5433 12.8396 6.54289 12.8399 6.54249 12.8401C6.54237 12.8402 6.54197 12.8405 6.54172 12.8406C6.54123 12.841 6.54076 12.8413 6.54032 12.8415C6.53945 12.8421 6.53869 12.8426 6.53805 12.843C6.53677 12.8438 6.53597 12.8443 6.53563 12.8445C6.53495 12.8449 6.53616 12.8442 6.53926 12.8423C6.54544 12.8386 6.55915 12.8305 6.58039 12.8186C6.62287 12.795 6.69545 12.7565 6.79811 12.7085C7.00336 12.6127 7.32915 12.479 7.77567 12.351C8.66667 12.0954 10.0486 11.8592 11.9266 11.9974L12.0734 10.0028C9.95142 9.84666 8.33333 10.1104 7.22433 10.4285C6.67085 10.5872 6.24664 10.7587 5.95189 10.8964C5.80455 10.9652 5.68963 11.0255 5.60711 11.0714C5.56585 11.0944 5.53268 11.1138 5.50762 11.1289C5.49509 11.1365 5.48458 11.1429 5.47609 11.1482C5.47185 11.1509 5.46811 11.1532 5.46488 11.1553C5.46326 11.1563 5.46177 11.1573 5.46041 11.1582C5.45973 11.1586 5.45908 11.159 5.45846 11.1594C5.45815 11.1596 5.45771 11.1599 5.45755 11.16C5.45712 11.1603 5.4567 11.1605 6 12.0001ZM11.9266 11.9974C13.5328 12.1156 14.9197 12.576 15.9095 13.0119C16.4026 13.229 16.7917 13.4375 17.0536 13.5892C17.1844 13.6649 17.283 13.7262 17.3465 13.7669C17.3782 13.7872 17.4012 13.8023 17.4149 13.8115C17.4218 13.8161 17.4264 13.8192 17.4286 13.8208C17.4297 13.8215 17.4302 13.8219 17.4302 13.8218C17.4301 13.8218 17.43 13.8217 17.4296 13.8215C17.4295 13.8213 17.4293 13.8212 17.429 13.821C17.4289 13.821 17.4287 13.8208 17.4286 13.8208C17.4284 13.8206 17.4282 13.8205 18 13.0001C18.5718 12.1797 18.5716 12.1795 18.5713 12.1793C18.5712 12.1793 18.5709 12.1791 18.5708 12.179C18.5704 12.1787 18.5699 12.1784 18.5695 12.1781C18.5685 12.1774 18.5674 12.1767 18.5662 12.1758C18.5637 12.1741 18.5606 12.1719 18.5569 12.1694C18.5494 12.1643 18.5395 12.1576 18.5272 12.1494C18.5026 12.1329 18.4684 12.1104 18.425 12.0826C18.3381 12.0269 18.2141 11.95 18.0558 11.8584C17.7396 11.6753 17.2849 11.4321 16.7155 11.1814C15.5803 10.6816 13.9672 10.1421 12.0734 10.0028L11.9266 11.9974ZM7 17.0001C7.66368 17.7481 7.66322 17.7485 7.66276 17.7489C7.66261 17.749 7.66216 17.7494 7.66187 17.7497C7.66129 17.7502 7.66073 17.7507 7.66019 17.7512C7.65911 17.7521 7.65812 17.753 7.65721 17.7538C7.65539 17.7554 7.65392 17.7566 7.65278 17.7576C7.65052 17.7595 7.64962 17.7602 7.65011 17.7598C7.65109 17.759 7.6576 17.7538 7.66975 17.7447C7.69405 17.7265 7.74092 17.6932 7.81128 17.6501C7.95178 17.5641 8.18703 17.4385 8.52505 17.3173C9.19681 17.0764 10.2993 16.8438 11.9059 16.9956L12.0941 15.0045C10.2007 14.8255 8.80319 15.0929 7.84995 15.4347C7.37547 15.6048 7.01697 15.7913 6.76684 15.9445C6.6419 16.021 6.54424 16.089 6.47283 16.1424C6.43713 16.1691 6.40799 16.192 6.38529 16.2106C6.37394 16.2198 6.36419 16.228 6.35604 16.2349C6.35196 16.2384 6.34828 16.2416 6.34499 16.2444C6.34335 16.2459 6.34181 16.2472 6.34036 16.2485C6.33964 16.2491 6.33894 16.2497 6.33827 16.2503C6.33793 16.2506 6.33744 16.2511 6.33728 16.2512C6.3368 16.2516 6.33632 16.2521 7 17.0001ZM11.9059 16.9956C13.2405 17.1218 14.3626 17.5684 15.1561 17.9897C15.5511 18.1994 15.859 18.3998 16.0642 18.5446C16.1666 18.6168 16.2429 18.6748 16.2911 18.7126C16.3152 18.7315 16.3322 18.7453 16.3419 18.7533C16.3467 18.7573 16.3498 18.7598 16.3509 18.7608C16.3515 18.7613 16.3516 18.7614 16.3512 18.7611C16.3511 18.7609 16.3508 18.7607 16.3503 18.7603C16.3501 18.7601 16.3499 18.7599 16.3496 18.7597C16.3495 18.7596 16.3493 18.7594 16.3492 18.7593C16.349 18.7591 16.3487 18.7589 17 18.0001C17.6513 17.2412 17.651 17.241 17.6507 17.2408C17.6506 17.2407 17.6504 17.2405 17.6502 17.2403C17.6498 17.24 17.6494 17.2396 17.6489 17.2392C17.648 17.2384 17.647 17.2376 17.6458 17.2366C17.6435 17.2346 17.6407 17.2323 17.6374 17.2295C17.6308 17.224 17.6223 17.2168 17.6117 17.2082C17.5907 17.1909 17.5618 17.1675 17.5253 17.1389C17.4524 17.0817 17.349 17.0034 17.2171 16.9103C16.9535 16.7244 16.5739 16.478 16.0939 16.2232C15.1374 15.7154 13.7595 15.162 12.0941 15.0045L11.9059 16.9956Z" fill="black"/>
</svg>
