<svg width="24" height="24" viewBox="0 0 24 24" fill="none" xmlns="http://www.w3.org/2000/svg">
<path d="M7 19.5L6.00772 19.376C5.95266 19.8165 6.19459 20.2405 6.60181 20.4173C7.00902 20.5941 7.48403 20.4812 7.76822 20.1402L7 19.5ZM17 18.5L16.0715 18.8714C16.2589 19.3398 16.7658 19.5953 17.2537 19.4673C17.7417 19.3393 18.0579 18.8679 17.9912 18.3678L17 18.5ZM7 19.5C7.99228 19.624 7.99227 19.6241 7.99228 19.624C7.99229 19.6239 7.9923 19.6238 7.99232 19.6237C7.99237 19.6233 7.99245 19.6227 7.99255 19.6218C7.99277 19.6201 7.9931 19.6175 7.99356 19.6139C7.99447 19.6067 7.99586 19.5957 7.99773 19.5811C8.00148 19.5518 8.00714 19.508 8.01469 19.4504C8.02979 19.3354 8.05242 19.1659 8.08236 18.9496C8.14223 18.517 8.23123 17.8978 8.34739 17.1544C8.57998 15.6658 8.92021 13.6871 9.3519 11.7137C9.78598 9.72933 10.3029 7.79597 10.8796 6.37638C11.1702 5.66115 11.4532 5.13426 11.7119 4.80314C11.9923 4.44417 12.0938 4.5 12 4.5V2.5C11.1562 2.5 10.539 3.05583 10.1358 3.57186C9.71089 4.11574 9.34547 4.83885 9.02666 5.62362C8.38462 7.20403 7.83902 9.27067 7.3981 11.2863C6.95479 13.3129 6.60752 15.3342 6.37136 16.8456C6.25315 17.6022 6.16246 18.233 6.10124 18.6754C6.07062 18.8966 6.04736 19.0708 6.0317 19.1902C6.02386 19.2499 6.01793 19.2958 6.01392 19.3271C6.01192 19.3428 6.0104 19.3547 6.00937 19.3629C6.00885 19.367 6.00845 19.3701 6.00818 19.3723C6.00804 19.3734 6.00793 19.3743 6.00786 19.3749C6.00782 19.3752 6.00779 19.3755 6.00777 19.3756C6.00774 19.3758 6.00772 19.376 7 19.5ZM12 4.5C11.9341 4.5 12.039 4.46192 12.308 4.78472C12.5613 5.08875 12.8407 5.57533 13.1293 6.24136C13.7024 7.5639 14.2176 9.36908 14.6512 11.2272C15.0821 13.0741 15.4219 14.9265 15.6542 16.3206C15.7703 17.0168 15.8591 17.5965 15.9189 18.0015C15.9488 18.204 15.9714 18.3626 15.9865 18.4702C15.994 18.524 15.9996 18.565 16.0034 18.5923C16.0052 18.6059 16.0066 18.6162 16.0075 18.6228C16.008 18.6262 16.0083 18.6286 16.0085 18.6302C16.0086 18.631 16.0087 18.6315 16.0087 18.6319C16.0088 18.632 16.0088 18.6321 16.0088 18.6322C16.0088 18.6322 16.0088 18.6322 17 18.5C17.9912 18.3678 17.9912 18.3677 17.9912 18.3675C17.9912 18.3673 17.9911 18.3671 17.9911 18.3668C17.991 18.3662 17.9909 18.3654 17.9908 18.3643C17.9905 18.3623 17.9901 18.3593 17.9896 18.3554C17.9885 18.3477 17.987 18.3364 17.985 18.3217C17.981 18.2922 17.975 18.249 17.9671 18.1929C17.9514 18.0807 17.9281 17.9171 17.8975 17.7094C17.8362 17.2941 17.7454 16.702 17.627 15.9919C17.3906 14.5735 17.0429 12.6759 16.5988 10.7728C16.1574 8.88092 15.6101 6.9361 14.9644 5.44614C14.6437 4.70592 14.2746 4.02062 13.8444 3.50435C13.4298 3.00683 12.8159 2.5 12 2.5V4.5ZM17 18.5C17.9285 18.1286 17.9284 18.1284 17.9283 18.1282C17.9283 18.1281 17.9282 18.1279 17.9281 18.1278C17.928 18.1274 17.9278 18.127 17.9276 18.1264C17.9272 18.1254 17.9267 18.1241 17.926 18.1224C17.9247 18.1192 17.9229 18.1147 17.9206 18.1091C17.916 18.0979 17.9096 18.082 17.9012 18.0619C17.8845 18.0215 17.8604 17.9638 17.8293 17.8912C17.7671 17.7462 17.6769 17.5411 17.5624 17.2959C17.3346 16.8076 17.0059 16.1496 16.6075 15.4855C16.2138 14.8294 15.7276 14.1258 15.1759 13.5741C14.6522 13.0504 13.9072 12.5 13 12.5V14.5C13.0928 14.5 13.3478 14.5746 13.7616 14.9884C14.1474 15.3742 14.5362 15.9206 14.8925 16.5145C15.2441 17.1004 15.5404 17.6924 15.7501 18.1416C15.8544 18.3651 15.936 18.5507 15.991 18.6791C16.0185 18.7432 16.0393 18.7929 16.0529 18.8258C16.0597 18.8423 16.0647 18.8545 16.0678 18.8622C16.0694 18.866 16.0705 18.8688 16.0711 18.8703C16.0714 18.8711 16.0716 18.8716 16.0717 18.8717C16.0717 18.8718 16.0717 18.8718 16.0717 18.8718C16.0717 18.8718 16.0716 18.8717 16.0716 18.8716C16.0716 18.8715 16.0715 18.8714 17 18.5ZM13 12.5C12.7155 12.5 12.4765 12.598 12.3351 12.6659C12.1751 12.7427 12.02 12.8409 11.8784 12.9408C11.5942 13.1414 11.2802 13.4093 10.9623 13.7027C10.3222 14.2936 9.58136 15.0677 8.88785 15.8243C8.19099 16.5845 7.52748 17.3428 7.03911 17.91C6.79464 18.1939 6.59342 18.4306 6.45307 18.5967C6.38288 18.6797 6.32788 18.7451 6.29027 18.7899C6.27147 18.8123 6.25701 18.8296 6.24717 18.8414C6.24225 18.8473 6.23848 18.8518 6.23591 18.8549C6.23462 18.8564 6.23363 18.8576 6.23294 18.8584C6.23259 18.8588 6.23232 18.8592 6.23213 18.8594C6.23203 18.8595 6.23195 18.8596 6.2319 18.8597C6.23183 18.8598 6.23178 18.8598 7 19.5C7.76822 20.1402 7.76821 20.1402 7.76822 20.1402C7.76824 20.1402 7.76827 20.1401 7.76833 20.1401C7.76844 20.1399 7.76862 20.1397 7.76888 20.1394C7.76941 20.1388 7.77023 20.1378 7.77135 20.1364C7.77359 20.1338 7.77701 20.1297 7.78158 20.1242C7.79072 20.1133 7.80446 20.0968 7.82252 20.0753C7.85864 20.0322 7.91204 19.9687 7.98053 19.8877C8.11752 19.7256 8.31474 19.4936 8.55464 19.215C9.03502 18.6572 9.68401 17.9155 10.3622 17.1757C11.0436 16.4323 11.7403 15.7064 12.3189 15.1723C12.6104 14.9032 12.8511 14.7023 13.0318 14.5748C13.1226 14.5107 13.1775 14.48 13.2006 14.4689C13.2422 14.4489 13.1595 14.5 13 14.5V12.5Z" fill="black"/>
</svg>
