<svg width="24" height="24" viewBox="0 0 24 24" fill="none" xmlns="http://www.w3.org/2000/svg">
<path d="M16 8.39301L15.09 8.26L12 2L8.91 8.26L2 9.27L7 14.14L5.82 21.02L12 17.77L18.18 21.02L17.662 18" stroke="black" stroke-width="2" stroke-linecap="round" stroke-linejoin="round"/>
<path d="M20 14H20.01" stroke="black" stroke-width="2" stroke-linecap="round"/>
<path d="M19 10C19 10.5523 19.4477 11 20 11C20.5523 11 21 10.5523 21 10H19ZM21 6C21 5.44772 20.5523 5 20 5C19.4477 5 19 5.44772 19 6H21ZM21 10V6H19V10H21Z" fill="black"/>
</svg>
