<svg width="24" height="24" viewBox="0 0 24 24" fill="none" xmlns="http://www.w3.org/2000/svg">
<path d="M4.94894 13.3163C4.98206 13.2169 5 13.1105 5 13C5 12.4477 4.55228 12 4 12C3.44772 12 3 12.4477 3 13C3 13.5523 3.44772 14 4 14C4.44174 14 4.81658 13.7136 4.94894 13.3163ZM4.94894 13.3163L11.1021 15.3674M11.1021 15.3674C11.0359 15.5662 11 15.7789 11 16C11 17.1046 11.8954 18 13 18C14.1046 18 15 17.1046 15 16C15 15.2848 14.6246 14.6573 14.0601 14.3038M11.1021 15.3674C11.3668 14.5728 12.1165 14 13 14C13.3894 14 13.7528 14.1113 14.0601 14.3038M14.0601 14.3038L16.4098 10.5443M16.4098 10.5443C16.8708 10.8331 17.4159 11 18 11C19.6569 11 21 9.65685 21 8C21 6.34315 19.6569 5 18 5C16.3431 5 15 6.34315 15 8C15 9.07276 15.5631 10.014 16.4098 10.5443Z" stroke="black" stroke-width="2" stroke-linecap="round" stroke-linejoin="round"/>
</svg>
