<svg width="24" height="24" viewBox="0 0 24 24" fill="none" xmlns="http://www.w3.org/2000/svg">
<path d="M8 9C8.55228 9 9 8.55228 9 8C9 7.44772 8.55228 7 8 7V9ZM18 17C18 16.4477 17.5523 16 17 16C16.4477 16 16 16.4477 16 17H18ZM13 8C13 7.44772 12.5523 7 12 7C11.4477 7 11 7.44772 11 8H13ZM12 13H11C11 13.5523 11.4477 14 12 14V13ZM17 14C17.5523 14 18 13.5523 18 13C18 12.4477 17.5523 12 17 12V14ZM15.2929 8.29289C14.9024 8.68342 14.9024 9.31658 15.2929 9.70711C15.6834 10.0976 16.3166 10.0976 16.7071 9.70711L15.2929 8.29289ZM19.7071 6.70711C20.0976 6.31658 20.0976 5.68342 19.7071 5.29289C19.3166 4.90237 18.6834 4.90237 18.2929 5.29289L19.7071 6.70711ZM13 17C12.4477 17 12 17.4477 12 18C12 18.5523 12.4477 19 13 19V17ZM13.01 19C13.5623 19 14.01 18.5523 14.01 18C14.01 17.4477 13.5623 17 13.01 17V19ZM9 10C8.44772 10 8 10.4477 8 11C8 11.5523 8.44772 12 9 12V10ZM9.01 12C9.56228 12 10.01 11.5523 10.01 11C10.01 10.4477 9.56228 10 9.01 10V12ZM7 13C6.44772 13 6 13.4477 6 14C6 14.5523 6.44772 15 7 15V13ZM7.01 15C7.56228 15 8.01 14.5523 8.01 14C8.01 13.4477 7.56228 13 7.01 13V15ZM10 15C9.44772 15 9 15.4477 9 16C9 16.5523 9.44772 17 10 17V15ZM10.01 17C10.5623 17 11.01 16.5523 11.01 16C11.01 15.4477 10.5623 15 10.01 15V17ZM7 17C6.44772 17 6 17.4477 6 18C6 18.5523 6.44772 19 7 19V17ZM7.01 19C7.56228 19 8.01 18.5523 8.01 18C8.01 17.4477 7.56228 17 7.01 17V19ZM5 20H3C3 21.1046 3.89543 22 5 22V20ZM5 20V12H3V20H5ZM5 22H13V20H5V22ZM5 12C5 10.3431 6.34315 9 8 9V7C5.23858 7 3 9.23858 3 12H5ZM16 17C16 18.6569 14.6569 20 13 20V22C15.7614 22 18 19.7614 18 17H16ZM11 8V13H13V8H11ZM12 14H17V12H12V14ZM16.7071 9.70711L19.7071 6.70711L18.2929 5.29289L15.2929 8.29289L16.7071 9.70711ZM13 19H13.01V17H13V19ZM9 12H9.01V10H9V12ZM7 15H7.01V13H7V15ZM10 17H10.01V15H10V17ZM7 19H7.01V17H7V19Z" fill="black"/>
</svg>
