<svg width="24" height="24" viewBox="0 0 24 24" fill="none" xmlns="http://www.w3.org/2000/svg">
<path d="M20.82 10.1989C20.9298 10.7402 21.4577 11.0899 21.9989 10.98C22.5401 10.8701 22.8898 10.3423 22.78 9.80107L20.82 10.1989ZM22.78 14.1989C22.8898 13.6577 22.5401 13.1299 21.9989 13.02C21.4577 12.9101 20.9298 13.2598 20.82 13.8011L22.78 14.1989ZM3.18006 13.8011C3.07019 13.2598 2.54236 12.9101 2.00111 13.02C1.45986 13.1299 1.11016 13.6577 1.22003 14.1989L3.18006 13.8011ZM1.22003 9.80107C1.11016 10.3423 1.45986 10.8701 2.00111 10.98C2.54236 11.0899 3.07019 10.7402 3.18006 10.1989L1.22003 9.80107ZM12 3C16.353 3 19.9862 6.09132 20.82 10.1989L22.78 9.80107C21.7607 4.77972 17.3229 1 12 1V3ZM20.82 13.8011C19.9862 17.9087 16.353 21 12 21V23C17.3229 23 21.7607 19.2203 22.78 14.1989L20.82 13.8011ZM12 21C7.64705 21 4.01386 17.9087 3.18006 13.8011L1.22003 14.1989C2.23931 19.2203 6.67714 23 12 23V21ZM3.18006 10.1989C4.01386 6.09132 7.64705 3 12 3V1C6.67714 1 2.23931 4.77972 1.22003 9.80107L3.18006 10.1989Z" fill="black"/>
<path d="M18 12H19C19 11.4477 18.5523 11 18 11V12ZM6 12H5C5 12.5523 5.44772 13 6 13V12ZM15.7271 8.66691C16.0954 9.07844 16.7276 9.11346 17.1391 8.74513C17.5507 8.37681 17.5857 7.74461 17.2173 7.33309L15.7271 8.66691ZM8.27292 15.3331C7.9046 14.9216 7.2724 14.8865 6.86087 15.2549C6.44935 15.6232 6.41433 16.2554 6.78265 16.6669L8.27292 15.3331ZM17 12C17 14.7614 14.7614 17 12 17V19C15.866 19 19 15.866 19 12H17ZM7 12C7 9.23858 9.23858 7 12 7V5C8.13401 5 5 8.13401 5 12H7ZM6 13H18V11H6V13ZM12 7C13.4807 7 14.8101 7.6424 15.7271 8.66691L17.2173 7.33309C15.937 5.9026 14.0733 5 12 5V7ZM12 17C10.5193 17 9.18989 16.3576 8.27292 15.3331L6.78265 16.6669C8.06297 18.0974 9.92674 19 12 19V17Z" fill="black"/>
</svg>
