<svg width="24" height="24" viewBox="0 0 24 24" fill="none" xmlns="http://www.w3.org/2000/svg">
<path d="M1 4V10H7" stroke="black" stroke-width="2" stroke-linecap="round" stroke-linejoin="round"/>
<path d="M20.49 9.00008C19.9828 7.56686 19.1209 6.28548 17.9845 5.27549C16.8482 4.26551 15.4745 3.55984 13.9917 3.22433C12.5089 2.88883 10.9652 2.93442 9.50481 3.35685C8.04437 3.77928 6.71475 4.56479 5.64 5.64008L1 10.0001M3.51 15.0001C4.01717 16.4333 4.87913 17.7147 6.01547 18.7247C7.1518 19.7346 8.52547 20.4403 10.0083 20.7758C11.318 21.0722 12.6752 21.0712 13.9806 20.7758" stroke="black" stroke-width="2" stroke-linecap="round" stroke-linejoin="round"/>
<path d="M22 17L18.9231 22L18 20.5015" stroke="black" stroke-width="2" stroke-linecap="round" stroke-linejoin="round"/>
</svg>
