<svg width="24" height="24" viewBox="0 0 24 24" fill="none" xmlns="http://www.w3.org/2000/svg">
<path d="M19 3H5C3.89543 3 3 3.89543 3 5V19C3 20.1046 3.89543 21 5 21H19C20.1046 21 21 20.1046 21 19V5C21 3.89543 20.1046 3 19 3Z" stroke="black" stroke-width="2" stroke-linecap="round" stroke-linejoin="round"/>
<path d="M7 16C6.44772 16 6 16.4477 6 17C6 17.5523 6.44772 18 7 18V16ZM17 18C17.5523 18 18 17.5523 18 17C18 16.4477 17.5523 16 17 16V18ZM7 18H17V16H7V18Z" fill="black"/>
<path d="M7 8V7C6.44772 7 6 7.44772 6 8H7ZM17 8H18C18 7.44772 17.5523 7 17 7V8ZM8 17V8H6V17H8ZM7 9H17V7H7V9ZM16 8V17H18V8H16Z" fill="black"/>
</svg>
