<svg width="24" height="24" viewBox="0 0 24 24" fill="none" xmlns="http://www.w3.org/2000/svg">
<path d="M5 4C5 3.44772 4.55228 3 4 3C3.44772 3 3 3.44772 3 4H5ZM21 20C21 19.4477 20.5523 19 20 19C19.4477 19 19 19.4477 19 20H21ZM12 17C11.4477 17 11 17.4477 11 18C11 18.5523 11.4477 19 12 19V17ZM12.01 19C12.5623 19 13.01 18.5523 13.01 18C13.01 17.4477 12.5623 17 12.01 17V19ZM1.70711 0.292893C1.31658 -0.0976311 0.683417 -0.0976311 0.292893 0.292893C-0.0976311 0.683417 -0.0976311 1.31658 0.292893 1.70711L1.70711 0.292893ZM22.2929 23.7071C22.6834 24.0976 23.3166 24.0976 23.7071 23.7071C24.0976 23.3166 24.0976 22.6834 23.7071 22.2929L22.2929 23.7071ZM8 1C7.44772 1 7 1.44772 7 2C7 2.55228 7.44772 3 8 3V1ZM19 14C19 14.5523 19.4477 15 20 15C20.5523 15 21 14.5523 21 14H19ZM18 21H6V23H18V21ZM6 21C5.44772 21 5 20.5523 5 20H3C3 21.6569 4.34315 23 6 23V21ZM5 20V4H3V20H5ZM18 3C18.5523 3 19 3.44771 19 4H21C21 2.34314 19.6569 1 18 1V3ZM19 20C19 20.5523 18.5523 21 18 21V23C19.6569 23 21 21.6569 21 20H19ZM12 19H12.01V17H12V19ZM0.292893 1.70711L22.2929 23.7071L23.7071 22.2929L1.70711 0.292893L0.292893 1.70711ZM8 3H18V1H8V3ZM19 4V14H21V4H19Z" fill="black"/>
</svg>
