<svg width="24" height="24" viewBox="0 0 24 24" fill="none" xmlns="http://www.w3.org/2000/svg">
<path d="M12 18H12.01M18 22H6C4.89543 22 4 21.1046 4 20L4 4C4 2.89543 4.89543 2 6 2H18C19.1046 2 20 2.89543 20 4L20 20C20 21.1046 19.1046 22 18 22Z" stroke="black" stroke-width="2" stroke-linecap="round" stroke-linejoin="round"/>
<path d="M11 14C11 14.5523 11.4477 15 12 15C12.5523 15 13 14.5523 13 14H11ZM13 10C13 9.44772 12.5523 9 12 9C11.4477 9 11 9.44772 11 10H13ZM13 14V10H11V14H13Z" fill="black"/>
</svg>
