<svg width="24" height="24" viewBox="0 0 24 24" fill="none" xmlns="http://www.w3.org/2000/svg">
<path d="M17.2929 12.7071C17.6834 13.0976 18.3166 13.0976 18.7071 12.7071C19.0976 12.3166 19.0976 11.6834 18.7071 11.2929L17.2929 12.7071ZM15.7071 8.29289C15.3166 7.90237 14.6834 7.90237 14.2929 8.29289C13.9024 8.68342 13.9024 9.31658 14.2929 9.70711L15.7071 8.29289ZM6 12L5.29289 11.2929C4.90237 11.6834 4.90237 12.3166 5.29289 12.7071L6 12ZM8.29289 15.7071C8.68342 16.0976 9.31658 16.0976 9.70711 15.7071C10.0976 15.3166 10.0976 14.6834 9.70711 14.2929L8.29289 15.7071ZM1.70711 0.292893C1.31658 -0.0976311 0.683417 -0.0976311 0.292893 0.292893C-0.0976311 0.683417 -0.0976311 1.31658 0.292893 1.70711L1.70711 0.292893ZM22.2929 23.7071C22.6834 24.0976 23.3166 24.0976 23.7071 23.7071C24.0976 23.3166 24.0976 22.6834 23.7071 22.2929L22.2929 23.7071ZM8.25426 1.6545C7.73497 1.84255 7.46645 2.41596 7.6545 2.93524C7.84255 3.45453 8.41596 3.72305 8.93524 3.535L8.25426 1.6545ZM20.465 15.0648C20.277 15.584 20.5455 16.1574 21.0648 16.3455C21.584 16.5335 22.1574 16.265 22.3455 15.7457L20.465 15.0648ZM12 21C7.02944 21 3 16.9706 3 12H1C1 18.0751 5.92487 23 12 23V21ZM12 3C16.9706 3 21 7.02944 21 12H23C23 5.92487 18.0751 1 12 1V3ZM18.7071 11.2929L15.7071 8.29289L14.2929 9.70711L17.2929 12.7071L18.7071 11.2929ZM6.70711 12.7071L9.70711 9.70711L8.29289 8.29289L5.29289 11.2929L6.70711 12.7071ZM5.29289 12.7071L8.29289 15.7071L9.70711 14.2929L6.70711 11.2929L5.29289 12.7071ZM8.29289 9.70711L11.2929 12.7071L12.7071 11.2929L9.70711 8.29289L8.29289 9.70711ZM6 13H12V11H6V13ZM11.2929 12.7071L18.364 19.7782L19.7782 18.364L12.7071 11.2929L11.2929 12.7071ZM18.364 19.7782L22.2929 23.7071L23.7071 22.2929L19.7782 18.364L18.364 19.7782ZM18.364 18.364C16.7342 19.9937 14.4856 21 12 21V23C15.0373 23 17.7887 21.7677 19.7782 19.7782L18.364 18.364ZM0.292893 1.70711L4.22183 5.63604L5.63604 4.22183L1.70711 0.292893L0.292893 1.70711ZM4.22183 5.63604L8.29289 9.70711L9.70711 8.29289L5.63604 4.22183L4.22183 5.63604ZM3 12C3 9.51444 4.00626 7.26581 5.63604 5.63604L4.22183 4.22183C2.23231 6.21134 1 8.96271 1 12H3ZM19.7782 18.364L5.63604 4.22183L4.22183 5.63604L18.364 19.7782L19.7782 18.364ZM8.93524 3.535C9.8905 3.18907 10.9221 3 12 3V1C10.6865 1 9.4247 1.23065 8.25426 1.6545L8.93524 3.535ZM21 12C21 13.0779 20.8109 14.1095 20.465 15.0648L22.3455 15.7457C22.7694 14.5753 23 13.3135 23 12H21Z" fill="black"/>
</svg>
