<svg width="24" height="24" viewBox="0 0 24 24" fill="none" xmlns="http://www.w3.org/2000/svg">
<path d="M21.8 14C21.9311 13.3538 22 12.6849 22 12C22 6.47715 17.5228 2 12 2C6.47715 2 2 6.47715 2 12C2 17.5228 6.47715 22 12 22C12.6849 22 13.3538 21.9311 14 21.8" stroke="black" stroke-width="2" stroke-linecap="round" stroke-linejoin="round"/>
<path d="M6 12L5.29289 11.2929C4.90237 11.6834 4.90237 12.3166 5.29289 12.7071L6 12ZM18 12L18.7071 12.7071C19.0976 12.3166 19.0976 11.6834 18.7071 11.2929L18 12ZM15.7071 8.29289C15.3166 7.90237 14.6834 7.90237 14.2929 8.29289C13.9024 8.68342 13.9024 9.31658 14.2929 9.70711L15.7071 8.29289ZM14.2929 14.2929C13.9024 14.6834 13.9024 15.3166 14.2929 15.7071C14.6834 16.0976 15.3166 16.0976 15.7071 15.7071L14.2929 14.2929ZM9.70711 9.70711C10.0976 9.31658 10.0976 8.68342 9.70711 8.29289C9.31658 7.90237 8.68342 7.90237 8.29289 8.29289L9.70711 9.70711ZM8.29289 15.7071C8.68342 16.0976 9.31658 16.0976 9.70711 15.7071C10.0976 15.3166 10.0976 14.6834 9.70711 14.2929L8.29289 15.7071ZM6 13H18V11H6V13ZM18.7071 11.2929L15.7071 8.29289L14.2929 9.70711L17.2929 12.7071L18.7071 11.2929ZM17.2929 11.2929L14.2929 14.2929L15.7071 15.7071L18.7071 12.7071L17.2929 11.2929ZM6.70711 12.7071L9.70711 9.70711L8.29289 8.29289L5.29289 11.2929L6.70711 12.7071ZM5.29289 12.7071L8.29289 15.7071L9.70711 14.2929L6.70711 11.2929L5.29289 12.7071Z" fill="black"/>
<path d="M18 18L22 22" stroke="black" stroke-width="2" stroke-linecap="round" stroke-linejoin="round"/>
<path d="M22 18L18 22" stroke="black" stroke-width="2" stroke-linecap="round" stroke-linejoin="round"/>
</svg>
