<svg width="24" height="24" viewBox="0 0 24 24" fill="none" xmlns="http://www.w3.org/2000/svg">
<path d="M5 10L4.66366 9.05826C4.28641 9.19299 4.02596 9.53986 4.00182 9.93972C3.97767 10.3396 4.19448 10.7153 4.55279 10.8944L5 10ZM19 5L19.9417 5.33634C20.0717 4.9724 19.9804 4.56615 19.7071 4.29289C19.4338 4.01963 19.0276 3.92828 18.6637 4.05826L19 5ZM14 19L13.1056 19.4472C13.2847 19.8055 13.6604 20.0223 14.0603 19.9982C14.4601 19.974 14.807 19.7136 14.9417 19.3363L14 19ZM11 13L11.8944 12.5528C11.7977 12.3593 11.6407 12.2023 11.4472 12.1056L11 13ZM5.33634 10.9417L19.3363 5.94174L18.6637 4.05826L4.66366 9.05826L5.33634 10.9417ZM18.0583 4.66366L13.0583 18.6637L14.9417 19.3363L19.9417 5.33634L18.0583 4.66366ZM14.8944 18.5528L11.8944 12.5528L10.1056 13.4472L13.1056 19.4472L14.8944 18.5528ZM11.4472 12.1056L5.44721 9.10557L4.55279 10.8944L10.5528 13.8944L11.4472 12.1056Z" fill="black"/>
<path d="M22 22C22.5523 22 23 21.5523 23 21C23 20.4477 22.5523 20 22 20V22ZM18 20C17.4477 20 17 20.4477 17 21C17 21.5523 17.4477 22 18 22V20ZM22 20H18V22H22V20Z" fill="black"/>
</svg>
