<svg width="24" height="24" viewBox="0 0 24 24" fill="none" xmlns="http://www.w3.org/2000/svg">
<path d="M12 14C13.1046 14 14 13.1046 14 12C14 10.8954 13.1046 10 12 10C10.8954 10 10 10.8954 10 12C10 13.1046 10.8954 14 12 14Z" stroke="black" stroke-width="2" stroke-linecap="round" stroke-linejoin="round"/>
<path d="M6.78265 16.6669C7.15098 17.0784 7.78317 17.1135 8.1947 16.7451C8.60623 16.3768 8.64125 15.7446 8.27292 15.3331L6.78265 16.6669ZM15.7271 15.3331C15.3588 15.7446 15.3938 16.3768 15.8053 16.7451C16.2168 17.1135 16.849 17.0784 17.2173 16.6669L15.7271 15.3331ZM7 12C7 9.23858 9.23858 7 12 7V5C8.13401 5 5 8.13401 5 12H7ZM12 7C14.7614 7 17 9.23858 17 12H19C19 8.13401 15.866 5 12 5V7ZM8.27292 15.3331C7.48059 14.4478 7 13.2812 7 12H5C5 13.7922 5.67482 15.4291 6.78265 16.6669L8.27292 15.3331ZM17 12C17 13.2812 16.5194 14.4478 15.7271 15.3331L17.2173 16.6669C18.3252 15.4291 19 13.7922 19 12H17Z" fill="black"/>
<path d="M4.14447 19.7C4.53109 20.0944 5.16423 20.1007 5.55861 19.7141C5.953 19.3275 5.95929 18.6943 5.57267 18.3L4.14447 19.7ZM18.4273 18.3C18.0407 18.6943 18.047 19.3275 18.4414 19.7141C18.8358 20.1007 19.4689 20.0944 19.8555 19.7L18.4273 18.3ZM3 12C3 7.02944 7.02944 3 12 3V1C5.92487 1 1 5.92487 1 12H3ZM12 3C16.9706 3 21 7.02944 21 12H23C23 5.92487 18.0751 1 12 1V3ZM5.57267 18.3C3.98024 16.6756 3 14.4533 3 12H1C1 14.9977 2.2004 17.7169 4.14447 19.7L5.57267 18.3ZM21 12C21 14.4533 20.0198 16.6756 18.4273 18.3L19.8555 19.7C21.7996 17.7169 23 14.9977 23 12H21Z" fill="black"/>
</svg>
