<svg width="24" height="25" viewBox="0 0 24 25" fill="none" xmlns="http://www.w3.org/2000/svg">
<path d="M14 14.76V3.5C14 2.83696 13.7366 2.20107 13.2678 1.73223C12.7989 1.26339 12.163 1 11.5 1C10.837 1 10.2011 1.26339 9.73223 1.73223C9.26339 2.20107 9 2.83696 9 3.5V14.76C8.19728 15.2963 7.58832 16.0766 7.26307 16.9856C6.93782 17.8946 6.91352 18.8841 7.19376 19.8079C7.47399 20.7317 8.04391 21.541 8.81934 22.1161C9.59476 22.6912 10.5346 23.0017 11.5 23.0017C12.4654 23.0017 13.4052 22.6912 14.1807 22.1161C14.9561 21.541 15.526 20.7317 15.8062 19.8079C16.0865 18.8841 16.0622 17.8946 15.7369 16.9856C15.4117 16.0766 14.8027 15.2963 14 14.76Z" stroke="black" stroke-width="2" stroke-linecap="round" stroke-linejoin="round"/>
<path d="M19 13C19 12.4477 18.5523 12 18 12C17.4477 12 17 12.4477 17 13H19ZM17 13.01C17 13.5623 17.4477 14.01 18 14.01C18.5523 14.01 19 13.5623 19 13.01H17ZM17 9C17 9.55228 17.4477 10 18 10C18.5523 10 19 9.55228 19 9H17ZM19 3C19 2.44772 18.5523 2 18 2C17.4477 2 17 2.44772 17 3H19ZM17 13V13.01H19V13H17ZM19 9V3H17V9H19Z" fill="black"/>
</svg>
