<svg width="24" height="24" viewBox="0 0 24 24" fill="none" xmlns="http://www.w3.org/2000/svg">
<path d="M9 7C9 5.34315 10.3431 4 12 4V2C9.23858 2 7 4.23858 7 7H9ZM12 4C13.6569 4 15 5.34315 15 7H17C17 4.23858 14.7614 2 12 2V4ZM4.24254 8.97014L8.24254 7.97014L7.75746 6.02986L3.75746 7.02986L4.24254 8.97014ZM20.2425 7.02986L16.2425 6.02986L15.7575 7.97014L19.7575 8.97014L20.2425 7.02986ZM8 8H16V6H8V8Z" fill="black"/>
<path d="M3.99927 8C5.82368 10.4289 8.72836 12 12 12C15.2716 12 18.1763 10.4289 20.0007 8" stroke="black" stroke-width="2" stroke-linecap="round" stroke-linejoin="round"/>
<path d="M12 16L12.8321 15.4453C12.6466 15.1671 12.3344 15 12 15C11.6656 15 11.3534 15.1671 11.1679 15.4453L12 16ZM16 22V23C16.3688 23 16.7077 22.797 16.8817 22.4719C17.0557 22.1467 17.0366 21.7522 16.8321 21.4453L16 22ZM8 22L7.16795 21.4453C6.96338 21.7522 6.94431 22.1467 7.11833 22.4719C7.29234 22.797 7.6312 23 8 23V22ZM11.1679 16.5547L15.1679 22.5547L16.8321 21.4453L12.8321 15.4453L11.1679 16.5547ZM16 21H8V23H16V21ZM8.83205 22.5547L12.8321 16.5547L11.1679 15.4453L7.16795 21.4453L8.83205 22.5547Z" fill="black"/>
</svg>
