<svg width="24" height="24" viewBox="0 0 24 24" fill="none" xmlns="http://www.w3.org/2000/svg">
<path d="M9 7C9 5.34315 10.3431 4 12 4V2C9.23858 2 7 4.23858 7 7H9ZM12 4C13.6569 4 15 5.34315 15 7H17C17 4.23858 14.7614 2 12 2V4ZM4.24254 8.97014L8.24254 7.97014L7.75746 6.02986L3.75746 7.02986L4.24254 8.97014ZM20.2425 7.02986L16.2425 6.02986L15.7575 7.97014L19.7575 8.97014L20.2425 7.02986ZM8 8H16V6H8V8Z" fill="black"/>
<path d="M3.99927 8C5.82368 10.4289 8.72836 12 12 12C15.2716 12 18.1763 10.4289 20.0007 8" stroke="black" stroke-width="2" stroke-linecap="round" stroke-linejoin="round"/>
</svg>
