<svg width="24" height="24" viewBox="0 0 24 24" fill="none" xmlns="http://www.w3.org/2000/svg">
<path d="M9 7C9 5.34315 10.3431 4 12 4V2C9.23858 2 7 4.23858 7 7H9ZM12 4C13.6569 4 15 5.34315 15 7H17C17 4.23858 14.7614 2 12 2V4ZM4.24254 8.97014L8.24254 7.97014L7.75746 6.02986L3.75746 7.02986L4.24254 8.97014ZM20.2425 7.02986L16.2425 6.02986L15.7575 7.97014L19.7575 8.97014L20.2425 7.02986ZM8 8H16V6H8V8Z" fill="black"/>
<path d="M9.92848 16.3714C10.1336 15.8586 9.88417 15.2766 9.37139 15.0715C8.85861 14.8664 8.27664 15.1158 8.07152 15.6286L9.92848 16.3714ZM6.07152 20.6286C5.86641 21.1414 6.11583 21.7234 6.62861 21.9285C7.14139 22.1336 7.72336 21.8842 7.92848 21.3714L6.07152 20.6286ZM15.9285 15.6286C15.7234 15.1158 15.1414 14.8664 14.6286 15.0715C14.1158 15.2766 13.8664 15.8586 14.0715 16.3714L15.9285 15.6286ZM16.0715 21.3714C16.2766 21.8842 16.8586 22.1336 17.3714 21.9285C17.8842 21.7234 18.1336 21.1414 17.9285 20.6286L16.0715 21.3714ZM8.07152 15.6286L6.07152 20.6286L7.92848 21.3714L9.92848 16.3714L8.07152 15.6286ZM14.0715 16.3714L16.0715 21.3714L17.9285 20.6286L15.9285 15.6286L14.0715 16.3714Z" fill="black"/>
<path d="M3.99927 8C5.82368 10.4289 8.72836 12 12 12C15.2716 12 18.1763 10.4289 20.0007 8" stroke="black" stroke-width="2" stroke-linecap="round" stroke-linejoin="round"/>
</svg>
