<svg width="24" height="24" viewBox="0 0 24 24" fill="none" xmlns="http://www.w3.org/2000/svg">
<path d="M14 7V10M16 15L14 17L12 15M20 8V5C20 3.89543 19.1046 3 18 3H10C8.89543 3 8 3.89543 8 5V15M8 15V19C8 20.1046 8.89543 21 10 21H14M8 15H6C4.89543 15 4 14.1046 4 13V9M18 12H20V14" stroke="black" stroke-width="2" stroke-linecap="round" stroke-linejoin="round"/>
<path d="M18 18L22 22" stroke="black" stroke-width="2" stroke-linecap="round" stroke-linejoin="round"/>
<path d="M22 18L18 22" stroke="black" stroke-width="2" stroke-linecap="round" stroke-linejoin="round"/>
</svg>
