<svg width="24" height="24" viewBox="0 0 24 24" fill="none" xmlns="http://www.w3.org/2000/svg">
<path d="M14 7V10M16 15L14 17L12 15M20 8V5C20 3.89543 19.1046 3 18 3H10C8.89543 3 8 3.89543 8 5V15M8 15V19C8 20.1046 8.89543 21 10 21H14M8 15H6C4.89543 15 4 14.1046 4 13V9M18 12H20V14" stroke="black" stroke-width="2" stroke-linecap="round" stroke-linejoin="round"/>
<path d="M18.8944 17.5528C18.6474 17.0588 18.0468 16.8586 17.5528 17.1056C17.0588 17.3526 16.8586 17.9532 17.1056 18.4472L18.8944 17.5528ZM20 22L19.1056 22.4472C19.275 22.786 19.6212 23 20 23C20.3788 23 20.725 22.786 20.8944 22.4472L20 22ZM22.8944 18.4472C23.1414 17.9532 22.9412 17.3526 22.4472 17.1056C21.9532 16.8586 21.3526 17.0588 21.1056 17.5528L22.8944 18.4472ZM17.1056 18.4472L19.1056 22.4472L20.8944 21.5528L18.8944 17.5528L17.1056 18.4472ZM20.8944 22.4472L22.8944 18.4472L21.1056 17.5528L19.1056 21.5528L20.8944 22.4472Z" fill="black"/>
</svg>
