<svg width="24" height="24" viewBox="0 0 24 24" fill="none" xmlns="http://www.w3.org/2000/svg">
<path d="M19 3H5C3.89543 3 3 3.89543 3 5V19C3 20.1046 3.89543 21 5 21H19C20.1046 21 21 20.1046 21 19V5C21 3.89543 20.1046 3 19 3Z" stroke="black" stroke-width="2" stroke-linecap="round" stroke-linejoin="round"/>
<path d="M15 12C15 11.4477 14.5523 11 14 11C13.4477 11 13 11.4477 13 12H15ZM19 12C19 11.4477 18.5523 11 18 11C17.4477 11 17 11.4477 17 12H19ZM17 16C17 16.5523 16.5523 17 16 17V19C17.6569 19 19 17.6569 19 16H17ZM16 17C15.4477 17 15 16.5523 15 16H13C13 17.6569 14.3431 19 16 19V17ZM15 16V12H13V16H15ZM19 16V12H17V16H19Z" fill="black"/>
</svg>
