<svg width="24" height="24" viewBox="0 0 24 24" fill="none" xmlns="http://www.w3.org/2000/svg">
<path d="M19 21C19 21.5523 19.4477 22 20 22C20.5523 22 21 21.5523 21 21H19ZM8 15V14V15ZM4 19H3H4ZM3 21C3 21.5523 3.44772 22 4 22C4.55228 22 5 21.5523 5 21H3ZM1.70711 0.292893C1.31658 -0.0976311 0.683417 -0.0976311 0.292893 0.292893C-0.0976311 0.683417 -0.0976311 1.31658 0.292893 1.70711L1.70711 0.292893ZM22.2929 23.7071C22.6834 24.0976 23.3166 24.0976 23.7071 23.7071C24.0976 23.3166 24.0976 22.6834 23.7071 22.2929L22.2929 23.7071ZM9.49927 2.66952C9.02121 2.94607 8.85785 3.55779 9.13439 4.03585C9.41094 4.51392 10.0227 4.67728 10.5007 4.40073L9.49927 2.66952ZM14.5993 8.49927C14.3227 8.97733 14.4861 9.58906 14.9641 9.86561C15.4422 10.1421 16.0539 9.97879 16.3305 9.50073L14.5993 8.49927ZM8 14C6.67392 14 5.40215 14.5268 4.46447 15.4645L5.87868 16.8787C6.44129 16.3161 7.20435 16 8 16V14ZM4.46447 15.4645C3.52678 16.4021 3 17.6739 3 19H5C5 18.2044 5.31607 17.4413 5.87868 16.8787L4.46447 15.4645ZM3 19V21H5V19H3ZM11.118 9.86852C10.1712 9.57786 9.42214 8.82881 9.13148 7.88204L7.21955 8.469C7.70486 10.0498 8.9502 11.2951 10.531 11.7804L11.118 9.86852ZM12 4C13.6569 4 15 5.34315 15 7H17C17 4.23858 14.7614 2 12 2V4ZM0.292893 1.70711L7.46841 8.88263L8.88263 7.46841L1.70711 0.292893L0.292893 1.70711ZM7.46841 8.88263L10.1174 11.5316L11.5316 10.1174L8.88263 7.46841L7.46841 8.88263ZM10.1174 11.5316L14.2929 15.7071L15.7071 14.2929L11.5316 10.1174L10.1174 11.5316ZM15 14H8V16H15V14ZM14.2929 15.7071L19.2929 20.7071L20.7071 19.2929L15.7071 14.2929L14.2929 15.7071ZM19.2929 20.7071L22.2929 23.7071L23.7071 22.2929L20.7071 19.2929L19.2929 20.7071ZM21 21V20H19V21H21ZM10.5007 4.40073C10.941 4.14607 11.4519 4 12 4V2C11.0909 2 10.2357 2.24351 9.49927 2.66952L10.5007 4.40073ZM15 7C15 7.54809 14.8539 8.05903 14.5993 8.49927L16.3305 9.50073C16.7565 8.76427 17 7.90906 17 7H15Z" fill="black"/>
</svg>
