<svg width="24" height="24" viewBox="0 0 24 24" fill="none" xmlns="http://www.w3.org/2000/svg">
<path d="M5.96152 4.72528C5.8098 4.19424 5.25631 3.88675 4.72528 4.03848C4.19424 4.1902 3.88675 4.74369 4.03848 5.27472L5.96152 4.72528ZM9 19L8.03848 19.2747C8.16113 19.704 8.55352 20 9 20C9.44648 20 9.83887 19.704 9.96152 19.2747L9 19ZM13 5V4C12.5535 4 12.1611 4.29598 12.0385 4.72528L13 5ZM19 6C19.5523 6 20 5.55228 20 5C20 4.44772 19.5523 4 19 4V6ZM13 19L12.0385 19.2747C12.1611 19.704 12.5535 20 13 20V19ZM19 20C19.5523 20 20 19.5523 20 19C20 18.4477 19.5523 18 19 18V20ZM4.03848 5.27472L8.03848 19.2747L9.96152 18.7253L5.96152 4.72528L4.03848 5.27472ZM13 6H19V4H13V6ZM9.96152 19.2747L11.9615 12.2747L10.0385 11.7253L8.03848 18.7253L9.96152 19.2747ZM11.9615 12.2747L13.9615 5.27472L12.0385 4.72528L10.0385 11.7253L11.9615 12.2747ZM10.0385 12.2747L12.0385 19.2747L13.9615 18.7253L11.9615 11.7253L10.0385 12.2747ZM13 20H19V18H13V20Z" fill="black"/>
</svg>
