<svg width="24" height="24" viewBox="0 0 24 24" fill="none" xmlns="http://www.w3.org/2000/svg">
<path d="M23 7L16 12L23 17V7Z" stroke="black" stroke-width="2" stroke-linecap="round" stroke-linejoin="round"/>
<path d="M14 5H3C1.89543 5 1 5.89543 1 7V17C1 18.1046 1.89543 19 3 19H14C15.1046 19 16 18.1046 16 17V7C16 5.89543 15.1046 5 14 5Z" stroke="black" stroke-width="2" stroke-linecap="round" stroke-linejoin="round"/>
<path d="M6 9.5V8.5C5.44772 8.5 5 8.94772 5 9.5H6ZM11 9.5H12C12 8.94772 11.5523 8.5 11 8.5V9.5ZM11 14.5V15.5C11.5523 15.5 12 15.0523 12 14.5H11ZM6 14.5H5C5 15.0523 5.44772 15.5 6 15.5V14.5ZM6 10.5H11V8.5H6V10.5ZM10 9.5V14.5H12V9.5H10ZM11 13.5H6V15.5H11V13.5ZM7 14.5V9.5H5V14.5H7Z" fill="black"/>
</svg>
