<svg width="24" height="24" viewBox="0 0 24 24" fill="none" xmlns="http://www.w3.org/2000/svg">
<path d="M19.6957 7.0609L18.8485 6.52972L19.6957 7.0609ZM10.1193 18.682L11.0594 18.341L11.0394 18.2861L11.0133 18.2339L10.1193 18.682ZM4.23675 6.94473L5.13076 6.49667L5.12445 6.48409L5.11779 6.47169L4.23675 6.94473ZM7.83087 5.19382L6.91588 5.5973L6.92561 5.61936L6.93638 5.64092L7.83087 5.19382ZM13.8438 17.2238L14.7653 16.8354L14.7527 16.8056L14.7383 16.7767L13.8438 17.2238ZM19.7632 6.94473L18.8822 6.47169L19.7632 6.94473ZM18 7C17.4477 7 17 6.55228 17 6H15C15 7.65685 16.3431 9 18 9V7ZM17 6C17 5.44772 17.4477 5 18 5V3C16.3431 3 15 4.34315 15 6H17ZM18 5C18.5523 5 19 5.44772 19 6H21C21 4.34315 19.6569 3 18 3V5ZM18.8485 6.52972C18.67 6.81434 18.3563 7 18 7V9C19.0734 9 20.0142 8.43558 20.543 7.59208L18.8485 6.52972ZM5 6C5 5.44772 5.44772 5 6 5V3C4.34315 3 3 4.34315 3 6H5ZM12 19C11.569 19 11.1993 18.7269 11.0594 18.341L9.1792 19.0229C9.59692 20.1747 10.7008 21 12 21V19ZM5.11779 6.47169C5.0429 6.3322 5 6.17259 5 6H3C3 6.5108 3.12848 6.99456 3.35571 7.41778L5.11779 6.47169ZM11.0133 18.2339L5.13076 6.49667L3.34275 7.39279L9.22528 19.13L11.0133 18.2339ZM6 5C6.40732 5 6.75994 5.24365 6.91588 5.5973L8.74586 4.79035C8.28176 3.73787 7.22815 3 6 3V5ZM12.9223 17.6122C12.972 17.7301 13 17.8605 13 18H15C15 17.5889 14.9168 17.1948 14.7653 16.8354L12.9223 17.6122ZM6.93638 5.64092L12.9493 17.6709L14.7383 16.7767L8.72536 4.74673L6.93638 5.64092ZM13 18C13 18.1215 12.9788 18.2359 12.9406 18.341L14.8208 19.0229C14.9371 18.7024 15 18.3574 15 18H13ZM12.9406 18.341C12.8007 18.7269 12.431 19 12 19V21C13.2992 21 14.4031 20.1747 14.8208 19.0229L12.9406 18.341ZM19 6C19 6.17259 18.9571 6.3322 18.8822 6.47169L20.6443 7.41778C20.8715 6.99456 21 6.5108 21 6H19ZM18.8822 6.47169C18.8716 6.49141 18.8604 6.51076 18.8485 6.52972L20.543 7.59208C20.5786 7.53526 20.6124 7.47713 20.6443 7.41778L18.8822 6.47169ZM14.7747 19.13L20.6573 7.39279L18.8692 6.49667L12.9867 18.2339L14.7747 19.13Z" fill="black"/>
</svg>
