<svg width="24" height="33" viewBox="0 0 24 33" fill="none" xmlns="http://www.w3.org/2000/svg">
<path d="M12 22C12.5523 22 13 21.5523 13 21C13 20.4477 12.5523 20 12 20C11.4477 20 11 20.4477 11 21C11 21.5523 11.4477 22 12 22Z" stroke="black" stroke-width="2" stroke-linecap="round" stroke-linejoin="round"/>
<path d="M19 22C19.5523 22 20 21.5523 20 21C20 20.4477 19.5523 20 19 20C18.4477 20 18 20.4477 18 21C18 21.5523 18.4477 22 19 22Z" stroke="black" stroke-width="2" stroke-linecap="round" stroke-linejoin="round"/>
<path d="M5 22C5.55228 22 6 21.5523 6 21C6 20.4477 5.55228 20 5 20C4.44772 20 4 20.4477 4 21C4 21.5523 4.44772 22 5 22Z" stroke="black" stroke-width="2" stroke-linecap="round" stroke-linejoin="round"/>
<path d="M20 10H21C21 9.44772 20.5523 9 20 9V10ZM20 14L20 15C20.5523 15 21 14.5523 21 14H20ZM19 14L19 13C18.4477 13 18 13.4477 18 14H19ZM19 16V17C19.5523 17 20 16.5523 20 16H19ZM15 16H14C14 16.5523 14.4477 17 15 17V16ZM15 14H16C16 13.4477 15.5523 13 15 13V14ZM11.5 11H20V9H11.5V11ZM19 10V14H21V10H19ZM20 13L19 13L19 15L20 15L20 13ZM18 14V16H20V14H18ZM19 15H15V17H19V15ZM16 16V14H14V16H16ZM15 13H11.5V15H15V13Z" fill="black"/>
<path d="M10.5993 10.5007C10.8758 10.9788 11.4875 11.1421 11.9656 10.8656C12.4437 10.5891 12.607 9.97733 12.3305 9.49927L10.5993 10.5007ZM12.3305 14.5007C12.607 14.0227 12.4437 13.4109 11.9656 13.1344C11.4875 12.8579 10.8758 13.0212 10.5993 13.4993L12.3305 14.5007ZM8 15C6.34315 15 5 13.6569 5 12H3C3 14.7614 5.23858 17 8 17V15ZM5 12C5 10.3431 6.34315 9 8 9V7C5.23858 7 3 9.23858 3 12H5ZM8 9C9.10917 9 10.079 9.60141 10.5993 10.5007L12.3305 9.49927C11.4675 8.00738 9.85196 7 8 7V9ZM10.5993 13.4993C10.079 14.3986 9.10917 15 8 15V17C9.85196 17 11.4675 15.9926 12.3305 14.5007L10.5993 13.4993Z" fill="black"/>
<path d="M8 11C7.44772 11 7 11.4477 7 12C7 12.5523 7.44772 13 8 13V11ZM8.001 13C8.55328 13 9.001 12.5523 9.001 12C9.001 11.4477 8.55328 11 8.001 11V13ZM8 13H8.001V11H8V13Z" fill="black"/>
</svg>
