<svg width="24" height="24" viewBox="0 0 24 24" fill="none" xmlns="http://www.w3.org/2000/svg">
<path d="M4.5 14C4.5 14.5523 4.94772 15 5.5 15C6.05228 15 6.5 14.5523 6.5 14H4.5ZM5.5 10L6.20711 9.29289C5.92111 9.0069 5.49099 8.92134 5.11732 9.07612C4.74364 9.2309 4.5 9.59554 4.5 10H5.5ZM17 21.5L16.2929 22.2071C16.5758 22.49 17 22.577 17.3714 22.4285L17 21.5ZM22 19.5L22.3714 20.4285C22.751 20.2766 23 19.9089 23 19.5H22ZM22 4H23C23 3.5911 22.751 3.22339 22.3714 3.07152L22 4ZM17 2L17.3714 1.07152C16.9792 0.914667 16.5308 1.02109 16.251 1.33743L17 2ZM5.5 5L6.19048 4.27664C5.87051 3.97123 5.38791 3.9123 5.00386 4.13176L5.5 5ZM16.5 15.5L15.8095 16.2234C16.099 16.4997 16.5254 16.5768 16.8934 16.4194C17.2614 16.2619 17.5 15.9002 17.5 15.5H16.5ZM16.5 8.5H17.5C17.5 8.09554 17.2564 7.7309 16.8827 7.57612C16.509 7.42134 16.0789 7.5069 15.7929 7.79289L16.5 8.5ZM5.5 19.5L4.91876 20.3137C5.31655 20.5979 5.86145 20.5528 6.20711 20.2071L5.5 19.5ZM2 17H1C1 17.323 1.15597 17.626 1.41876 17.8137L2 17ZM2 7L1.50386 6.13176C1.19229 6.3098 1 6.64114 1 7H2ZM12.9186 12.0814L13.6091 11.358L12.9186 12.0814ZM10.25 14.75L10.9571 14.0429L10.25 14.75ZM10.2962 9.5782L9.60573 10.3016H9.60573L10.2962 9.5782ZM7.84694 12.3469L7.13983 13.054H7.13983L7.84694 12.3469ZM14.8975 8.68824C14.507 9.07877 14.507 9.71193 14.8975 10.1025C15.2881 10.493 15.9212 10.493 16.3118 10.1025L14.8975 8.68824ZM17.3714 22.4285L22.3714 20.4285L21.6286 18.5715L16.6286 20.5715L17.3714 22.4285ZM23 19.5V4H21V19.5H23ZM22.3714 3.07152L17.3714 1.07152L16.6286 2.92848L21.6286 4.92848L22.3714 3.07152ZM17.5 15.5V8.5H15.5V15.5H17.5ZM6.08124 18.6863L2.58124 16.1863L1.41876 17.8137L4.91876 20.3137L6.08124 18.6863ZM3 17V7H1V17H3ZM2.49614 7.86824L5.99614 5.86824L5.00386 4.13176L1.50386 6.13176L2.49614 7.86824ZM6.5 14V12H4.5V14H6.5ZM6.5 12V10H4.5V12H6.5ZM12.2281 12.8048L15.8095 16.2234L17.1905 14.7766L13.6091 11.358L12.2281 12.8048ZM6.20711 20.2071L10.9571 15.4571L9.54289 14.0429L4.79289 18.7929L6.20711 20.2071ZM9.54289 15.4571L16.2929 22.2071L17.7071 20.7929L10.9571 14.0429L9.54289 15.4571ZM11.0452 10.2408L17.749 2.66257L16.251 1.33743L9.54721 8.91563L11.0452 10.2408ZM4.80952 5.72336L9.60573 10.3016L10.9867 8.85484L6.19048 4.27664L4.80952 5.72336ZM9.60573 10.3016L12.2281 12.8048L13.6091 11.358L10.9867 8.85484L9.60573 10.3016ZM4.79289 10.7071L7.13983 13.054L8.55405 11.6398L6.20711 9.29289L4.79289 10.7071ZM7.13983 13.054L9.54289 15.4571L10.9571 14.0429L8.55405 11.6398L7.13983 13.054ZM15.7929 7.79289L14.8975 8.68824L16.3118 10.1025L17.2071 9.20711L15.7929 7.79289Z" fill="black"/>
</svg>
