<svg width="24" height="24" viewBox="0 0 24 24" fill="none" xmlns="http://www.w3.org/2000/svg">
<path d="M20 3H4C2.89543 3 2 3.89543 2 5V15C2 16.1046 2.89543 17 4 17H20C21.1046 17 22 16.1046 22 15V5C22 3.89543 21.1046 3 20 3Z" stroke="black" stroke-width="2" stroke-linecap="round" stroke-linejoin="round"/>
<path d="M8 21H16" stroke="black" stroke-width="2" stroke-linecap="round" stroke-linejoin="round"/>
<path d="M12 17V21" stroke="black" stroke-width="2" stroke-linecap="round" stroke-linejoin="round"/>
<path d="M4.05132 16.6838C3.87667 17.2077 4.15983 17.774 4.68377 17.9487C5.20772 18.1233 5.77404 17.8402 5.94868 17.3162L4.05132 16.6838ZM7 11L7.70711 10.2929C7.46204 10.0478 7.10755 9.94712 6.77025 10.0268C6.43294 10.1064 6.16091 10.355 6.05132 10.6838L7 11ZM8 12L7.29289 12.7071C7.52019 12.9344 7.84289 13.0386 8.16018 12.9871C8.47748 12.9356 8.75067 12.7347 8.89443 12.4472L8 12ZM11 6L11.8944 5.55279C11.725 5.214 11.3788 5 11 5C10.6212 5 10.275 5.214 10.1056 5.55279L11 6ZM13 10L12.1056 10.4472C12.2493 10.7347 12.5225 10.9356 12.8398 10.9871C13.1571 11.0386 13.4798 10.9344 13.7071 10.7071L13 10ZM14 9L14.8321 8.4453C14.6659 8.19602 14.3967 8.03439 14.0985 8.00487C13.8004 7.97535 13.5047 8.08105 13.2929 8.29289L14 9ZM16 12L15.1679 12.5547C15.3341 12.804 15.6033 12.9656 15.9015 12.9951C16.1996 13.0247 16.4953 12.919 16.7071 12.7071L16 12ZM17 11L17.8944 10.5528C17.7507 10.2653 17.4775 10.0644 17.1602 10.0129C16.8429 9.96142 16.5202 10.0656 16.2929 10.2929L17 11ZM19.1056 17.4472C19.3526 17.9412 19.9532 18.1414 20.4472 17.8944C20.9412 17.6474 21.1414 17.0468 20.8944 16.5528L19.1056 17.4472ZM5.94868 17.3162L7.94868 11.3162L6.05132 10.6838L4.05132 16.6838L5.94868 17.3162ZM6.29289 11.7071L7.29289 12.7071L8.70711 11.2929L7.70711 10.2929L6.29289 11.7071ZM8.89443 12.4472L11.8944 6.44721L10.1056 5.55279L7.10557 11.5528L8.89443 12.4472ZM10.1056 6.44721L12.1056 10.4472L13.8944 9.55279L11.8944 5.55279L10.1056 6.44721ZM13.7071 10.7071L14.7071 9.70711L13.2929 8.29289L12.2929 9.29289L13.7071 10.7071ZM13.1679 9.5547L15.1679 12.5547L16.8321 11.4453L14.8321 8.4453L13.1679 9.5547ZM16.7071 12.7071L17.7071 11.7071L16.2929 10.2929L15.2929 11.2929L16.7071 12.7071ZM16.1056 11.4472L19.1056 17.4472L20.8944 16.5528L17.8944 10.5528L16.1056 11.4472Z" fill="black"/>
</svg>
