<svg width="24" height="24" viewBox="0 0 24 24" fill="none" xmlns="http://www.w3.org/2000/svg">
<g clip-path="url(#clip0)">
<g clip-path="url(#clip1)">
<path d="M12.5 3.13397L12.5 3.13398L12.5039 3.13619L19.5 7.13398C19.5005 7.13428 19.5011 7.13459 19.5016 7.13489C19.6527 7.22253 19.7783 7.34826 19.8658 7.49955C19.9535 7.65138 19.9998 7.82361 20 7.99898V15.9969C19.9998 16.1723 19.9535 16.3445 19.8658 16.4963C19.7783 16.6476 19.6527 16.7734 19.5016 16.861C19.5011 16.8613 19.5005 16.8616 19.5 16.8619L12.5039 20.8597L12.5 20.8619C12.348 20.9497 12.1755 20.9959 12 20.9959C11.8245 20.9959 11.652 20.9497 11.5 20.8619L11.4961 20.8597L4.5 16.8619C4.49947 16.8616 4.49894 16.8613 4.49841 16.861C4.34725 16.7734 4.22168 16.6476 4.13423 16.4963C4.04654 16.3446 4.00026 16.1726 4 15.9974V7.99854C4.00026 7.82333 4.04654 7.65126 4.13423 7.49956C4.22168 7.34826 4.34725 7.22254 4.49841 7.1349C4.49894 7.13459 4.49947 7.13428 4.5 7.13398L11.4961 3.13619L11.4961 3.1362L11.5 3.13397C11.652 3.04621 11.8245 3 12 3C12.1755 3 12.348 3.04621 12.5 3.13397Z" stroke="black" stroke-width="2" stroke-linejoin="round"/>
</g>
<path d="M12 9.49982L11.3994 10.2994C11.7552 10.5666 12.2448 10.5666 12.6006 10.2994L12 9.49982ZM12 16L11.3604 16.7687C11.7311 17.0771 12.2689 17.0771 12.6396 16.7687L12 16ZM8.88964 13.4123L8.24511 14.1769L8.25008 14.1811L8.88964 13.4123ZM15.1104 13.4123L15.7499 14.1811L15.7549 14.1769L15.1104 13.4123ZM13.5 10C14.3284 10 15 10.6716 15 11.5H17C17 9.567 15.433 8 13.5 8V10ZM9 11.5C9 10.6716 9.67157 10 10.5 10V8C8.567 8 7 9.567 7 11.5H9ZM10.5 10C10.8388 10 11.1488 10.1111 11.3994 10.2994L12.6006 8.70025C12.0155 8.2608 11.2868 8 10.5 8V10ZM12.6006 10.2994C12.8512 10.1111 13.1612 10 13.5 10V8C12.7132 8 11.9845 8.2608 11.3994 8.70025L12.6006 10.2994ZM9.53416 12.6477C9.20589 12.371 9 11.96 9 11.5H7C7 12.5744 7.48533 13.5364 8.24512 14.1769L9.53416 12.6477ZM12.6396 15.2313L9.5292 12.6436L8.25008 14.1811L11.3604 16.7687L12.6396 15.2313ZM15 11.5C15 11.96 14.7941 12.371 14.4658 12.6477L15.7549 14.1769C16.5147 13.5364 17 12.5744 17 11.5H15ZM12.6396 16.7687L15.7499 14.1811L14.4708 12.6436L11.3604 15.2313L12.6396 16.7687Z" fill="black"/>
</g>
<defs>
<clipPath id="clip0">
<rect width="24" height="24" fill="white"/>
</clipPath>
<clipPath id="clip1">
<rect width="18" height="19.9959" fill="white" transform="translate(3 2)"/>
</clipPath>
</defs>
</svg>
