<svg width="24" height="24" viewBox="0 0 24 24" fill="none" xmlns="http://www.w3.org/2000/svg">
<path d="M19.7409 7C19.3996 6.4493 18.9939 5.93567 18.5291 5.47089C17.053 3.99479 15.0843 3.11502 13 3.00003H12.5C11.1801 2.99659 9.87812 3.30496 8.7 3.90003C7.28825 4.6056 6.10083 5.69028 5.27072 7.03258C4.44061 8.37488 4.00061 9.92179 4 11.5C3.99656 12.8199 4.30493 14.1219 4.9 15.3L3 21L8 19.3334" stroke="black" stroke-width="2" stroke-linecap="round" stroke-linejoin="round"/>
<path d="M22 21L21.6838 21.9487C22.0431 22.0685 22.4393 21.9749 22.7071 21.7071C22.9749 21.4393 23.0685 21.0431 22.9487 20.6838L22 21ZM21.225 18.675L20.3806 18.1393C20.2195 18.3932 20.1812 18.706 20.2763 18.9912L21.225 18.675ZM19.675 20.225L19.9912 19.2763C19.706 19.1812 19.3932 19.2195 19.1393 19.3806L19.675 20.225ZM17 20C14.7909 20 13 18.2091 13 16H11C11 19.3137 13.6863 22 17 22V20ZM13 16C13 13.7909 14.7909 12 17 12V10C13.6863 10 11 12.6863 11 16H13ZM17 12C19.2091 12 21 13.7909 21 16H23C23 12.6863 20.3137 10 17 10V12ZM21 16C21 16.7887 20.7728 17.5212 20.3806 18.1393L22.0694 19.2108C22.6588 18.2817 23 17.1792 23 16H21ZM22.9487 20.6838L22.1737 18.3588L20.2763 18.9912L21.0513 21.3162L22.9487 20.6838ZM19.1393 19.3806C18.5212 19.7728 17.7887 20 17 20V22C18.1792 22 19.2817 21.6588 20.2108 21.0694L19.1393 19.3806ZM22.3162 20.0513L19.9912 19.2763L19.3588 21.1737L21.6838 21.9487L22.3162 20.0513Z" fill="black"/>
<circle cx="15" cy="16" r="1" fill="black"/>
<circle cx="19" cy="16" r="1" fill="black"/>
<circle cx="8" cy="10" r="1" fill="black"/>
<circle cx="17" cy="10" r="1" fill="black"/>
<circle cx="15" cy="16" r="1" fill="black"/>
</svg>
