<svg width="24" height="24" viewBox="0 0 24 24" fill="none" xmlns="http://www.w3.org/2000/svg">
<path d="M19.7409 7C19.3996 6.4493 18.9939 5.93567 18.5291 5.47089C17.053 3.99479 15.0843 3.11502 13 3.00003H12.5C11.1801 2.99659 9.87812 3.30496 8.7 3.90003C7.28825 4.6056 6.10083 5.69028 5.27072 7.03258C4.44061 8.37488 4.00061 9.92179 4 11.5C3.99656 12.8199 4.30493 14.1219 4.9 15.3L3 21L8 19.3334" stroke="black" stroke-width="2" stroke-linecap="round" stroke-linejoin="round"/>
<path d="M20.6676 14.4004C20.8887 14.9065 21.4782 15.1375 21.9843 14.9164C22.4904 14.6952 22.7214 14.1057 22.5003 13.5996L20.6676 14.4004ZM13.3988 20.7995C13.8404 21.1312 14.4673 21.0422 14.799 20.6007C15.1307 20.1591 15.0417 19.5323 14.6002 19.2005L13.3988 20.7995ZM13 16C13 13.7909 14.7909 12 17 12V10C13.6863 10 11 12.6863 11 16H13ZM17 12C18.6387 12 20.0494 12.9856 20.6676 14.4004L22.5003 13.5996C21.5754 11.4826 19.4619 10 17 10V12ZM14.6002 19.2005C13.6266 18.469 13 17.3078 13 16H11C11 17.9634 11.9441 19.7065 13.3988 20.7995L14.6002 19.2005Z" fill="black"/>
<circle cx="15" cy="16" r="1" fill="black"/>
<circle cx="19" cy="16" r="1" fill="black"/>
<circle cx="8" cy="10" r="1" fill="black"/>
<circle cx="17" cy="10" r="1" fill="black"/>
<circle cx="15" cy="16" r="1" fill="black"/>
<circle cx="20" cy="20" r="2" stroke="black" stroke-width="2"/>
</svg>
