<svg width="24" height="24" viewBox="0 0 24 24" fill="none" xmlns="http://www.w3.org/2000/svg">
<path d="M14 19.866C13.507 19.9546 13.0051 19.9998 12.5 20C11.1801 20.0035 9.87812 19.6951 8.7 19.1L3 21L4.9 15.3C4.30493 14.1219 3.99656 12.8199 4 11.5C4.00061 9.92179 4.44061 8.37488 5.27072 7.03258C6.10083 5.69028 7.28825 4.6056 8.7 3.90003C9.87812 3.30496 11.1801 2.99659 12.5 3.00003H13C15.0843 3.11502 17.053 3.99479 18.5291 5.47089C20.0052 6.94699 20.885 8.91568 21 11V11.5C21.0022 12.3502 20.8751 13.193 20.6252 14" stroke="black" stroke-width="2" stroke-linecap="round" stroke-linejoin="round"/>
<path d="M15 15V16C15.2652 16 15.5196 15.8946 15.7071 15.7071L15 15ZM9 9L8.29289 8.29289C8.10536 8.48043 8 8.73478 8 9H9ZM10 8L10.7071 7.29289C10.5196 7.10536 10.2652 7 10 7C9.73478 7 9.48043 7.10536 9.29289 7.29289L10 8ZM11 9L11.7071 9.70711C12.0976 9.31658 12.0976 8.68342 11.7071 8.29289L11 9ZM16 14L16.7071 14.7071C17.0976 14.3166 17.0976 13.6834 16.7071 13.2929L16 14ZM15 13L15.7071 12.2929C15.3166 11.9024 14.6834 11.9024 14.2929 12.2929L15 13ZM13 16H15V14H13V16ZM8 9V11H10V9H8ZM9.70711 9.70711L10.7071 8.70711L9.29289 7.29289L8.29289 8.29289L9.70711 9.70711ZM9.29289 8.70711L10.2929 9.70711L11.7071 8.29289L10.7071 7.29289L9.29289 8.70711ZM10.2929 8.29289L8.29289 10.2929L9.70711 11.7071L11.7071 9.70711L10.2929 8.29289ZM15.7071 15.7071L16.7071 14.7071L15.2929 13.2929L14.2929 14.2929L15.7071 15.7071ZM16.7071 13.2929L15.7071 12.2929L14.2929 13.7071L15.2929 14.7071L16.7071 13.2929ZM14.2929 12.2929L12.2929 14.2929L13.7071 15.7071L15.7071 13.7071L14.2929 12.2929ZM9 11C8 11 8 11.0007 8 11.0015C8 11.0017 8 11.0025 8 11.003C8.00001 11.004 8.00001 11.005 8.00002 11.0061C8.00003 11.0081 8.00005 11.0103 8.00007 11.0125C8.00013 11.0169 8.00021 11.0216 8.00032 11.0265C8.00056 11.0364 8.00093 11.0473 8.0015 11.0592C8.00263 11.0829 8.00453 11.1107 8.00758 11.1422C8.01369 11.2054 8.02442 11.2836 8.04286 11.3758C8.07981 11.5606 8.14722 11.7988 8.26835 12.0814C8.51138 12.6485 8.96319 13.3774 9.79289 14.2071L11.2071 12.7929C10.5368 12.1226 10.2386 11.6015 10.1066 11.2936C10.0403 11.1387 10.0139 11.0332 10.004 10.9836C9.99902 10.9586 9.99803 10.947 9.99828 10.9496C9.9984 10.9509 9.99884 10.9556 9.99923 10.964C9.99943 10.9682 9.99963 10.9733 9.99977 10.9793C9.99984 10.9823 9.9999 10.9855 9.99994 10.989C9.99996 10.9907 9.99997 10.9925 9.99998 10.9943C9.99999 10.9952 9.99999 10.9962 10 10.9971C10 10.9976 10 10.9983 10 10.9985C10 10.9993 10 11 9 11ZM9.79289 14.2071C10.6226 15.0368 11.3515 15.4886 11.9186 15.7316C12.2012 15.8528 12.4394 15.9202 12.6242 15.9571C12.7164 15.9756 12.7946 15.9863 12.8578 15.9924C12.8893 15.9955 12.9171 15.9974 12.9408 15.9985C12.9527 15.9991 12.9636 15.9994 12.9735 15.9997C12.9784 15.9998 12.9831 15.9999 12.9875 15.9999C12.9897 16 12.9919 16 12.9939 16C12.995 16 12.996 16 12.997 16C12.9975 16 12.9983 16 12.9985 16C12.9993 16 13 16 13 15C13 14 13.0007 14 13.0015 14C13.0017 14 13.0024 14 13.0029 14C13.0038 14 13.0048 14 13.0057 14C13.0075 14 13.0093 14 13.011 14.0001C13.0145 14.0001 13.0177 14.0002 13.0207 14.0002C13.0267 14.0004 13.0318 14.0006 13.036 14.0008C13.0444 14.0012 13.0491 14.0016 13.0504 14.0017C13.053 14.002 13.0414 14.001 13.0164 13.996C12.9668 13.9861 12.8613 13.9597 12.7064 13.8934C12.3985 13.7614 11.8774 13.4632 11.2071 12.7929L9.79289 14.2071Z" fill="black"/>
<circle cx="20" cy="20" r="2" stroke="black" stroke-width="2"/>
</svg>
