<svg width="24" height="24" viewBox="0 0 24 24" fill="none" xmlns="http://www.w3.org/2000/svg">
<path d="M20.6252 14C20.8751 13.193 21.0022 12.3502 21 11.5V11C20.885 8.91568 20.0052 6.94699 18.5291 5.47089C17.053 3.99479 15.0843 3.11502 13 3.00003H12.5C11.1801 2.99659 9.87812 3.30496 8.7 3.90003C7.28825 4.6056 6.10083 5.69028 5.27072 7.03258C4.44061 8.37488 4.00061 9.92179 4 11.5C3.99656 12.8199 4.30493 14.1219 4.9 15.3L3 21L8.7 19.1C9.87812 19.6951 11.1801 20.0035 12.5 20C13.0051 19.9998 13.507 19.9546 14 19.866" stroke="black" stroke-width="2" stroke-linecap="round" stroke-linejoin="round"/>
<path d="M12.5 13C13.3284 13 14 12.3284 14 11.5C14 10.6716 13.3284 10 12.5 10C11.6716 10 11 10.6716 11 11.5C11 12.3284 11.6716 13 12.5 13Z" fill="black"/>
<path d="M16.5 13C17.3284 13 18 12.3284 18 11.5C18 10.6716 17.3284 10 16.5 10C15.6716 10 15 10.6716 15 11.5C15 12.3284 15.6716 13 16.5 13Z" fill="black"/>
<path d="M8.5 13C9.32843 13 10 12.3284 10 11.5C10 10.6716 9.32843 10 8.5 10C7.67157 10 7 10.6716 7 11.5C7 12.3284 7.67157 13 8.5 13Z" fill="black"/>
<circle cx="20" cy="20" r="2" stroke="black" stroke-width="2"/>
</svg>
