<svg width="24" height="24" viewBox="0 0 24 24" fill="none" xmlns="http://www.w3.org/2000/svg">
<path d="M2 9C3.85647 7.36358 5.81763 6.19313 7.99998 5.55701M22 9C20.1435 7.36358 18.1824 6.19313 16 5.55701" stroke="black" stroke-width="2" stroke-linecap="round" stroke-linejoin="round"/>
<path d="M12 21L11.2318 21.6402C11.4218 21.8682 11.7032 22 12 22C12.2968 22 12.5782 21.8682 12.7682 21.6402L12 21ZM22.7682 9.64018C23.1218 9.21591 23.0645 8.58534 22.6402 8.23178C22.2159 7.87821 21.5853 7.93554 21.2318 8.35982L22.7682 9.64018ZM1.23178 9.64018L11.2318 21.6402L12.7682 20.3598L2.76822 8.35982L1.23178 9.64018ZM12.7682 21.6402L22.7682 9.64018L21.2318 8.35982L11.2318 20.3598L12.7682 21.6402Z" fill="black"/>
<path d="M12 14.5H12.01" stroke="black" stroke-width="2" stroke-linecap="round" stroke-linejoin="round"/>
<path d="M12 6.5V10.5" stroke="black" stroke-width="2" stroke-linecap="round" stroke-linejoin="round"/>
</svg>
