<svg width="24" height="24" viewBox="0 0 24 24" fill="none" xmlns="http://www.w3.org/2000/svg">
<path d="M2 7.99734C4.92242 5.42131 8.10428 4 12 4C15.8957 4 19.0776 5.42131 22 7.99734" stroke="black" stroke-width="2" stroke-linecap="round" stroke-linejoin="round"/>
<path d="M12 19.9973L11.2318 20.6375C11.4218 20.8655 11.7032 20.9973 12 20.9973C12.2968 20.9973 12.5782 20.8655 12.7682 20.6375L12 19.9973ZM22.7682 8.6375C23.1218 8.21322 23.0645 7.58266 22.6402 7.22909C22.2159 6.87553 21.5853 6.93285 21.2318 7.35713L22.7682 8.6375ZM1.23178 8.6375L11.2318 20.6375L12.7682 19.3571L2.76822 7.35713L1.23178 8.6375ZM12.7682 20.6375L22.7682 8.6375L21.2318 7.35713L11.2318 19.3571L12.7682 20.6375Z" fill="black"/>
<circle cx="20" cy="20" r="2" stroke="black" stroke-width="2"/>
</svg>
