<svg width="24" height="24" viewBox="0 0 24 24" fill="none" xmlns="http://www.w3.org/2000/svg">
<path d="M2 7.99734L1.33875 7.24718C0.93255 7.60523 0.885131 8.22155 1.23178 8.63753L2 7.99734ZM22 7.99734L22.7682 8.63753C23.1149 8.22155 23.0674 7.60523 22.6613 7.24718L22 7.99734ZM12 19.9973L11.2318 20.6375C11.4218 20.8655 11.7032 20.9973 12 20.9973C12.2968 20.9973 12.5782 20.8655 12.7682 20.6375L12 19.9973ZM6.3385 13.2501C5.92432 13.6154 5.88472 14.2473 6.25005 14.6615C6.61539 15.0757 7.24731 15.1153 7.6615 14.7499L6.3385 13.2501ZM16.3385 14.7499C16.7527 15.1153 17.3846 15.0757 17.7499 14.6615C18.1153 14.2473 18.0757 13.6154 17.6615 13.2501L16.3385 14.7499ZM2.66125 8.74751C5.43295 6.30433 8.3872 5 12 5V3C7.82136 3 4.41189 4.53829 1.33875 7.24718L2.66125 8.74751ZM12 5C15.6128 5 18.5671 6.30434 21.3387 8.74751L22.6613 7.24718C19.5881 4.53829 16.1786 3 12 3V5ZM1.23178 8.63753L11.2318 20.6375L12.7682 19.3572L2.76822 7.35716L1.23178 8.63753ZM12.7682 20.6375L22.7682 8.63753L21.2318 7.35716L11.2318 19.3572L12.7682 20.6375ZM7.6615 14.7499C8.97203 13.594 10.3353 13 12 13V11C9.76901 11 7.9504 11.8283 6.3385 13.2501L7.6615 14.7499ZM12 13C13.6647 13 15.028 13.594 16.3385 14.7499L17.6615 13.2501C16.0496 11.8283 14.231 11 12 11V13Z" fill="black"/>
<circle cx="20" cy="20" r="2" stroke="black" stroke-width="2"/>
</svg>
