<svg width="24" height="24" viewBox="0 0 24 24" fill="none" xmlns="http://www.w3.org/2000/svg">
<path d="M4.5 11C6.69182 9.06669 9.07821 8 12 8C14.9218 8 17.3082 9.06669 19.5 11" stroke="black" stroke-width="2" stroke-linecap="round" stroke-linejoin="round"/>
<path d="M2 7.99734C4.92242 5.42131 8.10428 4 12 4C15.8957 4 19.0776 5.42131 22 7.99734" stroke="black" stroke-width="2" stroke-linecap="round" stroke-linejoin="round"/>
<path d="M12 19.9973L11.2318 20.6375C11.4218 20.8655 11.7032 20.9973 12 20.9973C12.2968 20.9973 12.5782 20.8655 12.7682 20.6375L12 19.9973ZM22.7682 8.63753C23.1218 8.21325 23.0645 7.58269 22.6402 7.22912C22.2159 6.87556 21.5853 6.93288 21.2318 7.35716L22.7682 8.63753ZM1.23178 8.63753L11.2318 20.6375L12.7682 19.3572L2.76822 7.35716L1.23178 8.63753ZM12.7682 20.6375L22.7682 8.63753L21.2318 7.35716L11.2318 19.3572L12.7682 20.6375Z" fill="black"/>
</svg>
