<svg width="24" height="24" viewBox="0 0 24 24" fill="none" xmlns="http://www.w3.org/2000/svg">
<path d="M12 14.5H12.01" stroke="black" stroke-width="2" stroke-linecap="round" stroke-linejoin="round"/>
<path d="M9.17 6.50448C9.4051 5.83614 9.86915 5.27258 10.48 4.91361C11.0908 4.55463 11.8089 4.42341 12.5072 4.54319C13.2055 4.66296 13.8388 5.026 14.2951 5.568C14.7513 6.11001 15.0011 6.796 15 7.50448C15 9.50448 12 10.5045 12 10.5045" stroke="black" stroke-width="2" stroke-linecap="round" stroke-linejoin="round"/>
<path d="M2.00002 9.00001C2.96618 8.14836 3.9607 7.42292 5 6.83333M22 9.00001C21.0338 8.14835 20.0393 7.42291 19 6.83331" stroke="black" stroke-width="2" stroke-linecap="round" stroke-linejoin="round"/>
<path d="M12 21L11.2318 21.6402C11.4218 21.8682 11.7032 22 12 22C12.2968 22 12.5782 21.8682 12.7682 21.6402L12 21ZM22.7682 9.64018C23.1218 9.21591 23.0644 8.58534 22.6402 8.23178C22.2159 7.87821 21.5853 7.93554 21.2318 8.35982L22.7682 9.64018ZM1.23176 9.64018L11.2318 21.6402L12.7682 20.3598L2.76821 8.35982L1.23176 9.64018ZM12.7682 21.6402L22.7682 9.64018L21.2318 8.35982L11.2318 20.3598L12.7682 21.6402Z" fill="black"/>
</svg>
