<svg width="24" height="24" viewBox="0 0 24 24" fill="none" xmlns="http://www.w3.org/2000/svg">
<path d="M2 7.99734C4.92242 5.42131 8.10428 4 12 4C15.8957 4 19.0776 5.42131 22 7.99734" stroke="black" stroke-width="2" stroke-linecap="round" stroke-linejoin="round"/>
<path d="M12 19.9973L11.2318 20.6375C11.4218 20.8655 11.7032 20.9973 12 20.9973C12.2968 20.9973 12.5782 20.8655 12.7682 20.6375L12 19.9973ZM16.0993 16.6402C16.4529 16.2159 16.3956 15.5853 15.9713 15.2318C15.547 14.8782 14.9164 14.9355 14.5629 15.3598L16.0993 16.6402ZM9.43712 15.3598C9.08356 14.9355 8.45299 14.8782 8.02872 15.2318C7.60444 15.5853 7.54711 16.2159 7.90068 16.6402L9.43712 15.3598ZM12.7682 20.6375L16.0993 16.6402L14.5629 15.3598L11.2318 19.3571L12.7682 20.6375ZM7.90068 16.6402L11.2318 20.6375L12.7682 19.3571L9.43712 15.3598L7.90068 16.6402Z" fill="black"/>
<path d="M12 13C12.5523 13 13 12.5523 13 12C13 11.4477 12.5523 11 12 11C11.4477 11 11 11.4477 11 12C11 12.5523 11.4477 13 12 13Z" stroke="black" stroke-width="2" stroke-linecap="round" stroke-linejoin="round"/>
<path d="M19 13C19.5523 13 20 12.5523 20 12C20 11.4477 19.5523 11 19 11C18.4477 11 18 11.4477 18 12C18 12.5523 18.4477 13 19 13Z" stroke="black" stroke-width="2" stroke-linecap="round" stroke-linejoin="round"/>
<path d="M5 13C5.55228 13 6 12.5523 6 12C6 11.4477 5.55228 11 5 11C4.44772 11 4 11.4477 4 12C4 12.5523 4.44772 13 5 13Z" stroke="black" stroke-width="2" stroke-linecap="round" stroke-linejoin="round"/>
</svg>
