<svg width="24" height="24" viewBox="0 0 24 24" fill="none" xmlns="http://www.w3.org/2000/svg">
<path d="M19.9829 4.18429C20.0847 3.64146 19.7271 3.11891 19.1843 3.01713C18.6415 2.91535 18.1189 3.27289 18.0171 3.81571L19.9829 4.18429ZM16 20L15.0838 20.4008C15.2597 20.8029 15.6772 21.0433 16.1133 20.9936C16.5493 20.9438 16.902 20.6156 16.9829 20.1843L16 20ZM12.5 12L13.4162 11.5992C13.2569 11.2352 12.8973 11 12.5 11C12.1027 11 11.7431 11.2352 11.5838 11.5992L12.5 12ZM9 20L8.01713 20.1843C8.09801 20.6156 8.45067 20.9438 8.88671 20.9936C9.32275 21.0433 9.74025 20.8029 9.91616 20.4008L9 20ZM6.98287 3.81571C6.88109 3.27289 6.35854 2.91535 5.81571 3.01713C5.27289 3.11891 4.91535 3.64146 5.01713 4.18429L6.98287 3.81571ZM18.0171 3.81571L15.0171 19.8157L16.9829 20.1843L19.9829 4.18429L18.0171 3.81571ZM16.9162 19.5992L13.4162 11.5992L11.5838 12.4008L15.0838 20.4008L16.9162 19.5992ZM11.5838 11.5992L8.08384 19.5992L9.91616 20.4008L13.4162 12.4008L11.5838 11.5992ZM9.98287 19.8157L6.98287 3.81571L5.01713 4.18429L8.01713 20.1843L9.98287 19.8157Z" fill="black"/>
</svg>
