<svg width="24" height="24" viewBox="0 0 24 24" fill="none" xmlns="http://www.w3.org/2000/svg">
<path d="M18.7071 5.70711C19.0976 5.31658 19.0976 4.68342 18.7071 4.29289C18.3166 3.90237 17.6834 3.90237 17.2929 4.29289L18.7071 5.70711ZM6.70711 4.29289C6.31658 3.90237 5.68342 3.90237 5.29289 4.29289C4.90237 4.68342 4.90237 5.31658 5.29289 5.70711L6.70711 4.29289ZM14 20C14.5523 20 15 19.5523 15 19C15 18.4477 14.5523 18 14 18V20ZM10 18C9.44772 18 9 18.4477 9 19C9 19.5523 9.44772 20 10 20V18ZM13 19V11H11V19H13ZM12.7071 11.7071L18.7071 5.70711L17.2929 4.29289L11.2929 10.2929L12.7071 11.7071ZM12.7071 10.2929L6.70711 4.29289L5.29289 5.70711L11.2929 11.7071L12.7071 10.2929ZM12 20H14V18H12V20ZM12 18H10V20H12V18Z" fill="black"/>
</svg>
