<svg width="24" height="24" viewBox="0 0 24 24" fill="none" xmlns="http://www.w3.org/2000/svg">
<g clip-path="url(#clip0)">
<path d="M22.5406 6.42L23.5247 6.24249C23.5207 6.22057 23.5161 6.19879 23.5106 6.17719L22.5406 6.42ZM20.6006 4.42L20.8728 3.45777C20.8612 3.45448 20.8495 3.45141 20.8378 3.44854L20.6006 4.42ZM12.0006 4V3V4ZM3.40057 4.46L3.14221 3.49395C3.13758 3.49519 3.13295 3.49646 3.12834 3.49777L3.40057 4.46ZM1.46057 6.46L0.490497 6.21719C0.485087 6.23881 0.4804 6.2606 0.476446 6.28253L1.46057 6.46ZM1.00057 11.75L2.00061 11.7563L2.00056 11.7451L1.00057 11.75ZM1.46057 17.08L0.476453 17.2575C0.482312 17.29 0.489774 17.3222 0.498813 17.3539L1.46057 17.08ZM3.40057 19L3.13665 19.9646L3.14221 19.966L3.40057 19ZM12.0006 19.46V18.46V19.46ZM23.0006 11.75L22.0005 11.7437L22.0006 11.7536L23.0006 11.75ZM1.70711 0.292893C1.31658 -0.0976311 0.683417 -0.0976311 0.292893 0.292893C-0.0976311 0.683417 -0.0976311 1.31658 0.292893 1.70711L1.70711 0.292893ZM22.2929 23.7071C22.6834 24.0976 23.3166 24.0976 23.7071 23.7071C24.0976 23.3166 24.0976 22.6834 23.7071 22.2929L22.2929 23.7071ZM10.99 3.00619C10.4377 3.01171 9.99452 3.46389 10 4.01614C10.0056 4.5684 10.4577 5.01161 11.01 5.00609L10.99 3.00619ZM21.7132 15.857C21.6342 16.4037 22.0133 16.9108 22.5599 16.9897C23.1065 17.0687 23.6137 16.6896 23.6926 16.143L21.7132 15.857ZM23.5106 6.17719C23.3491 5.53189 23.0202 4.94063 22.557 4.46315L21.1214 5.85566C21.3395 6.08051 21.4944 6.35893 21.5705 6.66281L23.5106 6.17719ZM22.557 4.46315C22.0939 3.98566 21.5129 3.63886 20.8728 3.45777L20.3283 5.38223C20.6298 5.46751 20.9033 5.63082 21.1214 5.85566L22.557 4.46315ZM20.8378 3.44854C20.3121 3.32017 19.4773 3.23798 18.5976 3.1794C17.6921 3.11909 16.6562 3.07928 15.6827 3.05287C14.7077 3.02641 13.7878 3.01321 13.1122 3.00661C12.7742 3.00331 12.4969 3.00166 12.3038 3.00083C12.2073 3.00042 12.1318 3.00021 12.0803 3.0001C12.0545 3.00005 12.0347 3.00003 12.0213 3.00001C12.0146 3.00001 12.0095 3 12.006 3C12.0043 3 12.003 3 12.0021 3C12.0016 3 12.0013 3 12.001 3C12.0009 3 12.0008 3 12.0007 3C12.0006 3 12.0006 3 12.0006 4C12.0006 5 12.0006 5 12.0006 5C12.0006 5 12.0007 5 12.0008 5C12.0009 5 12.0012 5 12.0016 5C12.0023 5 12.0035 5 12.0051 5C12.0082 5 12.013 5.00001 12.0194 5.00001C12.0321 5.00002 12.0512 5.00005 12.0762 5.0001C12.1263 5.0002 12.2003 5.0004 12.2953 5.00081C12.4852 5.00162 12.7588 5.00325 13.0927 5.00652C13.7608 5.01304 14.6685 5.02609 15.6285 5.05213C16.5899 5.07822 17.5965 5.11716 18.4647 5.17498C19.3589 5.23452 20.0291 5.30983 20.3634 5.39146L20.8378 3.44854ZM3.12834 3.49777C2.48825 3.67886 1.90729 4.02566 1.44413 4.50315L2.87971 5.89566C3.09781 5.67082 3.37139 5.50751 3.6728 5.42223L3.12834 3.49777ZM1.44413 4.50315C0.980967 4.98063 0.652015 5.57189 0.490497 6.21719L2.43065 6.70281C2.50671 6.39893 2.66161 6.12051 2.87971 5.89566L1.44413 4.50315ZM0.476446 6.28253C0.150806 8.08827 -0.00848246 9.92009 0.000583827 11.7549L2.00056 11.7451C1.9921 10.0325 2.14077 8.32284 2.4447 6.63747L0.476446 6.28253ZM0.000591338 11.7437C-0.0110162 13.5924 0.148282 15.4382 0.476453 17.2575L2.44469 16.9025C2.1384 15.2044 1.98972 13.4817 2.00055 11.7563L0.000591338 11.7437ZM0.498813 17.3539C0.67688 17.9792 1.0132 18.5479 1.47528 19.0052L2.88215 17.5837C2.66456 17.3684 2.50618 17.1005 2.42233 16.8061L0.498813 17.3539ZM1.47528 19.0052C1.93736 19.4626 2.50958 19.793 3.13665 19.9645L3.66449 18.0355C3.3692 17.9547 3.09974 17.7991 2.88215 17.5837L1.47528 19.0052ZM3.14221 19.966C3.67586 20.1088 4.5179 20.1992 5.3972 20.2633C6.30447 20.3295 7.34174 20.3731 8.31587 20.4021C9.2916 20.4311 10.212 20.4455 10.888 20.4528C11.2262 20.4564 11.5037 20.4582 11.6969 20.4591C11.7935 20.4595 11.8691 20.4598 11.9207 20.4599C11.9465 20.4599 11.9663 20.46 11.9797 20.46C11.9864 20.46 11.9916 20.46 11.995 20.46C11.9968 20.46 11.9981 20.46 11.9991 20.46C11.9995 20.46 11.9999 20.46 12.0001 20.46C12.0003 20.46 12.0004 20.46 12.0004 20.46C12.0005 20.46 12.0006 20.46 12.0006 19.46C12.0006 18.46 12.0006 18.46 12.0006 18.46C12.0005 18.46 12.0005 18.46 12.0004 18.46C12.0002 18.46 12 18.46 11.9996 18.46C11.9988 18.46 11.9977 18.46 11.9961 18.46C11.993 18.46 11.9882 18.46 11.9819 18.46C11.9692 18.46 11.9501 18.4599 11.9251 18.4599C11.8751 18.4598 11.8011 18.4596 11.7063 18.4591C11.5165 18.4582 11.2431 18.4564 10.9094 18.4529C10.2416 18.4457 9.33455 18.4314 8.37527 18.4029C7.4144 18.3744 6.40917 18.3318 5.54269 18.2686C4.64824 18.2033 3.98529 18.1212 3.65893 18.034L3.14221 19.966ZM24.0006 11.7563C24.0122 9.90761 23.8529 8.06183 23.5247 6.24249L21.5565 6.59751C21.8627 8.29557 22.0114 10.0183 22.0006 11.7437L24.0006 11.7563ZM18.5023 19.9165L22.2929 23.7071L23.7071 22.2929L19.9165 18.5023L18.5023 19.9165ZM12.0006 19.46C12.0006 20.46 12.0006 20.46 12.0007 20.46C12.0007 20.46 12.0008 20.46 12.0009 20.46C12.0011 20.46 12.0013 20.46 12.0016 20.46C12.0023 20.46 12.0032 20.46 12.0043 20.46C12.0067 20.46 12.0102 20.46 12.0147 20.46C12.0238 20.46 12.0371 20.46 12.0545 20.4599C12.0894 20.4599 12.1407 20.4597 12.2066 20.4595C12.3386 20.459 12.5297 20.458 12.7669 20.456C13.2413 20.4521 13.9013 20.4442 14.644 20.4284C16.1209 20.3971 17.9552 20.334 19.3046 20.2048L19.1141 18.2139C17.8444 18.3354 16.0742 18.3976 14.6015 18.4289C13.8694 18.4444 13.2183 18.4522 12.7503 18.4561C12.5164 18.4581 12.3284 18.459 12.1991 18.4595C12.1345 18.4598 12.0846 18.4599 12.051 18.4599C12.0342 18.46 12.0214 18.46 12.0129 18.46C12.0087 18.46 12.0055 18.46 12.0035 18.46C12.0024 18.46 12.0017 18.46 12.0012 18.46C12.001 18.46 12.0008 18.46 12.0007 18.46C12.0006 18.46 12.0006 18.46 12.0006 18.46C12.0006 18.46 12.0006 18.46 12.0006 19.46ZM0.292893 1.70711L3.5962 5.01041L5.01041 3.5962L1.70711 0.292893L0.292893 1.70711ZM3.5962 5.01041L18.5023 19.9165L19.9165 18.5023L5.01041 3.5962L3.5962 5.01041ZM4.18216 3.31067C3.79776 3.35758 3.43328 3.41611 3.14221 3.49395L3.65893 5.42605C3.81377 5.38464 4.06859 5.33937 4.42445 5.29594L4.18216 3.31067ZM12.0006 4C12.0006 3 12.0006 3 12.0006 3C12.0005 3 12.0005 3 12.0005 3C12.0005 3 12.0005 3 12.0004 3C12.0004 3 12.0003 3 12.0002 3C11.9999 3 11.9996 3 11.9992 3C11.9984 3 11.9971 3 11.9956 3C11.9924 3 11.9878 3.00001 11.9817 3.00001C11.9696 3.00002 11.9517 3.00005 11.9284 3.0001C11.8818 3.0002 11.8135 3.00039 11.7259 3.00078C11.5508 3.00155 11.2988 3.0031 10.99 3.00619L11.01 5.00609C11.3147 5.00304 11.5629 5.00152 11.7348 5.00076C11.8207 5.00038 11.8875 5.00019 11.9326 5.00009C11.9552 5.00005 11.9723 5.00002 11.9838 5.00001C11.9895 5.00001 11.9938 5 11.9966 5C11.998 5 11.999 5 11.9997 5C12 5 12.0003 5 12.0004 5C12.0005 5 12.0005 5 12.0006 5C12.0006 5 12.0006 5 12.0006 5C12.0006 5 12.0006 5 12.0006 5C12.0006 5 12.0006 5 12.0006 4ZM23.6926 16.143C23.9029 14.6874 24.0059 13.218 24.0006 11.7464L22.0006 11.7536C22.0055 13.127 21.9094 14.4986 21.7132 15.857L23.6926 16.143Z" fill="black"/>
</g>
<defs>
<clipPath id="clip0">
<path d="M0 0H24V24H0V0Z" fill="white"/>
</clipPath>
</defs>
</svg>
