<svg width="24" height="24" viewBox="0 0 24 24" fill="none" xmlns="http://www.w3.org/2000/svg">
<path d="M9 13C9 14.1046 9.89543 15 11 15C11.5523 15 12.0523 14.7761 12.4142 14.4142L21.4142 5.4142C21.7761 5.05227 22 4.55228 22 4C22 2.89543 21.1046 2 20 2C19.4477 2 18.9477 2.22385 18.5858 2.58576L9.58579 11.5858C9.22386 11.9477 9 12.4477 9 13Z" stroke="black" stroke-width="2"/>
<path d="M8 20V19C7.44772 19 7 19.4477 7 20H8ZM2 21C1.44772 21 1 21.4477 1 22C1 22.5523 1.44772 23 2 23V21ZM5 17C5 15.8954 5.89543 15 7 15V13C4.79086 13 3 14.7909 3 17H5ZM7 15C8.10457 15 9 15.8954 9 17H11C11 14.7909 9.20914 13 7 13V15ZM7 20C7 20.5523 6.55228 21 6 21V23C7.65685 23 9 21.6569 9 20H7ZM3 20C3 20.5523 2.55228 21 2 21V23C3.65685 23 5 21.6569 5 20H3ZM5 20V17H3V20H5ZM2 23H6V21H2V23ZM9 18C9 18.5523 8.55228 19 8 19V21C9.65685 21 11 19.6569 11 18H9ZM11 18V17H9V18H11Z" fill="black"/>
</svg>
